<svg width="48" height="48" viewBox="0 0 48 48" fill="none" xmlns="http://www.w3.org/2000/svg">
<path d="M14 6.5H34C35.8996 6.5 37.2741 6.50071 38.3223 6.6416C39.3561 6.78059 39.9972 7.04799 40.4746 7.52539C40.952 8.00279 41.2194 8.64392 41.3584 9.67773C41.4993 10.7259 41.5 12.1004 41.5 14V34C41.5 35.8996 41.4993 37.2741 41.3584 38.3223C41.2194 39.3561 40.952 39.9972 40.4746 40.4746C39.9972 40.952 39.3561 41.2194 38.3223 41.3584C37.2741 41.4993 35.8996 41.5 34 41.5H14C12.1004 41.5 10.7259 41.4993 9.67773 41.3584C8.64392 41.2194 8.00279 40.952 7.52539 40.4746C7.04799 39.9972 6.78059 39.3561 6.6416 38.3223C6.50071 37.2741 6.5 35.8996 6.5 34V14C6.5 12.1004 6.50071 10.7259 6.6416 9.67773C6.78059 8.64392 7.04799 8.00279 7.52539 7.52539C8.00279 7.04799 8.64392 6.78059 9.67773 6.6416C10.7259 6.50071 12.1004 6.5 14 6.5Z" stroke="#B76E79"/>
<path d="M24 16L24 32" stroke="#B76E79" stroke-linejoin="round"/>
<path d="M32 24L16 24" stroke="#B76E79" stroke-linejoin="round"/>
</svg>
