<svg width="136" height="136" viewBox="0 0 136 136" fill="none" xmlns="http://www.w3.org/2000/svg">
<path fill-rule="evenodd" clip-rule="evenodd" d="M20.65 0H114.44C119.913 0.0158167 125.157 2.19621 129.028 6.06512C132.899 9.93404 135.082 15.1772 135.1 20.65V114.49C135.082 119.963 132.899 125.206 129.028 129.075C125.157 132.944 119.913 135.124 114.44 135.14H20.65C15.1781 135.124 9.93493 132.943 6.06573 129.074C2.19653 125.205 0.01583 119.962 0 114.49V20.65C0.01583 15.1781 2.19653 9.93493 6.06573 6.06573C9.93493 2.19653 15.1781 0.01583 20.65 0ZM87.75 52C88.08 52 88.1 52.6 87.75 53.79C87.4086 55.1183 86.9947 56.4269 86.51 57.71C86.0217 59.0474 85.4229 60.3419 84.72 61.58C84.06 62.73 83.53 63.25 83.14 63.11C82.2954 63.0615 81.4481 63.095 80.61 63.21C79.19 63.35 77.38 63.54 75.2 63.81C73.02 64.08 70.56 64.4 67.81 64.81C65.06 65.22 62.27 65.64 59.43 66.1L54.97 127.9C54.6053 128.147 54.1695 128.266 53.73 128.24C53.0576 128.273 52.384 128.209 51.73 128.05C51.0379 127.874 50.3672 127.622 49.73 127.3C49.1571 127.053 48.6725 126.638 48.34 126.11C48.4666 120.11 48.6633 113.83 48.93 107.27C49.13 101.643 49.33 95.3766 49.53 88.47C49.73 81.5633 49.96 74.6033 50.22 67.59C47.65 68.05 45.22 68.5 42.98 68.93C40.74 69.36 38.77 69.77 37.08 70.17C35.7625 70.4495 34.4687 70.8307 33.21 71.31C32.3167 71.67 31.9367 71.95 32.07 72.15C31.94 72.28 31.71 72.07 31.38 71.51C31.009 70.872 30.6944 70.2028 30.44 69.51C30.14 68.72 29.89 67.97 29.69 67.28C29.49 66.59 29.46 66.17 29.59 66.04C29.46 65.58 29.94 65.04 31.03 64.5C32.4873 63.7961 33.9948 63.2011 35.54 62.72C37.46 62.0866 39.71 61.4567 42.29 60.83C44.87 60.2034 47.6134 59.56 50.52 58.9C50.6534 54.0666 50.7866 49.4866 50.92 45.16C51.0533 40.8333 51.17 37.03 51.27 33.75C51.37 30.48 51.43 27.88 51.46 25.97C51.49 24.06 51.51 23.06 51.51 22.97C51.32 22.51 51.68 22.18 52.61 21.97C53.7216 21.7648 54.8581 21.7311 55.98 21.87C57.3139 22.0027 58.6288 22.2844 59.9 22.71C60.9701 22.9796 61.9031 23.6349 62.52 24.55L60.14 56.88C63.58 56.2133 66.9133 55.5867 70.14 55C73.38 54.4 76.28 53.89 78.82 53.46L85.02 52.46C86.61 52.2 87.5 52.06 87.7 52.06L87.75 52ZM123.36 7.37C123.514 7.95031 123.581 8.55003 123.56 9.14996C123.63 10.34 123.69 11.66 123.76 13.15C123.82 14.87 123.86 16.79 123.86 18.9C121.128 18.0843 118.314 17.5713 115.47 17.37C111.803 17.0033 107.59 16.77 102.83 16.67C98.07 16.57 92.91 16.62 87.35 16.82C81.8033 17.02 76.1366 17.3533 70.35 17.82C64.5633 18.2867 58.8733 18.8433 53.28 19.49C47.6266 20.1567 42.32 20.95 37.36 21.87C32.4 22.79 27.9534 23.79 24.02 24.87C20.7624 25.7279 17.6149 26.9594 14.64 28.54C13.8276 28.0934 13.0635 27.5639 12.36 26.96C11.8824 26.577 11.5335 26.057 11.36 25.47C11.23 24.94 11.56 24.47 12.36 24.08C16.7389 21.8661 21.3029 20.0391 26 18.62C31.1333 17.04 36.5567 15.6366 42.27 14.41C47.9834 13.1833 53.8367 12.14 59.83 11.28C65.83 10.42 71.6967 9.69331 77.43 9.09998C83.1633 8.50664 88.6366 8.04329 93.85 7.70996C99.0433 7.37663 103.69 7.14669 107.79 7.02002C111.89 6.89002 115.31 6.84998 118.05 6.91998C119.828 6.90387 121.604 7.0377 123.36 7.32001V7.37Z" fill="#2C3E50"/>
</svg>
