<svg width="108" height="60" viewBox="0 0 108 60" fill="none" xmlns="http://www.w3.org/2000/svg">
<path d="M33.5763 17.1833C33.7137 17.1833 33.7247 17.4086 33.5763 17.8648C33.4201 18.3726 33.2366 18.8717 33.0267 19.3598C32.8166 19.8726 32.561 20.3656 32.2627 20.8327C31.9824 21.2724 31.7571 21.4703 31.5867 21.4208C31.2199 21.399 30.8518 21.4118 30.4875 21.4593C29.8829 21.5088 29.1079 21.5857 28.1791 21.6846C27.2502 21.7836 26.1895 21.91 25.0188 22.0639C23.8481 22.2178 22.6499 22.3772 21.4353 22.553L19.5886 46.1371C19.4217 46.2327 19.231 46.2785 19.039 46.269C18.7547 46.2777 18.4705 46.2518 18.1925 46.1921C17.8941 46.1268 17.6031 46.031 17.3241 45.9063C17.086 45.8182 16.8794 45.6613 16.7306 45.4556C16.7855 43.1582 16.8698 40.7618 16.9834 38.2666C17.0713 36.1231 17.1556 33.7414 17.2362 31.1216C17.3168 28.5017 17.4158 25.8471 17.533 23.1576C16.4338 23.3335 15.4023 23.5039 14.4387 23.6687C13.4768 23.8281 12.6359 23.9875 11.9159 24.1414C11.3573 24.2494 10.8065 24.3945 10.2671 24.5756C9.88783 24.713 9.71745 24.8175 9.7834 24.8944C9.72294 24.9439 9.62401 24.8944 9.4866 24.6526C9.32675 24.4058 9.19057 24.1445 9.07989 23.8721C8.95348 23.5698 8.84904 23.2895 8.7611 23.0257C8.67316 22.7619 8.66219 22.6025 8.72264 22.553C8.66219 22.3717 8.87104 22.1793 9.33821 21.9649C9.96343 21.6901 10.6083 21.4623 11.2674 21.2834C12.0863 21.0416 13.0481 20.8053 14.1474 20.5634C15.2466 20.3216 16.4228 20.0798 17.6704 19.8269C17.7254 17.9949 17.7803 16.2489 17.8353 14.5891C17.8902 12.9292 17.9397 11.4782 17.9837 10.2361C18.0276 8.98847 18.0551 7.99918 18.0716 7.26819C18.0881 6.5372 18.0716 6.16895 18.0716 6.13048C17.9837 5.9546 18.1431 5.82819 18.5388 5.75124C19.015 5.6753 19.4992 5.66236 19.9788 5.71276C20.5467 5.7666 21.1081 5.87518 21.6551 6.03702C22.0907 6.13695 22.4787 6.38336 22.7544 6.73504L21.787 19.0465C23.2545 18.7937 24.6835 18.5573 26.0686 18.3265C27.4536 18.0956 28.6902 17.9088 29.7785 17.7439L32.4276 17.3481C33.1091 17.2437 33.4884 17.1943 33.5763 17.1943V17.1833ZM48.7952 0.14514C48.8282 0.14514 48.8557 0.370473 48.8832 0.821159C48.9106 1.27184 48.9381 1.78299 48.9656 2.33811C48.9656 2.99215 49.0096 3.72314 49.0096 4.53658C47.8337 4.23916 46.6317 4.05693 45.4206 3.99246C43.856 3.85689 42.0533 3.76896 40.0123 3.72865C37.9714 3.68835 35.773 3.70666 33.4169 3.7836C31.0426 3.86055 28.6261 3.98696 26.1675 4.16284C23.7089 4.33872 21.2704 4.56041 18.8521 4.82789C16.4338 5.0917 14.1638 5.39397 12.0423 5.73474C9.9208 6.0755 8.02096 6.46025 6.34279 6.88895C4.96075 7.21081 3.61741 7.6807 2.33608 8.29047C1.99064 8.1199 1.66293 7.91555 1.35776 7.6804C1.16107 7.54768 1.01261 7.35487 0.934561 7.13079C0.879599 6.92743 1.02249 6.75155 1.35776 6.58117C3.24245 5.73126 5.19258 5.03464 7.18921 4.4981C9.38768 3.89352 11.7052 3.35857 14.1419 2.89323C16.5785 2.42788 19.0811 2.03034 21.6496 1.70057C24.2145 1.3708 26.7226 1.09231 29.1739 0.865137C31.6252 0.637962 33.9647 0.454756 36.1925 0.31552C38.4129 0.187276 40.3989 0.0993482 42.1503 0.0517147C43.9036 0.00224914 45.3656 -0.0142434 46.5473 0.0132375C47.3049 0.00729206 48.0619 0.0587193 48.8117 0.167113L48.7952 0.14514Z" fill="#2C3E50"/>
<path d="M98.1565 5.42704C98.129 5.27864 98.3378 5.16323 98.772 5.08628C99.2574 5.01115 99.7499 4.99272 100.24 5.03133C100.742 5.06081 101.233 5.19562 101.68 5.42704C101.872 5.51498 102.033 5.66056 102.139 5.84368C102.245 6.02681 102.292 6.23843 102.273 6.44932C102.273 6.52627 102.246 7.07039 102.185 8.09817C102.125 9.12596 102.075 10.4176 102.02 12.0334C101.965 13.6493 101.899 15.4686 101.828 17.5021C101.756 19.5357 101.691 21.5968 101.636 23.7018C101.581 25.8068 101.526 27.8734 101.465 29.8905C101.405 31.9076 101.394 33.6719 101.394 35.2603C101.394 36.8487 101.394 38.1018 101.438 39.0581C101.482 40.0144 101.52 40.4981 101.603 40.4981C101.795 40.4917 101.982 40.4382 102.149 40.3424C102.316 40.2465 102.457 40.1113 102.559 39.9485C102.927 39.4756 103.247 38.9675 103.515 38.4315C103.823 37.827 104.12 37.1729 104.406 36.4694C104.686 35.7604 104.955 35.1064 105.148 34.5018C105.34 33.8972 105.527 33.4026 105.653 32.9849C105.696 32.7711 105.776 32.5665 105.89 32.3803H106.12L106.522 32.4133C106.652 32.4256 106.781 32.4514 106.906 32.4902C107.016 32.5287 107.077 32.5836 107.077 32.6606C107.014 32.956 106.935 33.2478 106.84 33.5345C106.687 34.0841 106.472 34.7106 106.203 35.4801C105.906 36.3283 105.566 37.1611 105.186 37.9754C104.798 38.8334 104.339 39.6571 103.812 40.4377C103.341 41.1356 102.768 41.7598 102.114 42.2899C101.571 42.7538 100.877 43.0022 100.163 42.9879C99.8485 43.0094 99.5338 42.9536 99.2463 42.8252C98.9589 42.6968 98.7073 42.4997 98.5137 42.2514C98.1623 41.7945 97.9029 41.2737 97.7498 40.718C97.4113 41.2647 96.9642 41.7361 96.4362 42.103C96.0051 42.3932 95.5351 42.6208 95.0402 42.779C94.383 42.9929 93.6879 43.0641 93.0011 42.9879C92.4661 42.9345 91.9399 42.8144 91.4347 42.6306C90.6965 42.3588 90.04 41.9029 89.5275 41.3061C88.7985 40.4509 88.2557 39.4532 87.9336 38.3766C87.4452 36.6813 87.2373 34.9176 87.318 33.1552C87.3041 31.543 87.4887 29.9352 87.8677 28.3681C88.1464 27.2466 88.5812 26.1699 89.1592 25.1693C89.9453 23.8086 91.1815 22.7647 92.6548 22.2178C93.1483 22.039 93.6612 21.9191 94.1828 21.8606C94.6224 21.8221 94.9412 21.8056 95.1391 21.8056C95.7825 21.8075 96.405 22.0351 96.8979 22.4487C97.3285 22.8181 97.6993 23.2519 97.9971 23.7348C98.0594 21.7195 98.1089 19.7134 98.1455 17.7165C98.1895 15.7269 98.2224 13.8692 98.2554 12.2203C98.2884 10.5714 98.2554 9.10398 98.2554 7.90582C98.2554 6.70765 98.184 5.88322 98.1235 5.42704H98.1565ZM97.6069 37.7006C97.6325 36.5134 97.682 34.8994 97.7553 32.8584C97.8285 30.8175 97.9073 28.522 97.9916 25.9717C97.9212 25.6447 97.7988 25.3311 97.6289 25.0429C97.457 24.743 97.2504 24.4644 97.0133 24.2129C96.7948 23.9785 96.5451 23.7751 96.2713 23.6084C96.0376 23.4539 95.7653 23.3682 95.4853 23.361C94.96 23.3574 94.4529 23.5539 94.0673 23.9107C93.6159 24.3173 93.2433 24.8035 92.9681 25.3452C92.6441 25.9739 92.3827 26.6329 92.1876 27.3128C91.9777 28.0154 91.807 28.7292 91.6765 29.4508C91.5501 30.1598 91.4512 30.8139 91.3797 31.4185C91.3083 32.023 91.2588 32.5177 91.2313 32.8584C91.1784 33.5756 91.1784 34.2957 91.2313 35.0129C91.276 35.9538 91.3973 36.8894 91.594 37.8105C91.7575 38.6602 92.0721 39.4737 92.5229 40.2123C92.6998 40.5237 92.9604 40.7794 93.2751 40.9503C93.5898 41.1213 93.9461 41.2007 94.3037 41.1796C94.7813 41.1951 95.2531 41.071 95.6612 40.8224C96.0176 40.591 96.3271 40.2945 96.5736 39.9485C96.8155 39.6076 97.0148 39.2385 97.1672 38.8493C97.3211 38.4535 97.4585 38.0853 97.5684 37.75L97.6124 37.7115L97.6069 37.7006Z" fill="#2C3E50"/>
<path d="M42.2656 22.7563C42.5875 22.7109 42.9018 22.6221 43.1999 22.4925C43.5732 22.3374 43.9549 22.2035 44.3431 22.0912C44.7363 21.9818 45.1448 21.9373 45.5523 21.9593C45.7627 21.9739 45.9682 22.03 46.1568 22.1244C46.3455 22.2187 46.5136 22.3494 46.6515 22.509C46.8168 22.6924 46.959 22.8954 47.0748 23.1135C47.213 23.3603 47.3271 23.6198 47.4155 23.8885C47.4971 24.1326 47.5325 24.3899 47.5199 24.647C47.5204 24.7537 47.4957 24.859 47.448 24.9545C47.4003 25.05 47.3308 25.1329 47.2451 25.1966C46.9635 25.5262 46.7739 25.9244 46.6955 26.3508C46.4995 27.0672 46.3997 27.8065 46.3987 28.5492C46.3883 29.4213 46.5163 30.2895 46.7779 31.1215C47.0428 32.0004 47.5679 32.7784 48.2839 33.3529C48.4268 33.4793 48.4378 33.6552 48.3279 33.9025C48.186 34.1625 47.9821 34.3834 47.7343 34.5456C47.4071 34.7757 47.0503 34.9606 46.6735 35.0952C46.2346 35.2535 45.7636 35.3016 45.3017 35.2355C44.8398 35.1694 44.4012 34.991 44.0244 34.716C43.5225 34.3387 43.1206 33.8443 42.8537 33.276C42.4972 32.5352 42.331 31.7173 42.37 30.8961C42.3805 29.9773 42.4429 29.0598 42.5569 28.148C42.6723 27.2687 42.7987 26.4992 42.9416 25.8616C43.0845 25.2241 43.112 24.8723 43.0241 24.8174C42.9361 24.7624 42.7438 24.8833 42.5184 25.2351C42.2198 25.717 41.95 26.2162 41.7105 26.73C41.3972 27.3731 41.0839 28.1315 40.7542 28.9999C40.4244 29.8683 40.1276 30.7697 39.8473 31.704C39.567 32.6384 39.2977 33.5838 39.0833 34.5401C38.8715 35.4123 38.7154 36.2972 38.6161 37.1892C38.6161 38.327 38.6161 39.3492 38.6766 40.2561C38.7073 41.0425 38.7862 41.8262 38.9129 42.603C38.9404 42.7514 38.7371 42.8668 38.2974 42.9437C37.8138 43.0189 37.3232 43.0373 36.8354 42.9987C36.3312 42.9691 35.8388 42.8344 35.3899 42.603C35.1983 42.5172 35.0404 42.3703 34.941 42.1854C34.8416 42.0005 34.8062 41.7879 34.8403 41.5807C34.8403 41.5037 34.8678 40.8497 34.9282 39.613C34.9887 38.3764 35.0381 36.788 35.0931 34.8479H35.0546C35.1389 32.6494 35.1957 30.8888 35.225 29.5661C35.2543 28.2433 35.2543 27.1661 35.225 26.3343C35.192 25.4989 35.1535 24.8064 35.0931 24.2512C35.0326 23.6961 34.9557 23.0806 34.8403 22.399C34.8128 22.2451 35.0106 22.1352 35.4338 22.0583C35.9042 21.9804 36.3824 21.9619 36.8574 22.0033C37.3592 22.0364 37.8491 22.171 38.2974 22.399C38.4951 22.4821 38.6614 22.6259 38.772 22.8097C38.8827 22.9935 38.932 23.2077 38.9129 23.4213C38.858 24.6305 38.8158 25.7902 38.7865 26.9004C38.759 27.9996 38.7261 29.0989 38.6986 30.1541C38.9844 29.2491 39.3032 28.3605 39.6549 27.4885C40.0067 26.6164 40.3456 25.8341 40.6717 25.1416C40.9346 24.5596 41.2395 23.9975 41.5841 23.4598C41.8644 23.0311 42.0897 22.8003 42.2601 22.7783L42.2656 22.7563Z" fill="#2C3E50"/>
<path d="M50.1004 30.5716C50.3834 30.5396 50.6692 30.5396 50.9523 30.5716C51.3487 30.6106 51.7395 30.6936 52.1175 30.819C52.489 30.9379 52.829 31.1389 53.1123 31.4071C53.2591 31.5466 53.3706 31.719 53.4375 31.9102C53.5044 32.1013 53.5248 32.3057 53.497 32.5063C53.4284 32.9763 53.3844 33.4496 53.3651 33.9243C53.3101 34.7707 53.2497 35.804 53.1782 37.0241C53.1068 38.2443 53.0353 39.5524 52.9639 40.9429C52.8924 42.3334 52.843 43.6085 52.8155 44.7902C52.788 45.9719 52.8155 46.9502 52.8155 47.7417C52.8155 48.5331 52.9309 48.9343 53.0683 48.9343C53.2605 48.9279 53.4482 48.8744 53.6149 48.7786C53.7816 48.6827 53.9223 48.5475 54.0246 48.3847C54.3927 47.9119 54.713 47.4038 54.981 46.8678C55.3047 46.2294 55.5945 45.5745 55.8494 44.9057C56.1187 44.1966 56.366 43.5426 56.5913 42.938C56.8167 42.3334 56.9926 41.8388 57.141 41.4211C57.187 41.2082 57.2667 41.0041 57.3773 40.8165H57.6082L58.0094 40.8495C58.1399 40.8618 58.2688 40.8876 58.3941 40.9264C58.504 40.9649 58.5645 41.0199 58.5645 41.0968C58.502 41.3923 58.4231 41.684 58.3282 41.9707C58.1743 42.5203 57.9599 43.1469 57.6961 43.9163C57.4323 44.6858 57.086 45.5157 56.6738 46.4116C56.2859 47.2696 55.8263 48.0933 55.2998 48.8739C54.8283 49.5718 54.256 50.196 53.6014 50.7261C53.0564 51.2084 52.3505 51.4691 51.6228 51.4571C51.1858 51.4711 50.7578 51.3311 50.4137 51.0614C50.0978 50.8076 49.8378 50.4914 49.6497 50.1325C49.4682 49.783 49.3263 49.4143 49.2265 49.0333C49.1462 48.7347 49.082 48.4319 49.0341 48.1264C49.0026 47.5901 49.0026 47.0524 49.0341 46.516C49.0671 45.5982 49.1001 44.4879 49.144 43.1853C49.188 41.8828 49.2485 40.5087 49.3309 39.0467C49.4134 37.5847 49.5013 36.2272 49.5892 34.9796C49.6772 33.7319 49.7596 32.6931 49.8421 31.8742C49.9245 31.0553 50.0124 30.6321 50.0949 30.6101L50.1004 30.5716ZM49.2979 24.5533C49.2752 23.7479 49.5557 22.9633 50.0839 22.3548C50.3097 22.0716 50.5964 21.843 50.9228 21.6859C51.2492 21.5289 51.6069 21.4476 51.9691 21.448C52.3288 21.451 52.6831 21.5368 53.0043 21.6988C53.3255 21.8609 53.6051 22.0947 53.8213 22.3823C54.3189 23.007 54.5899 23.7821 54.5899 24.5808C54.5899 25.3795 54.3189 26.1545 53.8213 26.7793C53.6023 27.0649 53.3201 27.2959 52.9968 27.4542C52.6736 27.6125 52.318 27.6938 51.9581 27.6916C51.5953 27.6922 51.2371 27.6104 50.9105 27.4523C50.584 27.2943 50.2976 27.0641 50.0729 26.7793C49.5447 26.1708 49.2642 25.3862 49.2869 24.5808L49.2979 24.5533Z" fill="#2C3E50"/>
<path d="M65.1975 21.5272C65.7904 21.4551 66.3909 21.4736 66.9783 21.5821C67.5602 21.6558 68.1307 21.8016 68.6766 22.0163C69.335 22.384 69.8776 22.9285 70.243 23.5883C70.7308 24.4115 71.0886 25.305 71.3038 26.2374C71.573 27.3302 71.7441 28.4449 71.8149 29.5681C71.8974 30.7641 71.8753 31.9649 71.749 33.1571C71.6241 34.3449 71.383 35.5175 71.029 36.6581C70.7133 37.7152 70.2488 38.7219 69.6494 39.6481C70.7432 38.6309 71.7119 37.4869 72.5349 36.2404C72.8365 35.8082 73.0926 35.3459 73.2989 34.8609C73.5242 34.3442 73.7221 33.8606 73.8924 33.4044C74.0628 32.9482 74.1948 32.5745 74.2937 32.2722C74.3926 31.9699 74.4586 31.816 74.486 31.816H74.7169L75.1236 31.849C75.2524 31.8613 75.3794 31.8871 75.5028 31.9259C75.6182 31.9644 75.6732 32.0194 75.6732 32.0963C75.6525 32.2241 75.625 32.3507 75.5908 32.4756C75.5303 32.7009 75.4424 32.9977 75.3105 33.3659C75.1786 33.7342 75.0302 34.1299 74.8488 34.5586C74.6596 34.99 74.4391 35.4069 74.1893 35.8062C73.1891 37.6032 71.8877 39.215 70.3419 40.5714C69.1466 41.5351 67.709 42.1512 66.1868 42.3522C65.5088 42.5259 64.8051 42.5762 64.1093 42.5006C63.4615 42.452 62.8388 42.2299 62.3065 41.8575C61.8202 41.5315 61.3722 41.1517 60.971 40.7253C60.883 42.8395 60.8042 44.9061 60.7346 46.925C60.6687 48.9476 60.6192 50.7723 60.5862 52.4212C60.5533 54.07 60.5478 55.3946 60.5478 56.4718C60.5211 57.0959 60.5487 57.7212 60.6302 58.3405C60.6578 58.4032 60.6714 58.4711 60.6699 58.5396C60.6683 58.6081 60.6518 58.6754 60.6214 58.7367C60.591 58.7981 60.5474 58.852 60.4939 58.8947C60.4403 58.9373 60.378 58.9677 60.3114 58.9836C59.9688 59.091 59.6084 59.1302 59.2507 59.099C58.836 59.0723 58.4251 59.0023 58.025 58.8902C57.7379 58.8367 57.4681 58.7141 57.239 58.5329C57.1236 58.4285 57.0632 57.8679 57.0467 56.8456C57.0302 55.8233 57.0467 54.5042 57.0467 52.8773C57.0467 51.2505 57.1346 49.4038 57.2171 47.3317C57.2995 45.2596 57.3874 43.1436 57.4699 40.9781C57.5523 38.8126 57.6458 36.6691 57.7447 34.5641C57.8436 32.4591 57.9261 30.5409 57.9811 28.8151C58.036 27.0893 58.0745 25.6383 58.0855 24.4621C58.1199 23.7288 58.0997 22.994 58.025 22.2637C57.9096 21.857 58.2064 21.5931 58.9154 21.4667C59.1823 21.4418 59.4509 21.4418 59.7178 21.4667C60.0964 21.479 60.4733 21.5232 60.8445 21.5987C61.1855 21.6575 61.5143 21.7726 61.8174 21.9394C61.931 21.9894 62.0243 22.0763 62.0821 22.1861C62.14 22.2959 62.1591 22.422 62.1362 22.544C62.0735 22.6941 62.0382 22.8541 62.0317 23.0166C62.01 23.2514 61.9732 23.4846 61.9218 23.7147C62.4215 23.0395 63.0583 22.4776 63.7905 22.0658C64.2276 21.8179 64.6976 21.6328 65.1865 21.5162L65.1975 21.5272ZM61.636 27.573C61.5554 28.9104 61.4638 30.4053 61.3612 32.0578C61.2622 33.7067 61.1688 35.4435 61.0864 37.2572L61.1303 37.3342C61.1833 37.9599 61.3549 38.5699 61.636 39.1314C61.8574 39.5468 62.1515 39.9191 62.5044 40.2307C62.7957 40.4818 63.1365 40.6691 63.5047 40.7803C63.7907 40.8781 64.0935 40.9173 64.3951 40.8957C64.6861 40.8688 64.9677 40.7786 65.2203 40.6314C65.4728 40.4843 65.6901 40.2837 65.857 40.0438C66.3416 39.4125 66.7135 38.7022 66.9563 37.9443C67.2751 36.9903 67.5087 36.01 67.6543 35.0148C67.8241 33.9116 67.9306 32.7995 67.9731 31.6841C68.015 30.5845 67.993 29.4834 67.9071 28.3864C67.8415 27.4313 67.7 26.483 67.4839 25.5504C67.3409 24.865 67.0746 24.2114 66.698 23.6212C66.584 23.4163 66.4137 23.2483 66.2072 23.1372C66.0006 23.0262 65.7666 22.9767 65.5328 22.9947C65.0755 23.062 64.6518 23.2738 64.3236 23.5992C63.918 23.9729 63.5498 24.3852 63.2244 24.8304C62.8845 25.2925 62.5795 25.7794 62.312 26.2869C62.0427 26.7925 61.8064 27.2102 61.6085 27.5345L61.636 27.573Z" fill="#2C3E50"/>
<path d="M79.6484 21.4821C80.1336 21.415 80.6273 21.4471 81.0997 21.5766C81.5721 21.706 82.0133 21.93 82.3965 22.2351C83.1324 22.8638 83.7136 23.6538 84.0948 24.5435C84.5101 25.5079 84.7805 26.5284 84.8972 27.5719C85.0243 28.5505 85.0464 29.54 84.9632 30.5233C84.8616 32.0767 84.4504 33.594 83.754 34.9862C83.2518 35.9422 82.5599 36.7857 81.7204 37.465C81.0565 37.9981 80.2804 38.3739 79.4505 38.5642C78.8508 38.6973 78.2398 38.7727 77.6258 38.7896C77.8758 39.5609 78.3672 40.2314 79.0273 40.7023C79.3705 40.9577 79.7866 41.0964 80.2145 41.098C80.9316 41.0532 81.6282 40.8404 82.2481 40.4769C82.8682 40.0997 83.4247 39.6267 83.8969 39.0754C84.3994 38.4985 84.8397 37.8703 85.2105 37.2012C85.5794 36.5516 85.9115 35.8819 86.2053 35.1951C86.4693 34.6018 86.6897 33.9901 86.8648 33.3648L87.2276 32.0183C87.2825 31.8919 87.4914 31.8369 87.8597 31.8479C88.2279 31.8589 88.4422 31.9963 88.4972 32.2491C88.445 32.5611 88.3734 32.8695 88.2828 33.1725C88.1021 33.8429 87.8763 34.5003 87.6068 35.1401C87.258 35.9827 86.8616 36.8048 86.4196 37.6024C85.94 38.4713 85.3628 39.2826 84.6994 40.0207C84.0383 40.7641 83.2672 41.4017 82.4129 41.9114C81.5447 42.4305 80.5602 42.7234 79.5494 42.7633C78.7192 42.8327 77.8853 42.683 77.1311 42.3291C76.4785 42.0089 75.8986 41.558 75.4273 41.0045C74.9803 40.4526 74.6105 39.8425 74.3281 39.1908C74.0481 38.5699 73.8273 37.924 73.6685 37.2616C73.5311 36.6406 73.4322 36.0965 73.3717 35.6128C73.3113 35.1291 73.2893 34.8213 73.2893 34.6455C73.2893 34.2937 73.2893 33.7386 73.3333 32.9966C73.3772 32.2546 73.4377 31.3917 73.5641 30.4464C73.7005 29.4512 73.8987 28.4655 74.1577 27.4949C74.4137 26.5046 74.7923 25.5501 75.2844 24.6534C75.7314 23.8257 76.3299 23.0893 77.0487 22.4824C77.7755 21.8859 78.676 21.5407 79.6154 21.4986L79.6484 21.4821ZM77.0102 34.4971C76.9821 35.1147 76.9968 35.7336 77.0542 36.3493C77.101 36.846 77.1855 37.3384 77.307 37.8223C77.7459 37.8416 78.1856 37.8047 78.6151 37.7123C79.2031 37.5753 79.7427 37.2808 80.176 36.8604C80.7786 36.2539 81.2435 35.5247 81.5391 34.7224C82.0096 33.4349 82.2712 32.0804 82.314 30.7102C82.4514 27.9621 82.314 25.9505 81.8358 24.6644C81.3577 23.3783 80.6981 22.8342 79.7913 22.9826C79.5055 23.0321 79.2417 23.2739 79.0163 23.7026C78.7503 24.232 78.5315 24.7837 78.3623 25.3514C78.1332 26.0832 77.9497 26.8285 77.8126 27.5829C77.6588 28.4073 77.5268 29.2317 77.4059 30.0836C77.285 30.9356 77.1971 31.7325 77.1311 32.5019C77.0652 33.2714 77.0212 33.9365 77.0212 34.4916L77.0102 34.4971Z" fill="#2C3E50"/>
</svg>
