<svg width="25" height="24" viewBox="0 0 25 24" fill="none" xmlns="http://www.w3.org/2000/svg">
<path d="M10.8 15.5L9.80005 12" stroke="#2C3E50" stroke-linecap="round"/>
<path d="M8.80005 6.5L6.80005 9.5M15.8 6.5L17.8 9.5" stroke="#2C3E50" stroke-linecap="round"/>
<path d="M13.8 15.5L14.8 12" stroke="#2C3E50" stroke-linecap="round"/>
<path d="M4.80005 9.5V9.5C5.38434 9.5 5.89023 9.90581 6.01698 10.4762L7.10399 15.3677C7.43768 16.8694 7.60453 17.6202 8.15294 18.0601C8.70134 18.5 9.47047 18.5 11.0087 18.5H13.5914C15.1296 18.5 15.8988 18.5 16.4472 18.0601C16.9956 17.6202 17.1624 16.8694 17.4961 15.3677L18.5831 10.4762C18.7099 9.90581 19.2158 9.5 19.8 9.5V9.5" stroke="#2C3E50" stroke-linecap="round"/>
<path d="M3.80005 9.5H20.8" stroke="#2C3E50" stroke-linecap="round"/>
</svg>
