<svg width="13" height="12" viewBox="0 0 13 12" fill="none" xmlns="http://www.w3.org/2000/svg">
<path fill-rule="evenodd" clip-rule="evenodd" d="M0.93457 3.23617C0.93457 2.86189 1.08325 2.50294 1.34791 2.23829C1.61256 1.97363 1.97151 1.82495 2.34579 1.82495H10.8131C11.1874 1.82495 11.5464 1.97363 11.811 2.23829C12.0757 2.50294 12.2243 2.86189 12.2243 3.23617H0.93457ZM0.93457 4.64739V8.88106C0.93457 9.25534 1.08325 9.61429 1.34791 9.87894C1.61256 10.1436 1.97151 10.2923 2.34579 10.2923H10.8131C11.1874 10.2923 11.5464 10.1436 11.811 9.87894C12.0757 9.61429 12.2243 9.25534 12.2243 8.88106V4.64739H0.93457ZM3.0514 8.17545C3.0514 7.98831 3.12574 7.80884 3.25807 7.67651C3.3904 7.54418 3.56987 7.46984 3.75701 7.46984H4.46262C4.64976 7.46984 4.82924 7.54418 4.96157 7.67651C5.09389 7.80884 5.16824 7.98831 5.16824 8.17545C5.16824 8.36259 5.09389 8.54206 4.96157 8.67439C4.82924 8.80672 4.64976 8.88106 4.46262 8.88106H3.75701C3.56987 8.88106 3.3904 8.80672 3.25807 8.67439C3.12574 8.54206 3.0514 8.36259 3.0514 8.17545Z" fill="#0270DE"/>
</svg>
