<svg width="20" height="20" viewBox="0 0 20 20" fill="none" xmlns="http://www.w3.org/2000/svg">
<path d="M15.8332 3.33325H4.1665C2.78317 3.33325 1.6665 4.44992 1.6665 5.83325V14.1666C1.6665 15.5499 2.78317 16.6666 4.1665 16.6666H15.8332C17.2165 16.6666 18.3332 15.5499 18.3332 14.1666V5.83325C18.3332 4.44992 17.2165 3.33325 15.8332 3.33325ZM4.1665 4.58325H15.8332C16.5248 4.58325 17.0832 5.14159 17.0832 5.83325V6.87492H2.9165V5.83325C2.9165 5.14159 3.47484 4.58325 4.1665 4.58325ZM15.8332 15.4166H4.1665C3.47484 15.4166 2.9165 14.8583 2.9165 14.1666V8.12492H17.0832V14.1666C17.0832 14.8583 16.5248 15.4166 15.8332 15.4166Z" fill="#2C3E50"/>
<path d="M14.9998 12.7083H11.6665C11.3248 12.7083 11.0415 12.9916 11.0415 13.3333C11.0415 13.6749 11.3248 13.9583 11.6665 13.9583H14.9998C15.3415 13.9583 15.6248 13.6749 15.6248 13.3333C15.6248 12.9916 15.3415 12.7083 14.9998 12.7083Z" fill="#2C3E50"/>
</svg>
