<svg width="86" height="30" viewBox="0 0 86 30" fill="none" xmlns="http://www.w3.org/2000/svg">
<path d="M73.7955 16.5745C74.1141 16.5668 74.4175 16.4362 74.6429 16.2099C74.8682 15.9836 74.9982 15.6788 75.0059 15.3589V14.5472C75.0059 14.2248 74.8783 13.9156 74.6513 13.6876C74.4244 13.4596 74.1165 13.3315 73.7955 13.3315C73.4745 13.3315 73.1666 13.4596 72.9396 13.6876C72.7126 13.9156 72.5851 14.2248 72.5851 14.5472V15.3589C72.5928 15.6788 72.7228 15.9836 72.9481 16.2099C73.1735 16.4362 73.4769 16.5668 73.7955 16.5745Z" fill="url(#paint0_linear_249_15146)"/>
<path d="M79.2105 16.5745C79.5291 16.5668 79.8325 16.4362 80.0579 16.2099C80.2832 15.9836 80.4132 15.6788 80.4209 15.3589V14.5472C80.4209 14.2248 80.2934 13.9156 80.0664 13.6876C79.8394 13.4596 79.5315 13.3315 79.2105 13.3315C78.8895 13.3315 78.5816 13.4596 78.3547 13.6876C78.1277 13.9156 78.0001 14.2248 78.0001 14.5472V15.3589C78.0078 15.6788 78.1378 15.9836 78.3631 16.2099C78.5885 16.4362 78.8919 16.5668 79.2105 16.5745Z" fill="url(#paint1_linear_249_15146)"/>
<path d="M84.2105 16.5745C84.5291 16.5668 84.8325 16.4362 85.0579 16.2099C85.2832 15.9836 85.4132 15.6788 85.4209 15.3589V14.5472C85.4209 14.2248 85.2934 13.9156 85.0664 13.6876C84.8394 13.4596 84.5315 13.3315 84.2105 13.3315C83.8895 13.3315 83.5816 13.4596 83.3547 13.6876C83.1277 13.9156 83.0001 14.2248 83.0001 14.5472V15.3589C83.0078 15.6788 83.1378 15.9836 83.3631 16.2099C83.5885 16.4362 83.8919 16.5668 84.2105 16.5745Z" fill="url(#paint2_linear_249_15146)"/>
<path d="M68.9523 16.1686C69.2729 16.1478 69.5809 16.0353 69.8398 15.8443L70.0022 15.6831C70.0323 15.6509 70.055 15.6125 70.0687 15.5706C70.0824 15.5286 70.0868 15.4842 70.0815 15.4403C70.0815 15.3588 70.1627 15.2773 70.1627 15.1957V14.7159C70.1683 14.6719 70.1639 14.6272 70.1498 14.5852C70.1357 14.5431 70.1124 14.5048 70.0815 14.4732C70.0815 14.3916 70.0022 14.3101 70.0022 14.2285C69.921 14.1489 69.921 14.0673 69.8398 14.0673C69.6948 13.9197 69.5143 13.8123 69.3158 13.7555C69.1173 13.6987 68.9075 13.6944 68.7068 13.743C68.6628 13.7375 68.618 13.742 68.5759 13.7561C68.5337 13.7702 68.4953 13.7936 68.4633 13.8246C68.384 13.8246 68.3028 13.9042 68.2216 13.9042C68.1797 13.9073 68.1404 13.9256 68.1109 13.9556C68.0814 13.9855 68.0637 14.0252 68.0611 14.0673L67.8987 14.2285C67.8987 14.3101 67.8175 14.3916 67.8175 14.4732C67.8175 14.5547 67.7382 14.6344 67.7382 14.7159V15.2014C67.7327 15.2455 67.737 15.2903 67.7507 15.3326C67.7644 15.3748 67.7872 15.4136 67.8175 15.446C67.8175 15.5257 67.8987 15.6072 67.8987 15.6888L68.0611 15.85C68.3217 16.0396 68.631 16.1502 68.9523 16.1686Z" fill="url(#paint3_linear_249_15146)"/>
<path d="M64.109 21.8447C64.4276 21.837 64.731 21.7065 64.9563 21.4801C65.1817 21.2538 65.3117 20.9491 65.3193 20.6291V9.27691C65.307 8.96256 65.1739 8.66522 64.9481 8.44721C64.7223 8.22919 64.4212 8.10742 64.108 8.10742C63.7948 8.10742 63.4937 8.22919 63.2679 8.44721C63.0421 8.66522 62.9091 8.96256 62.8967 9.27691V20.6291C62.9048 20.9492 63.0352 21.254 63.2609 21.4803C63.4865 21.7065 63.7902 21.837 64.109 21.8447Z" fill="url(#paint4_linear_249_15146)"/>
<path d="M54.4205 25.905C54.7391 25.8973 55.0425 25.7668 55.2679 25.5405C55.4932 25.3141 55.6232 25.0094 55.6309 24.6894V5.23369C55.6309 4.91129 55.5033 4.60209 55.2763 4.37412C55.0494 4.14614 54.7415 4.01807 54.4205 4.01807C54.0995 4.01807 53.7916 4.14614 53.5646 4.37412C53.3376 4.60209 53.2101 4.91129 53.2101 5.23369V24.6837C53.2163 25.0047 53.3457 25.3109 53.5712 25.5384C53.7967 25.7659 54.1009 25.8973 54.4205 25.905Z" fill="url(#paint5_linear_249_15146)"/>
<path d="M59.2643 29.9539C59.5832 29.9457 59.8869 29.8148 60.1125 29.5882C60.3381 29.3616 60.4684 29.0567 60.4766 28.7363V1.16948C60.4642 0.855139 60.3312 0.5578 60.1054 0.339785C59.8795 0.12177 59.5785 0 59.2652 0C58.952 0 58.6509 0.12177 58.4251 0.339785C58.1993 0.5578 58.0663 0.855139 58.0539 1.16948V28.7363C58.0616 29.0565 58.1915 29.3615 58.4168 29.5881C58.6421 29.8147 58.9455 29.9457 59.2643 29.9539Z" fill="url(#paint6_linear_249_15146)"/>
<path d="M49.5767 21.0348C49.8955 21.0266 50.1989 20.8956 50.4242 20.669C50.6495 20.4424 50.7795 20.1374 50.7871 19.8172V10.0884C50.7747 9.77408 50.6417 9.47675 50.4159 9.25873C50.1901 9.04072 49.889 8.91895 49.5758 8.91895C49.2626 8.91895 48.9615 9.04072 48.7357 9.25873C48.5099 9.47675 48.3768 9.77408 48.3645 10.0884V19.8172C48.3726 20.1376 48.5029 20.4425 48.7285 20.6691C48.9541 20.8957 49.2578 21.0266 49.5767 21.0348Z" fill="url(#paint7_linear_249_15146)"/>
<path d="M44.734 18.1958C45.0526 18.1881 45.356 18.0576 45.5813 17.8312C45.8067 17.6049 45.9367 17.3002 45.9443 16.9802V12.9256C45.932 12.6112 45.799 12.3139 45.5731 12.0959C45.3473 11.8779 45.0462 11.7561 44.733 11.7561C44.4198 11.7561 44.1187 11.8779 43.8929 12.0959C43.6671 12.3139 43.5341 12.6112 43.5217 12.9256V16.9802C43.5294 17.3005 43.6596 17.6055 43.8854 17.8319C44.1111 18.0583 44.415 18.1886 44.734 18.1958Z" fill="url(#paint8_linear_249_15146)"/>
<path d="M39.8883 19.0076C40.2071 18.9999 40.5108 18.8695 40.7364 18.6432C40.9621 18.4169 41.0925 18.1121 41.1006 17.792V12.1159C41.1071 11.9521 41.0805 11.7887 41.0225 11.6354C40.9646 11.4822 40.8764 11.3423 40.7632 11.2241C40.6501 11.1059 40.5144 11.0119 40.3642 10.9477C40.2141 10.8834 40.0525 10.8503 39.8893 10.8503C39.7261 10.8503 39.5645 10.8834 39.4144 10.9477C39.2642 11.0119 39.1285 11.1059 39.0153 11.2241C38.9022 11.3423 38.814 11.4822 38.7561 11.6354C38.6981 11.7887 38.6715 11.9521 38.678 12.1159V17.792C38.6856 18.112 38.8156 18.4167 39.041 18.643C39.2663 18.8694 39.5697 18.9999 39.8883 19.0076Z" fill="url(#paint9_linear_249_15146)"/>
<path d="M35.0523 20.2155C35.3709 20.2078 35.6743 20.0773 35.8997 19.8509C36.125 19.6246 36.255 19.3199 36.2627 18.9999V10.8982C36.2627 10.7386 36.2314 10.5805 36.1706 10.433C36.1097 10.2856 36.0206 10.1515 35.9082 10.0387C35.7958 9.92578 35.6624 9.83624 35.5155 9.77515C35.3687 9.71406 35.2113 9.68262 35.0523 9.68262C34.8934 9.68262 34.736 9.71406 34.5891 9.77515C34.4423 9.83624 34.3088 9.92578 34.1964 10.0387C34.0841 10.1515 33.9949 10.2856 33.9341 10.433C33.8732 10.5805 33.8419 10.7386 33.8419 10.8982V19.0075C33.8515 19.3261 33.9823 19.629 34.2075 19.8537C34.4326 20.0784 34.735 20.2079 35.0523 20.2155Z" fill="url(#paint10_linear_249_15146)"/>
<path d="M30.2017 17.7918C30.5205 17.7836 30.8239 17.6527 31.0492 17.426C31.2745 17.1994 31.4045 16.8944 31.4121 16.5743V13.3313C31.3997 13.017 31.2667 12.7197 31.0409 12.5017C30.8151 12.2836 30.514 12.1619 30.2008 12.1619C29.8876 12.1619 29.5865 12.2836 29.3607 12.5017C29.1349 12.7197 29.0018 13.017 28.9895 13.3313V16.5743C28.9976 16.8946 29.1279 17.1996 29.3535 17.4262C29.5791 17.6527 29.8828 17.7836 30.2017 17.7918Z" fill="url(#paint11_linear_249_15146)"/>
<path d="M25.3561 17.3861C25.6753 17.3789 25.9795 17.2483 26.2053 17.0215C26.4311 16.7947 26.5612 16.4892 26.5684 16.1686V13.7373C26.556 13.423 26.423 13.1257 26.1972 12.9077C25.9713 12.6896 25.6703 12.5679 25.357 12.5679C25.0438 12.5679 24.7427 12.6896 24.5169 12.9077C24.2911 13.1257 24.1581 13.423 24.1457 13.7373V16.1686C24.1529 16.4889 24.2827 16.7941 24.5081 17.0209C24.7335 17.2476 25.0372 17.3784 25.3561 17.3861Z" fill="url(#paint12_linear_249_15146)"/>
<path d="M20.5123 16.1685H20.754C20.798 16.1739 20.8426 16.1696 20.8847 16.1559C20.9267 16.1421 20.9653 16.1192 20.9976 16.0888C21.0769 16.0888 21.1581 16.0073 21.2393 16.0073C21.3205 15.9257 21.3998 15.9257 21.3998 15.8442L21.5622 15.683C21.5622 15.6014 21.6434 15.5199 21.6434 15.4402C21.6434 15.3606 21.7246 15.2771 21.7246 15.1956V14.9528C21.7033 14.6307 21.5906 14.3214 21.3998 14.0615L21.2393 13.8984C21.2073 13.8682 21.1691 13.8454 21.1273 13.8316C21.0855 13.8178 21.0413 13.8135 20.9976 13.8188C20.9164 13.8188 20.8352 13.7372 20.754 13.7372H20.2706C20.2268 13.7316 20.1823 13.736 20.1405 13.7502C20.0986 13.7643 20.0605 13.7877 20.0289 13.8188C19.9477 13.8188 19.8666 13.8984 19.7854 13.8984C19.7435 13.9015 19.7042 13.9198 19.6747 13.9498C19.6452 13.9797 19.6275 14.0194 19.6249 14.0615C19.5145 14.1809 19.429 14.3213 19.3736 14.4744C19.3181 14.6274 19.2938 14.7901 19.302 14.9528V15.1956C19.2965 15.2399 19.301 15.2848 19.315 15.3271C19.3291 15.3695 19.3523 15.4081 19.3832 15.4402C19.3832 15.5199 19.4625 15.6014 19.4625 15.683L19.6249 15.8442L19.7854 16.0073C19.8666 16.0073 19.9477 16.0888 20.0289 16.0888C20.1101 16.0888 20.1894 16.1685 20.2706 16.1685H20.5123Z" fill="url(#paint13_linear_249_15146)"/>
<path d="M15.6695 16.5745C15.9881 16.5668 16.2915 16.4362 16.5169 16.2099C16.7422 15.9836 16.8722 15.6788 16.8799 15.3589V14.5472C16.8799 14.2248 16.7524 13.9156 16.5254 13.6876C16.2984 13.4596 15.9905 13.3315 15.6695 13.3315C15.3485 13.3315 15.0406 13.4596 14.8136 13.6876C14.5866 13.9156 14.4591 14.2248 14.4591 14.5472V15.3589C14.4668 15.6788 14.5968 15.9836 14.8221 16.2099C15.0475 16.4362 15.3509 16.5668 15.6695 16.5745Z" fill="url(#paint14_linear_249_15146)"/>
<path d="M5.97329 16.5745C6.29207 16.5668 6.5957 16.4363 6.82136 16.21C7.04701 15.9838 7.1774 15.679 7.18555 15.3589V14.5472C7.17319 14.2328 7.04016 13.9355 6.81435 13.7175C6.58853 13.4995 6.28746 13.3777 5.97423 13.3777C5.661 13.3777 5.35993 13.4995 5.13411 13.7175C4.9083 13.9355 4.77528 14.2328 4.76292 14.5472V15.3589C4.77059 15.6788 4.90056 15.9836 5.12591 16.2099C5.35126 16.4362 5.65469 16.5668 5.97329 16.5745Z" fill="url(#paint15_linear_249_15146)"/>
<path d="M10.8258 16.1685C11.1463 16.1477 11.4543 16.0352 11.7132 15.8442L11.8737 15.683C11.8737 15.6015 11.9549 15.5199 11.9549 15.4403C11.9549 15.3606 12.0361 15.2772 12.0361 15.1956V14.9529C12.0145 14.6311 11.9026 14.3221 11.7132 14.0616C11.6321 13.98 11.5508 13.98 11.5508 13.8985C11.519 13.868 11.4807 13.8451 11.4389 13.8313C11.3971 13.8175 11.3528 13.8132 11.3092 13.8188C11.228 13.8188 11.1486 13.7373 11.0675 13.7373H10.5822C10.5384 13.7319 10.494 13.7365 10.4522 13.7506C10.4103 13.7647 10.3722 13.788 10.3405 13.8188C10.2593 13.8188 10.18 13.8985 10.0988 13.8985C10.0566 13.9011 10.0168 13.9192 9.98692 13.9492C9.95703 13.9792 9.93906 14.0192 9.93638 14.0616C9.82601 14.1809 9.74057 14.3213 9.68512 14.4744C9.62966 14.6275 9.60531 14.7902 9.6135 14.9529V15.1956C9.60804 15.2399 9.6125 15.2849 9.62655 15.3272C9.64059 15.3695 9.66388 15.4081 9.69469 15.4403C9.69469 15.5199 9.77589 15.6015 9.77589 15.683L9.93827 15.8537L10.1007 16.0168C10.1819 16.0168 10.2612 16.0983 10.3424 16.0983C10.4236 16.0983 10.5048 16.178 10.5841 16.178L10.8258 16.1685Z" fill="url(#paint16_linear_249_15146)"/>
<path d="M1.13729 16.1685C1.45787 16.1478 1.76584 16.0352 2.02477 15.8442L2.18716 15.683C2.19567 15.6212 2.2242 15.5639 2.26835 15.5199C2.26835 15.4403 2.34766 15.3588 2.34766 15.2772V15.0345C2.32696 14.7125 2.21493 14.4032 2.02477 14.1431C1.54138 13.6557 0.733201 13.6557 0.325337 14.1431C0.214605 14.2623 0.128926 14.4026 0.0734458 14.5557C0.0179653 14.7089 -0.006181 14.8717 0.00243998 15.0345V15.2848C-0.00310469 15.3286 0.00113511 15.3732 0.0148525 15.4151C0.0285699 15.4571 0.0514174 15.4955 0.0817437 15.5275C0.0902567 15.5894 0.118787 15.6467 0.162938 15.6906C0.244133 15.7722 0.244142 15.8518 0.325337 15.8518C0.548145 16.0539 0.837118 16.1666 1.13729 16.1685Z" fill="url(#paint17_linear_249_15146)"/>
<defs>
<linearGradient id="paint0_linear_249_15146" x1="73.7955" y1="13.3315" x2="73.7955" y2="16.5745" gradientUnits="userSpaceOnUse">
<stop stop-color="#55A99D"/>
<stop offset="1" stop-color="#007665"/>
</linearGradient>
<linearGradient id="paint1_linear_249_15146" x1="79.2105" y1="13.3315" x2="79.2105" y2="16.5745" gradientUnits="userSpaceOnUse">
<stop stop-color="#55A99D"/>
<stop offset="1" stop-color="#007665"/>
</linearGradient>
<linearGradient id="paint2_linear_249_15146" x1="84.2105" y1="13.3315" x2="84.2105" y2="16.5745" gradientUnits="userSpaceOnUse">
<stop stop-color="#55A99D"/>
<stop offset="1" stop-color="#007665"/>
</linearGradient>
<linearGradient id="paint3_linear_249_15146" x1="68.9505" y1="13.7095" x2="68.9505" y2="16.1686" gradientUnits="userSpaceOnUse">
<stop stop-color="#55A99D"/>
<stop offset="1" stop-color="#007665"/>
</linearGradient>
<linearGradient id="paint4_linear_249_15146" x1="64.108" y1="8.10742" x2="64.108" y2="21.8447" gradientUnits="userSpaceOnUse">
<stop stop-color="#55A99D"/>
<stop offset="1" stop-color="#007665"/>
</linearGradient>
<linearGradient id="paint5_linear_249_15146" x1="54.4205" y1="4.01807" x2="54.4205" y2="25.905" gradientUnits="userSpaceOnUse">
<stop stop-color="#55A99D"/>
<stop offset="1" stop-color="#007665"/>
</linearGradient>
<linearGradient id="paint6_linear_249_15146" x1="59.2652" y1="0" x2="59.2652" y2="29.9539" gradientUnits="userSpaceOnUse">
<stop stop-color="#55A99D"/>
<stop offset="1" stop-color="#007665"/>
</linearGradient>
<linearGradient id="paint7_linear_249_15146" x1="49.5758" y1="8.91895" x2="49.5758" y2="21.0348" gradientUnits="userSpaceOnUse">
<stop stop-color="#55A99D"/>
<stop offset="1" stop-color="#007665"/>
</linearGradient>
<linearGradient id="paint8_linear_249_15146" x1="44.733" y1="11.7561" x2="44.733" y2="18.1958" gradientUnits="userSpaceOnUse">
<stop stop-color="#55A99D"/>
<stop offset="1" stop-color="#007665"/>
</linearGradient>
<linearGradient id="paint9_linear_249_15146" x1="39.8893" y1="10.8503" x2="39.8893" y2="19.0076" gradientUnits="userSpaceOnUse">
<stop stop-color="#55A99D"/>
<stop offset="1" stop-color="#007665"/>
</linearGradient>
<linearGradient id="paint10_linear_249_15146" x1="35.0523" y1="9.68262" x2="35.0523" y2="20.2155" gradientUnits="userSpaceOnUse">
<stop stop-color="#55A99D"/>
<stop offset="1" stop-color="#007665"/>
</linearGradient>
<linearGradient id="paint11_linear_249_15146" x1="30.2008" y1="12.1619" x2="30.2008" y2="17.7918" gradientUnits="userSpaceOnUse">
<stop stop-color="#55A99D"/>
<stop offset="1" stop-color="#007665"/>
</linearGradient>
<linearGradient id="paint12_linear_249_15146" x1="25.357" y1="12.5679" x2="25.357" y2="17.3861" gradientUnits="userSpaceOnUse">
<stop stop-color="#55A99D"/>
<stop offset="1" stop-color="#007665"/>
</linearGradient>
<linearGradient id="paint13_linear_249_15146" x1="20.5122" y1="13.7349" x2="20.5122" y2="16.1708" gradientUnits="userSpaceOnUse">
<stop stop-color="#55A99D"/>
<stop offset="1" stop-color="#007665"/>
</linearGradient>
<linearGradient id="paint14_linear_249_15146" x1="15.6695" y1="13.3315" x2="15.6695" y2="16.5745" gradientUnits="userSpaceOnUse">
<stop stop-color="#55A99D"/>
<stop offset="1" stop-color="#007665"/>
</linearGradient>
<linearGradient id="paint15_linear_249_15146" x1="5.97423" y1="13.3777" x2="5.97423" y2="16.5745" gradientUnits="userSpaceOnUse">
<stop stop-color="#55A99D"/>
<stop offset="1" stop-color="#007665"/>
</linearGradient>
<linearGradient id="paint16_linear_249_15146" x1="10.8237" y1="13.7351" x2="10.8237" y2="16.178" gradientUnits="userSpaceOnUse">
<stop stop-color="#55A99D"/>
<stop offset="1" stop-color="#007665"/>
</linearGradient>
<linearGradient id="paint17_linear_249_15146" x1="1.17387" y1="13.7776" x2="1.17387" y2="16.1685" gradientUnits="userSpaceOnUse">
<stop stop-color="#55A99D"/>
<stop offset="1" stop-color="#007665"/>
</linearGradient>
</defs>
</svg>
