<svg width="22" height="22" viewBox="0 0 22 22" fill="none" xmlns="http://www.w3.org/2000/svg">
<circle cx="11" cy="11" r="10.5" fill="#EBDFE0" stroke="#D4A8AF"/>
<g clip-path="url(#clip0_224_7877)">
<path d="M16.7162 6.70635C16.3389 6.329 15.7271 6.329 15.3498 6.70635L8.81309 13.2454L6.64746 11.0798C6.27012 10.7024 5.6584 10.7024 5.28105 11.0798C4.90371 11.4571 4.90371 12.0688 5.28105 12.4462L8.12871 15.2938C8.44043 15.6056 8.92324 15.6665 9.30293 15.4438C9.31699 15.4345 9.33105 15.4274 9.34277 15.4181C9.39668 15.3829 9.44824 15.3407 9.49512 15.2938L16.7162 8.07275C17.0936 7.69541 17.0936 7.08369 16.7162 6.70635Z" fill="#D4A8AF"/>
</g>
<defs>
<clipPath id="clip0_224_7877">
<rect width="12" height="12" fill="white" transform="translate(5 5)"/>
</clipPath>
</defs>
</svg>
