<svg width="17" height="17" viewBox="0 0 17 17" fill="none" xmlns="http://www.w3.org/2000/svg">
<path d="M6.49996 9.16675L6.14641 8.81319L6.49996 8.45964L6.85351 8.81319L6.49996 9.16675ZM6.99996 15.1667C6.99996 15.4429 6.7761 15.6667 6.49996 15.6667C6.22382 15.6667 5.99996 15.4429 5.99996 15.1667L6.99996 15.1667ZM2.81307 12.1465L6.14641 8.81319L6.85351 9.5203L3.52018 12.8536L2.81307 12.1465ZM6.85351 8.81319L10.1868 12.1465L9.47974 12.8536L6.14641 9.5203L6.85351 8.81319ZM6.99996 9.16675L6.99996 15.1667L5.99996 15.1667L5.99996 9.16675L6.99996 9.16675Z" fill="#2C3E50"/>
<path d="M10.5 7.83325L10.1464 8.18681L10.5 8.54036L10.8535 8.18681L10.5 7.83325ZM11 1.83325C11 1.55711 10.7761 1.33325 10.5 1.33325C10.2238 1.33325 9.99996 1.55711 9.99996 1.83325L11 1.83325ZM6.81307 4.85347L10.1464 8.18681L10.8535 7.4797L7.52018 4.14637L6.81307 4.85347ZM10.8535 8.18681L14.1868 4.85347L13.4797 4.14637L10.1464 7.4797L10.8535 8.18681ZM11 7.83325L11 1.83325L9.99996 1.83325L9.99996 7.83325L11 7.83325Z" fill="#2C3E50"/>
</svg>
