<svg width="24" height="24" viewBox="0 0 24 24" fill="none" xmlns="http://www.w3.org/2000/svg">
<rect x="0.333333" y="0.333333" width="23.3333" height="23.3333" rx="11.6667" fill="#EAECED"/>
<rect x="0.333333" y="0.333333" width="23.3333" height="23.3333" rx="11.6667" stroke="#2C3E50" stroke-width="0.666667"/>
<path d="M14.0002 7.94238C14.2404 7.94247 14.4354 8.04406 14.6106 8.17773C14.7781 8.30555 14.9626 8.49162 15.178 8.70703L15.2932 8.82129L15.5901 9.12305C15.6796 9.2173 15.7585 9.30575 15.8225 9.38965C15.9561 9.56486 16.0569 9.75987 16.0569 10C16.0569 10.2401 15.9561 10.4351 15.8225 10.6104C15.7585 10.6943 15.6796 10.7827 15.5901 10.877L15.2932 11.1787L10.4963 15.9746C10.4085 16.0625 10.3299 16.1428 10.2424 16.208L10.1516 16.2686C10.088 16.3046 10.0207 16.3304 9.94946 16.3525L9.7229 16.4131L7.95337 16.8555C7.8439 16.8828 7.72428 16.9132 7.62524 16.9229C7.53498 16.9316 7.39103 16.9306 7.26294 16.8369L7.20923 16.791C7.06962 16.6514 7.06632 16.4772 7.07642 16.374C7.08613 16.275 7.11743 16.1562 7.14478 16.0469L7.58716 14.2773L7.64771 14.0498C7.66982 13.9787 7.69572 13.9112 7.73169 13.8477L7.79126 13.7568C7.85651 13.6694 7.93769 13.5909 8.02563 13.5029L12.8215 8.70703L13.1233 8.40918C13.2174 8.31983 13.3061 8.24164 13.3899 8.17773C13.5651 8.04412 13.7601 7.94238 14.0002 7.94238Z" stroke="#2C3E50" stroke-width="0.666667"/>
<path d="M12.3333 9.00008L14.3333 7.66675L16.3333 9.66675L14.9999 11.6667L12.3333 9.00008Z" fill="#2C3E50"/>
</svg>
