<svg width="70" height="70" viewBox="0 0 70 70" fill="none" xmlns="http://www.w3.org/2000/svg">
<rect width="70" height="70" rx="35" fill="#B76E79"/>
<path d="M20.9592 27.4709C20.9592 24.4012 20.9592 22.8664 21.9128 21.9128C22.8664 20.9592 24.4012 20.9592 27.4709 20.9592H42.529C45.5986 20.9592 47.1334 20.9592 48.087 21.9128C49.0406 22.8664 49.0406 24.4012 49.0406 27.4709V42.529C49.0406 45.5986 49.0406 47.1334 48.087 48.087C47.1334 49.0406 45.5986 49.0406 42.529 49.0406H27.4709C24.4012 49.0406 22.8664 49.0406 21.9128 48.087C20.9592 47.1334 20.9592 45.5986 20.9592 42.529V27.4709Z" stroke="white" stroke-width="0.813954"/>
<path fill-rule="evenodd" clip-rule="evenodd" d="M47.4127 40.5969L43.8302 37.0144L43.8091 36.9933L43.8091 36.9933C43.2844 36.4685 42.8614 36.0456 42.484 35.7577C42.0922 35.4587 41.7021 35.2673 41.2402 35.2673C40.7783 35.2673 40.3881 35.4587 39.9963 35.7577C39.619 36.0456 39.196 36.4685 38.6713 36.9933L38.6713 36.9933L38.6502 37.0144L36.4123 39.2522C36.0177 39.6469 35.7536 39.9095 35.5378 40.0697C35.3288 40.2249 35.2444 40.2232 35.1975 40.2142C35.1506 40.2052 35.0716 40.1754 34.9351 39.9536C34.7943 39.7248 34.6466 39.3828 34.4268 38.8699L32.5881 34.5795L32.5741 34.5469C32.1568 33.5732 31.8254 32.7998 31.489 32.2531C31.1446 31.6933 30.7446 31.2863 30.1553 31.1729C29.5661 31.0594 29.0436 31.2887 28.5158 31.6806C28.0005 32.0632 27.4056 32.6582 26.6565 33.4073L26.6314 33.4324L22.5872 37.4766V38.6277L27.207 34.0079C27.9868 33.2281 28.5398 32.6766 29.0011 32.334C29.4557 31.9965 29.7425 31.9223 30.0014 31.9721C30.2604 32.022 30.499 32.1974 30.7958 32.6797C31.0969 33.1691 31.4055 33.8865 31.8399 34.9001L33.6786 39.1905L33.6914 39.2204C33.8951 39.6955 34.0658 40.0939 34.2419 40.3801C34.426 40.6795 34.6664 40.9408 35.0436 41.0135C35.4208 41.0861 35.7409 40.9327 36.0231 40.7232C36.2929 40.5228 36.5994 40.2163 36.9649 39.8508L36.9879 39.8278L39.2258 37.5899C39.7765 37.0391 40.1613 36.6556 40.4901 36.4048C40.8095 36.1611 41.0278 36.0812 41.2402 36.0812C41.4526 36.0812 41.6709 36.1611 41.9903 36.4048C42.3191 36.6556 42.7039 37.0391 43.2546 37.5899L47.1927 41.528L47.4127 41.308V40.5969Z" fill="white"/>
<ellipse cx="42.0203" cy="27.9795" rx="2.34012" ry="2.34012" fill="white"/>
</svg>
