<svg width="18" height="18" viewBox="0 0 18 18" fill="none" xmlns="http://www.w3.org/2000/svg">
<g clip-path="url(#clip0_2232_3241)">
<path opacity="0.2" fill-rule="evenodd" clip-rule="evenodd" d="M11.403 3.79688C10.8932 4.15471 10.4772 4.63012 10.1902 5.18284C9.90311 5.73556 9.75348 6.34931 9.75395 6.97212C9.75395 7.91059 10.087 8.77143 10.6409 9.44176H3.40345C3.21631 9.44176 3.03684 9.5161 2.90451 9.64843C2.77218 9.78076 2.69784 9.96023 2.69784 10.1474V10.853C2.69784 11.0401 2.77218 11.2196 2.90451 11.3519C3.03684 11.4843 3.21631 11.5586 3.40345 11.5586H14.6932C14.8804 11.5586 15.0598 11.4843 15.1922 11.3519C15.3245 11.2196 15.3988 11.0401 15.3988 10.853V10.4296C15.9617 10.1415 16.446 9.72089 16.8101 9.20397V13.6754C16.8101 14.0497 16.6614 14.4087 16.3967 14.6733C16.1321 14.938 15.7731 15.0866 15.3988 15.0866H2.69784C2.32356 15.0866 1.96461 14.938 1.69996 14.6733C1.4353 14.4087 1.28662 14.0497 1.28662 13.6754V5.2081C1.28662 4.83382 1.4353 4.47487 1.69996 4.21021C1.96461 3.94556 2.32356 3.79688 2.69784 3.79688H11.403ZM16.1355 4.00362C16.3041 4.14615 16.4601 4.3028 16.6026 4.47144C16.4859 4.28088 16.3259 4.12059 16.1355 4.00362Z" fill="#77787D"/>
<path opacity="0.4" fill-rule="evenodd" clip-rule="evenodd" d="M10.1773 5.20801C9.84334 5.86065 9.70189 6.59483 9.76948 7.32484H1.28662V5.20801H10.1773Z" fill="#77787D"/>
<path fill-rule="evenodd" clip-rule="evenodd" d="M13.6348 10.8528C12.6055 10.8528 11.6184 10.4439 10.8906 9.71611C10.1628 8.9883 9.75391 8.00119 9.75391 6.97192C9.75391 5.94266 10.1628 4.95554 10.8906 4.22774C11.6184 3.49994 12.6055 3.09106 13.6348 3.09106C14.664 3.09106 15.6511 3.49994 16.3789 4.22774C17.1068 4.95554 17.5156 5.94266 17.5156 6.97192C17.5156 8.00119 17.1068 8.9883 16.3789 9.71611C15.6511 10.4439 14.664 10.8528 13.6348 10.8528ZM12.0937 5.36384H11.6555L10.5858 5.90716V6.46177L11.434 6.01864V8.58001H12.0994V5.36313H12.0937V5.36384ZM13.3688 5.80767C13.6849 5.80767 13.9064 5.98477 13.9064 6.24021C13.9064 6.51751 13.6454 6.71155 13.2686 6.71155H13.1027V7.1829H13.3024C13.7011 7.1829 13.9728 7.38188 13.9728 7.67048C13.9728 7.94778 13.7067 8.13618 13.3299 8.13618C13.0526 8.13618 12.7753 8.04728 12.4874 7.87511V8.42972C12.7979 8.56308 13.1084 8.63505 13.4132 8.63505C14.1393 8.63505 14.6381 8.2639 14.6381 7.72622C14.6381 7.34872 14.4053 7.0439 14.0172 6.92183C14.3503 6.81104 14.5662 6.51751 14.5662 6.18446C14.5662 5.66372 14.1061 5.3088 13.4407 5.3088C13.1407 5.31206 12.8445 5.37615 12.57 5.4972V6.04052C12.8367 5.89093 13.1084 5.80767 13.3688 5.80767V5.80767ZM15.7636 7.01638C16.1686 7.01638 16.4509 7.25487 16.4509 7.56534C16.4509 7.89204 16.1686 8.11925 15.7636 8.11925C15.5195 8.11925 15.2647 8.04163 15.0044 7.88146V8.4523C15.276 8.57437 15.5533 8.63575 15.825 8.63575C15.9689 8.63575 16.1016 8.61318 16.2293 8.57931C16.5257 8.09964 16.683 7.54707 16.6837 6.98321L16.6731 6.75036C16.4669 6.62813 16.2304 6.5665 15.9908 6.57255C15.885 6.57217 15.7793 6.57971 15.6747 6.59513V5.87399H16.4734C16.4041 5.6965 16.3185 5.52573 16.218 5.36384H15.0982V7.11022C15.3153 7.05188 15.5388 7.02036 15.7636 7.01638V7.01638Z" fill="#77787D"/>
</g>
<defs>
<clipPath id="clip0_2232_3241">
<rect width="16.9347" height="16.9347" fill="white" transform="translate(0.581055 0.974365)"/>
</clipPath>
</defs>
</svg>
