<svg width="36" height="36" viewBox="0 0 36 36" fill="none" xmlns="http://www.w3.org/2000/svg">
<path d="M34.0856 9.45402L18.3356 1.57902C18.2314 1.52705 18.1166 1.5 18.0002 1.5C17.8838 1.5 17.7689 1.52705 17.6647 1.57902L1.91475 9.45402C1.79013 9.51629 1.68532 9.61204 1.61207 9.73053C1.53881 9.84902 1.5 9.98558 1.5 10.1249V25.8749C1.49997 26.0142 1.53872 26.1507 1.61191 26.2692C1.68509 26.3877 1.78983 26.4834 1.91437 26.5458L17.6644 34.4208C17.7686 34.473 17.8835 34.5001 18 34.5001C18.1165 34.5001 18.2314 34.473 18.3356 34.4208L34.0856 26.5458C34.2102 26.4834 34.3149 26.3877 34.3881 26.2692C34.4613 26.1507 34.5 26.0142 34.5 25.8749V10.1249C34.5 9.98562 34.4613 9.84909 34.3881 9.7306C34.3149 9.61211 34.2102 9.51634 34.0856 9.45402ZM18 3.08839L32.073 10.1249L29.0625 11.6301L14.9899 4.59364L18 3.08839ZM23.0625 14.6301L8.9895 7.59364L13.3125 5.43214L27.3855 12.4686L23.0625 14.6301ZM23.625 16.0259L28.125 13.7759V19.3548L26.6857 18.3269C26.6048 18.2692 26.5132 18.2281 26.4162 18.206C26.3193 18.184 26.219 18.1813 26.121 18.1983C26.0231 18.2155 25.9296 18.2519 25.8458 18.3055C25.7621 18.359 25.6898 18.4286 25.6331 18.5103L23.625 21.4116V16.0259ZM7.3125 8.43214L21.3851 15.4686L18 17.1614L3.927 10.1249L7.3125 8.43214ZM3 11.3384L17.25 18.4634V32.536L3 25.411V11.3384ZM18.75 32.5364V18.4634L22.125 16.7759V23.8124C22.1249 23.9723 22.1759 24.1281 22.2706 24.257C22.3653 24.3859 22.4987 24.4811 22.6513 24.5288C22.8039 24.5765 22.9678 24.5742 23.1191 24.5221C23.2703 24.4701 23.4009 24.3711 23.4919 24.2395L26.4337 19.9904L28.4396 21.4229C28.5517 21.5033 28.6837 21.5511 28.8213 21.5612C28.9588 21.5713 29.0964 21.5433 29.219 21.4801C29.3416 21.417 29.4444 21.3213 29.516 21.2034C29.5877 21.0856 29.6254 20.9503 29.625 20.8124V13.0259L33 11.3384V25.411L18.75 32.5364Z" fill="#E1E1E1"/>
</svg>
