<svg width="36" height="36" viewBox="0 0 36 36" fill="none" xmlns="http://www.w3.org/2000/svg">
<g clip-path="url(#clip0_224_8449)">
<path d="M8.05767 34.5689C7.6632 34.5689 7.27155 34.4459 6.93728 34.2042C6.63325 33.9841 6.40063 33.6795 6.26834 33.3283C6.13604 32.9771 6.10992 32.5947 6.19321 32.2288L8.50922 22.0269L0.654839 15.139C0.372355 14.8925 0.168579 14.5684 0.0688626 14.207C-0.0308535 13.8456 -0.0221075 13.4628 0.0940123 13.1064C0.209419 12.7501 0.426854 12.4355 0.719358 12.2017C1.01186 11.9678 1.36657 11.825 1.73951 11.7908L12.1317 10.8473L16.2406 1.23198C16.5434 0.525535 17.2333 0.0693359 18 0.0693359C18.7666 0.0693359 19.4565 0.525535 19.7595 1.23037L23.8682 10.8473L34.2588 11.7907C35.024 11.8596 35.6689 12.3774 35.9059 13.1063C36.143 13.8353 35.9238 14.6349 35.3464 15.1389L27.4921 22.0255L29.8081 32.2272C29.9779 32.9773 29.6867 33.753 29.0643 34.2028C28.4433 34.6527 27.6152 34.6873 26.9612 34.2943L18 28.9391L9.03876 34.2973C8.73578 34.4772 8.3982 34.5689 8.05767 34.5689ZM18 26.6322C18.3406 26.6322 18.6778 26.7237 18.9811 26.9036L27.4383 31.9619L25.2525 22.3329C25.176 21.9963 25.1919 21.6453 25.2986 21.3171C25.4053 20.9889 25.5988 20.6956 25.8586 20.4684L33.2749 13.9644L23.463 13.0734C23.1177 13.0425 22.7874 12.9182 22.5073 12.7139C22.2272 12.5097 22.0079 12.233 21.873 11.9137L18 2.83993L14.1223 11.915C13.8492 12.5616 13.2417 13.0058 12.5369 13.0703L2.72363 13.9613L10.1397 20.4654C10.6708 20.9305 10.9031 21.6446 10.7458 22.3315L8.56168 31.9602L17.0189 26.9036C17.3219 26.7237 17.6594 26.6322 18 26.6322ZM12.0524 11.0332C12.0524 11.0332 12.0524 11.0348 12.0507 11.0362L12.0524 11.0332ZM23.9446 11.0287L23.9462 11.0318C23.9462 11.0301 23.9462 11.0301 23.9445 11.0287H23.9446Z" fill="#E1E1E1"/>
</g>
<defs>
<clipPath id="clip0_224_8449">
<rect width="36" height="36" fill="white"/>
</clipPath>
</defs>
</svg>
