<svg width="36" height="36" viewBox="0 0 36 36" fill="none" xmlns="http://www.w3.org/2000/svg">
<g clip-path="url(#clip0_224_8461)">
<path d="M34.875 34.1367H1.82812V1.16016C1.82812 0.77182 1.51334 0.457031 1.125 0.457031C0.736664 0.457031 0.421875 0.77182 0.421875 1.16016V34.8398C0.421875 35.2281 0.736664 35.543 1.125 35.543H34.875C35.2633 35.543 35.5781 35.2281 35.5781 34.8398C35.5781 34.4516 35.2633 34.1367 34.875 34.1367Z" fill="#E1E1E1"/>
<path d="M6.75 32.7304C8.68852 32.7304 10.2656 31.1533 10.2656 29.2148C10.2656 28.1829 9.81872 27.2536 9.10842 26.6099L12.6326 20.6539C14.2931 21.2297 16.1331 20.4867 16.9272 18.8986L20.8192 19.9365C20.6995 21.9708 22.3234 23.6601 24.3281 23.6601C26.2666 23.6601 27.8438 22.083 27.8438 20.1445C27.8438 19.2368 27.498 18.4084 26.9312 17.7839L30.5931 12.7903C31.0536 13.0033 31.5551 13.1136 32.0625 13.1133C34.001 13.1133 35.5781 11.5362 35.5781 9.59766C35.5781 7.65914 34.001 6.08203 32.0625 6.08203C30.124 6.08203 28.5469 7.65914 28.5469 9.59766C28.5469 10.5054 28.8927 11.3338 29.4595 11.9582L25.7974 16.9519C24.0797 16.1582 22.0345 16.873 21.1821 18.5779L17.2901 17.5401C17.4094 15.493 15.7742 13.8163 13.7812 13.8163C11.8427 13.8163 10.2656 15.3934 10.2656 17.332C10.2656 18.3638 10.7125 19.2932 11.4228 19.9369L7.89855 25.8929C7.52922 25.7645 7.14099 25.6991 6.75 25.6991C4.81148 25.6991 3.23438 27.2763 3.23438 29.2148C3.23438 31.1533 4.81148 32.7304 6.75 32.7304ZM32.0625 7.48821C33.2256 7.48821 34.1719 8.43448 34.1719 9.59759C34.1719 10.7607 33.2256 11.707 32.0625 11.707C30.8994 11.707 29.9531 10.7607 29.9531 9.59759C29.9531 8.43448 30.8994 7.48821 32.0625 7.48821ZM24.3281 18.0351C25.4912 18.0351 26.4375 18.9814 26.4375 20.1445C26.4375 21.3076 25.4912 22.2538 24.3281 22.2538C23.165 22.2538 22.2188 21.3076 22.2188 20.1445C22.2188 18.9814 23.165 18.0351 24.3281 18.0351ZM13.7812 15.2226C14.9444 15.2226 15.8906 16.1689 15.8906 17.332C15.8906 18.4951 14.9444 19.4413 13.7812 19.4413C12.6181 19.4413 11.6719 18.4951 11.6719 17.332C11.6719 16.1689 12.6181 15.2226 13.7812 15.2226ZM6.75 27.1054C7.91311 27.1054 8.85938 28.0517 8.85938 29.2148C8.85938 30.3779 7.91311 31.3241 6.75 31.3241C5.58689 31.3241 4.64062 30.3779 4.64062 29.2148C4.64062 28.0517 5.58689 27.1054 6.75 27.1054Z" fill="#E1E1E1"/>
</g>
<defs>
<clipPath id="clip0_224_8461">
<rect width="36" height="36" fill="white"/>
</clipPath>
</defs>
</svg>
