<svg width="36" height="36" viewBox="0 0 36 36" fill="none" xmlns="http://www.w3.org/2000/svg">
<path d="M28.542 4.71666H25.2851V3.25966C25.2851 2.78826 24.7709 2.57401 24.2995 2.57401H21.7712C21.1712 0.859853 19.6713 0.00277472 17.9572 0.00277472C16.2619 -0.0609586 14.7199 0.978543 14.1432 2.57401H11.6577C11.1863 2.57401 10.7149 2.78826 10.7149 3.25966V4.71666H7.4579C5.52785 4.73725 3.94887 6.2598 3.85815 8.18779V32.743C3.85815 34.6286 5.57231 35.9999 7.4579 35.9999H28.542C30.4276 35.9999 32.1417 34.6286 32.1417 32.743V8.18788C32.051 6.2598 30.472 4.73725 28.542 4.71666ZM12.4289 4.28817H14.7859C14.9863 4.26371 15.1736 4.17557 15.3202 4.03671C15.4668 3.89785 15.5649 3.71561 15.6002 3.5168C15.854 2.4116 16.8236 1.61826 17.9572 1.5884C19.0803 1.62244 20.0353 2.41824 20.2713 3.5168C20.3086 3.7221 20.413 3.9092 20.5681 4.04879C20.7232 4.18838 20.9203 4.27257 21.1283 4.28817H23.571V7.71648H12.4289V4.28817ZM30.4276 32.7431C30.4276 33.6859 29.4848 34.2858 28.542 34.2858H7.4579C6.51511 34.2858 5.57231 33.6859 5.57231 32.7431V8.18788C5.65975 7.20653 6.47278 6.44887 7.4579 6.4309H10.7148V8.61646C10.7601 9.09663 11.1759 9.45582 11.6576 9.43072H24.2994C24.536 9.44366 24.7687 9.36707 24.9513 9.21619C25.134 9.0653 25.2531 8.85119 25.285 8.61646V6.43082H28.5419C29.527 6.44887 30.3401 7.20645 30.4275 8.18779V32.7431H30.4276Z" fill="#E1E1E1"/>
<path d="M14.7002 19.158C14.3787 18.8192 13.8451 18.8001 13.5002 19.1152L10.7576 21.7292L9.60053 20.5293C9.27907 20.1905 8.74542 20.1714 8.40059 20.4865C8.24078 20.6539 8.15161 20.8764 8.15161 21.1079C8.15161 21.3393 8.24078 21.5618 8.40059 21.7292L10.1576 23.5291C10.2327 23.6132 10.3253 23.6799 10.429 23.7243C10.5326 23.7687 10.6448 23.7899 10.7575 23.7863C10.9836 23.7831 11.1992 23.6906 11.3574 23.5291L14.7 20.358C15.0314 20.054 15.0535 19.5389 14.7495 19.2076C14.7339 19.1902 14.7174 19.1737 14.7002 19.158ZM26.9992 21.0007H17.1429C16.6695 21.0007 16.2858 21.3844 16.2858 21.8578C16.2858 22.3311 16.6695 22.7149 17.1429 22.7149H26.9992C27.4726 22.7149 27.8563 22.3311 27.8563 21.8578C27.8563 21.3844 27.4726 21.0007 26.9992 21.0007ZM14.7002 12.3014C14.3787 11.9625 13.8451 11.9434 13.5002 12.2586L10.7576 14.8726L9.60053 13.6727C9.27907 13.3338 8.74542 13.3147 8.40059 13.6299C8.24078 13.7973 8.15161 14.0198 8.15161 14.2512C8.15161 14.4827 8.24078 14.7052 8.40059 14.8726L10.1576 16.6725C10.2327 16.7566 10.3253 16.8232 10.429 16.8677C10.5326 16.9121 10.6448 16.9332 10.7575 16.9296C10.9836 16.9264 11.1992 16.834 11.3574 16.6725L14.7 13.5013C15.0314 13.1973 15.0535 12.6822 14.7495 12.3509C14.7339 12.3336 14.7174 12.3171 14.7002 12.3014ZM26.9992 14.1441H17.1429C16.6695 14.1441 16.2858 14.5278 16.2858 15.0012C16.2858 15.4745 16.6695 15.8582 17.1429 15.8582H26.9992C27.4726 15.8582 27.8563 15.4745 27.8563 15.0012C27.8563 14.5278 27.4726 14.1441 26.9992 14.1441ZM14.7002 26.0146C14.3787 25.6757 13.8451 25.6567 13.5002 25.9717L10.7576 28.5858L9.60053 27.3858C9.27907 27.047 8.74542 27.028 8.40059 27.343C8.24078 27.5104 8.15161 27.733 8.15161 27.9644C8.15161 28.1958 8.24078 28.4184 8.40059 28.5858L10.1576 30.3857C10.2327 30.4698 10.3253 30.5364 10.429 30.5808C10.5326 30.6253 10.6448 30.6464 10.7575 30.6428C10.9836 30.6396 11.1992 30.5472 11.3574 30.3857L14.7 27.2145C15.0314 26.9105 15.0535 26.3954 14.7495 26.0641C14.7338 26.0468 14.7174 26.0303 14.7002 26.0146ZM26.9992 27.8573H17.1429C16.6695 27.8573 16.2858 28.241 16.2858 28.7144C16.2858 29.1878 16.6695 29.5715 17.1429 29.5715H26.9992C27.4726 29.5715 27.8563 29.1878 27.8563 28.7144C27.8563 28.241 27.4726 27.8573 26.9992 27.8573Z" fill="#E1E1E1"/>
</svg>
