<svg width="16" height="16" viewBox="0 0 16 16" fill="none" xmlns="http://www.w3.org/2000/svg">
<path d="M5.66699 8.33325L10.3337 8.33325" stroke="#2C3E50" stroke-linecap="round"/>
<path d="M5.66699 10.3333L8.33366 10.3333" stroke="#2C3E50" stroke-linecap="round"/>
<path d="M3.66699 4.73325C3.66699 3.89317 3.66699 3.47313 3.83048 3.15227C3.97429 2.87002 4.20376 2.64055 4.48601 2.49674C4.80687 2.33325 5.22691 2.33325 6.06699 2.33325H8.00621C8.3731 2.33325 8.55654 2.33325 8.72917 2.3747C8.88223 2.41144 9.02854 2.47205 9.16275 2.55429C9.31413 2.64705 9.44384 2.77677 9.70327 3.0362L11.6307 4.96364C11.8901 5.22307 12.0199 5.35278 12.1126 5.50416C12.1949 5.63837 12.2555 5.78468 12.2922 5.93774C12.3337 6.11037 12.3337 6.29381 12.3337 6.6607V11.2666C12.3337 12.1067 12.3337 12.5267 12.1702 12.8476C12.0264 13.1298 11.7969 13.3593 11.5146 13.5031C11.1938 13.6666 10.7737 13.6666 9.93366 13.6666H6.06699C5.22691 13.6666 4.80687 13.6666 4.48601 13.5031C4.20376 13.3593 3.97429 13.1298 3.83048 12.8476C3.66699 12.5267 3.66699 12.1067 3.66699 11.2666V4.73325Z" stroke="#2C3E50"/>
<path d="M8.33301 2.33325V3.93325C8.33301 4.77333 8.33301 5.19337 8.4965 5.51424C8.64031 5.79648 8.86978 6.02595 9.15202 6.16976C9.47289 6.33325 9.89293 6.33325 10.733 6.33325H12.333" stroke="#2C3E50"/>
</svg>
