<svg width="22" height="12" viewBox="0 0 22 12" fill="none" xmlns="http://www.w3.org/2000/svg">
<path d="M15.9035 0.413574H5.99601C2.89838 0.413574 0.365234 2.95377 0.365234 6.05846C0.365234 9.16315 2.89838 11.7033 5.9953 11.7033H15.9028C19.0004 11.7033 21.5336 9.16315 21.5336 6.05846C21.5336 2.95377 19.0004 0.413574 15.9035 0.413574Z" fill="white"/>
<path d="M15.9035 0.87081C16.5992 0.87081 17.2745 1.00911 17.911 1.28006C19.1541 1.81002 20.1431 2.80159 20.6699 4.04606C20.9394 4.68393 21.0777 5.36132 21.0777 6.05846C21.0777 6.7556 20.9394 7.43299 20.6692 8.07086C20.141 9.31442 19.1524 10.3055 17.9102 10.8369C17.2752 11.1078 16.5992 11.2461 15.9035 11.2461H5.99601C5.30605 11.247 4.62309 11.1078 3.98855 10.8369C2.74542 10.3069 1.75638 9.31534 1.22961 8.07086C0.9595 7.43438 0.820777 6.74989 0.821765 6.05846C0.821765 5.36132 0.960064 4.68393 1.23031 4.04606C1.75846 2.80251 2.74705 1.81138 3.98925 1.28006C4.62358 1.00923 5.30629 0.869998 5.99601 0.87081H15.9028H15.9035ZM15.9035 0.413574H5.99601C2.89838 0.413574 0.365234 2.95377 0.365234 6.05846C0.365234 9.16315 2.89838 11.7033 5.9953 11.7033H15.9028C19.0004 11.7033 21.5336 9.16315 21.5336 6.05846C21.5336 2.95377 19.0004 0.413574 15.9035 0.413574Z" fill="#3C4043"/>
<path d="M10.4594 6.45935V8.16693H9.91895V3.9502H11.3513C11.7147 3.9502 12.0245 4.07156 12.2778 4.31429C12.5368 4.55702 12.6659 4.85338 12.6659 5.20336C12.6659 5.56181 12.5368 5.85817 12.2778 6.09807C12.0273 6.33798 11.7175 6.45653 11.3513 6.45653H10.4594V6.45935ZM10.4594 4.46952V5.94002H11.3626C11.5771 5.94002 11.7571 5.86663 11.8975 5.72269C12.0414 5.57875 12.1141 5.40375 12.1141 5.20618C12.1145 5.1108 12.0955 5.01633 12.0582 4.92852C12.021 4.8407 11.9663 4.76136 11.8975 4.69532C11.8294 4.62212 11.7465 4.56435 11.6542 4.52589C11.562 4.48743 11.4625 4.46917 11.3626 4.47235H10.4594V4.46952ZM14.0792 5.18643C14.4793 5.18643 14.7947 5.29368 15.0247 5.50818C15.2562 5.72269 15.3712 6.01622 15.3712 6.38879V8.16693H14.8561V7.76614H14.8335C14.6113 8.09636 14.3128 8.26007 13.9416 8.26007C13.6234 8.26007 13.3588 8.16693 13.1443 7.97782C13.0418 7.89138 12.9599 7.7832 12.9045 7.66115C12.8491 7.5391 12.8216 7.40623 12.8239 7.27221C12.8239 6.97303 12.9368 6.73595 13.1619 6.56096C13.387 6.38314 13.6883 6.29565 14.0623 6.29565C14.3833 6.29565 14.648 6.35492 14.8533 6.47346V6.34927C14.8542 6.25781 14.8347 6.1673 14.7963 6.0843C14.7578 6.00131 14.7014 5.92792 14.631 5.86946C14.4879 5.73959 14.3007 5.66896 14.1075 5.67189C13.8062 5.67189 13.567 5.7989 13.3927 6.05574L12.9171 5.75656C13.1782 5.37553 13.567 5.18643 14.0792 5.18643V5.18643ZM13.3807 7.28068C13.3807 7.4218 13.4406 7.54034 13.5613 7.63348C13.6799 7.72662 13.8203 7.77461 13.9811 7.77461C14.2091 7.77461 14.4116 7.68993 14.5887 7.52059C14.7665 7.35124 14.8568 7.15367 14.8568 6.92505C14.6875 6.7924 14.4539 6.72466 14.1526 6.72466C13.9332 6.72466 13.7504 6.77828 13.6036 6.88271C13.4548 6.99279 13.3814 7.12544 13.3814 7.28068H13.3807ZM18.3101 5.27957L16.5086 9.4342H15.9512L16.6215 7.98064L15.4333 5.27957H16.0218L16.8763 7.35124H16.8876L17.7209 5.27957H18.3094H18.3101Z" fill="#3C4043"/>
<path d="M8.3099 6.11497C8.3099 5.93857 8.29367 5.76922 8.26403 5.60693H5.99902V6.53834H7.3037C7.25078 6.84881 7.08002 7.11271 6.81965 7.2884V7.89311H7.59582C8.04953 7.47186 8.30919 6.85022 8.30919 6.11497H8.3099Z" fill="#4285F4"/>
<path d="M6.82099 7.28827C6.60508 7.43433 6.32636 7.52041 6.00037 7.52041C5.37167 7.52041 4.83752 7.09493 4.64701 6.52197H3.84473V7.14503C4.04494 7.54516 4.35254 7.8817 4.73312 8.11697C5.11369 8.35225 5.55223 8.47698 5.99966 8.47722C6.65165 8.47722 7.1992 8.26201 7.59646 7.89227L6.82029 7.28827H6.82099Z" fill="#34A853"/>
<path d="M4.57032 6.05981C4.57032 5.89893 4.59714 5.7437 4.64582 5.59693V4.97388H3.84354C3.67441 5.31084 3.58668 5.68278 3.58741 6.05981C3.58741 6.45072 3.67984 6.81905 3.84354 7.14575L4.64512 6.52269C4.59519 6.37347 4.5697 6.21716 4.56962 6.05981H4.57032Z" fill="#FABB05"/>
<path d="M6.00015 4.59929C6.35578 4.59929 6.67401 4.72207 6.92591 4.96198L7.61388 4.2726C7.17787 3.86151 6.59936 3.63562 6.00015 3.64249C5.55279 3.64266 5.11431 3.76729 4.73374 4.00243C4.35317 4.23758 4.04552 4.57397 3.84521 4.97397L4.64608 5.59703C4.8373 5.02407 5.37145 4.59929 6.00086 4.59929H6.00015Z" fill="#E94235"/>
</svg>
