<svg width="25" height="24" viewBox="0 0 25 24" fill="none" xmlns="http://www.w3.org/2000/svg">
<path d="M5.35009 13.9082L12.3027 20.4395C12.5422 20.6644 12.6619 20.7769 12.8031 20.8046C12.8667 20.8171 12.9321 20.8171 12.9957 20.8046C13.1369 20.7769 13.2566 20.6644 13.4961 20.4395L20.4487 13.9082C22.4049 12.0706 22.6425 9.0466 20.9972 6.92607L20.6879 6.52734C18.7197 3.99058 14.769 4.41601 13.3861 7.31365C13.1907 7.72296 12.6081 7.72296 12.4127 7.31365C11.0298 4.41601 7.07913 3.99058 5.11096 6.52735L4.8016 6.92607C3.15636 9.0466 3.39391 12.0706 5.35009 13.9082Z" stroke="#B76E79"/>
</svg>
