<svg width="18" height="12" viewBox="0 0 18 12" fill="none" xmlns="http://www.w3.org/2000/svg">
<path d="M15.9497 0.57251H1.83749C1.0581 0.57251 0.42627 1.20434 0.42627 1.98373V10.4511C0.42627 11.2305 1.0581 11.8623 1.83749 11.8623H15.9497C16.7291 11.8623 17.3609 11.2305 17.3609 10.4511V1.98373C17.3609 1.20434 16.7291 0.57251 15.9497 0.57251Z" fill="#252525"/>
<path d="M6.77708 9.74532C8.72557 9.74532 10.3051 8.16575 10.3051 6.21726C10.3051 4.26877 8.72557 2.68921 6.77708 2.68921C4.82859 2.68921 3.24902 4.26877 3.24902 6.21726C3.24902 8.16575 4.82859 9.74532 6.77708 9.74532Z" fill="#EB001B"/>
<path d="M11.0105 9.74532C12.959 9.74532 14.5385 8.16575 14.5385 6.21726C14.5385 4.26877 12.959 2.68921 11.0105 2.68921C9.06199 2.68921 7.48242 4.26877 7.48242 6.21726C7.48242 8.16575 9.06199 9.74532 11.0105 9.74532Z" fill="#F79E1B"/>
<path fill-rule="evenodd" clip-rule="evenodd" d="M8.89364 3.39478C9.75057 4.03844 10.3049 5.06323 10.3049 6.21748C10.3049 7.37173 9.75057 8.39652 8.89364 9.04018C8.03672 8.39652 7.48242 7.37173 7.48242 6.21748C7.48242 5.06323 8.03672 4.03844 8.89364 3.39478V3.39478Z" fill="#FF5F00"/>
</svg>
