<svg width="200" height="200" viewBox="0 0 200 200" fill="none" xmlns="http://www.w3.org/2000/svg">
<path d="M200 152.96H0V153.06H200V152.96Z" fill="#EBEBEB"/>
<path d="M179.96 159.396H166.712V159.496H179.96V159.396Z" fill="#EBEBEB"/>
<path d="M132.488 160.484H129.012V160.584H132.488V160.484Z" fill="#EBEBEB"/>
<path d="M166.312 155.684H158.636V155.784H166.312V155.684Z" fill="#EBEBEB"/>
<path d="M38.2599 156.356H20.9839V156.456H38.2599V156.356Z" fill="#EBEBEB"/>
<path d="M44.356 156.356H41.824V156.456H44.356V156.356Z" fill="#EBEBEB"/>
<path d="M90.0599 158.044H52.5879V158.144H90.0599V158.044Z" fill="#EBEBEB"/>
<path d="M94.8 135.12H17.5639C16.9589 135.119 16.379 134.878 15.9515 134.45C15.524 134.021 15.2839 133.441 15.2839 132.836V24.264C15.2892 23.6624 15.5316 23.0872 15.9585 22.6633C16.3854 22.2394 16.9623 22.001 17.5639 22H94.8C95.4057 22 95.9867 22.2406 96.415 22.669C96.8433 23.0973 97.084 23.6782 97.084 24.284V132.836C97.084 133.442 96.8433 134.023 96.415 134.451C95.9867 134.879 95.4057 135.12 94.8 135.12ZM17.5639 22.08C16.9854 22.0811 16.4309 22.3116 16.0222 22.7211C15.6135 23.1306 15.3839 23.6855 15.3839 24.264V132.836C15.3839 133.414 15.6135 133.969 16.0222 134.379C16.4309 134.788 16.9854 135.019 17.5639 135.02H94.8C95.3789 135.019 95.9338 134.788 96.3431 134.379C96.7525 133.97 96.9829 133.415 96.984 132.836V24.264C96.9829 23.6851 96.7525 23.1302 96.3431 22.7208C95.9338 22.3115 95.3789 22.0811 94.8 22.08H17.5639Z" fill="#EBEBEB"/>
<path d="M181.324 135.12H104.084C103.479 135.119 102.898 134.878 102.47 134.45C102.042 134.022 101.801 133.441 101.8 132.836V24.264C101.806 23.662 102.05 23.0868 102.477 22.663C102.905 22.2392 103.482 22.001 104.084 22H181.324C181.925 22.0021 182.501 22.2409 182.927 22.6647C183.353 23.0885 183.595 23.6631 183.6 24.264V132.836C183.6 133.44 183.361 134.02 182.934 134.448C182.507 134.876 181.928 135.118 181.324 135.12ZM104.084 22.08C103.505 22.0811 102.95 22.3115 102.541 22.7208C102.132 23.1302 101.901 23.6851 101.9 24.264V132.836C101.901 133.415 102.132 133.97 102.541 134.379C102.95 134.788 103.505 135.019 104.084 135.02H181.324C181.903 135.019 182.458 134.788 182.867 134.379C183.277 133.97 183.507 133.415 183.508 132.836V24.264C183.507 23.6851 183.277 23.1302 182.867 22.7208C182.458 22.3115 181.903 22.0811 181.324 22.08H104.084Z" fill="#EBEBEB"/>
<path d="M69.0337 53.1515L65.7842 53.8511L66.4838 57.1006L69.7333 56.401L69.0337 53.1515Z" fill="#EBEBEB"/>
<path d="M90.0049 74.4377C90.5451 64.3321 82.7908 55.7019 72.6851 55.1617C62.5795 54.6215 53.9493 62.3758 53.4091 72.4814C52.8688 82.5871 60.6231 91.2172 70.7288 91.7575C80.8344 92.2977 89.4646 84.5434 90.0049 74.4377Z" fill="#E0E0E0"/>
<path d="M81.7225 85.8809C88.5789 80.3485 89.6522 70.3054 84.1198 63.4491C78.5874 56.5927 68.5443 55.5194 61.688 61.0518C54.8316 66.5842 53.7583 76.6273 59.2907 83.4836C64.8231 90.34 74.8662 91.4133 81.7225 85.8809Z" fill="#F0F0F0"/>
<path d="M69.7294 50.0678L63.8755 51.3281L64.6643 54.9922L70.5182 53.7319L69.7294 50.0678Z" fill="#E0E0E0"/>
<path d="M73.224 73.1321C73.2867 73.4322 73.2592 73.7443 73.1448 74.0288C73.0304 74.3133 72.8342 74.5575 72.5812 74.7306C72.3281 74.9038 72.0294 74.9981 71.7227 75.0016C71.4161 75.0051 71.1153 74.9178 70.8583 74.7505C70.6013 74.5833 70.3996 74.3436 70.2787 74.0618C70.1577 73.7801 70.1229 73.4688 70.1788 73.1672C70.2346 72.8657 70.3784 72.5875 70.5922 72.3677C70.806 72.1478 71.0801 71.9963 71.38 71.9321C71.5799 71.8893 71.7863 71.8864 71.9873 71.9236C72.1883 71.9608 72.38 72.0374 72.5513 72.1489C72.7227 72.2604 72.8703 72.4047 72.9858 72.5734C73.1012 72.7421 73.1821 72.932 73.224 73.1321Z" fill="#E0E0E0"/>
<path d="M67.8679 60.5801C68.3519 61.6041 68.7679 62.6481 69.1879 63.6921L69.7879 65.2641L70.3559 66.8641C70.7559 67.9201 71.0879 68.9841 71.4279 70.0641C71.7679 71.1441 72.0999 72.2001 72.4079 73.2641L71.2079 72.9361C71.9333 72.2721 72.6653 71.6161 73.4039 70.9681C74.1439 70.3201 74.8959 69.6841 75.6519 69.0601C76.4079 68.4361 77.1799 67.8161 77.9559 67.2081C78.7319 66.6001 79.5279 66.0081 80.3559 65.4561C79.7359 66.2561 79.0839 66.9761 78.4279 67.7121C77.7719 68.4481 77.0999 69.1681 76.4279 69.8721C75.7559 70.5761 75.0559 71.2841 74.3559 71.9721C73.6559 72.6601 72.9479 73.3441 72.2279 74.0121L71.3719 74.8121L71.0239 73.6841C70.6959 72.6121 70.3879 71.5361 70.0879 70.4561C69.7879 69.3761 69.4999 68.2961 69.2359 67.2041L68.8359 65.5681L68.4799 63.9241C68.2439 62.8001 68.0199 61.7001 67.8679 60.5801Z" fill="#E0E0E0"/>
<path d="M169.372 65.2959L154.972 107.124L96.8 87.1079L111.2 45.2759L113.156 45.9479C113.008 46.0746 112.89 46.2339 112.814 46.4134C112.737 46.5929 112.702 46.7876 112.713 46.9825C112.724 47.1774 112.78 47.3672 112.876 47.5371C112.972 47.7069 113.106 47.8523 113.268 47.9618C113.429 48.0713 113.614 48.1421 113.808 48.1685C114.001 48.195 114.198 48.1764 114.383 48.1143C114.568 48.0522 114.736 47.9482 114.874 47.8104C115.013 47.6726 115.117 47.5047 115.18 47.3199C115.256 47.1083 115.271 46.8797 115.224 46.6599L117.176 47.3319C117.003 47.476 116.874 47.6659 116.804 47.8799C116.695 48.1981 116.716 48.5468 116.864 48.8491C117.012 49.1514 117.274 49.3826 117.592 49.4919C117.91 49.6011 118.259 49.5795 118.561 49.4317C118.864 49.284 119.095 49.0221 119.204 48.7039C119.279 48.492 119.293 48.2633 119.244 48.0439L121.196 48.7119C121.023 48.856 120.894 49.0459 120.824 49.2599C120.77 49.4175 120.747 49.5842 120.758 49.7505C120.768 49.9168 120.811 50.0794 120.884 50.2291C120.957 50.3788 121.059 50.5126 121.184 50.6229C121.309 50.7332 121.454 50.8178 121.612 50.8719C121.77 50.926 121.936 50.9485 122.103 50.9382C122.269 50.9279 122.432 50.8849 122.581 50.8117C122.731 50.7386 122.865 50.6366 122.975 50.5117C123.085 50.3869 123.17 50.2415 123.224 50.0839C123.298 49.8718 123.313 49.6438 123.268 49.4239L125.216 50.0919C125.068 50.2186 124.95 50.3779 124.874 50.5574C124.797 50.7369 124.762 50.9316 124.773 51.1265C124.784 51.3214 124.84 51.5112 124.936 51.6811C125.032 51.8509 125.166 51.9963 125.328 52.1058C125.489 52.2153 125.674 52.2861 125.868 52.3125C126.061 52.339 126.258 52.3204 126.443 52.2583C126.628 52.1962 126.796 52.0922 126.934 51.9544C127.073 51.8166 127.177 51.6487 127.24 51.4639C127.314 51.2519 127.329 51.0238 127.284 50.8039L129.232 51.4759C129.061 51.6214 128.932 51.8109 128.86 52.0239C128.796 52.2082 128.775 52.4048 128.799 52.5984C128.824 52.7921 128.892 52.9775 129 53.1403C129.108 53.3031 129.251 53.4388 129.42 53.5369C129.589 53.635 129.778 53.6929 129.972 53.706C130.167 53.7191 130.362 53.687 130.543 53.6124C130.723 53.5377 130.884 53.4224 131.012 53.2755C131.14 53.1286 131.233 52.9541 131.283 52.7654C131.333 52.5767 131.339 52.3791 131.3 52.1879L133.248 52.8559C133.077 53.0014 132.948 53.1909 132.876 53.4039C132.767 53.7221 132.788 54.0708 132.936 54.3731C133.084 54.6754 133.346 54.9066 133.664 55.0159C133.982 55.1251 134.331 55.1035 134.633 54.9557C134.936 54.808 135.167 54.5461 135.276 54.2279C135.35 54.0158 135.365 53.7878 135.32 53.5679L137.268 54.2399C137.095 54.384 136.966 54.5739 136.896 54.7879C136.842 54.9455 136.819 55.1122 136.83 55.2785C136.84 55.4448 136.883 55.6074 136.956 55.7571C137.029 55.9068 137.131 56.0406 137.256 56.1509C137.381 56.2612 137.526 56.3458 137.684 56.3999C137.842 56.454 138.008 56.4765 138.175 56.4662C138.341 56.4559 138.504 56.4129 138.653 56.3397C138.803 56.2666 138.937 56.1646 139.047 56.0397C139.157 55.9148 139.242 55.7695 139.296 55.6119C139.37 55.3998 139.385 55.1718 139.34 54.9519L141.288 55.6199C141.14 55.7466 141.022 55.9059 140.946 56.0854C140.869 56.2649 140.834 56.4596 140.845 56.6545C140.856 56.8494 140.912 57.0392 141.008 57.2091C141.104 57.3789 141.238 57.5243 141.4 57.6338C141.561 57.7433 141.746 57.8141 141.94 57.8405C142.133 57.867 142.33 57.8484 142.515 57.7863C142.7 57.7242 142.868 57.6202 143.006 57.4824C143.145 57.3446 143.249 57.1767 143.312 56.9919C143.388 56.7803 143.403 56.5517 143.356 56.3319L145.304 57.0039C145.156 57.1311 145.04 57.2907 144.964 57.4703C144.887 57.6498 144.854 57.8445 144.865 58.0392C144.877 58.2339 144.933 58.4234 145.029 58.5928C145.126 58.7623 145.26 58.9072 145.422 59.0162C145.584 59.1253 145.768 59.1956 145.962 59.2217C146.155 59.2477 146.352 59.2289 146.536 59.1665C146.721 59.1042 146.889 59 147.027 58.8622C147.165 58.7244 147.269 58.5566 147.332 58.3719C147.407 58.16 147.421 57.9313 147.372 57.7119L149.324 58.3839C149.151 58.528 149.022 58.7179 148.952 58.9319C148.888 59.1162 148.867 59.3128 148.891 59.5064C148.916 59.7001 148.984 59.8855 149.092 60.0483C149.2 60.2111 149.343 60.3468 149.512 60.4449C149.681 60.543 149.87 60.6009 150.064 60.614C150.259 60.6271 150.454 60.595 150.635 60.5204C150.815 60.4457 150.976 60.3304 151.104 60.1835C151.232 60.0366 151.325 59.8621 151.375 59.6734C151.425 59.4847 151.431 59.2871 151.392 59.0959L153.34 59.7639C153.169 59.9094 153.04 60.0989 152.968 60.3119C152.914 60.4695 152.891 60.6362 152.902 60.8025C152.912 60.9688 152.955 61.1314 153.028 61.2811C153.101 61.4308 153.203 61.5646 153.328 61.6749C153.453 61.7852 153.598 61.8698 153.756 61.9239C153.914 61.978 154.08 62.0005 154.247 61.9902C154.413 61.9799 154.576 61.9369 154.725 61.8637C154.875 61.7906 155.009 61.6886 155.119 61.5637C155.229 61.4389 155.314 61.2935 155.368 61.1359C155.442 60.9238 155.457 60.6958 155.412 60.4759L157.36 61.1479C157.187 61.292 157.058 61.4819 156.988 61.6959C156.879 62.0141 156.9 62.3628 157.048 62.6651C157.196 62.9674 157.458 63.1986 157.776 63.3079C158.094 63.4171 158.443 63.3955 158.745 63.2477C159.048 63.1 159.279 62.8381 159.388 62.5199C159.462 62.3078 159.477 62.0798 159.432 61.8599L161.38 62.5279C161.209 62.6734 161.08 62.8629 161.008 63.0759C160.899 63.3941 160.92 63.7428 161.068 64.0451C161.216 64.3474 161.478 64.5786 161.796 64.6879C162.114 64.7971 162.463 64.7755 162.765 64.6277C163.068 64.48 163.299 64.2181 163.408 63.8999C163.482 63.6878 163.497 63.4598 163.452 63.2399L165.4 63.9119C165.229 64.0559 165.1 64.244 165.028 64.4559C164.974 64.6135 164.951 64.7802 164.962 64.9465C164.972 65.1128 165.015 65.2754 165.088 65.4251C165.161 65.5748 165.263 65.7086 165.388 65.8189C165.513 65.9292 165.658 66.0138 165.816 66.0679C165.974 66.122 166.14 66.1445 166.307 66.1342C166.473 66.1239 166.636 66.0809 166.785 66.0077C166.935 65.9346 167.069 65.8326 167.179 65.7077C167.289 65.5829 167.374 65.4375 167.428 65.2799C167.502 65.0679 167.517 64.8398 167.472 64.6199L169.372 65.2959Z" fill="#F0F0F0"/>
<path d="M169.372 65.296L166.44 73.82L108.244 53.82L111.176 45.292L113.132 45.964C112.983 46.0907 112.866 46.25 112.789 46.4295C112.713 46.609 112.678 46.8037 112.689 46.9987C112.7 47.1936 112.756 47.3833 112.852 47.5532C112.948 47.723 113.082 47.8684 113.244 47.9779C113.405 48.0875 113.59 48.1582 113.783 48.1847C113.977 48.2111 114.174 48.1925 114.359 48.1304C114.544 48.0683 114.712 47.9643 114.85 47.8265C114.989 47.6887 115.093 47.5208 115.156 47.336C115.232 47.1245 115.247 46.8958 115.2 46.676L117.152 47.348C116.979 47.4921 116.85 47.682 116.78 47.896C116.671 48.2143 116.692 48.5629 116.84 48.8652C116.988 49.1675 117.25 49.3987 117.568 49.508C117.886 49.6173 118.235 49.5956 118.537 49.4478C118.839 49.3001 119.071 49.0383 119.18 48.72C119.255 48.5081 119.269 48.2794 119.22 48.06L121.172 48.728C120.999 48.8721 120.87 49.062 120.8 49.276C120.746 49.4336 120.723 49.6003 120.734 49.7666C120.744 49.9329 120.787 50.0955 120.86 50.2452C120.933 50.3949 121.035 50.5287 121.16 50.639C121.285 50.7493 121.43 50.8339 121.588 50.888C121.745 50.9421 121.912 50.9646 122.078 50.9543C122.245 50.944 122.407 50.901 122.557 50.8279C122.707 50.7547 122.841 50.6527 122.951 50.5279C123.061 50.403 123.146 50.2576 123.2 50.1C123.274 49.888 123.289 49.6599 123.244 49.44L125.192 50.108C125.043 50.2347 124.926 50.394 124.849 50.5735C124.773 50.753 124.738 50.9478 124.749 51.1427C124.76 51.3376 124.816 51.5273 124.912 51.6972C125.008 51.867 125.142 52.0124 125.304 52.1219C125.465 52.2315 125.65 52.3022 125.843 52.3287C126.037 52.3551 126.234 52.3365 126.419 52.2744C126.604 52.2123 126.772 52.1083 126.91 51.9705C127.049 51.8327 127.153 51.6648 127.216 51.48C127.29 51.268 127.305 51.0399 127.26 50.82L129.208 51.492C129.037 51.6376 128.908 51.827 128.836 52.04C128.772 52.2243 128.751 52.4209 128.775 52.6146C128.799 52.8082 128.868 52.9936 128.976 53.1564C129.083 53.3192 129.227 53.4549 129.396 53.553C129.565 53.6512 129.754 53.709 129.948 53.7221C130.143 53.7352 130.338 53.7031 130.518 53.6285C130.699 53.5538 130.859 53.4386 130.988 53.2917C131.116 53.1447 131.209 52.9702 131.259 52.7815C131.309 52.5929 131.315 52.3952 131.276 52.204L133.224 52.872C133.053 53.0176 132.924 53.207 132.852 53.42C132.798 53.5776 132.775 53.7443 132.786 53.9106C132.796 54.0769 132.839 54.2395 132.912 54.3892C132.985 54.5389 133.087 54.6727 133.212 54.783C133.337 54.8933 133.482 54.9779 133.64 55.032C133.797 55.0861 133.964 55.1086 134.13 55.0983C134.297 55.088 134.459 55.045 134.609 54.9719C134.759 54.8987 134.893 54.7967 135.003 54.6719C135.113 54.547 135.198 54.4016 135.252 54.244C135.326 54.032 135.341 53.804 135.296 53.584L137.244 54.256C137.071 54.4001 136.942 54.59 136.872 54.804C136.763 55.1223 136.784 55.4709 136.932 55.7732C137.08 56.0755 137.342 56.3067 137.66 56.416C137.978 56.5253 138.327 56.5036 138.629 56.3559C138.931 56.2081 139.163 55.9463 139.272 55.628C139.345 55.4159 139.361 55.188 139.316 54.968L141.264 55.636C141.115 55.7627 140.998 55.9221 140.921 56.1015C140.845 56.281 140.81 56.4758 140.821 56.6707C140.832 56.8656 140.888 57.0553 140.984 57.2252C141.08 57.3951 141.214 57.5404 141.376 57.6499C141.537 57.7595 141.722 57.8302 141.915 57.8567C142.109 57.8831 142.306 57.8645 142.491 57.8024C142.676 57.7403 142.844 57.6363 142.982 57.4985C143.121 57.3607 143.225 57.1928 143.288 57.008C143.364 56.7965 143.379 56.5678 143.332 56.348L145.28 57.02C145.132 57.1472 145.016 57.3068 144.939 57.4864C144.863 57.6659 144.83 57.8607 144.841 58.0554C144.853 58.2501 144.909 58.4395 145.005 58.6089C145.102 58.7784 145.236 58.9233 145.398 59.0324C145.56 59.1414 145.744 59.2117 145.937 59.2378C146.131 59.2639 146.327 59.245 146.512 59.1826C146.697 59.1203 146.865 59.0162 147.003 58.8783C147.141 58.7405 147.245 58.5727 147.308 58.388C147.383 58.1761 147.397 57.9474 147.348 57.728L149.3 58.4C149.127 58.5442 148.998 58.734 148.928 58.948C148.864 59.1323 148.843 59.3289 148.867 59.5226C148.891 59.7162 148.96 59.9016 149.068 60.0644C149.175 60.2272 149.319 60.3629 149.488 60.461C149.657 60.5592 149.846 60.617 150.04 60.6301C150.235 60.6432 150.43 60.6112 150.61 60.5365C150.791 60.4618 150.951 60.3466 151.08 60.1997C151.208 60.0528 151.301 59.8782 151.351 59.6895C151.401 59.5009 151.407 59.3032 151.368 59.112L153.316 59.78C153.145 59.9256 153.016 60.115 152.944 60.328C152.89 60.4856 152.867 60.6523 152.878 60.8186C152.888 60.9849 152.931 61.1475 153.004 61.2972C153.077 61.4469 153.179 61.5807 153.304 61.691C153.429 61.8013 153.574 61.8859 153.732 61.94C153.889 61.9941 154.056 62.0166 154.222 62.0063C154.389 61.996 154.551 61.953 154.701 61.8799C154.851 61.8067 154.985 61.7047 155.095 61.5799C155.205 61.455 155.29 61.3096 155.344 61.152C155.418 60.94 155.433 60.712 155.388 60.492L157.336 61.164C157.163 61.3082 157.034 61.4981 156.964 61.712C156.855 62.0303 156.876 62.3789 157.024 62.6812C157.172 62.9835 157.434 63.2147 157.752 63.324C158.07 63.4333 158.419 63.4116 158.721 63.2639C159.023 63.1161 159.255 62.8543 159.364 62.536C159.437 62.3239 159.453 62.096 159.408 61.876L161.356 62.544C161.185 62.6896 161.056 62.879 160.984 63.092C160.93 63.2496 160.907 63.4163 160.918 63.5826C160.928 63.7489 160.971 63.9115 161.044 64.0612C161.117 64.2109 161.219 64.3447 161.344 64.455C161.469 64.5653 161.614 64.6499 161.772 64.704C161.929 64.7581 162.096 64.7806 162.262 64.7703C162.429 64.76 162.591 64.717 162.741 64.6439C162.891 64.5707 163.025 64.4687 163.135 64.3439C163.245 64.219 163.33 64.0736 163.384 63.916C163.458 63.704 163.473 63.476 163.428 63.256L165.376 63.928C165.205 64.0721 165.076 64.2602 165.004 64.472C164.95 64.6296 164.927 64.7963 164.938 64.9626C164.948 65.1289 164.991 65.2915 165.064 65.4412C165.137 65.5909 165.239 65.7247 165.364 65.835C165.489 65.9453 165.634 66.0299 165.792 66.084C165.949 66.1381 166.116 66.1606 166.282 66.1503C166.449 66.14 166.611 66.097 166.761 66.0239C166.911 65.9507 167.045 65.8487 167.155 65.7239C167.265 65.599 167.35 65.4536 167.404 65.296C167.478 65.084 167.493 64.8559 167.448 64.636L169.372 65.296Z" fill="#E0E0E0"/>
<path d="M132.311 64.0261L125.938 61.834L123.746 68.2075L130.119 70.3996L132.311 64.0261Z" fill="#FAFAFA"/>
<path d="M139.931 66.6508L133.558 64.4587L131.366 70.8323L137.739 73.0244L139.931 66.6508Z" fill="#FAFAFA"/>
<path d="M147.553 69.2707L141.179 67.0786L138.987 73.4522L145.361 75.6443L147.553 69.2707Z" fill="#FAFAFA"/>
<path d="M155.177 71.8957L148.803 69.7036L146.611 76.0772L152.985 78.2693L155.177 71.8957Z" fill="#FAFAFA"/>
<path d="M162.798 74.5156L156.425 72.3235L154.233 78.697L160.606 80.8891L162.798 74.5156Z" fill="#FAFAFA"/>
<path d="M114.587 65.9985L108.213 63.8064L106.021 70.18L112.395 72.3721L114.587 65.9985Z" fill="#FAFAFA"/>
<path d="M122.203 68.6181L115.829 66.426L113.637 72.7996L120.011 74.9917L122.203 68.6181Z" fill="#FAFAFA"/>
<path d="M129.828 71.2392L123.455 69.0471L121.263 75.4207L127.636 77.6128L129.828 71.2392Z" fill="#FAFAFA"/>
<path d="M137.449 73.863L131.075 71.6709L128.883 78.0445L135.257 80.2366L137.449 73.863Z" fill="#FAFAFA"/>
<path d="M145.074 76.4841L138.7 74.292L136.508 80.6655L142.882 82.8577L145.074 76.4841Z" fill="#FAFAFA"/>
<path d="M152.698 79.1091L146.325 76.917L144.133 83.2905L150.506 85.4827L152.698 79.1091Z" fill="#FAFAFA"/>
<path d="M160.32 81.7248L153.946 79.5327L151.754 85.9063L158.128 88.0984L160.32 81.7248Z" fill="#FAFAFA"/>
<path d="M112.104 73.2077L105.73 71.0156L103.538 77.3892L109.912 79.5813L112.104 73.2077Z" fill="#FAFAFA"/>
<path d="M119.724 75.8315L113.351 73.6394L111.158 80.013L117.532 82.2051L119.724 75.8315Z" fill="#FAFAFA"/>
<path d="M127.35 78.4526L120.976 76.2605L118.784 82.6341L125.158 84.8262L127.35 78.4526Z" fill="#FAFAFA"/>
<path d="M134.97 81.0764L128.596 78.8843L126.404 85.2578L132.778 87.45L134.97 81.0764Z" fill="#FAFAFA"/>
<path d="M142.595 83.6975L136.222 81.5054L134.03 87.8789L140.403 90.071L142.595 83.6975Z" fill="#FAFAFA"/>
<path d="M150.215 86.3183L143.842 84.1262L141.65 90.4998L148.023 92.6919L150.215 86.3183Z" fill="#FAFAFA"/>
<path d="M157.837 88.9382L151.463 86.7461L149.271 93.1196L155.645 95.3117L157.837 88.9382Z" fill="#FAFAFA"/>
<path d="M109.621 80.4199L103.248 78.2278L101.056 84.6014L107.429 86.7935L109.621 80.4199Z" fill="#FAFAFA"/>
<path d="M117.245 83.0446L110.872 80.8525L108.68 87.2261L115.053 89.4182L117.245 83.0446Z" fill="#FAFAFA"/>
<path d="M124.871 85.666L118.497 83.4739L116.305 89.8474L122.679 92.0396L124.871 85.666Z" fill="#FAFAFA"/>
<path d="M132.488 88.282L126.115 86.0898L123.923 92.4634L130.296 94.6555L132.488 88.282Z" fill="#FAFAFA"/>
<path d="M140.112 90.9067L133.739 88.7146L131.547 95.0882L137.92 97.2803L140.112 90.9067Z" fill="#FAFAFA"/>
<path d="M147.734 93.5266L141.361 91.3345L139.168 97.708L145.542 99.9001L147.734 93.5266Z" fill="#FAFAFA"/>
<path d="M135.256 80.84C135.144 80.8397 135.034 80.8082 134.938 80.7488C134.843 80.6895 134.766 80.6047 134.716 80.504L130.536 71.936C130.495 71.8647 130.468 71.7856 130.459 71.7036C130.449 71.6217 130.457 71.5387 130.481 71.4598C130.505 71.3809 130.545 71.3078 130.599 71.2451C130.652 71.1824 130.718 71.1313 130.792 71.0952C130.866 71.0591 130.947 71.0387 131.029 71.0352C131.112 71.0317 131.194 71.0453 131.271 71.075C131.348 71.1047 131.418 71.15 131.477 71.208C131.535 71.2659 131.581 71.3354 131.612 71.412L135.796 80C135.865 80.1427 135.875 80.307 135.823 80.4569C135.771 80.6068 135.662 80.7302 135.52 80.8C135.436 80.8343 135.346 80.848 135.256 80.84Z" fill="#E0E0E0"/>
<path d="M128.88 78.6479C128.744 78.6485 128.612 78.6028 128.505 78.5184C128.398 78.434 128.324 78.3158 128.293 78.1833C128.262 78.0508 128.277 77.9118 128.336 77.7891C128.395 77.6663 128.493 77.5672 128.616 77.5079L137.2 73.3279C137.343 73.2579 137.508 73.2477 137.659 73.2994C137.81 73.3512 137.934 73.4607 138.004 73.6039C138.074 73.7471 138.084 73.9123 138.032 74.0631C137.981 74.2139 137.871 74.3379 137.728 74.4079L129.16 78.5879C129.072 78.6295 128.977 78.65 128.88 78.6479Z" fill="#E0E0E0"/>
<path d="M32.332 61.1519V63.8079L33.696 63.9359C33.8803 64.8134 34.2261 65.6489 34.716 66.3999L33.84 67.4599L35.716 69.3359L36.776 68.4559C37.5209 68.9491 38.3532 69.2953 39.228 69.4759L39.356 70.8399H42L42.128 69.4759C43.0027 69.2945 43.8348 68.9484 44.58 68.4559L45.64 69.3359L47.516 67.4599L46.648 66.3999C47.1369 65.6532 47.4815 64.8215 47.664 63.9479L49.032 63.8199V61.1639L47.664 61.0359C47.4815 60.1623 47.1369 59.3306 46.648 58.5839L47.524 57.5239L45.648 55.6479L44.588 56.5279C43.8428 56.0354 43.0107 55.6893 42.136 55.5079L42.008 54.1399H39.356L39.228 55.5079C38.3532 55.6885 37.5209 56.0347 36.776 56.5279L35.716 55.6479L33.84 57.5239L34.716 58.5839C34.2275 59.3312 33.8817 60.1626 33.696 61.0359L32.332 61.1519ZM40.68 58.8879C41.392 58.8879 42.0881 59.099 42.6801 59.4946C43.2721 59.8902 43.7335 60.4524 44.006 61.1102C44.2785 61.768 44.3498 62.4919 44.2109 63.1902C44.072 63.8885 43.7291 64.53 43.2256 65.0335C42.7221 65.5369 42.0807 65.8798 41.3824 66.0187C40.684 66.1576 39.9602 66.0863 39.3024 65.8139C38.6446 65.5414 38.0823 65.08 37.6867 64.4879C37.2912 63.8959 37.08 63.1999 37.08 62.4879C37.08 61.5331 37.4593 60.6174 38.1344 59.9423C38.8096 59.2672 39.7253 58.8879 40.68 58.8879Z" fill="#EBEBEB"/>
<path d="M95.404 124.844C96.9114 124.528 98.3458 123.931 99.632 123.084L101.464 124.6L104.704 121.36L103.2 119.532C104.047 118.244 104.644 116.809 104.96 115.3L107.316 115.08V110.5L104.96 110.276C104.644 108.767 104.047 107.332 103.2 106.044L104.716 104.216L101.476 100.976L99.644 102.492C98.3578 101.645 96.9234 101.048 95.416 100.732L95.192 98.376H90.6L90.38 100.732C88.8713 101.048 87.4356 101.645 86.148 102.492L84.32 100.976L81.08 104.216L82.596 106.044C81.7488 107.332 81.1517 108.767 80.836 110.276L78.48 110.5V115.08L80.836 115.3C81.1517 116.809 81.7488 118.244 82.596 119.532L81.08 121.36L84.32 124.6L86.148 123.084C87.4356 123.931 88.8713 124.528 90.38 124.844L90.6 127.2H95.2L95.404 124.844ZM86.692 112.8C86.692 111.574 87.0556 110.375 87.7369 109.355C88.4181 108.336 89.3864 107.541 90.5193 107.072C91.6522 106.603 92.8989 106.48 94.1015 106.719C95.3042 106.958 96.409 107.549 97.276 108.416C98.1431 109.283 98.7336 110.388 98.9729 111.59C99.2121 112.793 99.0893 114.04 98.62 115.173C98.1508 116.306 97.3561 117.274 96.3365 117.955C95.3169 118.636 94.1182 119 92.892 119C91.2476 119 89.6707 118.347 88.5079 117.184C87.3452 116.021 86.692 114.444 86.692 112.8Z" fill="#E0E0E0"/>
<path d="M44.3999 144.292L45.0959 144.868L46.3319 143.632L45.7519 142.936C46.0753 142.45 46.3034 141.907 46.4239 141.336L47.3239 141.252V139.504L46.4239 139.42C46.3049 138.848 46.0767 138.305 45.7519 137.82L46.3319 137.12L45.0959 135.884L44.3999 136.44C43.9141 136.116 43.3711 135.888 42.7999 135.768L42.7159 134.868H40.9719L40.8839 135.768C40.3127 135.888 39.7697 136.116 39.2839 136.44L38.5879 135.86L37.3519 137.096L37.9279 137.796C37.6059 138.282 37.3792 138.825 37.2599 139.396L36.3599 139.48V141.228L37.2599 141.312C37.3807 141.882 37.6072 142.425 37.9279 142.912L37.3519 143.608L38.5879 144.844L39.2839 144.268C39.7708 144.589 40.3135 144.815 40.8839 144.936L40.9719 145.836H42.7159L42.7999 144.936C43.3686 144.823 43.9113 144.604 44.3999 144.292ZM39.4639 140.364C39.4639 139.896 39.6025 139.439 39.8623 139.051C40.122 138.662 40.4912 138.359 40.9232 138.18C41.3552 138.001 41.8305 137.954 42.2891 138.045C42.7476 138.137 43.1688 138.362 43.4995 138.692C43.8301 139.023 44.0552 139.444 44.1464 139.903C44.2376 140.361 44.1908 140.837 44.0119 141.269C43.833 141.701 43.53 142.07 43.1412 142.33C42.7525 142.589 42.2954 142.728 41.8279 142.728C41.5164 142.73 41.2077 142.67 40.9195 142.551C40.6313 142.433 40.3693 142.259 40.1485 142.04C39.9277 141.82 39.7525 141.559 39.633 141.271C39.5134 140.984 39.4519 140.675 39.4519 140.364H39.4639Z" fill="#E6E6E6"/>
<path d="M94.4001 52.828L94.8001 53.164L95.5161 52.448L95.1841 52.048C95.3749 51.7638 95.5106 51.4463 95.5841 51.112L96.1041 51.064V50.052L95.5841 50.004C95.5106 49.6697 95.3749 49.3521 95.1841 49.068L95.5161 48.668L94.8001 47.944L94.4001 48.28C94.1179 48.0882 93.8015 47.9524 93.4681 47.88L93.4161 47.356H92.4001L92.3521 47.876C92.0178 47.9496 91.7003 48.0852 91.4161 48.276L91.0161 47.94L90.3041 48.656L90.6361 49.056C90.4453 49.3401 90.3096 49.6577 90.2361 49.992L89.7161 50.04V51.052L90.2361 51.1C90.3096 51.4343 90.4453 51.7518 90.6361 52.036L90.3041 52.436L91.0161 53.152L91.4161 52.816C91.6993 53.0085 92.0172 53.1443 92.3521 53.216L92.4001 53.736H93.4121L93.4641 53.216C93.798 53.1477 94.1158 53.016 94.4001 52.828ZM91.5401 50.552C91.5401 50.2806 91.6205 50.0153 91.7713 49.7897C91.922 49.5641 92.1363 49.3882 92.387 49.2844C92.6377 49.1805 92.9136 49.1534 93.1797 49.2063C93.4459 49.2593 93.6903 49.3899 93.8822 49.5818C94.0741 49.7737 94.2048 50.0181 94.2577 50.2843C94.3106 50.5504 94.2835 50.8263 94.1796 51.077C94.0758 51.3277 93.8999 51.542 93.6743 51.6927C93.4487 51.8435 93.1834 51.924 92.9121 51.924C92.7302 51.9266 92.5497 51.8931 92.3809 51.8253C92.2121 51.7576 92.0585 51.6569 91.929 51.5292C91.7994 51.4016 91.6966 51.2494 91.6264 51.0817C91.5562 50.9139 91.52 50.7338 91.5201 50.552H91.5401Z" fill="#F5F5F5"/>
<path d="M155.712 49.6441L156.112 49.9801L156.828 49.2641L156.492 48.8641C156.684 48.5808 156.82 48.263 156.892 47.9281L157.416 47.8801V46.8681L156.892 46.8161C156.82 46.4827 156.684 46.1663 156.492 45.8841L156.828 45.4841L156.112 44.7681L155.712 45.1041C155.428 44.9134 155.11 44.7777 154.776 44.7041L154.728 44.1841H153.716L153.668 44.7041C153.334 44.7777 153.016 44.9134 152.732 45.1041L152.332 44.7681L151.6 45.4761L151.936 45.8761C151.744 46.1583 151.608 46.4747 151.536 46.8081L151.012 46.8601V47.8721L151.536 47.9201C151.608 48.255 151.743 48.5728 151.936 48.8561L151.6 49.2561L152.316 49.9721L152.716 49.6361C152.999 49.8286 153.317 49.9644 153.652 50.0361L153.7 50.5561H154.712L154.76 50.0361C155.1 49.9689 155.423 49.8357 155.712 49.6441ZM152.852 47.3681C152.852 47.0967 152.932 46.8315 153.083 46.6058C153.234 46.3802 153.448 46.2044 153.699 46.1005C153.95 45.9967 154.225 45.9695 154.492 46.0224C154.758 46.0754 155.002 46.2061 155.194 46.3979C155.386 46.5898 155.517 46.8343 155.57 47.1004C155.623 47.3666 155.595 47.6424 155.492 47.8931C155.388 48.1438 155.212 48.3581 154.986 48.5089C154.761 48.6596 154.495 48.7401 154.224 48.7401C154.044 48.7406 153.865 48.7055 153.698 48.6367C153.532 48.568 153.38 48.4669 153.253 48.3394C153.125 48.2119 153.024 48.0604 152.955 47.8937C152.887 47.7271 152.851 47.5484 152.852 47.3681Z" fill="#F0F0F0"/>
<path d="M168.86 113.652L169.556 114.228L170.792 112.996L170.216 112.296C170.537 111.809 170.763 111.266 170.884 110.696L171.784 110.612V108.864L170.884 108.78C170.764 108.209 170.537 107.667 170.216 107.18L170.792 106.48L169.556 105.244L168.86 105.824C168.373 105.504 167.83 105.276 167.26 105.152L167.172 104.252H165.428L165.344 105.152C164.774 105.276 164.231 105.503 163.744 105.824L163.048 105.244L161.812 106.48L162.392 107.18C162.068 107.665 161.84 108.209 161.72 108.78L160.82 108.864V110.612L161.72 110.696C161.841 111.267 162.069 111.81 162.392 112.296L161.812 112.996L163.048 114.228L163.744 113.652C164.231 113.973 164.774 114.2 165.344 114.324L165.428 115.22H167.172L167.26 114.324C167.83 114.2 168.373 113.972 168.86 113.652ZM163.924 109.724C163.924 109.256 164.063 108.799 164.322 108.411C164.582 108.022 164.951 107.719 165.383 107.54C165.815 107.361 166.291 107.314 166.749 107.405C167.208 107.497 167.629 107.722 167.96 108.052C168.29 108.383 168.515 108.804 168.607 109.263C168.698 109.721 168.651 110.197 168.472 110.629C168.293 111.061 167.99 111.43 167.601 111.69C167.213 111.949 166.756 112.088 166.288 112.088C165.661 112.087 165.061 111.837 164.618 111.394C164.175 110.951 163.925 110.351 163.924 109.724Z" fill="#EBEBEB"/>
<path d="M120.888 151.54L121.992 152.452L123.944 150.5L123.032 149.396C123.543 148.62 123.902 147.754 124.092 146.844L125.512 146.712V143.952L124.092 143.816C123.902 142.908 123.542 142.043 123.032 141.268L123.944 140.164L122 138.212L120.896 139.124C120.121 138.614 119.256 138.255 118.348 138.064L118.212 136.644H115.452L115.32 138.064C114.41 138.254 113.545 138.613 112.768 139.124L111.664 138.212L109.712 140.164L110.624 141.268C110.114 142.043 109.755 142.908 109.564 143.816L108.144 143.952V146.712L109.564 146.844C109.754 147.754 110.113 148.62 110.624 149.396L109.712 150.5L111.664 152.452L112.768 151.54C113.545 152.051 114.41 152.41 115.32 152.6L115.452 154.02H118.212L118.348 152.6C119.254 152.409 120.115 152.049 120.888 151.54ZM113.088 145.332C113.087 144.592 113.306 143.868 113.717 143.253C114.127 142.637 114.711 142.157 115.395 141.874C116.079 141.59 116.831 141.516 117.557 141.66C118.283 141.804 118.949 142.16 119.473 142.683C119.996 143.207 120.352 143.874 120.496 144.599C120.641 145.325 120.566 146.078 120.283 146.761C119.999 147.445 119.519 148.029 118.903 148.439C118.288 148.85 117.564 149.069 116.824 149.068C115.834 149.067 114.884 148.673 114.183 147.973C113.483 147.272 113.089 146.323 113.088 145.332Z" fill="#F0F0F0"/>
<path d="M100 171.024C142.833 171.024 177.556 168.997 177.556 166.496C177.556 163.995 142.833 161.968 100 161.968C57.1671 161.968 22.4441 163.995 22.4441 166.496C22.4441 168.997 57.1671 171.024 100 171.024Z" fill="#F5F5F5"/>
<path d="M56.3519 77.372C43.4159 79.6 33.3119 83.6 33.7759 86.316L33.9959 87.572C34.4599 90.272 45.3279 90.652 58.2599 88.412C71.1919 86.172 81.3039 82.172 80.8359 79.472L80.6199 78.216C80.1519 75.512 69.2879 75.136 56.3519 77.372Z" fill="#2C3E50"/>
<path opacity="0.2" d="M58.2604 88.4117C71.1952 86.1751 81.3022 82.1721 80.8351 79.4706C80.368 76.7692 69.5037 76.3923 56.5689 78.6288C43.6341 80.8654 33.5271 84.8684 33.9942 87.5699C34.4613 90.2713 45.3257 90.6482 58.2604 88.4117Z" fill="white"/>
<path d="M57.032 81.3C45.432 83.3 36.4 86.9 36.82 89.3L37.18 91.392C37.58 93.812 47.328 94.1481 58.908 92.144C70.488 90.14 79.54 86.544 79.12 84.144L78.76 82.056C78.34 79.636 68.612 79.296 57.032 81.3Z" fill="#2C3E50"/>
<path opacity="0.2" d="M58.9056 92.1516C70.4863 90.1492 79.5354 86.5653 79.1172 84.1469C78.6991 81.7284 68.972 81.3911 57.3912 83.3936C45.8104 85.396 36.7614 88.9798 37.1795 91.3983C37.5977 93.8168 47.3248 94.154 58.9056 92.1516Z" fill="white"/>
<path d="M69.124 113.056C68.6205 112.792 68.1846 112.416 67.8498 111.957C67.515 111.498 67.2904 110.968 67.1933 110.408C67.0963 109.848 67.1294 109.273 67.29 108.728C67.4507 108.183 67.7347 107.682 68.12 107.264C72.812 102.156 78.492 94.024 77.052 85.664C76.74 83.876 68.116 83.872 57.788 85.664C47.46 87.456 39.336 90.352 39.644 92.14C41.088 100.488 49.168 106.24 55.304 109.476C55.8074 109.74 56.2434 110.116 56.5781 110.575C56.9129 111.034 57.1375 111.564 57.2346 112.124C57.3317 112.684 57.2986 113.259 57.1379 113.804C56.9772 114.349 56.6932 114.85 56.308 115.268C51.612 120.372 45.932 128.504 47.376 136.868C47.688 138.66 56.312 138.664 66.64 136.868C76.968 135.072 85.092 132.18 84.8 130.4C83.34 122.04 75.256 116.288 69.124 113.056Z" fill="#2C3E50"/>
<path opacity="0.8" d="M69.124 113.056C68.6205 112.792 68.1846 112.416 67.8498 111.957C67.515 111.498 67.2904 110.968 67.1933 110.408C67.0963 109.848 67.1294 109.273 67.29 108.728C67.4507 108.183 67.7347 107.682 68.12 107.264C72.812 102.156 78.492 94.024 77.052 85.664C76.74 83.876 68.116 83.872 57.788 85.664C47.46 87.456 39.336 90.352 39.644 92.14C41.088 100.488 49.168 106.24 55.304 109.476C55.8074 109.74 56.2434 110.116 56.5781 110.575C56.9129 111.034 57.1375 111.564 57.2346 112.124C57.3317 112.684 57.2986 113.259 57.1379 113.804C56.9772 114.349 56.6932 114.85 56.308 115.268C51.612 120.372 45.932 128.504 47.376 136.868C47.688 138.66 56.312 138.664 66.64 136.868C76.968 135.072 85.092 132.18 84.8 130.4C83.34 122.04 75.256 116.288 69.124 113.056Z" fill="white"/>
<path d="M83.8641 130.868C84.0481 132.744 50.7761 139.22 48.5641 136.344C48.3406 136.024 48.2008 135.653 48.1575 135.266C48.1142 134.878 48.1687 134.485 48.3161 134.124C48.5424 133.459 48.8777 132.836 49.3081 132.28C50.3361 130.888 52.6041 130.28 54.1401 129.72C55.1761 129.34 56.2201 128.992 57.2641 128.632C58.3841 128.232 59.5361 128.512 60.5081 127.66C61.0921 127.152 61.5281 126.396 62.2761 126.212C62.8321 126.076 63.4281 126.296 63.9761 126.148C64.6881 125.956 65.1961 125.188 65.9321 125.176C66.2971 125.22 66.6557 125.307 67.0001 125.436C67.6401 125.572 68.2961 125.36 68.9521 125.3C69.598 125.271 70.2452 125.318 70.8801 125.44C72.8645 125.819 74.8672 126.095 76.8801 126.268C78.3641 126.348 80.0081 126.312 81.4561 126.72C82.0889 126.957 82.6126 127.418 82.9281 128.016C83.4441 128.887 83.7635 129.861 83.8641 130.868Z" fill="white"/>
<path d="M82.94 128C82.02 127.168 80.32 127.224 79.832 127.26C79.344 127.296 79.172 126.88 78.804 126.744C78.436 126.608 76.26 126.888 76.26 126.888C76.26 126.888 77.06 127.044 77.228 127.308C77.396 127.572 78.308 127.268 78.428 127.232C78.304 127.304 77.192 127.888 76.668 127.536C76.144 127.184 75.928 127.84 75.512 128.008C75.096 128.176 73.784 128.008 73.572 127.94C72.9459 127.905 72.3182 127.905 71.692 127.94C72.0163 127.731 72.382 127.595 72.764 127.54C73.116 127.58 74.52 126.84 74.232 126.892C73.944 126.944 73.288 126.56 72.776 126.4C72.1548 126.355 71.5303 126.396 70.92 126.52C71.5415 126.511 72.1608 126.597 72.756 126.776C72.3474 126.874 71.9463 127.001 71.556 127.156C71.1989 127.271 70.8271 127.335 70.452 127.344C70.1501 127.454 69.8901 127.655 69.708 127.92C69.2507 128.029 68.7872 128.109 68.32 128.16C67.8592 128.201 67.3949 128.147 66.956 128L68.22 127.6L67.788 127.476C67.4913 127.377 67.186 127.306 66.876 127.264C66.368 127.18 66.152 127.664 66.028 127.78C65.904 127.896 64.792 127.78 64.48 127.704C64.168 127.628 61.86 128.564 61.86 128.564L63.304 128.316C63.6785 128.475 64.0777 128.569 64.484 128.592C65.448 128.72 65.588 128.4 65.992 128.428C66.396 128.456 67.736 128.828 67.736 128.828L67.216 128.968C66.7569 129.032 66.2911 129.032 65.832 128.968C65.032 128.86 64.6 129.28 64.36 129.324C63.7426 129.463 63.1154 129.554 62.484 129.596C62.224 129.54 61.54 129.86 61.164 130.244C60.9501 130.457 60.6817 130.607 60.3882 130.678C60.0947 130.748 59.7874 130.737 59.5 130.644C58.772 130.456 57.544 131.344 57.544 131.344C57.544 131.344 58.188 130.492 58.524 130.432C59.046 130.228 59.5481 129.976 60.024 129.68C59.8444 129.678 59.6649 129.693 59.488 129.724C59.3088 129.739 59.1285 129.718 58.9575 129.662C58.7865 129.607 58.6283 129.517 58.492 129.4C58.092 129.124 57.692 129.34 57.104 129.64C56.516 129.94 55.884 130.296 55.264 129.86C54.644 129.424 52.744 131.036 52.744 131.036C53.1765 130.932 53.5984 130.787 54.004 130.604C54.18 130.46 54.304 130.604 54.864 130.72C55.424 130.836 55.608 130.444 55.884 130.296C56.16 130.148 56.988 130.396 56.988 130.396C56.7923 130.489 56.5759 130.529 56.36 130.512C56.056 130.464 55.56 131.34 55.4 131.244C55.24 131.148 54.076 131.3 53.576 131.56C53.076 131.82 52.34 132.688 51.6 132.42C50.972 132.192 49.556 134.116 48.312 134.14C48.5384 133.475 48.8736 132.852 49.304 132.296C50.332 130.904 52.6 130.296 54.136 129.736C55.172 129.356 56.216 129.008 57.26 128.648C58.38 128.248 59.532 128.528 60.504 127.676C61.088 127.168 61.524 126.412 62.272 126.228C62.828 126.092 63.424 126.312 63.972 126.164C64.684 125.972 65.192 125.204 65.928 125.192C66.2931 125.236 66.6516 125.323 66.996 125.452C67.636 125.588 68.292 125.376 68.948 125.316C69.594 125.287 70.2411 125.334 70.876 125.456C72.8604 125.835 74.8631 126.112 76.876 126.284C78.36 126.364 80.004 126.328 81.452 126.736C82.0855 126.962 82.6146 127.412 82.94 128Z" fill="#B76E79"/>
<path d="M65.5199 130.4C53.9199 132.4 44.8879 136 45.3039 138.4L45.6678 140.492C46.0678 142.892 55.8119 143.248 67.3959 141.244C78.9799 139.24 88.0279 135.644 87.6079 133.244L87.2479 131.156C86.8279 128.716 77.0999 128.376 65.5199 130.4Z" fill="#2C3E50"/>
<path d="M66.164 134.12C53.232 136.356 43.124 140.36 43.592 143.064L43.808 144.316C44.276 147.02 55.14 147.396 68.076 145.16C81.012 142.924 91.116 138.92 90.648 136.216L90.432 134.964C89.964 132.26 79.1 131.884 66.164 134.12Z" fill="#2C3E50"/>
<path opacity="0.2" d="M46.28 146C46.408 146.036 46.544 146.068 46.68 146.1C46.544 146.052 46.4 146.02 46.28 146Z" fill="white"/>
<path opacity="0.2" d="M66.164 134.12C53.232 136.356 43.124 140.36 43.592 143.064L43.808 144.316C43.34 141.6 53.448 137.6 66.4 135.376C79.352 133.152 90.196 133.516 90.664 136.216L90.448 134.964C89.964 132.26 79.1 131.884 66.164 134.12Z" fill="white"/>
<path d="M64.188 109.712C63.936 111.712 63.204 114.74 62.876 116.76C62.548 118.78 63.532 121.912 63.824 122.86C64.116 123.808 66.088 123.66 66.008 124.416C65.928 125.172 68.952 125.3 68.952 125.3C68.952 125.3 54.784 130.9 53.352 130.544C51.92 130.188 56.008 127.392 56.792 127.208C57.576 127.024 57.992 126.54 58.52 125.42C59.048 124.3 59.592 124.5 60.144 123.376C60.6361 122.537 61.0795 121.67 61.472 120.78C62.1 119.22 62.644 114.424 61.984 114.02C61.324 113.616 61.924 117.696 61.356 117.832C60.788 117.968 62.096 113.8 60.372 111.696C58.648 109.592 64.188 109.712 64.188 109.712Z" fill="white"/>
<path d="M68.9479 125.3C68.9479 125.3 54.7839 130.9 53.3479 130.544C52.0399 130.22 55.3839 127.824 56.5479 127.3C56.6239 128.124 58.8439 127.28 59.7239 126.792C60.6039 126.304 60.6719 126.66 60.9959 126.516C61.3199 126.372 63.7759 124.54 63.5199 124.616C63.2639 124.692 61.4359 126.04 60.9959 125.6C60.5559 125.16 59.8279 126 59.2839 126.256C58.8119 126.484 58.6919 126.208 58.2999 125.856C58.3759 125.716 58.4479 125.564 58.5239 125.404C59.0399 124.284 59.5919 124.484 60.1239 123.36C60.6263 122.534 61.0792 121.679 61.4799 120.8C62.1119 119.24 62.6559 114.444 61.9999 114.04C61.3439 113.636 61.9359 117.716 61.3719 117.848C60.8079 117.98 62.1039 113.82 60.3839 111.716C58.6639 109.612 64.1879 109.716 64.1879 109.716C63.9359 111.716 63.2039 114.744 62.8759 116.764C62.6599 118.088 63.0079 119.888 63.3559 121.24C63.2639 121.568 63.1359 121.868 62.9839 121.916C62.6199 122.024 62.3639 123.268 61.8879 123.304C61.4119 123.34 61.8119 124.216 62.4719 123.852C62.9079 123.612 63.5959 123.452 64.0719 123.244C64.6879 123.792 66.0719 123.784 65.9999 124.42C65.9319 125.176 68.9479 125.3 68.9479 125.3Z" fill="#B76E79"/>
<path d="M71.8719 100.568L71.7039 100.844C71.1495 101.831 70.5461 102.789 69.8959 103.716C69.2641 104.701 68.5365 105.622 67.7239 106.464C66.9559 107.204 66.1719 107.552 65.7239 108.436C65.6098 108.655 65.5225 108.888 65.4639 109.128C65.2959 109.796 65.2439 110.6 64.6639 110.976C64.5244 111.047 64.3907 111.128 64.2639 111.22C63.9719 111.472 63.9879 111.912 63.9119 112.288C63.8359 112.664 63.4719 113.088 63.1119 112.904C62.7519 112.72 62.7359 112.26 62.4119 112.276C62.3309 112.293 62.2518 112.319 62.1759 112.352C61.8479 112.436 61.5439 112.18 61.2919 111.952C61.0399 111.724 60.6799 111.516 60.3919 111.692C59.5199 110.892 58.5621 110.19 57.5359 109.6C56.7039 109.096 55.8399 108.644 54.9319 108.156C52.9319 107.068 50.6119 105.996 49.2119 104.892C48.7573 104.561 48.3772 104.139 48.0959 103.652C48.0137 103.49 47.9596 103.316 47.9359 103.136C47.7039 101.16 53.8199 100.572 55.9359 99.1C58.0519 97.628 61.3559 98.572 62.7359 98.264C64.1159 97.956 65.6879 98.392 67.1559 98.284C68.6239 98.176 69.5279 97.752 70.3839 98.376C71.2399 99 72.1879 98.812 72.3839 99.288C72.4799 99.6 72.1199 100.176 71.8719 100.568Z" fill="white"/>
<path d="M69.9999 99.944C68.7359 99.7 71.3159 99.652 71.1199 99.504C70.9239 99.356 70.2919 98.876 68.8839 98.924C67.4759 98.972 66.2999 98.876 65.9999 98.924C65.6999 98.972 66.9799 99.36 66.9799 99.36H63.6799C62.6079 99.36 64.4119 98.924 64.4119 98.924H58.8559C59.0039 98.924 60.0759 99.556 59.4399 99.556C58.8039 99.556 58.1239 99.896 57.2479 100.236C56.5528 100.517 55.8374 100.746 55.1079 100.92C54.9639 100.92 57.1079 99.32 57.2399 99.216C57.1079 99.272 55.3199 100.016 54.5719 100.236C53.8239 100.456 51.7719 101.164 51.5959 101.212C51.9702 101.236 52.3456 101.236 52.7199 101.212C52.7199 101.212 51.2079 101.992 50.4319 102.088C49.8479 102.16 48.4319 102.64 48.0879 103.656C48.3692 104.143 48.7494 104.565 49.2039 104.896C50.6039 106 52.9159 107.072 54.9239 108.16C55.8319 108.648 56.6959 109.1 57.5279 109.604C58.5541 110.194 59.5119 110.896 60.3839 111.696C60.6719 111.52 61.0359 111.736 61.2839 111.956C61.5319 112.176 61.8399 112.436 62.1679 112.356C62.2438 112.323 62.3229 112.297 62.4039 112.28C62.7279 112.28 62.8039 112.76 63.1039 112.908C63.4039 113.056 63.8039 112.668 63.9039 112.292C64.0039 111.916 63.9639 111.492 64.2559 111.224C64.3827 111.132 64.5164 111.051 64.6559 110.98C65.2399 110.604 65.2919 109.8 65.4559 109.132C65.5145 108.892 65.6018 108.659 65.7159 108.44C66.1759 107.556 66.9599 107.208 67.7159 106.468C68.5285 105.626 69.2561 104.705 69.8879 103.72C70.5381 102.793 71.1415 101.835 71.6959 100.848C71.2559 100.084 71.2759 100.188 69.9999 99.944ZM51.9079 105.108C51.4839 105.06 52.8559 104.632 52.8559 104.632C52.7567 104.789 52.617 104.916 52.4515 105C52.286 105.083 52.1009 105.121 51.9159 105.108H51.9079ZM52.1639 103.464C52.1639 103.464 52.8559 102.916 53.1479 102.952C53.4289 102.971 53.7109 102.971 53.9919 102.952C53.9919 102.952 52.9039 103.684 52.1719 103.464H52.1639ZM57.6799 107.74C57.1799 107.644 58.2079 107.34 58.4559 107.408C58.7039 107.476 58.2719 107.848 57.6879 107.74H57.6799ZM60.1479 102.14C60.1479 102.14 58.0279 102.764 58.4559 102.764H59.2559C59.1079 102.764 56.9159 103.24 56.8079 103.22C57.2241 102.943 57.66 102.697 58.1119 102.484C58.1119 102.484 57.9559 102.288 57.9639 102.216C57.9719 102.144 58.4599 101.996 58.4599 101.996C58.6319 101.848 59.3999 101.632 59.6919 101.812C60.03 101.941 60.39 102.004 60.7519 101.996L60.1479 102.14ZM61.0399 106.488C60.4479 105.948 62.2039 106.488 62.2039 106.488C62.2039 106.488 61.4479 106.86 61.0479 106.496L61.0399 106.488ZM61.9999 100.688C62.7999 100.14 62.9999 100.688 62.9999 100.688C62.9999 100.688 61.7399 100.864 61.9999 100.688ZM64.7719 102.808L64.1559 102.492C64.4132 102.337 64.6987 102.233 64.9959 102.188C65.3954 102.172 65.7904 102.278 66.1279 102.492C66.3439 102.624 64.9839 102.916 64.7679 102.8L64.7719 102.808ZM66.3479 105.496C66.3479 105.496 65.3639 105.472 65.2679 105.496C65.6188 105.345 65.9797 105.218 66.3479 105.116V105.496ZM67.8759 101.54C67.8759 101.54 68.5759 101.388 68.9039 101.752C69.3439 102.24 67.8719 101.54 67.8719 101.54H67.8759Z" fill="#B76E79"/>
<path d="M127.816 157.952L131.04 158.924H148.668L149.068 151.86L145.648 150.4C145.648 150.4 146.284 144.94 147.304 139.088L149.644 139.016L154.612 119.416L151.788 118.196L153.832 111.704H156.9L160.172 102.6C160.172 102.6 148.4 97.9159 141.408 97.2959L135.128 98.3479L134.692 106.524L129.576 107.2L128.572 116L132.208 116.624L129.868 135.344L124.616 136.82L123.7 149.712L128.272 150.652L127.816 157.952Z" fill="#2C3E50"/>
<path opacity="0.6" d="M153.836 111.708L151.788 118.2L154.612 119.42L149.64 139.02L147.304 139.092C146.28 144.944 145.648 150.404 145.648 150.404L149.06 151.864L148.66 158.932H131.036L127.812 157.96L128.276 150.668L123.7 149.732L124.592 137.156L124.616 136.84L129.872 135.364L132.208 116.644L128.572 116L129.6 107.2L134.712 106.524L135.152 98.348L141.428 97.292C148.436 97.916 160.192 102.6 160.192 102.6L156.92 111.708H153.836Z" fill="white"/>
<path opacity="0.4" d="M149.06 151.856L131.62 152.344L128.276 150.66L132.108 151.372L145.648 150.396L149.06 151.856Z" fill="white"/>
<path opacity="0.4" d="M147.304 139.084L134.692 139.124L124.592 137.148L124.616 136.832L129.872 135.356L135.424 138.684L147.304 139.084Z" fill="white"/>
<path opacity="0.2" d="M151.788 118.2L136.228 116.676L132.208 116.636L128.572 116.012L136.004 115.16L151.788 118.2Z" fill="black"/>
<path opacity="0.2" d="M156.9 111.708H153.832L141.556 106.1L134.692 106.524L141.932 105.588L156.9 111.708Z" fill="black"/>
<path opacity="0.2" d="M141.408 97.292L141.932 105.588L134.692 106.524L135.128 98.352L141.408 97.292Z" fill="white"/>
<path opacity="0.2" d="M136.004 115.16L138.004 106.524L129.58 107.2L128.572 116.012L136.004 115.16Z" fill="white"/>
<path opacity="0.2" d="M132.208 116.636L139.828 117.028L135.424 138.684L129.872 135.356L132.208 116.636Z" fill="white"/>
<path opacity="0.2" d="M124.592 137.148L134.692 139.124L132.652 151.332L123.7 149.724L124.592 137.148Z" fill="white"/>
<path opacity="0.2" d="M131.62 152.344L131.036 158.924L127.812 157.952L128.276 150.664L131.62 152.344Z" fill="white"/>
<path d="M125.36 139.876L134.228 141.896L144.676 141.436L134.692 143.676L125.36 139.876Z" fill="#2C3E50"/>
<path d="M128.14 152.788L131.404 154.792H139.292L129.716 155.56L126.508 153.368L128.14 152.788Z" fill="#2C3E50"/>
<path d="M134.852 156.744H148.792L150.4 157.952L134.852 156.744Z" fill="#2C3E50"/>
<path d="M131.988 145.112L124.18 142.928L122.784 143.676L131.988 145.112Z" fill="#2C3E50"/>
<path d="M134.324 148.18L146.06 147.176L147.304 147.676L134.324 148.18Z" fill="#2C3E50"/>
<path d="M138.004 135.356L150.684 134.9L151.788 135.832L138.004 135.356Z" fill="#2C3E50"/>
<path d="M147.304 132.692L136.884 131.508L130.452 129.112H128.276L135.948 132.328L147.304 132.692Z" fill="#2C3E50"/>
<path d="M132.9 123.34L138.16 125.232L154.564 126.556L153.084 125.456L138.004 124.508L132.9 123.34Z" fill="#2C3E50"/>
<path d="M134.692 112.384L127.384 112.748L129.196 113.624L134.692 112.384Z" fill="#2C3E50"/>
<path d="M131.62 109.388L137.176 108.648L151.496 113.624L137.1 109.9L131.62 109.388Z" fill="#2C3E50"/>
<path d="M149.376 106.524L140.828 101.908L132.352 104.564L134.852 105.236L141.932 104.216L149.376 106.524Z" fill="#2C3E50"/>
<path d="M146.744 103.324L159.604 108.648H158L146.744 103.324Z" fill="#2C3E50"/>
<path d="M142.656 99.304L149.084 100.036L159.084 105.588C159.084 105.588 146.16 99.964 142.656 99.304Z" fill="#2C3E50"/>
<path d="M131.84 119.032L135.016 119.832L130.528 119.432L131.84 119.032Z" fill="#2C3E50"/>
<path opacity="0.7" d="M125.36 139.876L134.228 141.896L144.676 141.436L134.692 143.676L125.36 139.876Z" fill="white"/>
<path opacity="0.7" d="M128.14 152.788L131.404 154.792H139.292L129.716 155.56L126.508 153.368L128.14 152.788Z" fill="white"/>
<path opacity="0.7" d="M134.852 156.744H148.792L150.4 157.952L134.852 156.744Z" fill="white"/>
<path opacity="0.7" d="M131.988 145.112L124.18 142.928L122.784 143.676L131.988 145.112Z" fill="white"/>
<path opacity="0.7" d="M134.324 148.18L146.06 147.176L147.304 147.676L134.324 148.18Z" fill="white"/>
<path opacity="0.7" d="M138.004 135.356L150.684 134.9L151.788 135.832L138.004 135.356Z" fill="white"/>
<path opacity="0.7" d="M147.304 132.692L136.884 131.508L130.452 129.112H128.276L135.948 132.328L147.304 132.692Z" fill="white"/>
<path opacity="0.7" d="M132.9 123.34L138.16 125.232L154.564 126.556L153.084 125.456L138.004 124.508L132.9 123.34Z" fill="white"/>
<path opacity="0.7" d="M134.692 112.384L127.384 112.748L129.196 113.624L134.692 112.384Z" fill="white"/>
<path opacity="0.7" d="M131.62 109.388L137.176 108.648L151.496 113.624L137.1 109.9L131.62 109.388Z" fill="white"/>
<path opacity="0.7" d="M149.376 106.524L140.828 101.908L132.352 104.564L134.852 105.236L141.932 104.216L149.376 106.524Z" fill="white"/>
<path opacity="0.7" d="M146.744 103.324L159.604 108.648H158L146.744 103.324Z" fill="white"/>
<path opacity="0.7" d="M142.656 99.304L149.084 100.036L159.084 105.588C159.084 105.588 146.16 99.964 142.656 99.304Z" fill="white"/>
<path opacity="0.7" d="M131.84 119.032L135.016 119.832L130.528 119.432L131.84 119.032Z" fill="white"/>
<path opacity="0.1" d="M134.324 121.076L138.668 122.172L150.876 123.34L138.668 122.744L134.324 121.076Z" fill="black"/>
<path opacity="0.1" d="M132.9 117.86L139.828 118.2L152.808 120.42L139.424 119.032L132.9 117.86Z" fill="black"/>
<path opacity="0.1" d="M131.04 113.988L136.476 113.132L150.252 116.328L136.36 113.624L131.04 113.988Z" fill="black"/>
<path opacity="0.1" d="M132.352 111.268L136.936 111.136L150.876 114.728L136.804 111.708L132.352 111.268Z" fill="black"/>
<path opacity="0.1" d="M129.412 108.648L136.372 107.852L129.412 109.168V108.648Z" fill="black"/>
<path opacity="0.1" d="M129.196 110.548H131.62L129.196 111.136V110.548Z" fill="black"/>
<path opacity="0.1" d="M135.016 100.432L141.536 99.304L150.252 102.448L141.616 100.036L135.016 100.876V100.432Z" fill="black"/>
<path opacity="0.1" d="M157.492 110.056L147.548 106.952L157.212 110.84L157.492 110.056Z" fill="black"/>
<path opacity="0.1" d="M140.18 101.204L141.636 100.876L157.492 105.984L141.704 101.4L140.18 101.204Z" fill="black"/>
<path opacity="0.1" d="M159.912 103.324L154.224 101.3L159.604 103.836L159.912 103.324Z" fill="black"/>
<path opacity="0.1" d="M131.62 125.604L137.704 127.464L151.496 128.576L137.576 128.108L131.62 125.604Z" fill="black"/>
<path opacity="0.1" d="M130.308 131.352L136.432 133.716L150.252 134.032H136.368L130.308 131.352Z" fill="black"/>
<path opacity="0.1" d="M147.744 137.732L135.948 136.42L131.04 134.42L135.736 137.148L147.744 137.732Z" fill="black"/>
<path opacity="0.1" d="M151.848 130.32C151.736 130.28 142.336 130.036 142.336 130.036L151.7 130.904L151.848 130.32Z" fill="black"/>
<path opacity="0.1" d="M124.416 138.076L134.5 140.276H141.556L134.424 140.708L124.592 138.684L124.416 138.076Z" fill="black"/>
<path opacity="0.1" d="M146.64 143.144C146.64 143.164 136.836 144.24 136.836 144.24L146.556 143.692L146.64 143.144Z" fill="black"/>
<path opacity="0.1" d="M126.508 142.456C126.376 142.392 132.596 143.692 132.596 143.692C132.596 143.692 128.724 143.564 126.508 142.456Z" fill="black"/>
<path opacity="0.1" d="M124.028 145.112L132.596 147.176L124.028 145.772V145.112Z" fill="black"/>
<path opacity="0.1" d="M125.632 148.18L132.9 149.836L143.732 149.616L132.9 150.396L125.632 148.18Z" fill="black"/>
<path opacity="0.1" d="M135.472 146.144H143.068L136.832 146.452L135.472 146.144Z" fill="black"/>
<path opacity="0.1" d="M129.2 152.344L131.536 153.364C131.536 153.364 143.96 153.264 143.736 153.364C143.512 153.464 131.488 153.904 131.488 153.904L129.2 152.344Z" fill="black"/>
<path opacity="0.1" d="M147.304 155.56C147.304 155.56 135.704 155.852 135.948 155.852H145.548L147.304 155.56Z" fill="black"/>
<path opacity="0.1" d="M149.06 153.124C149.06 153.124 147.156 152.932 147.304 153.124C147.452 153.316 148.964 153.568 148.964 153.568L149.06 153.124Z" fill="black"/>
<path opacity="0.1" d="M129.196 156.744L131.196 157.16L141.936 157.952L131.148 157.696L129.196 156.744Z" fill="black"/>
<path d="M108.604 73.408C111.18 74.552 116.028 74.396 117.888 70.32C119.748 66.244 119.616 62.748 115.408 60.788C111.2 58.828 105.896 61.328 105.444 65.036C104.992 68.744 104.54 71.6 108.604 73.408Z" fill="#263238"/>
<path d="M58.984 151.444C59.261 151.053 59.4643 150.616 59.584 150.152C59.584 150.152 60.852 148.704 64.876 147.792L65.232 145.98C65.2894 145.67 65.2495 145.35 65.1177 145.063C64.9859 144.777 64.7688 144.538 64.496 144.38C64.42 144.336 64.3377 144.303 64.252 144.284C63.8109 144.218 63.3659 144.182 62.92 144.176C61.4268 144.171 59.9348 144.256 58.452 144.432L58.472 144.752L61.272 144.704C62.228 144.704 61.156 145.504 60.144 145.764C59.132 146.024 58.068 146.564 58.144 148.64C58.268 151.096 58.424 152.1 58.984 151.444Z" fill="#2E353A"/>
<path d="M65.9159 147.648C65.9159 147.648 60.748 149.02 59.584 150.152C59.584 150.152 58.8719 148.204 61.5359 146.82C64.984 145.032 64.252 144.3 64.252 144.3C64.7607 144.444 65.2548 144.636 65.728 144.872C66.632 145.408 65.9159 147.648 65.9159 147.648Z" fill="#E4897B"/>
<path d="M139.312 163.92C138.832 163.912 138.355 163.992 137.904 164.156C137.904 164.156 135.996 163.932 132.964 161.124L131.272 161.86C130.99 161.99 130.755 162.204 130.599 162.472C130.443 162.741 130.374 163.051 130.4 163.36C130.403 163.448 130.421 163.534 130.452 163.616C130.649 164.017 130.872 164.405 131.12 164.776C131.96 166.01 132.873 167.192 133.856 168.316L134.112 168.12L132.48 165.824C131.932 165.044 133.196 165.476 133.992 166.156C134.788 166.836 135.812 167.424 137.492 166.176C139.428 164.712 140.168 164 139.312 163.92Z" fill="#2E353A"/>
<path d="M132.26 160.352C132.26 160.352 136.312 163.84 137.904 164.156C137.904 164.156 136.704 165.844 134.056 164.428C130.632 162.596 130.436 163.628 130.436 163.628C130.268 163.126 130.148 162.609 130.076 162.084C130 161.024 132.26 160.352 132.26 160.352Z" fill="#E4897B"/>
<path d="M114.428 79.644C115.748 80.544 117.92 88.888 118.576 89.424C119.232 89.96 124.084 87.356 124.084 87.356L125.144 89.716C125.144 89.716 117.816 94.2 116.808 93.356C115.8 92.512 112.504 83.484 112.504 83.484L114.428 79.644Z" fill="#263238"/>
<path d="M114.428 79.644C115.748 80.544 117.92 88.888 118.576 89.424C119.232 89.96 124.084 87.356 124.084 87.356L125.144 89.716C125.144 89.716 117.816 94.2 116.808 93.356C115.8 92.512 112.504 83.484 112.504 83.484L114.428 79.644Z" fill="#2C3E50"/>
<path d="M87.5039 87.6521L92.4919 92.6961C92.4919 92.6961 107.732 97.8961 111.532 92.3721C111.532 92.3721 109.876 84.0761 105.604 82.6561C101.332 81.2361 87.5039 87.6521 87.5039 87.6521Z" fill="#263238"/>
<path d="M87.5039 87.6521L92.4919 92.6961C92.4919 92.6961 107.732 97.8961 111.532 92.3721C111.532 92.3721 109.876 84.0761 105.604 82.6561C101.332 81.2361 87.5039 87.6521 87.5039 87.6521Z" fill="#2C3E50"/>
<path d="M123.816 89.54L126.836 87.896L128.26 84.512C128.853 84.7144 129.434 84.9508 130 85.22C130.2 85.376 129.36 88.172 129.148 88.348C128.936 88.524 127.736 88.664 127.736 88.664L124.86 90.484L123.816 89.54Z" fill="#E4897B"/>
<path d="M97.3079 75.288C97.3079 75.288 107.2 75.06 114.428 79.644C113.595 85.2993 112.109 90.839 110 96.152L95.4959 93.752C95.4959 93.752 97.0479 89.62 95.3279 81.352L97.3079 75.288Z" fill="#2C3E50"/>
<path d="M97.3079 75.288C97.3079 75.288 107.2 75.06 114.428 79.644C113.595 85.2993 112.109 90.839 110 96.152L95.4959 93.752C95.4959 93.752 97.0479 89.62 95.3279 81.352L97.3079 75.288Z" fill="#B76E79"/>
<path d="M101.6 74.8359C103.6 83.3319 94.7999 90.9359 88.0839 91.0279L86.3479 87.3439L93.5119 84.3559L97.3239 75.2879L101.6 74.8359Z" fill="#263238"/>
<path d="M111.396 77.7881C111.396 77.7881 110.048 89.6681 111.532 92.3721C111.532 92.3721 114.064 87.7361 114.636 79.8401C113.658 79.0065 112.567 78.3156 111.396 77.7881Z" fill="#263238"/>
<path d="M101.6 74.8359C103.6 83.3319 94.7999 90.9359 88.0839 91.0279L86.3479 87.3439L93.5119 84.3559L97.3239 75.2879L101.6 74.8359Z" fill="#2C3E50"/>
<path d="M111.396 77.7881C111.396 77.7881 110.048 89.6681 111.532 92.3721C111.532 92.3721 114.064 87.7361 114.636 79.8401C113.658 79.0065 112.567 78.3156 111.396 77.7881Z" fill="#2C3E50"/>
<path d="M103.8 74.9521C103.8 74.9521 102 74.0001 99.0281 75.8281L100.856 77.1241L99.5001 78.6561C99.4742 81.411 98.8246 84.1242 97.6001 86.5921C97.6001 86.5921 100.848 83.2761 101.944 79.6521C103.04 76.0281 102.544 75.2001 103.8 74.9521Z" fill="#263238"/>
<path d="M109.664 76.5601C109.664 76.5601 111.808 77.0241 113.664 79.4961L112.52 79.7081L113.632 81.6401L110.832 87.8801C110.832 87.8801 110.536 83.0801 110.676 80.1841C110.701 78.903 110.349 77.6427 109.664 76.5601Z" fill="#263238"/>
<path d="M103.8 74.9521C103.8 74.9521 102 74.0001 99.0281 75.8281L100.856 77.1241L99.5001 78.6561C99.4742 81.411 98.8246 84.1242 97.6001 86.5921C97.6001 86.5921 100.848 83.2761 101.944 79.6521C103.04 76.0281 102.544 75.2001 103.8 74.9521Z" fill="#2C3E50"/>
<path d="M109.664 76.5601C109.664 76.5601 111.808 77.0241 113.664 79.4961L112.52 79.7081L113.632 81.6401L110.832 87.8801C110.832 87.8801 110.536 83.0801 110.676 80.1841C110.701 78.903 110.349 77.6427 109.664 76.5601Z" fill="#2C3E50"/>
<path d="M109.932 115.676C107.512 125.652 100.528 138.932 99.164 141.504C98.1 143.528 93.88 144.208 88.764 144.8C78.896 145.944 65.604 147.756 65.604 147.756V144.644C65.604 144.644 92.444 138.32 92.88 136.876C93.488 134.832 94.204 125.112 94.844 116.932C94.92 116.02 94.992 115.128 95.06 114.268C95.172 112.852 95.276 111.536 95.364 110.4C95.572 107.796 95.7 106.108 95.7 106.108L110.02 96C110.02 96 112.956 103.2 109.932 115.676Z" fill="#263238"/>
<path d="M109.932 115.676C107.512 125.652 100.528 138.932 99.164 141.504C98.1 143.528 93.88 144.208 88.764 144.8C78.896 145.944 65.604 147.756 65.604 147.756V144.644C65.604 144.644 92.444 138.32 92.88 136.876C93.488 134.832 94.204 125.112 94.844 116.932C94.92 116.02 94.992 115.128 95.06 114.268C95.172 112.852 95.276 111.536 95.364 110.4C95.572 107.796 95.7 106.108 95.7 106.108L110.02 96C110.02 96 112.956 103.2 109.932 115.676Z" fill="black"/>
<path d="M116.8 128.02C115.448 125.06 103.8 106.608 103.8 106.608L92.3521 108.544C96.0441 119.372 109.188 130.432 111.416 133.304C113.644 136.176 130.196 161.776 130.196 161.776L132.232 160.336C132.232 160.336 119.664 134.284 116.8 128.02Z" fill="black"/>
<path d="M95.4841 93.7561L110.548 94.7361L110.272 96.4641C110.272 96.4641 108.672 104.212 102.316 108.32L92.3521 108.544C92.3521 108.544 91.1881 102.228 95.1121 94.9081L95.4841 93.7561Z" fill="black"/>
<path d="M100.748 94.2561L95.7801 93.9641L95.4041 95.1201L100.636 95.5121L100.748 94.2561Z" fill="black"/>
<path d="M101.372 94.292L101.26 95.56L109.968 96.216L110.048 94.804L101.372 94.292Z" fill="black"/>
<path d="M107.6 96.464H107.572L105.972 96.372C105.848 96.364 105.732 96.308 105.648 96.216C105.607 96.1699 105.576 96.1161 105.556 96.0577C105.536 95.9993 105.528 95.9376 105.532 95.876L105.6 94.8C105.604 94.7385 105.619 94.6783 105.646 94.6229C105.673 94.5675 105.711 94.5179 105.757 94.477C105.803 94.4362 105.857 94.4048 105.915 94.3847C105.973 94.3646 106.035 94.3562 106.096 94.36L107.696 94.456C107.758 94.4582 107.819 94.4732 107.874 94.5001C107.93 94.5269 107.98 94.565 108.02 94.612C108.061 94.6579 108.093 94.7117 108.113 94.7701C108.133 94.8286 108.141 94.8904 108.136 94.952L108.076 96.012C108.067 96.1309 108.014 96.2423 107.928 96.3244C107.841 96.4064 107.727 96.4534 107.608 96.456L107.6 96.464ZM106.072 94.768C106.055 94.768 106.038 94.7746 106.025 94.7865C106.013 94.7984 106.005 94.8147 106.004 94.832L105.94 95.896C105.942 95.9139 105.949 95.9307 105.962 95.9438C105.974 95.9569 105.99 95.9654 106.008 95.968L107.608 96.064C107.626 96.0623 107.642 96.0545 107.654 96.0421C107.667 96.0297 107.674 96.0135 107.676 95.996L107.736 94.936C107.74 94.9278 107.742 94.919 107.742 94.91C107.742 94.9011 107.74 94.8922 107.736 94.884C107.723 94.8712 107.706 94.8628 107.688 94.86L106.088 94.768H106.072Z" fill="white"/>
<path d="M107.856 95.6761L107.252 95.6401C107.226 95.6386 107.2 95.6319 107.176 95.6204C107.152 95.6089 107.131 95.5929 107.114 95.5732C107.096 95.5535 107.083 95.5305 107.074 95.5056C107.066 95.4807 107.062 95.4544 107.064 95.4281C107.065 95.4018 107.072 95.3761 107.084 95.3524C107.095 95.3288 107.111 95.3076 107.131 95.2901C107.151 95.2726 107.173 95.2592 107.198 95.2507C107.223 95.2421 107.25 95.2385 107.276 95.2401L107.876 95.2761C107.902 95.2777 107.928 95.2844 107.952 95.2958C107.975 95.3073 107.996 95.3234 108.014 95.3431C108.031 95.3628 108.045 95.3857 108.053 95.4106C108.062 95.4355 108.065 95.4619 108.064 95.4881C108.063 95.5142 108.057 95.5399 108.046 95.5635C108.034 95.5872 108.019 95.6084 107.999 95.6259C107.98 95.6434 107.957 95.6569 107.933 95.6655C107.908 95.6741 107.882 95.6777 107.856 95.6761Z" fill="white"/>
<path d="M108.4 85.6001L112.516 83.4881C112.801 83.0647 113.162 82.6973 113.58 82.4041C114.02 82.2001 117.9 82.8041 117.9 82.8041L116.448 85.8721C116.448 85.8721 113.576 85.7081 113.272 85.4721L109.508 87.4721L108.4 85.6001Z" fill="#E4897B"/>
<path d="M97.308 75.2881C93.52 76.2721 99.212 90.1601 101.708 90.9481C104.204 91.7361 112.208 86.3441 112.208 86.3441L110.832 84.0321C110.832 84.0321 103.836 86.8321 103.196 86.5241C102.556 86.2161 99.972 79.2361 99.512 77.9881C99.052 76.7401 97.308 75.2881 97.308 75.2881Z" fill="#263238"/>
<path d="M97.308 75.2881C93.52 76.2721 99.212 90.1601 101.708 90.9481C104.204 91.7361 112.208 86.3441 112.208 86.3441L110.832 84.0321C110.832 84.0321 103.836 86.8321 103.196 86.5241C102.556 86.2161 99.972 79.2361 99.512 77.9881C99.052 76.7401 97.308 75.2881 97.308 75.2881Z" fill="#2C3E50"/>
<path opacity="0.6" d="M111.5 86.344C111.492 86.3791 111.471 86.4099 111.441 86.43C111.412 86.4501 111.375 86.458 111.34 86.452C111.322 86.4487 111.305 86.4419 111.29 86.432C111.275 86.4221 111.263 86.4094 111.253 86.3945C111.242 86.3796 111.235 86.3629 111.232 86.3453C111.228 86.3278 111.228 86.3096 111.232 86.292C111.235 86.2741 111.241 86.257 111.251 86.2418C111.261 86.2265 111.273 86.2134 111.288 86.2033C111.303 86.1931 111.32 86.1862 111.338 86.1829C111.356 86.1796 111.374 86.18 111.392 86.184C111.427 86.1917 111.458 86.2127 111.478 86.2424C111.498 86.2722 111.506 86.3086 111.5 86.344Z" fill="white"/>
<path opacity="0.6" d="M110.54 86.9359C110.537 86.9536 110.53 86.9704 110.52 86.9853C110.51 87.0003 110.497 87.0132 110.482 87.0232C110.468 87.0333 110.451 87.0403 110.433 87.0438C110.416 87.0474 110.398 87.0474 110.38 87.0439C110.345 87.0362 110.314 87.0153 110.294 86.9855C110.274 86.9557 110.266 86.9194 110.272 86.8839C110.279 86.8484 110.3 86.8171 110.33 86.7968C110.36 86.7765 110.396 86.769 110.432 86.7759C110.468 86.7828 110.499 86.8036 110.519 86.8336C110.539 86.8636 110.547 86.9004 110.54 86.9359Z" fill="white"/>
<path d="M131.372 79.072L126.288 92.248C126.222 92.3975 126.106 92.5194 125.96 92.5924C125.814 92.6655 125.647 92.6851 125.488 92.648L116.18 90.332C116.106 90.315 116.037 90.2821 115.977 90.2357C115.917 90.1892 115.867 90.1303 115.832 90.063C115.797 89.9956 115.778 89.9215 115.774 89.8457C115.77 89.7699 115.783 89.6943 115.812 89.624L120.892 76.448C120.958 76.2989 121.074 76.1776 121.22 76.1046C121.366 76.0316 121.533 76.0116 121.692 76.048L131 78.368C131.074 78.384 131.144 78.416 131.204 78.4619C131.265 78.5077 131.315 78.5662 131.35 78.6333C131.385 78.7004 131.406 78.7744 131.41 78.8502C131.413 78.926 131.401 79.0017 131.372 79.072Z" fill="#263238"/>
<path opacity="0.3" d="M131.372 79.0721L126.288 92.2481C126.222 92.3977 126.106 92.5195 125.96 92.5926C125.814 92.6656 125.647 92.6853 125.488 92.6481L116.604 90.4361C116.529 90.4204 116.459 90.3883 116.398 90.3421C116.337 90.296 116.288 90.2369 116.252 90.1692C116.217 90.1015 116.198 90.0268 116.195 89.9505C116.192 89.8742 116.206 89.7983 116.236 89.7281L121.316 76.5521C121.382 76.4026 121.498 76.2807 121.644 76.2077C121.79 76.1346 121.957 76.115 122.116 76.1521L131.004 78.3641C131.078 78.3805 131.148 78.413 131.208 78.4593C131.269 78.5056 131.318 78.5646 131.353 78.6321C131.389 78.6996 131.408 78.774 131.412 78.8501C131.415 78.9261 131.401 79.0019 131.372 79.0721Z" fill="white"/>
<path opacity="0.3" d="M124.232 83.512C124.001 83.4601 123.759 83.4914 123.549 83.6005C123.339 83.7095 123.174 83.8893 123.084 84.108C123.042 84.2077 123.023 84.3153 123.027 84.4234C123.031 84.5314 123.058 84.6373 123.107 84.7337C123.156 84.83 123.226 84.9144 123.311 84.9812C123.396 85.0479 123.495 85.0953 123.6 85.12C123.831 85.1727 124.073 85.1417 124.283 85.0326C124.494 84.9234 124.658 84.7432 124.748 84.524C124.642 84.4999 124.543 84.4529 124.458 84.3863C124.372 84.3197 124.303 84.2352 124.253 84.1387C124.204 84.0421 124.177 83.936 124.173 83.8277C124.169 83.7194 124.189 83.6116 124.232 83.512Z" fill="white"/>
<path d="M100.944 78.3121C100.944 78.3121 101.532 75.6641 102.576 75.1121C103.62 74.5601 108.604 75.4361 110.336 77.0641C111.405 78.1452 112.081 79.5536 112.256 81.0641L110.028 80.1201L106.648 83.9281L104 78.6001L100.944 78.3121Z" fill="#2C3E50"/>
<path d="M100.944 78.3121C100.944 78.3121 101.532 75.6641 102.576 75.1121C103.62 74.5601 108.604 75.4361 110.336 77.0641C111.405 78.1452 112.081 79.5536 112.256 81.0641L110.028 80.1201L106.648 83.9281L104 78.6001L100.944 78.3121Z" fill="white"/>
<path d="M105.952 75.22C108.828 75.44 110.32 77.428 109.952 79.056L108.164 79.304L106.724 83.224L106.156 78.868L104.352 77.72C104.352 77.72 103.2 75.004 105.952 75.22Z" fill="#E4897B"/>
<path d="M107.012 79.5081C104.268 77.3441 104.588 75.6481 104.588 75.6481C105.936 74.9041 106.832 73.2961 107.156 72.0481C107.262 71.655 107.334 71.2535 107.372 70.8481L110.552 73.6481C110.17 74.0972 109.821 74.5731 109.508 75.0721C109.273 75.437 109.083 75.8292 108.944 76.2401C108.544 77.4401 109.148 77.8401 109.148 77.8401C109.068 79.4201 107.012 79.5081 107.012 79.5081Z" fill="#E4897B"/>
<path opacity="0.2" d="M109.444 74.8761C109.259 75.2684 109.125 75.6823 109.044 76.1081C107.612 75.2401 106.992 73.5241 106.732 72.1521C106.786 71.7546 106.808 71.3532 106.796 70.9521L110.304 73.3521C109.981 73.8389 109.694 74.3482 109.444 74.8761Z" fill="black"/>
<path d="M114.54 64.2001C117.812 65.7801 118.02 68.0401 116.632 71.5241C114.896 75.8841 112.516 78.4241 108.86 75.5481C103.896 71.6441 109.108 61.5761 114.54 64.2001Z" fill="#E4897B"/>
<path d="M114.604 70.3201C114.629 70.9351 114.728 71.5449 114.9 72.1361C114.739 72.2254 114.557 72.2685 114.374 72.2607C114.19 72.253 114.012 72.1946 113.86 72.0921L114.604 70.3201Z" fill="#DE5753"/>
<path d="M112.732 69.0882C112.608 69.3602 112.36 69.5122 112.18 69.4282C112 69.3442 111.952 69.0602 112.076 68.7882C112.2 68.5162 112.444 68.3642 112.628 68.4442C112.812 68.5242 112.856 68.8002 112.732 69.0882Z" fill="#263238"/>
<path d="M112.544 68.4241L113.24 68.4601C113.24 68.4601 112.72 68.8241 112.544 68.4241Z" fill="#263238"/>
<path d="M116.136 70.5641C116.012 70.8361 115.764 70.9921 115.584 70.9081C115.404 70.8241 115.356 70.5401 115.48 70.2681C115.604 69.9961 115.848 69.8401 116.032 69.9241C116.216 70.0081 116.26 70.2921 116.136 70.5641Z" fill="#263238"/>
<path d="M115.948 69.9041L116.644 69.9401C116.644 69.9401 116.124 70.3041 115.948 69.9041Z" fill="#263238"/>
<path d="M113.66 67.3119C113.635 67.3115 113.611 67.3046 113.59 67.292C113.569 67.2794 113.552 67.2614 113.54 67.2399C113.403 67.0128 113.216 66.8196 112.994 66.6749C112.771 66.5301 112.519 66.4375 112.256 66.4039C112.237 66.404 112.219 66.4002 112.202 66.3929C112.185 66.3855 112.169 66.3748 112.157 66.3613C112.144 66.3478 112.134 66.3319 112.128 66.3144C112.121 66.297 112.119 66.2784 112.12 66.2599C112.12 66.2412 112.124 66.2227 112.131 66.2054C112.138 66.1882 112.149 66.1725 112.162 66.1595C112.176 66.1464 112.192 66.1362 112.209 66.1294C112.227 66.1226 112.245 66.1194 112.264 66.1199C113.208 66.1439 113.76 67.0599 113.784 67.0959C113.803 67.1289 113.808 67.1679 113.798 67.2046C113.788 67.2413 113.765 67.2727 113.732 67.2919C113.71 67.3046 113.685 67.3115 113.66 67.3119Z" fill="#263238"/>
<path d="M117.6 68.46H117.54C117.336 68.3464 117.109 68.2799 116.875 68.2654C116.642 68.2509 116.409 68.2887 116.192 68.376C116.176 68.3851 116.158 68.3909 116.139 68.393C116.121 68.3951 116.102 68.3935 116.084 68.3883C116.066 68.3831 116.05 68.3744 116.035 68.3626C116.021 68.3509 116.009 68.3364 116 68.32C115.99 68.3039 115.984 68.286 115.982 68.2673C115.979 68.2487 115.981 68.2298 115.986 68.2117C115.991 68.1937 116 68.1769 116.012 68.1625C116.024 68.1481 116.039 68.1363 116.056 68.128C116.311 68.0189 116.588 67.9691 116.865 67.9823C117.142 67.9955 117.412 68.0712 117.656 68.204C117.689 68.2204 117.715 68.2492 117.728 68.2843C117.741 68.3193 117.739 68.3579 117.724 68.392C117.711 68.4133 117.693 68.4308 117.671 68.4428C117.649 68.4547 117.625 68.4607 117.6 68.46Z" fill="#263238"/>
<path d="M108.304 68C108.304 68 111.132 66.052 111.904 63.864C111.904 63.864 119.668 64.348 116.808 71.064C116.808 71.064 120.264 65.528 114.704 62.664C109.144 59.8 105.2 68.076 106.908 71.928C106.908 71.928 106.544 69.2 108.304 68Z" fill="#263238"/>
<path d="M108.504 68.9321C108.653 68.5383 108.641 68.1017 108.47 67.7168C108.3 67.3319 107.984 67.0299 107.592 66.8761C106.524 66.4961 105.036 68.3441 107.316 70.0761C107.644 70.3081 108.02 70.0561 108.504 68.9321Z" fill="#E4897B"/>
<path d="M111.756 60.9761C111.756 60.9761 114.224 60.4241 115.804 61.2081C117.384 61.9921 117.492 63.1681 117.492 63.1681C117.858 63.1018 118.234 63.1243 118.589 63.2336C118.944 63.3428 119.267 63.5358 119.532 63.7961C120.516 64.7041 121.096 67.3161 120.052 70.1121C119.008 72.9081 116.572 72.5121 116.572 72.5121C116.572 72.5121 119.748 68.3641 116.364 65.6681C116.364 65.6681 115.256 64.3401 113.964 65.1441C112.672 65.9481 111.752 69.3041 108.908 67.1201C106.064 64.9361 109.304 61.6201 111.756 60.9761Z" fill="#263238"/>
<path d="M113.096 73.5481C113.062 73.5475 113.029 73.5347 113.003 73.5119C112.977 73.4892 112.961 73.4581 112.956 73.4241C112.892 72.9161 112.04 72.3401 111.716 72.1641C111.683 72.1448 111.659 72.1138 111.649 72.0773C111.638 72.0408 111.642 72.0017 111.66 71.9681C111.669 71.952 111.681 71.9379 111.696 71.9266C111.71 71.9152 111.727 71.9069 111.745 71.9021C111.763 71.8972 111.782 71.896 111.8 71.8984C111.818 71.9008 111.836 71.9068 111.852 71.9161C111.904 71.9441 113.14 72.6361 113.236 73.3881C113.241 73.4251 113.231 73.4625 113.208 73.4923C113.186 73.5222 113.153 73.5422 113.116 73.5481H113.096Z" fill="#263238"/>
<path d="M112 61.5C112 61.5 110.284 55.8041 106.556 57.4441C102.828 59.0841 101.016 63.2 98 60.8C94.984 58.4001 93.6 61.512 92.136 62.46C90.672 63.408 88.08 61.984 88.772 60.8C88.772 60.8 86.872 62.252 90.24 63.78C93.608 65.308 95.26 62.116 96.332 63.324C97.404 64.532 101.2 66.936 103.2 65.2C103.762 64.7045 104.448 64.3706 105.185 64.234C105.922 64.0973 106.682 64.163 107.384 64.424L112 61.5Z" fill="#263238"/>
<path d="M101.924 66.7999C101.666 66.7994 101.409 66.752 101.168 66.6599C100.448 66.3746 99.7444 66.0501 99.06 65.6879C97.572 64.9359 96.164 64.2239 95.38 64.8439C95.3613 64.8623 95.3362 64.8725 95.31 64.8725C95.2838 64.8725 95.2587 64.8623 95.24 64.8439C95.2305 64.835 95.2228 64.8241 95.2176 64.8121C95.2124 64.8 95.2097 64.7871 95.2097 64.7739C95.2097 64.7608 95.2124 64.7478 95.2176 64.7358C95.2228 64.7238 95.2305 64.7129 95.24 64.7039C96.124 64.0079 97.588 64.7479 99.132 65.5279C99.8114 65.888 100.51 66.2112 101.224 66.4959C102.528 66.9799 103.768 65.9359 104.864 65.0119C105.664 64.3479 106.392 63.7239 107.088 63.7039C107.101 63.7034 107.114 63.7055 107.127 63.71C107.139 63.7145 107.15 63.7215 107.16 63.7304C107.17 63.7393 107.177 63.75 107.183 63.762C107.188 63.7739 107.192 63.7868 107.192 63.7999C107.192 63.8268 107.182 63.8527 107.163 63.8721C107.144 63.8915 107.119 63.9029 107.092 63.9039C106.468 63.9239 105.752 64.5239 104.996 65.1639C104.08 65.9119 103.044 66.7999 101.924 66.7999Z" fill="#263238"/>
<path d="M91.3999 61.7959C91.147 61.7956 90.9012 61.7128 90.6999 61.5599C90.6886 61.5527 90.6789 61.5432 90.6715 61.5321C90.6641 61.521 90.6592 61.5084 90.6569 61.4952C90.6546 61.482 90.6552 61.4685 90.6584 61.4556C90.6617 61.4426 90.6676 61.4305 90.6759 61.4199C90.6911 61.3992 90.7137 61.3851 90.739 61.3807C90.7644 61.3762 90.7904 61.3817 90.8119 61.3959C91.6759 62.0079 92.5959 61.0879 93.4919 60.1959C94.1239 59.5639 94.7199 58.9679 95.3038 58.8959C95.8878 58.8239 96.6158 59.2079 97.4798 59.6959C98.8081 60.5639 100.31 61.1317 101.88 61.3599C101.906 61.3626 101.931 61.3756 101.948 61.3963C101.965 61.4169 101.973 61.4434 101.97 61.4699C101.967 61.4964 101.954 61.5208 101.933 61.5377C101.913 61.5546 101.886 61.5626 101.86 61.5599C100.258 61.3283 98.7248 60.7509 97.3678 59.8679C96.5399 59.3839 95.8839 59.0039 95.3199 59.0679C94.7559 59.1319 94.2319 59.7039 93.6239 60.3119C92.9359 61.0319 92.1679 61.7959 91.3999 61.7959Z" fill="#263238"/>
<path d="M110.832 68.864C110.402 68.8464 109.983 68.7242 109.612 68.508C109.6 68.501 109.59 68.4919 109.583 68.481C109.575 68.4701 109.569 68.4578 109.566 68.4448C109.563 68.4317 109.563 68.4182 109.565 68.405C109.568 68.3918 109.573 68.3792 109.58 68.368C109.587 68.357 109.596 68.3475 109.606 68.3401C109.617 68.3327 109.629 68.3275 109.642 68.3249C109.655 68.3223 109.668 68.3223 109.68 68.3249C109.693 68.3274 109.705 68.3326 109.716 68.34C109.776 68.376 111.156 69.22 111.924 68.06C113.9 65.056 114.608 64.32 115.812 64.84C115.824 64.8447 115.836 64.852 115.845 64.8614C115.855 64.8708 115.862 64.8821 115.867 64.8945C115.872 64.9069 115.874 64.9202 115.874 64.9336C115.873 64.9469 115.87 64.96 115.864 64.972C115.853 64.9957 115.833 65.0143 115.808 65.024C115.784 65.0336 115.756 65.0336 115.732 65.024C114.716 64.584 114.104 65.112 112.088 68.172C111.958 68.3873 111.773 68.5645 111.552 68.686C111.332 68.8074 111.084 68.8688 110.832 68.864Z" fill="#263238"/>
<path d="M127.6 89.052L135.772 85.8521C135.772 85.8521 145.036 91.272 150.924 92.168L140.74 94.168C140.74 94.168 129.72 92 127.6 89.052Z" fill="#2C3E50"/>
<path d="M78.1001 115.308L84.3081 109.708C84.3081 109.708 94.9201 111.308 103.2 115.308L94.5521 120.616C94.5521 120.616 86.4001 116.476 78.1001 115.308Z" fill="#2C3E50"/>
<path d="M28.332 122.464L36.308 119.712C36.308 119.712 43.228 127.108 48.744 127.108L39.6 131.5C39.6 131.5 29.852 127.768 28.332 122.464Z" fill="#2C3E50"/>
<path d="M152.82 138.496L162.852 140.208C162.852 140.208 154.144 146 146.8 147.048L138.884 144.484C138.884 144.484 148.428 143.488 152.82 138.496Z" fill="#2C3E50"/>
<path d="M149.636 121.124C149.636 121.124 159.28 120.604 166.1 123.432L170.192 119.528C170.192 119.528 159.484 114.836 152.592 117.18L149.636 121.124Z" fill="#2C3E50"/>
<path d="M83.7161 158C83.7161 158 88.5361 152.924 100.572 151.6L107.868 154.888C107.868 154.888 96.9841 157.252 92.0281 159.552L83.7161 158Z" fill="#2C3E50"/>
<path opacity="0.6" d="M127.6 89.052L135.772 85.8521C135.772 85.8521 145.036 91.272 150.924 92.168L140.74 94.168C140.74 94.168 129.72 92 127.6 89.052Z" fill="white"/>
<path opacity="0.6" d="M78.1001 115.308L84.3081 109.708C84.3081 109.708 94.9201 111.308 103.2 115.308L94.5521 120.616C94.5521 120.616 86.4001 116.476 78.1001 115.308Z" fill="white"/>
<path opacity="0.6" d="M28.332 122.464L36.308 119.712C36.308 119.712 43.228 127.108 48.744 127.108L39.6 131.5C39.6 131.5 29.852 127.768 28.332 122.464Z" fill="white"/>
<path opacity="0.8" d="M152.82 138.496L162.852 140.208C162.852 140.208 154.144 146 146.8 147.048L138.884 144.484C138.884 144.484 148.428 143.488 152.82 138.496Z" fill="white"/>
<path opacity="0.4" d="M149.636 121.124C149.636 121.124 159.28 120.604 166.1 123.432L170.192 119.528C170.192 119.528 159.484 114.836 152.592 117.18L149.636 121.124Z" fill="white"/>
<path opacity="0.4" d="M83.7161 158C83.7161 158 88.5361 152.924 100.572 151.6L107.868 154.888C107.868 154.888 96.9841 157.252 92.0281 159.552L83.7161 158Z" fill="white"/>
</svg>
