<svg width="200" height="200" viewBox="0 0 200 200" fill="none" xmlns="http://www.w3.org/2000/svg">
<path d="M99.9999 171.024C142.833 171.024 177.556 168.997 177.556 166.495C177.556 163.994 142.833 161.966 99.9999 161.966C57.1672 161.966 22.4443 163.994 22.4443 166.495C22.4443 168.997 57.1672 171.024 99.9999 171.024Z" fill="#F5F5F5"/>
<path d="M126.11 163.205L122.906 163.155L123.106 155.707L126.31 155.757L126.11 163.205Z" fill="#FF8B7B"/>
<path d="M122.868 162.784L126.369 162.839C126.5 162.841 126.603 162.933 126.616 163.062L126.921 165.926C126.953 166.223 126.696 166.499 126.394 166.489C125.134 166.448 123.318 166.345 121.731 166.32C119.876 166.291 120.056 166.367 117.88 166.333C116.564 166.312 116.352 164.974 116.917 164.862C119.488 164.352 119.747 164.325 122.068 163.021C122.32 162.88 122.592 162.779 122.868 162.784Z" fill="#263238"/>
<path d="M122.081 67.4314C121.641 68.5734 121.161 69.6046 120.665 70.673C120.161 71.7278 119.631 72.7714 119.057 73.7982C117.908 75.8526 116.643 77.8654 115.047 79.7694L114.881 79.9682C114.791 80.069 114.71 80.1638 114.605 80.2638C114.401 80.461 114.171 80.6578 113.88 80.8334C113.603 81.0106 113.258 81.157 112.905 81.2538C112.548 81.3422 112.171 81.3834 111.829 81.357C111.128 81.3158 110.594 81.091 110.165 80.8654C109.735 80.633 109.402 80.3778 109.109 80.1238C108.527 79.615 108.091 79.0954 107.704 78.5738C107.317 78.0526 106.977 77.5322 106.663 77.007C105.426 74.8974 104.538 72.7674 103.795 70.517L105.997 69.5362C106.575 70.455 107.17 71.4118 107.791 72.313C108.406 73.2218 109.034 74.1122 109.694 74.9278C110.021 75.3362 110.353 75.7282 110.692 76.0762C111.029 76.4234 111.376 76.7318 111.673 76.9378C111.82 77.0386 111.955 77.1074 112.033 77.1286C112.108 77.1514 112.122 77.1222 111.989 77.095C111.865 77.0666 111.635 77.1258 111.548 77.1742C111.499 77.2022 111.482 77.2082 111.478 77.2062C111.475 77.2082 111.481 77.1894 111.485 77.185L111.579 77.0482C112.175 76.2194 112.722 75.3058 113.264 74.3886C113.796 73.4598 114.302 72.5002 114.798 71.5326C115.287 70.559 115.764 69.5734 116.228 68.5806C116.696 67.5998 117.145 66.5642 117.567 65.6118L122.081 67.4314Z" fill="#FF8B7B"/>
<path d="M123.336 65.5184C124.314 68.4636 118.524 76.4924 118.524 76.4924L112.229 72.5384C112.229 72.5384 113.88 68.4416 116.213 65.318C118.609 62.1108 122.263 62.2864 123.336 65.5184Z" fill="#B76E79"/>
<path opacity="0.2" d="M119.722 68.9762C118.478 69.5162 116.331 73.689 116.61 75.2922L118.523 76.4922C118.523 76.4922 120.753 73.4002 122.21 70.3482C121.352 69.4442 120.379 68.6922 119.722 68.9762Z" fill="black"/>
<path d="M106.219 70.3997L105.623 66.7693L102.168 67.9645C102.168 67.9645 102.255 70.8193 104.575 71.3441L106.219 70.3997Z" fill="#FF8B7B"/>
<path d="M103.284 64.323L101.964 65.4142C101.745 65.5958 101.649 65.8874 101.718 66.1642L102.168 67.9646L105.623 66.7694L104.405 64.5386C104.182 64.1302 103.642 64.0266 103.284 64.323Z" fill="#FF8B7B"/>
<path opacity="0.2" d="M123.107 155.709L123.003 159.548L126.208 159.598L126.312 155.76L123.107 155.709Z" fill="black"/>
<path d="M137.599 64.216C134.603 76.412 135.791 89.3572 135.579 91.9768C135.579 91.9768 118.404 91.7 118.404 91.6984C116.829 72.8608 119.605 63.0404 119.605 63.0404C119.605 63.0404 120.698 62.8264 122.19 62.6728C122.658 62.6248 123.163 62.5824 123.689 62.5548C123.98 62.5372 124.275 62.528 124.575 62.522C126.512 62.4904 129.687 62.798 131.877 63.0644C132.336 63.1212 132.803 63.1896 133.255 63.2632C133.675 63.3344 134.087 63.41 134.475 63.4872C136.236 63.836 137.599 64.216 137.599 64.216Z" fill="#B76E79"/>
<path opacity="0.2" d="M134.143 69.448C133.88 70.628 134.436 76.012 135.719 77.34C135.821 75.616 135.977 73.816 136.203 71.976L134.143 69.448Z" fill="black"/>
<path d="M131.451 54.813C130.905 57.1214 130.289 61.379 131.875 63.0638C130.552 64.2346 128.83 65.573 126.037 65.4634C123.244 65.3538 123.802 63.4774 124.575 62.5222C127.217 62.0926 127.22 60.1498 126.83 58.2958L131.451 54.813Z" fill="#FF8B7B"/>
<path d="M131.722 62.7537C131.423 63.1789 130.161 64.4517 125.417 65.4029C126.11 65.8981 126.827 67.0889 127.196 67.7613C127.349 68.0397 127.684 68.1645 127.97 68.0493C129.333 67.5005 132.888 65.8093 132.734 63.1433C132.729 63.0557 132.677 62.9713 132.6 62.9273C132.387 62.8069 132.157 62.7197 132 62.6673C131.895 62.6321 131.784 62.6661 131.722 62.7537Z" fill="white"/>
<path d="M123.367 67.0757C123.789 66.5373 124.528 65.7397 125.418 65.4029C124.848 64.9453 124.301 63.6905 124.591 62.6305C124.638 62.4577 124.495 62.2833 124.315 62.2997C124.133 62.3161 123.948 62.3557 123.861 62.3761C123.825 62.3845 123.795 62.3989 123.766 62.4205C123.408 62.6961 120.934 64.7245 122.503 67.0261C122.71 67.3297 123.149 67.3545 123.367 67.0757Z" fill="white"/>
<path opacity="0.2" d="M129.567 56.2346L126.833 58.2946C126.926 58.7334 126.995 59.1766 127.011 59.6034C128.017 59.5334 129.431 58.5402 129.575 57.503C129.647 56.9858 129.643 56.4834 129.567 56.2346Z" fill="black"/>
<path d="M123.977 53.7333C122.629 53.4529 122.488 49.6165 123.118 48.6665C122.242 48.6777 120.876 47.5777 120.564 46.5665C121.52 46.5997 122.898 46.0553 123.118 45.6517C122.176 45.2001 120.731 43.8445 120.564 42.7001C122.958 43.8669 124.787 43.9445 125.62 43.8445C125.62 43.8445 124.82 43.0669 124.964 42.1333C126.709 43.0665 128.948 43.7665 131.364 43.6833C133.483 43.6101 134.582 45.3333 133.765 46.6001C135.681 46.5501 134.348 51.9669 132.514 53.1169C130.781 54.0333 127.661 54.5001 123.977 53.7333Z" fill="#263238"/>
<path d="M132.229 51.3084C131.827 54.4656 131.752 56.3356 130.043 57.844C127.471 60.1136 123.649 58.3696 123.098 55.1472C122.603 52.2468 123.344 47.5708 126.533 46.5396C129.675 45.5244 132.631 48.1512 132.229 51.3084Z" fill="#FF8B7B"/>
<path d="M131.331 46.9001C131.331 46.9001 129.348 47.6669 129.898 49.6833C130.448 51.7001 130.365 52.6001 130.081 53.2001C130.281 53.8333 131.931 54.1189 131.931 54.1189C131.931 54.1189 133.315 51.1909 133.515 49.5457C133.715 47.9005 131.331 46.9001 131.331 46.9001Z" fill="#263238"/>
<path d="M132.901 46.437C133.688 46.5806 134.848 45.2666 134.946 44.199C134.946 44.199 135.437 48.0686 132.901 46.437Z" fill="#263238"/>
<path d="M132.672 46.1424C133.07 47.85 128.915 48.7336 123.515 48.6C123.515 48.6 123.481 46.5332 125.115 45.7168C126.748 44.9 132.155 43.9256 132.672 46.1424Z" fill="#263238"/>
<path d="M133.529 54.5265C133.082 55.2557 132.337 55.7073 131.648 55.8565C130.611 56.0809 130.146 55.1377 130.479 54.1917C130.778 53.3401 131.679 52.1973 132.698 52.3973C133.702 52.5945 134.041 53.6929 133.529 54.5265Z" fill="#FF8B7B"/>
<path d="M128.36 123.569C128.23 107.422 131.804 91.9158 131.804 91.9158L118.415 91.7002C118.415 91.7002 119.954 115.021 120.49 124.788C121.045 134.945 121.824 158.788 121.824 158.788L127.26 158.871C127.259 158.871 129.111 136.311 128.36 123.569Z" fill="black"/>
<path opacity="0.2" d="M128.891 100.8C125.075 106.024 126.791 115.852 128.355 122.796C128.351 114.164 129.371 105.784 130.303 99.936L128.891 100.8Z" fill="black"/>
<path d="M121.487 158.904L127.949 159.005L128.313 156.912L121.109 156.688L121.487 158.904Z" fill="#263238"/>
<path d="M128.006 51.8374C127.989 52.0958 127.839 52.2946 127.67 52.2822C127.501 52.2698 127.378 52.0502 127.395 51.7918C127.411 51.5334 127.562 51.3342 127.731 51.347C127.9 51.3594 128.023 51.579 128.006 51.8374Z" fill="#263238"/>
<path d="M124.436 51.6201C124.419 51.8785 124.268 52.0777 124.099 52.0649C123.931 52.0521 123.807 51.8329 123.824 51.5745C123.841 51.3161 123.992 51.1169 124.161 51.1297C124.329 51.1421 124.453 51.3617 124.436 51.6201Z" fill="#263238"/>
<path d="M125.356 51.8176C125.356 51.8176 124.671 53.2636 123.978 53.9344C124.407 54.3948 125.197 54.2576 125.197 54.2576L125.356 51.8176Z" fill="#FF5652"/>
<path d="M126.241 55.0298C127.232 54.9706 127.733 54.3222 127.756 54.2918C127.781 54.2586 127.774 54.211 127.741 54.1854C127.707 54.1598 127.659 54.1662 127.634 54.1994C127.629 54.207 127.044 54.9594 125.913 54.875C125.871 54.8722 125.835 54.9034 125.832 54.9454C125.829 54.9874 125.861 55.0238 125.903 55.027C126.021 55.0358 126.134 55.0362 126.241 55.0298Z" fill="#263238"/>
<path d="M128.536 50.4978C128.561 50.4962 128.586 50.4886 128.609 50.4738C128.679 50.4282 128.699 50.3342 128.652 50.2634C128.189 49.5566 127.487 49.5454 127.457 49.5454C127.373 49.545 127.306 49.613 127.306 49.697C127.307 49.7806 127.375 49.849 127.458 49.8498C127.481 49.8502 128.029 49.8646 128.398 50.4286C128.429 50.4762 128.483 50.501 128.536 50.4978Z" fill="#263238"/>
<path d="M123.263 50.3113C123.313 50.3141 123.362 50.2925 123.393 50.2501C123.789 49.7113 124.336 49.7333 124.359 49.7349C124.443 49.7393 124.514 49.6753 124.518 49.5917C124.522 49.5081 124.458 49.4365 124.375 49.4313C124.345 49.4301 123.644 49.3937 123.147 50.0685C123.098 50.1361 123.113 50.2313 123.181 50.2813C123.205 50.2997 123.234 50.3097 123.263 50.3113Z" fill="#263238"/>
<path d="M122.287 163.07C122.314 163.061 122.334 163.038 122.339 163.009C122.344 162.977 122.328 162.946 122.299 162.93C122.155 162.853 120.875 162.178 120.481 162.39C120.405 162.43 120.361 162.5 120.353 162.59C120.339 162.741 120.385 162.866 120.489 162.962C120.836 163.279 121.758 163.167 122.277 163.072C122.281 163.072 122.284 163.071 122.287 163.07ZM120.581 162.512C120.825 162.432 121.52 162.709 122.025 162.96C121.314 163.067 120.787 163.028 120.592 162.85C120.523 162.787 120.495 162.706 120.504 162.604C120.508 162.564 120.523 162.54 120.553 162.523C120.562 162.519 120.571 162.515 120.581 162.512Z" fill="#407BFF"/>
<path d="M122.287 163.07C122.294 163.067 122.301 163.064 122.307 163.06C122.329 163.044 122.342 163.018 122.339 162.992C122.336 162.955 122.264 162.089 121.861 161.747C121.738 161.643 121.597 161.597 121.442 161.61C121.232 161.628 121.17 161.733 121.155 161.818C121.09 162.18 121.846 162.887 122.231 163.067C122.249 163.074 122.269 163.076 122.287 163.07ZM121.377 161.776C121.397 161.77 121.422 161.764 121.455 161.762C121.57 161.752 121.671 161.785 121.763 161.863C122.028 162.088 122.133 162.607 122.17 162.86C121.779 162.616 121.266 162.062 121.305 161.845C121.307 161.831 121.314 161.797 121.377 161.776Z" fill="#407BFF"/>
<path d="M144.116 163.205L140.904 163.155L139.844 155.707L143.056 155.757L144.116 163.205Z" fill="#FF8B7B"/>
<path d="M140.74 162.784L144.24 162.839C144.371 162.841 144.474 162.933 144.488 163.062L144.793 165.926C144.824 166.223 144.568 166.499 144.266 166.489C143.005 166.448 142.609 166.345 141.022 166.32C139.167 166.291 140.023 166.367 137.847 166.333C136.531 166.312 136.32 164.98 136.883 164.862C138.667 164.489 139.135 163.779 139.939 163.021C140.149 162.823 140.463 162.779 140.74 162.784Z" fill="#263238"/>
<path opacity="0.2" d="M139.845 155.709L140.39 159.548L143.604 159.598L143.058 155.76L139.845 155.709Z" fill="black"/>
<path d="M139.552 123.165C137.729 108.733 137.742 95.2001 135.578 91.9769L124.229 91.7937C124.229 91.7937 130.051 114.609 132.266 124.222C134.568 134.217 138.939 157.837 138.939 157.837L144.116 157.91C144.116 157.91 142.951 134.329 139.552 123.165Z" fill="black"/>
<path d="M138.224 158.904L144.686 159.005L145.051 156.912L137.847 156.688L138.224 158.904Z" fill="#263238"/>
<path d="M141.374 163.027C141.402 163.027 141.43 163.013 141.443 162.987C141.459 162.959 141.455 162.924 141.434 162.9C141.324 162.777 140.354 161.704 139.912 161.767C139.827 161.78 139.761 161.829 139.722 161.911C139.657 162.049 139.657 162.182 139.722 162.308C139.939 162.725 140.844 162.936 141.364 163.025C141.367 163.026 141.371 163.027 141.374 163.027ZM139.964 161.917C140.22 161.925 140.777 162.425 141.166 162.834C140.462 162.69 139.979 162.472 139.857 162.238C139.814 162.155 139.815 162.07 139.859 161.977C139.876 161.941 139.898 161.923 139.933 161.918C139.943 161.917 139.953 161.917 139.964 161.917Z" fill="#407BFF"/>
<path d="M141.374 163.027C141.382 163.027 141.389 163.026 141.396 163.024C141.422 163.017 141.443 162.997 141.45 162.971C141.46 162.935 141.689 162.097 141.428 161.638C141.349 161.498 141.232 161.406 141.082 161.365C140.879 161.31 140.784 161.388 140.741 161.462C140.556 161.78 141.024 162.703 141.323 163.004C141.337 163.018 141.355 163.026 141.374 163.027ZM140.963 161.499C140.984 161.5 141.01 161.503 141.041 161.512C141.153 161.543 141.236 161.608 141.296 161.713C141.468 162.015 141.389 162.539 141.336 162.789C141.052 162.426 140.761 161.73 140.872 161.539C140.879 161.527 140.897 161.497 140.963 161.499Z" fill="#407BFF"/>
<path d="M138.486 66.1118C139.602 68.1102 140.609 70.1058 141.579 72.1566C142.53 74.213 143.437 76.2914 144.23 78.4666C144.426 79.011 144.617 79.5606 144.795 80.1238L144.935 80.5598C145.004 80.7882 145.059 81.0206 145.096 81.2538C145.17 81.7198 145.184 82.1842 145.139 82.6198C145.051 83.4954 144.785 84.2478 144.47 84.9006C144.156 85.5566 143.77 86.1158 143.372 86.6314C142.573 87.6582 141.677 88.4922 140.745 89.2418C140.281 89.6186 139.799 89.9642 139.307 90.291C138.811 90.623 138.333 90.9246 137.778 91.2238L136.377 89.2618C136.72 88.9046 137.11 88.5082 137.462 88.1206C137.818 87.727 138.16 87.3254 138.494 86.9266C139.154 86.125 139.755 85.297 140.21 84.4842C140.66 83.6794 140.938 82.8482 140.881 82.367C140.87 82.2478 140.852 82.1526 140.822 82.0722C140.809 82.0318 140.79 81.9954 140.772 81.9594L140.63 81.6106C140.438 81.1246 140.228 80.6366 140.012 80.1478C139.157 78.1894 138.188 76.2294 137.208 74.2778C136.228 72.3294 135.214 70.3598 134.215 68.4438L138.486 66.1118Z" fill="#FF8B7B"/>
<path d="M137.598 64.2166C140.562 65.1342 143.017 72.8758 143.017 72.8758L136.563 76.4922C136.563 76.4922 134.779 73.2334 133.376 69.4718C131.848 65.3742 134.007 63.1054 137.598 64.2166Z" fill="#B76E79"/>
<path d="M137.332 88.7715L134.297 89.9323L136.654 93.0355C136.654 93.0355 139.274 91.6507 138.763 90.1399L137.332 88.7715Z" fill="#FF8B7B"/>
<path d="M132.897 93.0027L133.907 93.9511C134.308 94.3287 134.925 94.3595 135.362 94.0243L136.654 93.0351L134.297 89.9319L132.864 91.3939C132.423 91.8447 132.437 92.5707 132.897 93.0027Z" fill="#FF8B7B"/>
<path d="M75.9981 47.4939H72.5312V47.8939H75.9981V47.4939Z" fill="#407BFF"/>
<path d="M68.5979 47.4939H60.8647V47.8939H68.5979V47.4939Z" fill="#407BFF"/>
<path d="M102.954 145.868H56.9623C54.2247 145.868 51.8311 143.629 51.6427 140.891L45.6515 53.871C45.4631 51.1338 47.5487 48.8938 50.2859 48.8938H96.2775C99.0147 48.8938 101.409 51.1334 101.597 53.871L107.588 140.891C107.777 143.629 105.691 145.868 102.954 145.868Z" fill="white"/>
<path d="M96.2779 49.2938C98.8163 49.2938 101.024 51.3594 101.199 53.8982L107.19 140.918C107.273 142.133 106.877 143.276 106.073 144.137C105.271 144.995 104.164 145.468 102.955 145.468H56.9623C54.4239 145.468 52.2163 143.402 52.0415 140.863L46.0503 53.8434C45.9667 52.629 46.3635 51.4858 47.1675 50.6246C47.9687 49.7662 49.0759 49.2938 50.2855 49.2938H96.2779ZM96.2779 48.8938H50.2859C47.5487 48.8938 45.4631 51.1334 45.6515 53.871L51.6427 140.891C51.8311 143.629 54.2251 145.868 56.9623 145.868H102.954C105.691 145.868 107.777 143.629 107.588 140.891L101.597 53.871C101.409 51.1338 99.0151 48.8938 96.2779 48.8938Z" fill="#407BFF"/>
<path d="M104.865 145.868H58.8734C56.1358 145.868 53.7422 143.629 53.5538 140.891L47.5626 53.871C47.3742 51.1338 49.4598 48.8938 52.197 48.8938H98.1886C100.926 48.8938 103.32 51.1334 103.508 53.871L109.499 140.891C109.688 143.629 107.603 145.868 104.865 145.868Z" fill="#2C3E50"/>
<path d="M88.8599 90.0561H68.3183C67.3703 90.0561 66.5275 89.3373 66.3691 88.3941L64.1571 75.2177C63.9751 74.1329 64.7623 73.1921 65.8523 73.1921H89.0031C90.0931 73.1921 91.0099 74.1329 90.9775 75.2177L90.5799 88.3941C90.5519 89.3373 89.8079 90.0561 88.8599 90.0561Z" fill="white"/>
<path d="M88.86 90.6562H68.3184C67.0768 90.6562 65.9844 89.7266 65.7772 88.4934L63.5652 75.3174C63.4488 74.6226 63.6344 73.9254 64.0752 73.4042C64.5116 72.8886 65.1592 72.593 65.8524 72.593H89.0032C89.686 72.593 90.3572 72.8814 90.8456 73.3846C91.3312 73.885 91.598 74.5598 91.5776 75.2366L91.18 88.413C91.142 89.6706 90.1232 90.6562 88.86 90.6562ZM65.8528 73.7922C65.5084 73.7922 65.2028 73.9298 64.9916 74.179C64.776 74.4338 64.69 74.7674 64.7492 75.1186L66.9612 88.2946C67.0704 88.9458 67.6668 89.4558 68.3188 89.4558H88.8604C89.4808 89.4558 89.9624 88.9914 89.9808 88.3758L90.3784 75.1998C90.3892 74.8454 90.2456 74.4886 89.9848 74.2194C89.7216 73.9482 89.364 73.7926 89.004 73.7926L65.8528 73.7922Z" fill="white"/>
<path d="M90.5807 88.9939C90.5743 88.9939 90.5683 88.9939 90.5623 88.9935C90.2311 88.9839 89.9707 88.7071 89.9807 88.3759L90.5851 68.3403C90.5919 68.1203 90.7179 67.9219 90.9143 67.8227C91.1103 67.7239 91.3455 67.7395 91.5263 67.8647L95.1335 70.3603C95.4059 70.5491 95.4743 70.9223 95.2855 71.1951C95.0971 71.4675 94.7231 71.5359 94.4507 71.3471L91.7511 69.4795L91.1799 88.4115C91.1703 88.7371 90.9035 88.9939 90.5807 88.9939Z" fill="white"/>
<path d="M75.7481 98.6236C77.0086 97.3188 76.8972 95.1664 75.4994 93.816C74.1015 92.4656 71.9466 92.4285 70.6861 93.7333C69.4256 95.038 69.537 97.1904 70.9348 98.5408C72.3327 99.8913 74.4876 99.9283 75.7481 98.6236Z" fill="white"/>
<path d="M73.4505 99.8461C71.4413 99.8461 69.6937 98.2113 69.5553 96.2025C69.4877 95.2197 69.8081 94.2949 70.4581 93.5989C71.1061 92.9053 72.0025 92.5225 72.9825 92.5225C74.9917 92.5225 76.7393 94.1573 76.8773 96.1661C76.9449 97.1489 76.6245 98.0737 75.9745 98.7697C75.3269 99.4637 74.4305 99.8461 73.4505 99.8461ZM72.9825 93.0461C72.1493 93.0461 71.3885 93.3693 70.8405 93.9557C70.2909 94.5449 70.0197 95.3301 70.0773 96.1661C70.1973 97.9069 71.7101 99.3225 73.4505 99.3225C74.2841 99.3225 75.0445 98.9993 75.5921 98.4129C76.1417 97.8237 76.4129 97.0393 76.3553 96.2025C76.2357 94.4617 74.7225 93.0461 72.9825 93.0461Z" fill="white"/>
<path d="M86.9732 98.6233C88.2337 97.3186 88.1223 95.1662 86.7245 93.8157C85.3266 92.4653 83.1717 92.4283 81.9112 93.733C80.6507 95.0378 80.7621 97.1902 82.1599 98.5406C83.5578 99.891 85.7127 99.928 86.9732 98.6233Z" fill="white"/>
<path d="M84.6761 99.8461C82.6669 99.8461 80.9193 98.2113 80.7813 96.2025C80.7137 95.2197 81.0341 94.2949 81.6841 93.5989C82.3317 92.9053 83.2281 92.5225 84.2081 92.5225C86.2173 92.5225 87.9649 94.1573 88.1033 96.1661C88.1709 97.1489 87.8505 98.0737 87.2005 98.7697C86.5525 99.4637 85.6561 99.8461 84.6761 99.8461ZM84.2081 93.0461C83.3745 93.0461 82.6141 93.3693 82.0665 93.9557C81.5169 94.5449 81.2457 95.3297 81.3033 96.1661C81.4233 97.9069 82.9365 99.3225 84.6765 99.3225C85.5097 99.3225 86.2705 98.9993 86.8185 98.4129C87.3681 97.8237 87.6393 97.0385 87.5817 96.2025C87.4613 94.4617 85.9485 93.0461 84.2081 93.0461Z" fill="white"/>
<path d="M83.1688 74.2591C86.2897 71.0286 86.0142 65.6994 82.5535 62.3561C79.0927 59.0127 73.7572 58.9213 70.6363 62.1518C67.5154 65.3824 67.7908 70.7115 71.2516 74.0549C74.7123 77.3982 80.0479 77.4897 83.1688 74.2591Z" fill="#B76E79"/>
<path d="M77.3677 75.273C73.4845 75.273 70.1081 72.1146 69.8409 68.2314C69.7105 66.3378 70.3277 64.557 71.5785 63.217C72.8253 61.8818 74.5517 61.1462 76.4393 61.1462C80.3225 61.1462 83.6989 64.3046 83.9661 68.1878C84.0965 70.0814 83.4793 71.8622 82.2285 73.2022C80.9817 74.5374 79.2553 75.273 77.3677 75.273ZM76.4393 61.787C74.7309 61.787 73.1713 62.4502 72.0469 63.6546C70.9185 64.863 70.3625 66.473 70.4801 68.1878C70.7249 71.7414 73.8145 74.6322 77.3677 74.6322C79.0757 74.6322 80.6357 73.969 81.7601 72.7646C82.8885 71.5562 83.4445 69.9462 83.3269 68.2314C83.0821 64.6778 79.9921 61.787 76.4393 61.787Z" fill="white"/>
<path d="M72.2007 67.88C72.2007 67.88 75.1475 69.4716 76.5243 71.5216C77.2691 69.9216 78.4027 67.696 81.4723 65.1956C77.5787 66.8448 76.3827 69.4696 76.3827 69.4696C76.3827 69.4696 74.7875 68.1496 72.2007 67.88Z" fill="white"/>
<path d="M81.6867 143.318C80.0079 143.318 78.5479 141.952 78.4327 140.274C78.3763 139.456 78.6427 138.687 79.1823 138.109C79.7203 137.533 80.4655 137.216 81.2807 137.216C82.9595 137.216 84.4195 138.581 84.5347 140.26C84.5911 141.077 84.3247 141.846 83.7851 142.424C83.2467 143 82.5015 143.318 81.6867 143.318ZM81.2803 137.415C80.5215 137.415 79.8279 137.71 79.3283 138.245C78.8271 138.783 78.5799 139.498 78.6323 140.259C78.7407 141.835 80.1111 143.117 81.6867 143.117C82.4455 143.117 83.1387 142.823 83.6387 142.287C84.1403 141.75 84.3875 141.035 84.3351 140.273C84.2263 138.697 82.8563 137.415 81.2803 137.415Z" fill="white"/>
<path d="M85.0072 111.56L80.9036 112.634L72.0308 120.598L80.8668 127.96L88.3588 121.214C89.4724 120.202 90.1124 118.766 90.1416 117.215L93.3476 115.484C94.6672 114.771 94.936 112.994 93.9088 111.773L91.4876 108.894C90.4988 107.718 88.7596 107.601 87.7728 108.642L85.0072 111.56Z" fill="#B76E79"/>
<path d="M80.8709 128.183L71.7725 120.603L80.8605 112.47L84.9177 111.409L87.6493 108.526C88.1361 108.013 88.8061 107.739 89.5381 107.763C90.3325 107.787 91.0897 108.159 91.6161 108.786L94.0377 111.665C94.5837 112.314 94.8101 113.143 94.6585 113.941C94.5201 114.668 94.0713 115.285 93.4277 115.632L90.3077 117.317C90.2533 118.886 89.6037 120.311 88.4725 121.339L80.8709 128.183ZM72.2889 120.593L80.8625 127.736L88.2461 121.088C89.3309 120.102 89.9445 118.725 89.9729 117.212L89.9745 117.113L93.2673 115.335C93.8293 115.031 94.2057 114.514 94.3269 113.877C94.4597 113.18 94.2601 112.453 93.7793 111.881L91.3577 109.003C90.8933 108.45 90.2265 108.121 89.5281 108.101C88.9009 108.075 88.3141 108.315 87.8945 108.758L85.0965 111.711L80.9853 112.787L72.2889 120.593Z" fill="white"/>
<path d="M89.5053 121.007L88.9897 120.598L80.6945 113.971C79.5925 113.091 78.3221 112.457 76.9777 112.118L74.7685 111.56L71.6017 108.642C70.4713 107.601 68.7485 107.718 67.9217 108.894L65.8965 111.773C65.0373 112.994 65.5509 114.771 66.9685 115.484L70.4129 117.215C70.6553 118.766 71.4933 120.202 72.7461 121.214L81.1673 127.96L81.1713 127.956L81.8417 128.495C82.4609 128.986 83.3437 128.912 83.7937 128.29C84.2197 127.7 84.0205 126.832 83.4113 126.348L84.2433 127.008C84.7689 127.425 85.5049 127.481 85.9961 127.09C86.6769 126.548 86.6169 125.499 85.9081 124.937L86.3729 125.306C86.8989 125.723 87.6349 125.78 88.1261 125.388C88.8069 124.846 88.7465 123.797 88.0381 123.235L87.9357 123.154C88.5549 123.645 89.4377 123.571 89.8877 122.948C90.3133 122.359 90.1145 121.49 89.5053 121.007Z" fill="white"/>
<path d="M85.6302 115.481C85.6302 115.481 84.3962 116.498 82.379 116.691C82.379 116.691 80.6942 116.705 79.8038 117.603C78.6162 118.801 76.2178 119.503 75.6454 118.264C75.3566 117.639 77.5218 116.232 78.6554 113.963C79.4506 112.371 82.001 111.808 85.0078 111.56" fill="#B76E79"/>
<path d="M76.8775 119.052C76.7447 119.052 76.6175 119.042 76.4971 119.02C76.0323 118.939 75.6955 118.697 75.5219 118.322C75.3423 117.933 75.7951 117.434 76.4799 116.679C77.1415 115.95 77.9647 115.042 78.5339 113.903C79.4319 112.105 82.4595 111.634 84.9967 111.425L85.0191 111.696C82.5531 111.9 79.6147 112.348 78.7775 114.025C78.1919 115.197 77.3547 116.12 76.6819 116.862C76.1363 117.464 75.6655 117.983 75.7695 118.208C75.9055 118.503 76.1663 118.686 76.5447 118.753C77.4487 118.913 78.8687 118.354 79.7075 117.508C80.6271 116.58 82.3071 116.556 82.3783 116.555C84.3147 116.369 85.5319 115.386 85.5443 115.376L85.7175 115.586C85.6659 115.628 84.4283 116.632 82.3927 116.827C82.3647 116.828 80.7411 116.852 79.9011 117.7C79.1007 118.506 77.8475 119.052 76.8775 119.052Z" fill="white"/>
<path d="M73.4368 123.154L74.7728 121.964C75.3708 121.432 75.3268 120.463 74.6792 119.901C74.1388 119.433 73.3604 119.415 72.8612 119.859L71.5252 121.048C70.9272 121.581 70.9712 122.549 71.6188 123.111C72.1592 123.58 72.938 123.598 73.4368 123.154Z" fill="#B76E79"/>
<path d="M72.5758 123.643C72.201 123.643 71.8182 123.507 71.5082 123.239C71.1466 122.925 70.9378 122.479 70.9346 122.016C70.9318 121.587 71.1018 121.199 71.413 120.922L72.7486 119.732C73.309 119.233 74.187 119.251 74.7894 119.773C75.151 120.087 75.3598 120.532 75.363 120.996C75.3658 121.424 75.1962 121.813 74.885 122.09L73.549 123.28C73.2766 123.523 72.9298 123.643 72.5758 123.643ZM73.7218 119.707C73.4482 119.707 73.1818 119.799 72.973 119.985L71.6374 121.175C71.3998 121.386 71.2702 121.684 71.2722 122.014C71.2746 122.381 71.441 122.734 71.7294 122.984C72.2046 123.396 72.8902 123.415 73.3246 123.028L74.6606 121.838C74.8982 121.626 75.0278 121.328 75.0258 120.998C75.0234 120.632 74.8566 120.279 74.5686 120.029C74.3214 119.815 74.0174 119.707 73.7218 119.707Z" fill="white"/>
<path d="M75.2567 125.34L76.8715 123.902C77.4403 123.396 77.4327 122.486 76.8547 121.911C76.3191 121.378 75.4871 121.328 74.9599 121.797L73.3451 123.235C72.7471 123.767 72.7911 124.736 73.4387 125.298C73.9791 125.767 74.7575 125.785 75.2567 125.34Z" fill="#B76E79"/>
<path d="M74.3956 125.83C74.0208 125.83 73.638 125.694 73.328 125.426C72.9664 125.112 72.7576 124.666 72.7544 124.203C72.7516 123.774 72.9216 123.386 73.2328 123.109L74.8476 121.671C75.4408 121.143 76.3748 121.196 76.9736 121.792C77.2956 122.112 77.4732 122.548 77.4612 122.987C77.45 123.394 77.2804 123.764 76.9836 124.028L75.3688 125.466C75.0968 125.709 74.7496 125.83 74.3956 125.83ZM75.8204 121.644C75.548 121.644 75.282 121.736 75.072 121.923L73.4572 123.361C73.2196 123.572 73.0896 123.871 73.092 124.201C73.0944 124.567 73.2608 124.921 73.5492 125.17C74.0244 125.582 74.71 125.601 75.1444 125.214L76.7592 123.776C76.9856 123.575 77.1152 123.291 77.124 122.978C77.1336 122.631 76.992 122.286 76.7356 122.031C76.4784 121.775 76.1452 121.644 75.8204 121.644Z" fill="white"/>
<path d="M77.6214 127.043L78.9574 125.853C79.5554 125.321 79.5114 124.352 78.8638 123.79C78.3234 123.322 77.545 123.304 77.0458 123.748L75.7098 124.937C75.1118 125.47 75.1558 126.438 75.8034 127C76.3438 127.469 77.1226 127.487 77.6214 127.043Z" fill="#B76E79"/>
<path d="M76.7604 127.531C76.3856 127.531 76.0028 127.396 75.6928 127.127C75.3312 126.814 75.1224 126.369 75.1192 125.905C75.1164 125.477 75.286 125.088 75.5972 124.811L76.9332 123.621C77.494 123.121 78.3716 123.14 78.974 123.662C79.3356 123.976 79.5444 124.421 79.5476 124.885C79.5504 125.313 79.3808 125.702 79.0696 125.979L77.7336 127.169C77.4612 127.411 77.1144 127.531 76.7604 127.531ZM77.9064 123.595C77.6328 123.595 77.3664 123.687 77.1576 123.873L75.8216 125.063C75.584 125.275 75.4544 125.573 75.4564 125.903C75.4588 126.269 75.6256 126.623 75.9136 126.872C76.3888 127.285 77.0744 127.303 77.5088 126.916L78.8448 125.727C79.0824 125.515 79.212 125.217 79.21 124.887C79.2076 124.521 79.0408 124.167 78.7528 123.917C78.506 123.703 78.202 123.595 77.9064 123.595Z" fill="white"/>
<path d="M80.2659 128.495L81.6483 127.245C82.2571 126.695 82.1819 125.694 81.4911 125.152C80.9535 124.73 80.2163 124.732 79.7391 125.157L78.3539 126.39C77.7559 126.923 77.7999 127.891 78.4475 128.453C78.9883 128.921 79.7667 128.94 80.2659 128.495Z" fill="#B76E79"/>
<path d="M79.4049 128.984C79.0301 128.984 78.6473 128.849 78.3373 128.58C77.9757 128.267 77.7669 127.821 77.7637 127.358C77.7609 126.93 77.9305 126.541 78.2417 126.264L79.6269 125.03C80.1657 124.552 80.9929 124.547 81.5953 125.019C81.9813 125.322 82.2121 125.769 82.2289 126.245C82.2441 126.678 82.0737 127.088 81.7617 127.37L80.3781 128.621C80.1057 128.864 79.7585 128.984 79.4049 128.984ZM80.5961 125.005C80.3241 125.005 80.0593 125.098 79.8517 125.283L78.4665 126.516C78.2289 126.728 78.0993 127.026 78.1013 127.356C78.1037 127.722 78.2705 128.075 78.5585 128.325C79.0337 128.738 79.7189 128.756 80.1533 128.369L81.5353 127.12C81.7769 126.901 81.9033 126.595 81.8917 126.257C81.8785 125.881 81.6945 125.526 81.3873 125.285C81.1493 125.098 80.8689 125.005 80.5961 125.005Z" fill="white"/>
<g opacity="0.2">
<path d="M58.1223 134.964C56.7011 134.964 55.4655 133.808 55.3675 132.388L50.1571 56.7064C50.0591 55.2852 51.1359 54.1292 52.5571 54.1292H98.5491C99.9703 54.1292 101.205 55.2856 101.303 56.7064L106.514 132.388C106.612 133.809 105.535 134.964 104.114 134.964H58.1223Z" fill="white"/>
<path d="M104.115 135.064H58.1225C56.6497 135.064 55.3693 133.867 55.2681 132.394L50.0577 56.7127C50.0085 55.9963 50.2425 55.3219 50.7165 54.8139C51.1893 54.3071 51.8429 54.0283 52.5573 54.0283H98.5493C100.022 54.0283 101.302 55.2263 101.403 56.6987L106.614 132.38C106.663 133.097 106.429 133.771 105.955 134.279C105.482 134.786 104.829 135.064 104.115 135.064ZM52.5573 54.2283C51.8993 54.2283 51.2973 54.4847 50.8629 54.9503C50.4269 55.4175 50.2117 56.0387 50.2573 56.6987L55.4677 132.38C55.5621 133.75 56.7529 134.864 58.1225 134.864H104.114C104.773 134.864 105.374 134.608 105.809 134.143C106.245 133.676 106.459 133.054 106.414 132.394L101.204 56.7127C101.109 55.3427 99.9185 54.2283 98.5493 54.2283H52.5573Z" fill="white"/>
</g>
</svg>
