<svg width="68" height="25" viewBox="0 0 68 25" fill="none" xmlns="http://www.w3.org/2000/svg">
<path d="M0 20.7594C0.0263927 21.514 0.294429 22.2396 0.763863 22.8272C1.2333 23.4148 1.8788 23.8328 2.60344 24.0183C3.57544 24.2607 8.58673 24.8127 11.5511 24.8127C14.5155 24.8127 19.5288 24.2607 20.5008 24.0183C21.2255 23.8328 21.871 23.4148 22.3404 22.8272C22.8098 22.2396 23.0779 21.514 23.1043 20.7594V4.84765C23.0776 4.09315 22.8094 3.36773 22.34 2.78016C21.8706 2.1926 21.2253 1.77456 20.5008 1.58872C19.5288 1.34633 14.5176 0.796387 11.5511 0.796387C8.5847 0.796387 3.57544 1.34633 2.60344 1.58872C1.87896 1.77456 1.23364 2.1926 0.764256 2.78016C0.294872 3.36773 0.0267168 4.09315 0 4.84765V20.7594Z" fill="#96154A"/>
<path d="M13.3298 12.3942C11.3454 12.0377 10.0225 13.1111 10.0225 14.8526V18.8367L6.90283 20.8552V14.8526C6.90283 11.3696 9.29051 8.94583 13.3298 9.43669V12.3942Z" fill="white"/>
<path d="M12.2773 6.37534C12.2773 6.73307 12.1723 7.08277 11.9755 7.38022C11.7787 7.67767 11.4991 7.90952 11.1718 8.04638C10.8446 8.18329 10.4846 8.21909 10.1372 8.14932C9.78981 8.0795 9.47073 7.90725 9.22032 7.65431C8.96987 7.40134 8.79931 7.07909 8.7302 6.72821C8.66113 6.37737 8.69656 6.01372 8.83212 5.68319C8.96764 5.35271 9.19717 5.07022 9.49168 4.87149C9.78615 4.67274 10.1324 4.56665 10.4865 4.56665C10.9615 4.56665 11.417 4.75722 11.7528 5.09641C12.0886 5.43561 12.2773 5.89567 12.2773 6.37534Z" fill="white"/>
<path d="M14.0757 12.1538C14.0803 12.264 14.1199 12.3697 14.1885 12.4555C14.2571 12.5413 14.3511 12.6026 14.4568 12.6304C14.8892 12.6999 15.3259 12.7387 15.7636 12.7465C16.202 12.7388 16.6393 12.7 17.0723 12.6304C17.178 12.6026 17.272 12.5413 17.3407 12.4555C17.4093 12.3697 17.4488 12.264 17.4535 12.1538V9.82774C17.449 9.71771 17.4095 9.61214 17.3408 9.5266C17.2722 9.4411 17.178 9.38029 17.0723 9.35317C16.6393 9.28364 16.202 9.24484 15.7636 9.23706C15.3259 9.24493 14.8892 9.28372 14.4568 9.35317C14.3511 9.38029 14.257 9.4411 14.1883 9.5266C14.1196 9.61214 14.0801 9.71771 14.0757 9.82774V12.1538Z" fill="#F6ABB6"/>
<path d="M47.2976 7.2023C47.7199 7.60965 47.9311 8.22072 47.9311 9.03542V12.2373H46.6422V9.20244C46.6693 8.80304 46.5444 8.4083 46.2935 8.09849C46.1662 7.97062 46.0135 7.87146 45.8457 7.80757C45.6779 7.74367 45.4986 7.71647 45.3196 7.72778C45.1121 7.71663 44.9045 7.74943 44.7104 7.82415C44.5164 7.89886 44.3398 8.01384 44.1923 8.16165C43.8956 8.50681 43.7465 8.95632 43.7767 9.41224V12.2373H42.4883V6.6503H43.7143V7.37135C43.931 7.11213 44.2082 6.9113 44.5207 6.78676C44.8703 6.64794 45.2425 6.57878 45.6179 6.58308C45.9237 6.56739 46.2295 6.61332 46.5178 6.7182C46.8057 6.82312 47.0701 6.98492 47.2956 7.19415" fill="#96154A"/>
<path d="M38.9972 12.3616C38.4235 12.3704 37.8601 12.2067 37.3787 11.8912C36.8974 11.5758 36.5198 11.1228 36.2941 10.5899C36.0684 10.057 36.0048 9.46838 36.1113 8.89887C36.2178 8.32935 36.4897 7.80476 36.8923 7.39177C37.2949 6.97878 37.81 6.69614 38.3722 6.57974C38.9343 6.46339 39.518 6.51853 40.0489 6.73822C40.5802 6.95791 41.0343 7.33222 41.354 7.81347C41.6737 8.29473 41.8447 8.86116 41.8447 9.44073C41.8499 10.2093 41.5533 10.9486 41.0192 11.4962C40.4855 12.0439 39.7581 12.3551 38.9972 12.3616ZM39.0355 7.84181C38.7156 7.83776 38.4017 7.92991 38.1338 8.1065C37.8659 8.28305 37.656 8.53611 37.5308 8.83347C37.4056 9.13084 37.3707 9.4591 37.4307 9.77649C37.4906 10.0939 37.6427 10.3862 37.8675 10.6161C38.0922 10.846 38.3797 11.0032 38.6932 11.0678C39.0066 11.1323 39.332 11.1013 39.628 10.9786C39.924 10.8558 40.1769 10.6471 40.3555 10.3786C40.5336 10.1103 40.6287 9.79441 40.6287 9.47126C40.6287 9.04262 40.4617 8.63122 40.1634 8.32623C39.8652 8.0212 39.4599 7.84716 39.0355 7.84181Z" fill="#96154A"/>
<path d="M51.5767 20.735V15.148H50.3427V15.6776C49.9208 15.3481 49.4162 15.1447 48.8857 15.0904C48.3552 15.0361 47.8204 15.133 47.342 15.3703C46.8632 15.6075 46.46 15.9755 46.178 16.4325C45.8961 16.8895 45.7466 17.4172 45.7466 17.9557C45.7466 18.4942 45.8961 19.022 46.178 19.479C46.46 19.936 46.8632 20.304 47.342 20.5413C47.8204 20.7785 48.3552 20.8755 48.8857 20.8211C49.4162 20.7668 49.9208 20.5634 50.3427 20.234V20.735H51.5767ZM48.6022 19.6718C48.2662 19.6718 47.9373 19.5711 47.6577 19.3824C47.3782 19.1937 47.1603 18.9256 47.0318 18.6119C46.903 18.2981 46.8696 17.9529 46.9352 17.6198C47.0004 17.2867 47.1627 16.9807 47.4001 16.7406C47.6379 16.5005 47.9409 16.337 48.2705 16.2707C48.6006 16.2044 48.9422 16.2384 49.2528 16.3684C49.5633 16.4983 49.829 16.7184 50.0159 17.0008C50.2028 17.2832 50.3022 17.6151 50.3022 17.9547C50.3018 18.41 50.1224 18.8464 49.8039 19.1683C49.485 19.4902 49.0531 19.6713 48.6022 19.6718Z" fill="#96154A"/>
<path d="M62.0449 6.64623V7.20637C61.623 6.8769 61.1183 6.67351 60.5879 6.61919C60.0574 6.56486 59.5225 6.66183 59.0441 6.89908C58.5654 7.13632 58.1621 7.50435 57.8802 7.96136C57.5982 8.41837 57.4487 8.94609 57.4487 9.48455C57.4487 10.0231 57.5982 10.5508 57.8802 11.0078C58.1621 11.4648 58.5654 11.8328 59.0441 12.0701C59.5225 12.3073 60.0574 12.4043 60.5879 12.35C61.1183 12.2956 61.623 12.0922 62.0449 11.7628V12.2353H63.2788V6.64623H62.0449ZM60.3043 11.2006C59.9683 11.201 59.6394 11.1007 59.3595 10.9122C59.0795 10.7238 58.8616 10.4557 58.7324 10.142C58.6035 9.82833 58.5693 9.48305 58.635 9.14985C58.7002 8.8166 58.862 8.51048 59.0998 8.27012C59.3372 8.02979 59.6402 7.86605 59.9699 7.79965C60.3 7.7332 60.6419 7.76709 60.9525 7.89698C61.2635 8.02692 61.5291 8.24701 61.7156 8.52942C61.9025 8.81182 62.0023 9.14385 62.0023 9.48354C62.0019 9.9384 61.823 10.3745 61.5049 10.6964C61.1863 11.0182 60.7549 11.1995 60.3043 11.2006Z" fill="#96154A"/>
<path d="M39.4446 19.6554C39.1119 19.7275 38.7658 19.7026 38.4466 19.5836C38.1274 19.4645 37.8483 19.2564 37.6418 18.9832L37.7063 18.9629L41.9271 17.5371C41.8249 16.9721 41.5828 16.4423 41.2233 15.9973C40.9191 15.6195 40.5147 15.3369 40.0577 15.1825C39.5699 15.0269 39.0529 14.9888 38.5479 15.0712C38.043 15.1536 37.5641 15.3542 37.1497 15.6571C36.7568 15.9556 36.4543 16.3592 36.2765 16.8222C36.0922 17.3029 36.0393 17.8249 36.1232 18.3335C36.1625 18.6063 36.2392 18.8723 36.3511 19.1238C36.8634 20.3214 38.1762 21.0099 39.5354 20.8001L39.6685 20.7777C40.1524 20.6891 40.6057 20.4756 40.9843 20.158C41.3625 19.8404 41.6536 19.4294 41.8281 18.9649L40.7878 18.5576C40.6717 18.8379 40.488 19.0844 40.2534 19.2744C40.0188 19.4644 39.7407 19.5919 39.4446 19.6452V19.6554ZM37.3796 18.087C37.3337 17.8605 37.3327 17.6271 37.3767 17.4002C37.4206 17.1733 37.5087 16.9575 37.6357 16.7651C37.764 16.5865 37.9279 16.437 38.1168 16.3261C38.3058 16.2153 38.5156 16.1456 38.7327 16.1215C39.0897 16.056 39.458 16.1103 39.7814 16.2763C40.0824 16.4352 40.3194 16.6942 40.453 17.0096L37.3816 18.087H37.3796Z" fill="#96154A"/>
<path d="M42.4883 18.6126C42.4931 19.0376 42.6167 19.4525 42.845 19.8097C43.0732 20.1667 43.3965 20.4515 43.7779 20.6311C44.1597 20.8107 44.5832 20.8779 45.0007 20.825C45.4182 20.772 45.8127 20.601 46.138 20.3317L45.3316 19.3255C45.1606 19.466 44.947 19.5423 44.7267 19.5414C44.4798 19.5441 44.242 19.4478 44.0654 19.2737C43.8888 19.0996 43.7878 18.8618 43.7847 18.6126V13.0745H42.4962L42.4883 18.6126Z" fill="#96154A"/>
<path d="M67.183 10.7911C67.0128 10.9324 66.7984 11.0088 66.5781 11.007C66.4557 11.0086 66.3344 10.9859 66.221 10.94C66.1073 10.8942 66.0039 10.8262 65.9164 10.7399C65.8289 10.6537 65.7593 10.5508 65.7112 10.4373C65.6631 10.3237 65.6377 10.2017 65.6365 10.0782V4.70508L64.3477 5.54017V10.0782C64.3528 10.5033 64.4765 10.9182 64.7048 11.2753C64.933 11.6324 65.2563 11.9172 65.6377 12.0968C66.019 12.2764 66.4429 12.3436 66.8605 12.2906C67.278 12.2376 67.6721 12.0666 67.9978 11.7973L67.183 10.7911Z" fill="#96154A"/>
<path d="M34.1532 12.227H35.5063V5.22236C35.5055 5.08355 35.4613 4.94859 35.3799 4.83671C35.2986 4.72485 35.1842 4.64185 35.0533 4.59959C34.9224 4.55732 34.7816 4.55795 34.6511 4.6014C34.5206 4.64485 34.407 4.72889 34.3266 4.84149L32.31 7.69306L30.2934 4.84149C30.2133 4.72831 30.0998 4.64377 29.969 4.60009C29.8383 4.5564 29.6972 4.55582 29.5661 4.59844C29.435 4.64106 29.3207 4.72469 29.2398 4.83721C29.1588 4.94972 29.1154 5.08533 29.1157 5.22443V12.2291H30.4688V7.59735L30.5535 7.70121C31.0738 8.3591 31.8664 9.35101 31.9107 9.39382C32.0196 9.49845 32.1638 9.55744 32.3141 9.55878C32.4641 9.55622 32.6079 9.4974 32.7174 9.39382C32.7597 9.35101 33.5523 8.3591 34.0746 7.70121L34.1572 7.59735L34.1532 12.227Z" fill="#96154A"/>
<path d="M56.8099 7.01489H55.5215V12.2353H56.8099V7.01489Z" fill="#96154A"/>
<path d="M56.977 5.40164C56.977 5.24049 56.9297 5.08299 56.841 4.949C56.7523 4.81501 56.6263 4.7106 56.4792 4.64894C56.3316 4.58727 56.1694 4.57113 56.0131 4.60257C55.8564 4.63401 55.7129 4.7116 55.5999 4.82555C55.487 4.93947 55.4102 5.08465 55.3792 5.24272C55.3482 5.40074 55.3641 5.56457 55.425 5.71343C55.4862 5.8623 55.5896 5.98955 55.7224 6.07907C55.8548 6.16858 56.0107 6.21638 56.1702 6.21638C56.3841 6.21638 56.5893 6.13056 56.7408 5.97776C56.8919 5.82496 56.977 5.61772 56.977 5.40164Z" fill="#96154A"/>
<path d="M56.9793 15.156V17.8833C56.9793 18.806 56.328 19.5128 55.4627 19.5128C54.5977 19.5128 53.9464 18.8162 53.9464 17.8833V15.1621H52.6556V17.8833C52.6464 18.2622 52.7124 18.6391 52.8492 18.9921C52.986 19.345 53.1908 19.6669 53.4525 19.9388C53.7137 20.2108 54.0263 20.4273 54.3715 20.5759C54.7166 20.7245 55.0877 20.8021 55.4627 20.8041C56.0071 20.8057 56.5375 20.634 56.9793 20.3133V21.0221C56.9793 22.4479 55.848 23.5478 54.3576 23.5478C52.5709 23.5478 51.7179 22.5293 51.5851 21.5883H50.3428C50.5018 23.4724 52.1454 24.8106 54.3496 24.8106C55.3676 24.8223 56.3526 24.4447 57.1062 23.7535C57.4776 23.4048 57.7727 22.9819 57.9731 22.5116C58.1735 22.0413 58.2745 21.534 58.2701 21.0221V15.1621L56.9793 15.156Z" fill="#96154A"/>
<path d="M53.1656 4.6665V7.20643C52.7441 6.877 52.2394 6.67356 51.709 6.61924C51.1785 6.56492 50.6436 6.66189 50.1648 6.89913C49.6865 7.13638 49.2832 7.5044 49.0013 7.96142C48.7193 8.41843 48.5698 8.94615 48.5698 9.48465C48.5698 10.0231 48.7193 10.5509 49.0013 11.0079C49.2832 11.4649 49.6865 11.8329 50.1648 12.0701C50.6436 12.3074 51.1785 12.4043 51.709 12.35C52.2394 12.2957 52.7441 12.0923 53.1656 11.7628V12.2354H54.4484V4.6665H53.1656ZM51.4254 11.2006C51.0894 11.2006 50.7605 11.0999 50.481 10.9113C50.2014 10.7226 49.9835 10.4545 49.8547 10.1407C49.7262 9.82693 49.6924 9.48169 49.758 9.14865C49.8236 8.81556 49.9855 8.5096 50.2233 8.26948C50.4611 8.02932 50.7641 7.86582 51.0938 7.79954C51.4234 7.73329 51.7654 7.76731 52.076 7.89728C52.3866 8.02721 52.6522 8.24731 52.8391 8.52967C53.0256 8.81204 53.1254 9.14402 53.1254 9.48363C53.125 9.93886 52.9457 10.3753 52.6268 10.6972C52.3082 11.0191 51.876 11.2001 51.4254 11.2006Z" fill="#96154A"/>
<path d="M34.5041 20.735H36.186L34.2904 18.0239L34.3327 17.9975C34.6848 17.796 34.9833 17.5114 35.2028 17.1681C35.4223 16.8247 35.5562 16.4328 35.5931 16.0258C35.6256 15.6523 35.5825 15.276 35.4663 14.9199C35.3502 14.5638 35.1635 14.2353 34.9176 13.9544C34.6749 13.6788 34.3774 13.458 34.0445 13.3064C33.7116 13.1547 33.3508 13.0757 32.9856 13.0745H30.6222C30.2143 13.0798 29.8251 13.2484 29.54 13.5432C29.255 13.838 29.0974 14.2349 29.1016 14.6469V20.735H30.4568V18.4008H32.8767L34.5041 20.735ZM30.5032 17.0259H30.4568V14.8913C30.4557 14.7739 30.5007 14.6608 30.582 14.5769C30.6633 14.4929 30.7741 14.4448 30.8904 14.4432H32.9392C33.2745 14.4318 33.6007 14.5537 33.8479 14.7826C34.0951 15.0116 34.2435 15.3293 34.2612 15.6676C34.2789 16.0059 34.1645 16.3377 33.9425 16.5917C33.7206 16.8457 33.4089 17.0016 33.0744 17.0259H30.5032Z" fill="#96154A"/>
</svg>
