<svg width="8" height="7" viewBox="0 0 8 7" fill="none" xmlns="http://www.w3.org/2000/svg">
<path d="M1.24853 -1.43051e-05C1.57992 -1.43051e-05 1.89774 0.132141 2.13207 0.36738C2.3664 0.602619 2.49805 0.921672 2.49805 1.25435V5.64356C2.49805 5.80825 2.46572 5.97133 2.40292 6.12348C2.34011 6.27563 2.24807 6.41386 2.13203 6.53028C2.01599 6.6467 1.87824 6.73903 1.72665 6.80199C1.57505 6.86495 1.41259 6.89731 1.24853 6.89722C0.917327 6.89722 0.599689 6.76513 0.365493 6.53003C0.131296 6.29492 -0.000282288 5.97605 -0.000282288 5.64356V1.25435C-0.000282288 0.921795 0.131273 0.602851 0.365449 0.367632C0.599626 0.132413 0.917262 0.000174522 1.24853 -1.43051e-05Z" fill="#55A99D"/>
<path d="M6.24853 -1.43051e-05C6.57992 -1.43051e-05 6.89774 0.132141 7.13207 0.36738C7.3664 0.602619 7.49805 0.921672 7.49805 1.25435V5.64356C7.49805 5.80825 7.46572 5.97133 7.40292 6.12348C7.34011 6.27563 7.24807 6.41386 7.13203 6.53028C7.01599 6.6467 6.87824 6.73903 6.72665 6.80199C6.57505 6.86495 6.41259 6.89731 6.24853 6.89722C5.91733 6.89722 5.59969 6.76513 5.36549 6.53003C5.1313 6.29492 4.99972 5.97605 4.99972 5.64356V1.25435C4.99972 0.921795 5.13127 0.602851 5.36545 0.367632C5.59963 0.132413 5.91726 0.000174522 6.24853 -1.43051e-05Z" fill="#55A99D"/>
</svg>
