<svg width="13" height="12" viewBox="0 0 13 12" fill="none" xmlns="http://www.w3.org/2000/svg">
<path d="M9.58534 2.01198C9.45579 1.88864 9.29462 1.80358 9.11969 1.76623C8.94476 1.72888 8.7629 1.74069 8.59427 1.80036C8.54658 1.8163 8.50423 1.84511 8.47189 1.88361C8.43955 1.92211 8.41848 1.9688 8.41101 2.01852L8.33464 2.54324C8.21884 3.33577 7.54072 3.92436 6.73978 3.92755H5.6489C5.58807 3.92756 5.52899 3.94792 5.48105 3.98537C5.43312 4.02283 5.39908 4.07524 5.38436 4.13426L4.56621 7.40687C4.55619 7.44706 4.55545 7.48901 4.56406 7.52952C4.57267 7.57004 4.59039 7.60807 4.61589 7.64072C4.64138 7.67336 4.67398 7.69977 4.7112 7.71794C4.74843 7.73611 4.7893 7.74557 4.83073 7.74558H6.1943C6.25514 7.74557 6.31422 7.72522 6.36216 7.68776C6.41009 7.6503 6.44413 7.5979 6.45885 7.53887L6.95247 5.56385H8.01607C8.83253 5.56656 9.54479 5.01007 9.73963 4.21718L9.9409 3.41048C10.0105 3.16675 10.0143 2.90892 9.95179 2.66326C9.88934 2.4176 9.76289 2.19288 9.58534 2.01198Z" fill="#03A9F4"/>
<path d="M0.739934 11.0184C0.589318 11.0184 0.467234 10.8962 0.467285 10.7456C0.467285 10.7234 0.470021 10.7013 0.47539 10.6797L0.748116 9.59429V9.58284L1.02084 8.49797C1.03556 8.43894 1.0696 8.38654 1.11753 8.34908C1.16547 8.31162 1.22455 8.29127 1.28539 8.29126H1.97918C2.35573 8.29118 2.66103 8.59635 2.66113 8.97291C2.66113 9.02867 2.6543 9.08423 2.64081 9.13833L2.57262 9.41105C2.49676 9.71466 2.22396 9.92764 1.91101 9.92759H1.22592L1.00501 10.8117C0.990258 10.8708 0.956138 10.9233 0.908095 10.9607C0.860052 10.9982 0.800852 11.0185 0.739934 11.0184ZM1.36227 9.38209H1.91096C1.94137 9.382 1.97087 9.37175 1.99479 9.35298C2.0187 9.3342 2.03566 9.30798 2.04297 9.27846L2.11116 9.00574C2.11633 8.98564 2.11682 8.96462 2.1126 8.9443C2.10838 8.92397 2.09955 8.90489 2.08681 8.88851C2.07406 8.87213 2.05773 8.85889 2.03907 8.84981C2.0204 8.84073 1.99991 8.83605 1.97915 8.83612H1.49862L1.36227 9.38209ZM3.65636 11.0184H3.26802C2.85051 11.0185 2.51197 10.6801 2.51187 10.2626C2.51185 10.2008 2.51943 10.1391 2.53442 10.0791L2.57042 9.93406C2.65113 9.60843 2.94401 9.38022 3.27947 9.38152H3.66782C4.08533 9.38224 4.4232 9.72129 4.42248 10.1388C4.42238 10.2003 4.41476 10.2616 4.3998 10.3213L4.36381 10.4664C4.28301 10.7912 3.99106 11.019 3.65636 11.0184ZM3.06402 10.2117C3.05632 10.2427 3.05577 10.275 3.06242 10.3063C3.06907 10.3375 3.08274 10.3668 3.1024 10.392C3.12206 10.4172 3.14718 10.4375 3.17588 10.4516C3.20457 10.4656 3.23608 10.4729 3.26802 10.473H3.65636C3.69722 10.4731 3.73695 10.4595 3.76918 10.4344C3.80142 10.4093 3.8243 10.3741 3.83418 10.3344L3.87018 10.1893C3.87788 10.1583 3.87843 10.126 3.87178 10.0947C3.86513 10.0635 3.85146 10.0342 3.8318 10.009C3.81214 9.98383 3.78702 9.96346 3.75832 9.94944C3.72963 9.93541 3.69812 9.92809 3.66618 9.92805H3.27784C3.23697 9.92793 3.19725 9.94152 3.16502 9.96663C3.13278 9.99175 3.1099 10.0269 3.10002 10.0666L3.06402 10.2117Z" fill="#283593"/>
<path d="M4.01239 11.0182C3.97097 11.0181 3.93009 11.0087 3.89286 10.9905C3.85563 10.9724 3.82303 10.946 3.79753 10.9133C3.77203 10.8807 3.75431 10.8426 3.7457 10.8021C3.73709 10.7616 3.73783 10.7196 3.74785 10.6794L4.02058 9.58857C4.05703 9.44233 4.20512 9.3533 4.35139 9.38976C4.49763 9.42622 4.58666 9.5743 4.5502 9.72057L4.27747 10.8114C4.26273 10.8706 4.22862 10.923 4.18057 10.9605C4.13253 10.998 4.07332 11.0183 4.01239 11.0182Z" fill="#283593"/>
<path d="M7.28534 11.0182C7.24392 11.0182 7.20304 11.0087 7.16581 10.9905C7.12858 10.9724 7.09598 10.946 7.07048 10.9133C7.04498 10.8807 7.02726 10.8426 7.01865 10.8021C7.01004 10.7616 7.01078 10.7196 7.0208 10.6795L7.29353 9.59405V9.58259L7.56625 8.49773C7.58097 8.4387 7.61501 8.38629 7.66294 8.34884C7.71088 8.31138 7.76996 8.29103 7.83079 8.29102H8.52459C8.90114 8.29094 9.20644 8.59611 9.20654 8.97266C9.20654 9.02843 9.19971 9.08398 9.18621 9.13808L9.11803 9.41081C9.04217 9.71442 8.76937 9.92739 8.45642 9.92734H7.77135L7.55045 10.8115C7.53569 10.8706 7.50156 10.9231 7.45352 10.9605C7.40547 10.998 7.34627 11.0183 7.28534 11.0182ZM7.90768 9.38187H8.45694C8.48734 9.38178 8.51684 9.37153 8.54076 9.35276C8.56468 9.33398 8.58163 9.30776 8.58894 9.27824L8.65713 9.00552C8.66229 8.98542 8.66278 8.9644 8.65856 8.94408C8.65434 8.92376 8.64551 8.90468 8.63277 8.8883C8.62002 8.87193 8.60369 8.85869 8.58503 8.8496C8.56637 8.84052 8.54588 8.83583 8.52512 8.8359H8.04405L7.90768 9.38187ZM10.2018 11.0182H9.81343C9.39592 11.0183 9.05738 10.6799 9.05728 10.2624C9.05726 10.2005 9.06484 10.1389 9.07983 10.0789L9.11583 9.93384C9.19654 9.60821 9.48942 9.38 9.82488 9.3813H10.2132C10.6307 9.3812 10.9693 9.71958 10.9694 10.1371C10.9694 10.1989 10.9618 10.2605 10.9468 10.3205L10.9108 10.4656C10.8301 10.7913 10.5372 11.0195 10.2018 11.0182ZM9.60943 10.2115C9.60173 10.2425 9.60118 10.2748 9.60783 10.3061C9.61448 10.3373 9.62815 10.3666 9.64781 10.3918C9.66746 10.417 9.69259 10.4373 9.72129 10.4514C9.74998 10.4654 9.78149 10.4727 9.81343 10.4727H10.2018C10.2426 10.4729 10.2824 10.4593 10.3146 10.4342C10.3468 10.409 10.3697 10.3738 10.3796 10.3342L10.4156 10.1891C10.4233 10.1581 10.4238 10.1258 10.4172 10.0945C10.4105 10.0633 10.3969 10.034 10.3772 10.0088C10.3576 9.98362 10.3324 9.96324 10.3037 9.94922C10.275 9.93519 10.2435 9.92788 10.2116 9.92783H9.82325C9.78238 9.92771 9.74266 9.9413 9.71043 9.96642C9.67819 9.99153 9.65531 10.0267 9.64543 10.0664L9.60943 10.2115Z" fill="#03A9F4"/>
<path d="M10.5578 11.0182C10.5164 11.0181 10.4755 11.0087 10.4383 10.9905C10.401 10.9724 10.3684 10.946 10.3429 10.9133C10.3174 10.8807 10.2997 10.8426 10.2911 10.8021C10.2825 10.7616 10.2832 10.7196 10.2933 10.6794L10.566 9.58857C10.6024 9.44233 10.7505 9.3533 10.8968 9.38976C11.043 9.42622 11.1321 9.5743 11.0956 9.72057L10.8229 10.8114C10.8081 10.8706 10.774 10.923 10.726 10.9605C10.6779 10.998 10.6187 11.0183 10.5578 11.0182Z" fill="#03A9F4"/>
<path d="M5.64879 10.7455C5.60388 10.7455 5.55966 10.7344 5.52008 10.7132C5.4805 10.6919 5.44676 10.6613 5.42188 10.6239L4.87645 9.80575C4.79285 9.68044 4.82667 9.51108 4.952 9.42748C5.07733 9.34387 5.24667 9.3777 5.33027 9.50303L5.8757 10.3212C5.95943 10.4464 5.92583 10.6157 5.80066 10.6995C5.75571 10.7295 5.70285 10.7456 5.64879 10.7455Z" fill="#283593"/>
<path d="M5.10319 11.5637C4.95257 11.5636 4.83052 11.4415 4.83057 11.2908C4.83059 11.2271 4.85294 11.1654 4.89374 11.1164L6.25732 9.48009C6.35386 9.36442 6.5259 9.3489 6.64157 9.44545C6.75724 9.54199 6.77275 9.71403 6.67621 9.82969L5.31264 11.466C5.28701 11.4966 5.25497 11.5212 5.21877 11.5381C5.18258 11.555 5.14312 11.5637 5.10319 11.5637Z" fill="#283593"/>
<path d="M11.6486 11.0182C11.6072 11.0182 11.5663 11.0087 11.5291 10.9906C11.4919 10.9724 11.4593 10.946 11.4338 10.9133C11.4083 10.8807 11.3905 10.8427 11.3819 10.8021C11.3733 10.7616 11.3741 10.7197 11.3841 10.6795L11.9295 8.49775C11.966 8.35151 12.1141 8.26248 12.2603 8.29894C12.4066 8.3354 12.4956 8.48348 12.4591 8.62975L11.9137 10.8115C11.899 10.8706 11.8649 10.9231 11.8168 10.9605C11.7688 10.998 11.7096 11.0183 11.6486 11.0182Z" fill="#03A9F4"/>
<path d="M8.68472 0.581412C8.5552 0.433068 8.3954 0.314202 8.21607 0.232819C8.03675 0.151436 7.84206 0.109427 7.64513 0.10962H4.55797C4.49406 0.109618 4.43218 0.132063 4.38314 0.173035C4.33409 0.214007 4.30099 0.270904 4.28962 0.333793L3.19874 6.33355C3.17192 6.48176 3.27035 6.62364 3.41857 6.65046C3.43457 6.65335 3.45083 6.6548 3.46709 6.6548H5.1034C5.16423 6.65479 5.22331 6.63444 5.27125 6.59698C5.31918 6.55953 5.35322 6.50712 5.36794 6.44809L5.8621 4.47307H6.7397C7.81245 4.46886 8.72059 3.68018 8.87507 2.61861L9.01142 1.68645C9.03921 1.48961 9.02442 1.2891 8.96806 1.09846C8.9117 0.907821 8.81508 0.731501 8.68472 0.581412Z" fill="#283593"/>
</svg>
