<svg width="343" height="330" viewBox="0 0 343 330" fill="none" xmlns="http://www.w3.org/2000/svg">
<path d="M343 58.9961H288.277V85.148H310.526L318.849 93.519L327.172 85.148H343V58.9961Z" fill="#F5F5F5"/>
<path d="M301.393 70.753C301.385 69.7819 301.017 68.8487 300.362 68.1352C299.707 67.4216 298.812 66.9788 297.85 66.893C296.888 66.8072 295.929 67.0845 295.16 67.6709C294.39 68.2574 293.865 69.1109 293.687 70.0654C293.53 70.9809 293.698 71.923 294.162 72.7262C294.311 72.9803 294.497 73.1597 294.683 73.4287L296.912 76.4184C296.982 76.4992 297.068 76.5639 297.165 76.6083C297.261 76.6527 297.367 76.6757 297.473 76.6757C297.579 76.6757 297.684 76.6527 297.781 76.6083C297.878 76.5639 297.964 76.4992 298.034 76.4184L300.263 73.4661C300.466 73.2283 300.655 72.9787 300.828 72.7187C301.187 72.1256 301.382 71.4471 301.393 70.753ZM297.514 72.4571C297.175 72.4586 296.844 72.359 296.562 72.171C296.28 71.983 296.06 71.7151 295.929 71.4011C295.799 71.0871 295.764 70.7412 295.829 70.4073C295.894 70.0733 296.056 69.7663 296.295 69.5252C296.534 69.284 296.838 69.1195 297.17 69.0526C297.502 68.9857 297.846 69.0193 298.159 69.1491C298.471 69.279 298.739 69.4994 298.927 69.7822C299.115 70.0651 299.216 70.3977 299.216 70.738C299.216 71.1927 299.036 71.6288 298.718 71.951C298.399 72.2731 297.966 72.4551 297.514 72.4571Z" fill="#E0E0E0"/>
<path d="M337.545 73.5408C337.545 73.6454 330.256 73.7351 321.256 73.7351C312.257 73.7351 304.967 73.6454 304.967 73.5408C304.967 73.4361 312.257 73.3464 321.256 73.3464C330.256 73.3464 337.545 73.4361 337.545 73.5408Z" fill="#E0E0E0"/>
<path d="M327.172 77.0685C327.172 77.1731 322.2 77.2628 316.069 77.2628C309.939 77.2628 304.967 77.1731 304.967 77.0685C304.967 76.9639 309.939 76.8667 316.069 76.8667C322.2 76.8667 327.172 76.9564 327.172 77.0685Z" fill="#E0E0E0"/>
<path d="M306.959 65.4165L307.702 66.9338L309.367 67.1804L308.163 68.3613L308.445 70.028L306.959 69.2358L305.465 70.028L305.755 68.3613L304.544 67.1804L306.209 66.9338L306.959 65.4165Z" fill="#E0E0E0"/>
<path d="M314.004 65.4165L314.747 66.9338L316.412 67.1804L315.208 68.3613L315.49 70.028L314.004 69.2358L312.51 70.028L312.8 68.3613L311.596 67.1804L313.261 66.9338L314.004 65.4165Z" fill="#E0E0E0"/>
<path d="M321.048 65.4165L321.791 66.9338L323.456 67.1804L322.252 68.3613L322.535 70.028L321.048 69.2358L319.555 70.028L319.844 68.3613L318.641 67.1804L320.305 66.9338L321.048 65.4165Z" fill="#E0E0E0"/>
<path d="M328.093 65.4165L328.836 66.9338L330.501 67.1804L329.297 68.3613L329.579 70.028L328.093 69.2358L326.607 70.028L326.889 68.3613L325.686 67.1804L327.35 66.9338L328.093 65.4165Z" fill="#EBEBEB"/>
<path d="M335.138 65.4165L335.881 66.9338L337.545 67.1804L336.342 68.3613L336.624 70.028L335.138 69.2358L333.651 70.028L333.934 68.3613L332.73 67.1804L334.395 66.9338L335.138 65.4165Z" fill="#EBEBEB"/>
<path d="M103.954 3.89697H18.8677V44.5636H53.4597L66.4048 57.576L79.3424 44.5636H103.954V3.89697Z" fill="#F5F5F5"/>
<path d="M39.2591 22.1862C39.2608 21.2528 39.0485 20.3316 38.6386 19.4942C38.2286 18.6568 37.6322 17.9258 36.8956 17.358C36.159 16.7902 35.3022 16.4009 34.3917 16.2205C33.4811 16.04 32.5415 16.0732 31.6458 16.3175C30.7501 16.5618 29.9225 17.0106 29.2274 17.6289C28.5322 18.2473 27.9883 19.0186 27.6378 19.8829C27.2873 20.7472 27.1397 21.6811 27.2066 22.6121C27.2734 23.543 27.5529 24.446 28.0232 25.2506C28.2536 25.6468 28.5434 25.9233 28.8406 26.3344L32.3407 31.0057C32.4417 31.1418 32.5729 31.2523 32.7238 31.3284C32.8748 31.4045 33.0413 31.4442 33.2101 31.4442C33.379 31.4442 33.5455 31.4045 33.6965 31.3284C33.8474 31.2523 33.9786 31.1418 34.0796 31.0057L37.5425 26.454C37.8543 26.0779 38.147 25.6863 38.4194 25.2805C38.9743 24.3453 39.2646 23.2753 39.2591 22.1862ZM33.225 24.8246C32.7003 24.8246 32.1874 24.6681 31.7511 24.3749C31.3148 24.0817 30.9748 23.665 30.774 23.1774C30.5732 22.6899 30.5207 22.1534 30.6231 21.6358C30.7254 21.1182 30.9781 20.6428 31.3491 20.2696C31.7201 19.8964 32.1928 19.6423 32.7074 19.5394C33.2221 19.4364 33.7555 19.4892 34.2402 19.6912C34.725 19.8931 35.1393 20.2351 35.4308 20.6739C35.7223 21.1127 35.8779 21.6286 35.8779 22.1563C35.8779 22.864 35.5984 23.5427 35.1009 24.0431C34.6034 24.5435 33.9286 24.8246 33.225 24.8246Z" fill="#E0E0E0"/>
<path d="M95.4756 26.5212C95.4756 26.6259 84.1356 26.7156 70.1502 26.7156C56.1648 26.7156 44.8174 26.6259 44.8174 26.5212C44.8174 26.4166 56.1573 26.3269 70.1502 26.3269C84.1431 26.3269 95.4756 26.454 95.4756 26.5212Z" fill="#E0E0E0"/>
<path d="M79.35 31.9922C79.35 32.1043 71.6216 32.1865 62.0874 32.1865C52.5532 32.1865 44.8174 32.1043 44.8174 31.9922C44.8174 31.8801 52.5458 31.7979 62.0874 31.7979C71.629 31.7979 79.35 31.8875 79.35 31.9922Z" fill="#E0E0E0"/>
<path d="M47.9162 13.8823L49.068 16.2441L51.6541 16.6178L49.7814 18.4565L50.2273 21.05L47.9162 19.8242L45.5977 21.05L46.0435 18.4565L44.1709 16.6178L46.7569 16.2441L47.9162 13.8823Z" fill="#E0E0E0"/>
<path d="M58.8698 13.8823L60.0216 16.2441L62.6151 16.6178L60.7425 18.4565L61.1809 21.05L58.8698 19.8242L56.5513 21.05L56.9972 18.4565L55.1245 16.6178L57.7106 16.2441L58.8698 13.8823Z" fill="#E0E0E0"/>
<path d="M69.8234 13.8823L70.9827 16.2441L73.5687 16.6178L71.6961 18.4565L72.1345 21.05L69.8234 19.8242L67.5123 21.05L67.9508 18.4565L66.0781 16.6178L68.6642 16.2441L69.8234 13.8823Z" fill="#E0E0E0"/>
<path d="M80.7766 13.8823L81.9358 16.2441L84.5219 16.6178L82.6492 18.4565L83.0951 21.05L80.7766 19.8242L78.4655 21.05L78.9039 18.4565L77.0312 16.6178L79.6247 16.2441L80.7766 13.8823Z" fill="#EBEBEB"/>
<path d="M91.738 13.8823L92.8898 16.2441L95.4759 16.6178L93.6106 18.4565L94.0491 21.05L91.738 19.8242L89.4195 21.05L89.8653 18.4565L87.9927 16.6178L90.5787 16.2441L91.738 13.8823Z" fill="#EBEBEB"/>
<path d="M299.974 103.385C300.419 100.111 295.834 97.4057 292.394 97.1441C290.752 97.017 289.042 97.2637 287.482 96.718C284.116 95.5371 282.763 91.1573 279.471 89.7596C277.011 88.7133 274.18 89.6475 271.795 90.8509C269.409 92.0542 267.054 93.5789 264.363 93.7508C262.045 93.9003 259.533 93.0034 257.505 94.1769C256.018 95.0214 255.201 96.7778 253.789 97.8093C252.377 98.8407 250.653 99.035 248.959 99.1247C247.264 99.2144 245.518 99.2368 243.98 99.9469C242.442 100.657 241.163 102.294 241.483 103.96L299.974 103.385Z" fill="#F5F5F5"/>
<path d="M66.5163 135.718C66.9696 132.452 62.3846 129.739 58.9365 129.485C57.2942 129.35 55.5851 129.604 54.032 129.059C50.6582 127.878 49.3057 123.49 46.0212 122.1C43.554 121.054 40.7228 121.981 38.3374 123.191C35.952 124.402 33.5963 125.919 30.9062 126.091C28.5951 126.241 26.0759 125.344 24.0472 126.51C22.561 127.362 21.7436 129.111 20.3317 130.142C18.9197 131.174 17.1883 131.368 15.494 131.465C13.7997 131.562 12.0534 131.57 10.5151 132.28C8.97685 132.99 7.70612 134.627 8.02566 136.301L66.5163 135.718Z" fill="#F5F5F5"/>
<path d="M42.9967 101.285C43.3237 98.8855 39.95 96.9049 37.4234 96.7031C36.2121 96.6059 34.9562 96.7928 33.8118 96.3892C31.3372 95.5222 30.3489 92.3009 27.9263 91.2694C26.1206 90.522 24.0398 91.1872 22.2861 92.0766C20.5323 92.9661 18.8009 94.0797 16.8391 94.2068C15.1373 94.3189 13.287 93.6836 11.7933 94.5207C10.6861 95.141 10.1064 96.4266 9.08092 97.1889C8.0137 97.8472 6.78041 98.1819 5.52883 98.1531C4.28313 98.1221 3.04279 98.3275 1.8727 98.7585C0.735731 99.2817 -0.200595 100.485 0.0372015 101.711L42.9967 101.285Z" fill="#EBEBEB"/>
<path d="M320.625 13.9647C320.959 11.5655 317.585 9.58484 315.051 9.38304C313.847 9.28588 312.592 9.47273 311.447 9.06913C308.973 8.20213 307.977 4.98079 305.562 3.94936C303.748 3.20195 301.668 3.86715 299.914 4.75657C298.16 5.64599 296.429 6.75963 294.474 6.88669C292.773 6.9988 290.922 6.3635 289.429 7.2006C288.321 7.82095 287.734 9.1065 286.716 9.86886C285.653 10.5243 284.426 10.859 283.179 10.833C281.931 10.8027 280.688 11.0081 279.515 11.4384C278.386 11.9616 277.45 13.1649 277.687 14.4281L320.625 13.9647Z" fill="#EBEBEB"/>
<path d="M314.598 132.078H252.756V329.208H314.598V132.078Z" fill="#F5F5F5"/>
<path d="M314.606 132.078H283.685V328.67H314.606V132.078Z" fill="#EBEBEB"/>
<path d="M281.663 112.728H259.823V132.078H281.663V112.728Z" fill="#F5F5F5"/>
<path d="M281.656 112.728H276.454V132.078H281.656V112.728Z" fill="#EBEBEB"/>
<path d="M247.606 132.078V130.949H316.412V132.078" fill="#E0E0E0"/>
<path d="M270.197 140.516H264.965V151.615H270.197V140.516Z" fill="#FAFAFA"/>
<path d="M283.684 155.98C283.684 156.092 276.758 156.189 268.22 156.189C259.682 156.189 252.756 156.092 252.756 155.98C252.756 155.868 259.682 155.763 268.22 155.763C276.758 155.763 283.684 155.861 283.684 155.98Z" fill="#E0E0E0"/>
<path d="M301.386 140.516H296.154V151.615H301.386V140.516Z" fill="#E0E0E0"/>
<path d="M314.873 155.98C314.873 156.092 307.947 156.189 299.409 156.189C290.871 156.189 283.952 156.092 283.952 155.98C283.952 155.868 290.871 155.763 299.409 155.763C307.947 155.763 314.873 155.861 314.873 155.98Z" fill="#E0E0E0"/>
<path d="M301.386 162.558H296.154V173.657H301.386V162.558Z" fill="#E0E0E0"/>
<path d="M314.873 178.021C314.873 178.134 307.947 178.231 299.409 178.231C290.871 178.231 283.952 178.134 283.952 178.021C283.952 177.909 290.871 177.805 299.409 177.805C307.947 177.805 314.873 177.902 314.873 178.021Z" fill="#E0E0E0"/>
<path d="M301.386 185.264H296.154V196.363H301.386V185.264Z" fill="#E0E0E0"/>
<path d="M314.873 200.728C314.873 200.84 307.947 200.937 299.409 200.937C290.871 200.937 283.952 200.84 283.952 200.728C283.952 200.616 290.871 200.511 299.409 200.511C307.947 200.511 314.873 200.601 314.873 200.728Z" fill="#E0E0E0"/>
<path d="M301.386 207.978H296.154V219.077H301.386V207.978Z" fill="#E0E0E0"/>
<path d="M314.873 223.434C314.873 223.554 307.947 223.643 299.409 223.643C290.871 223.643 283.952 223.554 283.952 223.434C283.952 223.315 290.871 223.225 299.409 223.225C307.947 223.225 314.873 223.315 314.873 223.434Z" fill="#E0E0E0"/>
<path d="M301.386 230.034H296.154V241.133H301.386V230.034Z" fill="#E0E0E0"/>
<path d="M314.873 245.49C314.873 245.61 307.947 245.7 299.409 245.7C290.871 245.7 283.952 245.61 283.952 245.49C283.952 245.371 290.871 245.281 299.409 245.281C307.947 245.281 314.873 245.371 314.873 245.49Z" fill="#E0E0E0"/>
<path d="M301.386 252.179H296.154V263.278H301.386V252.179Z" fill="#E0E0E0"/>
<path d="M301.386 274.617H296.154V285.716H301.386V274.617Z" fill="#E0E0E0"/>
<path d="M314.873 267.636C314.873 267.756 307.947 267.853 299.409 267.853C290.871 267.853 283.952 267.756 283.952 267.636C283.952 267.516 290.871 267.427 299.409 267.427C307.947 267.427 314.873 267.516 314.873 267.636Z" fill="#E0E0E0"/>
<path d="M270.197 162.894H264.965V173.993H270.197V162.894Z" fill="#FAFAFA"/>
<path d="M283.684 178.358C283.684 178.47 276.758 178.567 268.22 178.567C259.682 178.567 252.756 178.47 252.756 178.358C252.756 178.245 259.682 178.141 268.22 178.141C276.758 178.141 283.684 178.238 283.684 178.358Z" fill="#E0E0E0"/>
<path d="M270.197 185.271H264.965V196.37H270.197V185.271Z" fill="#FAFAFA"/>
<path d="M283.684 200.735C283.684 200.855 276.758 200.945 268.22 200.945C259.682 200.945 252.756 200.855 252.756 200.735C252.756 200.616 259.682 200.519 268.22 200.519C276.758 200.519 283.684 200.601 283.684 200.735Z" fill="#E0E0E0"/>
<path d="M270.197 207.656H264.965V218.755H270.197V207.656Z" fill="#FAFAFA"/>
<path d="M283.684 223.113C283.684 223.232 276.758 223.322 268.22 223.322C259.682 223.322 252.756 223.232 252.756 223.113C252.756 222.993 259.682 222.904 268.22 222.904C276.758 222.904 283.684 223.023 283.684 223.113Z" fill="#E0E0E0"/>
<path d="M270.197 230.034H264.965V241.133H270.197V230.034Z" fill="#FAFAFA"/>
<path d="M283.684 245.49C283.684 245.61 276.758 245.7 268.22 245.7C259.682 245.7 252.756 245.61 252.756 245.49C252.756 245.371 259.682 245.281 268.22 245.281C276.758 245.281 283.684 245.371 283.684 245.49Z" fill="#E0E0E0"/>
<path d="M270.197 252.411H264.965V263.51H270.197V252.411Z" fill="#FAFAFA"/>
<path d="M283.684 267.868C283.684 267.987 276.758 268.084 268.22 268.084C259.682 268.084 252.756 267.987 252.756 267.868C252.756 267.748 259.682 267.658 268.22 267.658C276.758 267.658 283.684 267.748 283.684 267.868Z" fill="#E0E0E0"/>
<path d="M270.197 274.789H264.965V285.888H270.197V274.789Z" fill="#FAFAFA"/>
<path d="M121.41 329.372H30.4081L30.0068 184.718H121.016L121.41 329.372Z" fill="#EBEBEB"/>
<path d="M121.017 184.711H75.5156V329.372H121.017V184.711Z" fill="#E0E0E0"/>
<path d="M72.5431 156.234H40.4033V184.711H72.5431V156.234Z" fill="#EBEBEB"/>
<path d="M72.5429 156.234H64.8813V184.711H72.5429V156.234Z" fill="#E0E0E0"/>
<path d="M123.677 183.052H22.4272V184.711H123.677V183.052Z" fill="#E0E0E0"/>
<path d="M55.6817 197.133H47.9756V213.471H55.6817V197.133Z" fill="white"/>
<path d="M75.5156 219.884C75.5156 220.056 65.3275 220.198 52.7614 220.198C40.1953 220.198 30.0146 220.056 30.0146 219.884C30.0146 219.712 40.1953 219.57 52.7614 219.57C65.3275 219.57 75.5156 219.712 75.5156 219.884Z" fill="#E0E0E0"/>
<path d="M101.577 197.133H93.8706V213.471H101.577V197.133Z" fill="#F5F5F5"/>
<path d="M121.41 219.884C121.41 220.056 111.222 220.198 98.6634 220.198C86.1047 220.198 75.9092 220.056 75.9092 219.884C75.9092 219.712 86.0973 219.57 98.6634 219.57C111.229 219.57 121.41 219.712 121.41 219.884Z" fill="#EBEBEB"/>
<path d="M101.577 229.57H93.8706V245.909H101.577V229.57Z" fill="#F5F5F5"/>
<path d="M121.41 252.321C121.41 252.493 111.222 252.628 98.6634 252.628C86.1047 252.628 75.9092 252.493 75.9092 252.321C75.9092 252.15 86.0973 252.008 98.6634 252.008C111.229 252.008 121.41 252.172 121.41 252.321Z" fill="#EBEBEB"/>
<path d="M101.577 262.987H93.8706V279.325H101.577V262.987Z" fill="#F5F5F5"/>
<path d="M121.41 285.731C121.41 285.903 111.222 286.045 98.6634 286.045C86.1047 286.045 75.9092 285.903 75.9092 285.731C75.9092 285.559 86.0973 285.417 98.6634 285.417C111.229 285.417 121.41 285.559 121.41 285.731Z" fill="#EBEBEB"/>
<path d="M101.577 296.396H93.8706V312.735H101.577V296.396Z" fill="#F5F5F5"/>
<path d="M121.41 319.148C121.41 319.32 111.222 319.454 98.6634 319.454C86.1047 319.454 75.9092 319.32 75.9092 319.148C75.9092 318.976 86.0973 318.834 98.6634 318.834C111.229 318.834 121.41 318.976 121.41 319.148Z" fill="#EBEBEB"/>
<path d="M55.6817 230.064H47.9756V246.402H55.6817V230.064Z" fill="white"/>
<path d="M75.5156 252.815C75.5156 252.987 65.3275 253.129 52.7614 253.129C40.1953 253.129 30.0146 252.987 30.0146 252.815C30.0146 252.643 40.1953 252.501 52.7614 252.501C65.3275 252.501 75.5156 252.643 75.5156 252.815Z" fill="#E0E0E0"/>
<path d="M55.6817 262.995H47.9756V279.333H55.6817V262.995Z" fill="white"/>
<path d="M75.5156 285.746C75.5156 285.918 65.3275 286.052 52.7614 286.052C40.1953 286.052 30.0146 285.918 30.0146 285.746C30.0146 285.574 40.1953 285.432 52.7614 285.432C65.3275 285.432 75.5156 285.574 75.5156 285.746Z" fill="#E0E0E0"/>
<path d="M55.6817 295.926H47.9756V312.264H55.6817V295.926Z" fill="white"/>
<path d="M75.5156 318.692C75.5156 318.864 65.3275 318.998 52.7614 318.998C40.1953 318.998 30.0146 318.864 30.0146 318.692C30.0146 318.52 40.1953 318.378 52.7614 318.378C65.3275 318.378 75.5156 318.505 75.5156 318.692Z" fill="#E0E0E0"/>
<path d="M249.077 329.066L141.17 329.006C134.937 329.002 128.961 326.508 124.556 322.074C120.151 317.639 117.678 311.626 117.68 305.358L117.732 33.3001C117.729 30.1934 118.335 27.1166 119.515 24.2458C120.696 21.3749 122.427 18.7663 124.611 16.5692C126.795 14.372 129.388 12.6296 132.242 11.4414C135.096 10.2532 138.155 9.64257 141.244 9.64454L249.152 9.70433C255.384 9.70829 261.36 12.2018 265.765 16.6364C270.17 21.0711 272.644 27.0838 272.642 33.3524L272.59 305.41C272.591 308.516 271.983 311.592 270.802 314.462C269.621 317.332 267.889 319.94 265.706 322.137C263.522 324.333 260.93 326.076 258.077 327.265C255.224 328.454 252.166 329.066 249.077 329.066Z" fill="#B76E79"/>
<path d="M249.828 17.7914L228.835 17.6943C228.152 17.7069 227.477 17.855 226.85 18.1302C226.223 18.4053 225.657 18.8021 225.182 19.2978C224.708 19.7934 224.336 20.3783 224.087 21.0188C223.838 21.6594 223.716 22.3431 223.73 23.0308V26.865C223.744 27.554 223.622 28.2389 223.372 28.8804C223.122 29.5219 222.748 30.1074 222.273 30.6033C221.797 31.0991 221.228 31.4956 220.6 31.7699C219.971 32.0442 219.295 32.1908 218.61 32.2015L177.657 32.0072C176.972 31.9908 176.297 31.8383 175.67 31.5586C175.044 31.279 174.479 30.8776 174.007 30.3775C173.536 29.8774 173.167 29.2886 172.922 28.6448C172.677 28.0009 172.562 27.3148 172.581 26.6258V22.7916C172.601 22.1027 172.485 21.4165 172.241 20.7727C171.996 20.1289 171.627 19.54 171.156 19.04C170.684 18.5399 170.119 18.1385 169.493 17.8588C168.866 17.5792 168.191 17.4267 167.506 17.4103H160.127L141.75 17.328C139.58 17.3182 137.429 17.7385 135.42 18.5649C133.412 19.3912 131.585 20.6075 130.044 22.1442C128.503 23.6809 127.278 25.5079 126.44 27.5208C125.601 29.5338 125.165 31.6932 125.156 33.8757L124.034 300.373C124.026 304.775 125.756 309.001 128.843 312.122C131.931 315.243 136.124 317.004 140.501 317.018L248.565 317.518C250.735 317.529 252.885 317.11 254.894 316.284C256.902 315.459 258.729 314.243 260.27 312.707C261.811 311.171 263.036 309.344 263.875 307.332C264.714 305.319 265.15 303.16 265.159 300.978L266.281 34.4737C266.29 32.2918 265.871 30.1295 265.049 28.1103C264.227 26.0911 263.018 24.2545 261.49 22.7054C259.962 21.1563 258.146 19.925 256.145 19.0819C254.144 18.2388 251.998 17.8003 249.828 17.7914Z" fill="#F5F5F5"/>
<path d="M203.971 267.158C203.844 270.379 203.726 273.399 203.629 275.903H219.153L217.25 266.313L203.971 267.158Z" fill="#F5F5F5"/>
<path d="M140.88 271.171L141.014 275.902H202.075C202.179 273.249 202.298 270.297 202.41 267.262L140.88 271.171Z" fill="#F5F5F5"/>
<path d="M218.03 266.268L219.94 275.902H248.557L248.216 264.347L218.03 266.268Z" fill="#F5F5F5"/>
<path d="M205.516 131.51L210.926 99.9542L196.755 98.9004V131.51H205.516Z" fill="#EBEBEB"/>
<path d="M139.602 253.659L124.219 259.721L124.175 270.678L140.063 269.662L139.602 253.659Z" fill="#F5F5F5"/>
<path d="M139.535 251.193L138.695 221.805H138.681V211.438L124.42 212.955L124.234 257.202L139.528 251.178L139.535 251.193Z" fill="#EBEBEB"/>
<path d="M138.68 188.298L124.531 186.422L124.427 210.609L138.68 209.091V188.298Z" fill="#F5F5F5"/>
<path d="M244.151 211.872L243.556 220.295L226.844 222.111L228.137 228.771L247.109 227.336L246.826 217.776L248.342 211.446L244.151 211.872Z" fill="#F5F5F5"/>
<path d="M214.033 229.847L227.357 228.83L224.458 213.875L212.821 215.056L214.033 229.847Z" fill="#F5F5F5"/>
<path d="M214.159 231.394L215.177 243.868L216.983 260.977L217.726 264.721L248.171 262.785L247.153 228.898L214.159 231.394Z" fill="#EBEBEB"/>
<path d="M161.762 172.506L162.936 174.524L139.453 188.298V220.968L164.236 219.204L211.989 214.353L210.243 192.94L164.615 186.961L164.92 184.644L210.049 190.57L207.077 154.329L162.416 158.649L162.267 157.101L206.958 152.766L205.42 133.857H162.453L124.725 140.763L124.539 184.068L138.829 185.966L161.762 172.506ZM141.861 217.851C141.861 217.851 142.039 190.907 141.861 189.905L161.019 179.673L163.538 216.476L141.861 217.851Z" fill="#F5F5F5"/>
<path d="M242.59 212.036L225.231 213.793L226.546 220.579L242.107 218.89L242.59 212.036Z" fill="#F5F5F5"/>
<path d="M204.186 261.388C204.134 262.8 204.082 264.213 204.03 265.596L216.946 264.773L216.284 261.425L204.186 261.388Z" fill="#F5F5F5"/>
<path d="M176.364 131.51L178.638 121.136H195.982V98.8407L141.749 94.8047V115.732L124.806 119.589L124.732 138.379L162.244 131.51H176.364Z" fill="#EBEBEB"/>
<path d="M212.583 69.4898L212.123 67.5764L232.833 59.3549L219.323 32.1417C219.077 32.1767 218.829 32.1967 218.58 32.2015L195.692 32.0894L196.317 70.155L212.583 69.4898Z" fill="#F5F5F5"/>
<path d="M243.935 54.9002V17.7614L228.865 17.6941C228.178 17.7028 227.501 17.8481 226.87 18.1215C226.24 18.3949 225.67 18.791 225.193 19.2871C224.715 19.7832 224.34 20.3693 224.089 21.0118C223.838 21.6543 223.716 22.3404 223.73 23.0306V26.8648C223.73 27.7224 223.528 28.5679 223.14 29.3318C222.753 30.0957 222.191 30.7564 221.5 31.2596L234.981 58.4729L243.935 54.9002Z" fill="#EBEBEB"/>
<path d="M166.079 56.4924L164.332 17.3953H160.141L143.793 17.3206L136.785 52.262L166.079 56.4924ZM162.363 21.3641L162.921 53.2038L141.147 50.0049L145.918 21.3641H162.363Z" fill="#F5F5F5"/>
<path d="M166.874 56.6119V56.9407C166.874 59.9902 166.978 65.4837 167.023 71.3583L195.544 70.1849L194.919 32.0669L177.657 32.0071C176.972 31.9906 176.297 31.8382 175.67 31.5585C175.044 31.2788 174.479 30.8775 174.007 30.3774C173.535 29.8773 173.167 29.2885 172.922 28.6446C172.677 28.0008 172.562 27.3147 172.581 26.6257V22.7915C172.601 22.1025 172.485 21.4164 172.241 20.7726C171.996 20.1288 171.627 19.5399 171.156 19.0399C170.684 18.5398 170.119 18.1384 169.492 17.8587C168.866 17.579 168.191 17.4266 167.506 17.4102H165.098L166.844 56.6194L166.874 56.6119Z" fill="#F5F5F5"/>
<path d="M134.482 51.933L141.393 17.3054C137.077 17.3835 132.964 19.1571 129.932 22.2469C126.9 25.3367 125.191 29.4972 125.17 33.8382L125.096 51.0959L125.17 50.5876L134.482 51.933Z" fill="#F5F5F5"/>
<path d="M139.424 94.6326L124.918 93.5488L124.821 117.189L139.424 113.871V94.6326Z" fill="#F5F5F5"/>
<path d="M134.325 52.6954L125.096 51.365L124.94 89.6474L126.924 89.7969L134.325 52.6954Z" fill="#F5F5F5"/>
<path d="M163.626 250.745L163.872 220.011L139.468 221.745L140.33 251.858L163.626 250.745Z" fill="#F5F5F5"/>
<path d="M168.115 243.652L202.678 260.304C203.094 249.422 203.458 239.249 203.421 238.629L204.164 238.584L204.528 237.837C205.026 238.083 205.026 238.083 204.766 245.505C204.624 249.646 204.416 255.154 204.208 260.663H216.165L214.404 243.951L212.056 215.138L166.896 219.727L168.115 243.652Z" fill="#F5F5F5"/>
<path d="M252.838 192.641L252.444 188.59L211.015 192.925L212.761 214.278L248.528 210.646L252.838 192.641Z" fill="#F5F5F5"/>
<path d="M195.982 123.475H180.503L178.742 131.51H195.982V123.475Z" fill="#F5F5F5"/>
<path d="M246.44 126.188L207.679 123.49L206.104 132.698L207.731 152.684L248.602 148.73L246.44 126.188ZM209.106 132.683L211.186 126.869L244.85 129.014L246.767 145.636L210.213 150.001L209.106 132.683Z" fill="#F5F5F5"/>
<path d="M250.46 167.961L248.758 150.285L207.857 154.239L209.395 173.051L250.46 167.961Z" fill="#F5F5F5"/>
<path d="M140.107 271.223L124.242 272.232L124.175 271.194L124.152 275.902H140.241L140.107 271.223Z" fill="#F5F5F5"/>
<path d="M265.991 46.1256L266.222 46.7161L266.274 34.4735C266.291 30.0682 264.569 25.8361 261.485 22.7078C258.401 19.5795 254.208 17.811 249.828 17.7913H244.686V54.6162L265.991 46.1256Z" fill="#EBEBEB"/>
<path d="M202.648 261.141L167.364 244.137L166.123 219.779L164.637 219.929L164.385 251.47L140.345 252.621V253.323L140.813 269.587L202.454 265.663C202.529 264.19 202.588 262.636 202.648 261.141ZM141.861 254.624L175.516 252.247L197.416 262.464L141.861 265.454V254.624Z" fill="#F5F5F5"/>
<path d="M255.959 86.9941L257.4 78.3839C244.767 73.8396 243.876 60.5731 243.913 56.552L235.657 59.8406L248.089 84.9462L255.959 86.9941Z" fill="#F5F5F5"/>
<path d="M210.83 190.6L228.025 188.799L224.637 173.514L209.581 175.383L210.83 190.6Z" fill="#F5F5F5"/>
<path d="M247.933 102.002L215.808 101.995L213.141 101.8L209.514 122.96L247.643 125.613L246.759 116.412L250.512 102.824L247.933 102.002Z" fill="#F5F5F5"/>
<path d="M245.711 96.3219L246.112 86.2244L233.479 60.7302L213.906 68.5257L220.594 96.3219H245.711ZM232.729 63.8245L244.292 85.9628L242.627 92.8614L222.823 92.114L217.874 71.1865L232.729 63.8245Z" fill="#F5F5F5"/>
<path d="M250.712 218.18L251.299 238.024L265.218 237.231L265.263 238.009L251.329 238.801L252.035 262.539L265.196 261.702L265.292 263.256L252.08 264.101L252.436 275.902H265.255L265.538 209.704L252.422 211.034L250.712 218.18Z" fill="#F5F5F5"/>
<path d="M166.109 57.2845L136.63 53.0317L129.258 89.9838L166.235 92.7417C166.384 87.039 166.258 69.5944 166.109 57.2845Z" fill="#EBEBEB"/>
<path d="M214.582 96.3292H219.048L212.732 70.2595L196.331 70.9322L196.725 94.9914L214.582 96.3292Z" fill="#F5F5F5"/>
<path d="M166.993 92.7791L195.975 94.9391L195.588 70.9622L167.06 72.1356C167.09 80.2674 167.112 88.8926 166.993 92.7791Z" fill="#F5F5F5"/>
<path d="M250.683 170.286L225.409 173.425L228.805 188.717L252.221 186.265L250.683 170.286Z" fill="#F5F5F5"/>
<path d="M257.534 77.6292L259.154 67.9652L266.132 68.5108L266.221 47.7029L244.671 56.2757C244.262 70.91 253.403 76.0597 257.534 77.6292Z" fill="#EBEBEB"/>
<path d="M249.249 114.977L250.125 124.103L265.894 125.202L265.969 106.404L252.771 102.211L249.249 114.977Z" fill="#F5F5F5"/>
<path d="M256.754 192.917L252.615 210.235L265.538 208.919L265.619 190.765C261.651 189.711 258.188 188.859 256.323 188.522L256.754 192.917Z" fill="#F5F5F5"/>
<path d="M248.022 96.6209L265.991 102.324L266.036 92.0542L248.394 87.4651L248.022 96.6209Z" fill="#F5F5F5"/>
<path d="M256.1 186.116C257.549 186.34 260.291 186.923 265.627 188.358L265.79 148.663L252.615 149.934L256.1 186.116Z" fill="#F5F5F5"/>
<path d="M252.466 148.364L265.798 147.071L265.88 127.541L250.356 126.458L252.466 148.364Z" fill="#F5F5F5"/>
<path d="M259.021 78.1224C261.555 78.8698 263.903 79.4902 266.08 79.9312L266.125 70.0728L260.447 69.6318L259.021 78.1224Z" fill="#F5F5F5"/>
<path d="M257.467 87.4128L266.043 89.655L266.08 80.7459C263.856 80.3074 261.46 79.6945 258.894 78.9072L257.467 87.4128Z" fill="#F5F5F5"/>
<path d="M265.292 263.256L265.196 261.702L252.035 262.539L251.329 238.801L265.263 238.009L265.225 237.261L251.299 238.053L250.712 218.217L252.422 211.064L265.538 209.734V208.949L252.615 210.265L256.754 192.947L256.323 188.53C258.188 188.889 261.651 189.741 265.619 190.772V188.343C260.284 186.931 257.542 186.348 256.093 186.101L252.607 149.896L265.783 148.626V147.056L252.451 148.349L250.341 126.443L265.865 127.526V125.179L250.096 124.088L249.219 114.962L252.741 102.197L265.969 106.427V102.346L248 96.6433L248.364 87.4875L266.006 92.0766V89.6625L257.43 87.4202L258.857 78.8997C261.428 79.687 263.823 80.2999 266.043 80.7384V79.9386C263.866 79.4977 261.517 78.8997 258.983 78.1299L260.41 69.6393L266.087 70.0803V68.5182L259.11 67.9726L257.49 77.6366C253.358 76.067 244.218 70.9099 244.656 56.2831L266.206 47.7103V46.7162L265.976 46.1257L244.693 54.5939V17.769H243.913V54.9078L234.943 58.4805L221.501 31.2597C220.86 31.7226 220.118 32.025 219.338 32.1417L232.796 59.34L212.085 67.5615L212.546 69.4749L196.316 70.1401L195.692 32.0744H194.949L195.573 70.1924L167.052 71.3658C167.008 65.4912 166.941 59.9977 166.904 56.9483V56.6194L165.157 17.4102H164.377L166.124 56.5073L136.785 52.262L143.763 17.2981H141.764H141.393L134.482 51.9257L125.17 50.5803L125.096 51.0886V51.3576L134.326 52.688L126.894 89.7895L124.903 89.64V93.5415L139.409 94.6253V113.901L124.821 117.19V119.589L141.757 115.732V94.8046L196.004 98.8481V121.136H178.638L176.364 131.517H162.244L124.732 138.379V140.755L162.46 133.849H205.427L206.965 152.759L162.282 157.086L162.43 158.634L207.091 154.314L210.064 190.556L164.935 184.629L164.63 186.946L210.257 192.925L212.003 214.338L164.251 219.189L139.468 220.953V188.298L162.95 174.524L161.776 172.506L138.844 185.959L124.554 184.061V186.4L138.673 188.276V209.069L124.42 210.564V212.911L138.68 211.416V221.782L139.52 251.171L124.227 257.195V259.706L139.609 253.652L140.07 269.662L124.152 270.678V271.194L124.219 272.233L140.085 271.224L140.219 275.902H140.962L140.828 271.171L202.358 267.262C202.246 270.297 202.127 273.242 202.023 275.902H203.666C203.762 273.399 203.881 270.379 204.008 267.158L217.287 266.313L219.189 275.902H219.977L218.067 266.268L248.253 264.347L248.595 275.902H252.474M204.03 265.626C204.082 264.243 204.134 262.83 204.186 261.418L216.284 261.455L216.945 264.803L204.03 265.626ZM217.725 264.751L216.982 261.014L215.177 243.906L214.159 231.431L247.153 228.935L248.171 262.823L217.725 264.751ZM225.216 213.793L242.575 212.036L242.092 218.89L226.531 220.579L225.216 213.793ZM224.473 213.875L227.371 228.823L214.069 229.847L212.858 215.056L224.473 213.875ZM247.123 227.328L228.151 228.763L226.858 222.104L243.571 220.288L244.166 211.864L248.349 211.446L246.863 217.769L247.123 227.328ZM224.651 173.515L228.04 188.799L210.844 190.593L209.611 175.383L224.651 173.515ZM228.82 188.717L225.424 173.425L250.69 170.293L252.228 186.265L228.82 188.717ZM246.224 123.827L208.095 121.173L211.721 100.014L214.389 100.216H246.514L249.092 101.031L245.325 114.648L246.224 123.827ZM243.928 56.5596C243.891 60.5807 244.767 73.8472 257.415 78.3915L255.959 86.9942L248.089 84.9463L235.657 59.8407L243.928 56.5596ZM233.524 60.7077L246.157 86.202L245.756 96.2995H220.638L213.95 68.5032L233.524 60.7077ZM212.732 70.2597L219.048 96.3219H214.59L196.755 94.9915L196.361 70.9323L212.732 70.2597ZM195.558 70.9622L195.945 94.9392L166.963 92.7792C167.082 88.8926 167.06 80.2451 166.963 72.1357L195.558 70.9622ZM136.629 53.0244L166.109 57.2771C166.257 69.587 166.384 87.0316 166.235 92.7194L129.258 89.9838L136.629 53.0244ZM210.941 99.9543L205.531 131.51H196.755V98.9005L210.941 99.9543ZM180.518 123.468H195.997V131.51H178.757L180.518 123.468ZM206.118 132.691L207.693 123.483L246.454 126.181L248.624 148.723L207.753 152.677L206.118 132.691ZM248.773 150.278L250.482 167.961L209.417 173.051L207.857 154.261L248.773 150.278ZM211.03 192.917L252.459 188.582L252.853 192.633L248.543 210.638L212.776 214.271L211.03 192.917ZM214.404 243.951L216.172 260.655H204.216C204.424 255.147 204.632 249.638 204.773 245.498C205.033 238.076 205.033 238.076 204.535 237.829L204.171 238.577L203.428 238.622C203.465 239.272 203.101 249.444 202.685 260.296L168.115 243.652L166.896 219.734L212.056 215.145L214.404 243.951ZM163.872 220.033L163.627 250.767L140.33 251.881L139.468 221.767L163.872 220.033ZM140.367 253.375V252.673L164.407 251.522L164.66 219.981L166.146 219.832L167.387 244.19L202.648 261.141C202.588 262.636 202.529 264.176 202.477 265.678L140.835 269.602L140.367 253.375Z" fill="white"/>
<path d="M175.517 252.262L141.861 254.638V265.506L197.409 262.479L175.517 252.262Z" fill="#E0E0E0"/>
<path d="M244.849 129.014L211.186 126.869L209.105 132.684L210.242 150.001L246.796 145.636L244.849 129.014Z" fill="#E0E0E0"/>
<path d="M124.153 239.115L124.071 294.872V300.851C124.183 305.165 125.961 309.266 129.028 312.284C132.095 315.302 136.21 316.999 140.501 317.017L248.565 317.518C250.735 317.529 252.885 317.11 254.894 316.284C256.902 315.459 258.729 314.243 260.27 312.707C261.811 311.171 263.036 309.344 263.875 307.332C264.714 305.319 265.15 303.16 265.159 300.978L265.263 239.115H124.153Z" fill="white"/>
<path d="M163.567 55.2366L163.01 23.3894H146.565L141.794 52.0302L163.567 55.2366Z" fill="#E0E0E0"/>
<path d="M242.627 92.8764L244.299 85.9704L232.729 63.832L217.874 71.1791L222.831 92.1215L242.627 92.8764Z" fill="#EBEBEB"/>
<path d="M141.861 189.905C142.039 190.907 141.861 217.851 141.861 217.851L163.538 216.476L161.018 179.673L141.861 189.905Z" fill="#E0E0E0"/>
<path d="M214.032 211.782L212.888 195.085L250.006 190.286V193.164L245.518 208.516L214.032 211.782Z" fill="#E0E0E0"/>
<path d="M248.639 254.317L248.171 243.427L215.556 245.019C214.705 245.058 213.859 244.878 213.096 244.496L166.815 220.983C166.288 220.714 165.842 220.311 165.519 219.814C165.197 219.317 165.011 218.743 164.979 218.15L158.685 95.2831C158.667 94.9914 158.712 94.6993 158.817 94.4269C158.922 94.1546 159.085 93.9086 159.295 93.706C159.502 93.5034 159.749 93.3468 160.021 93.2463C160.292 93.1459 160.581 93.1039 160.87 93.123L180.704 94.6179V72.7935H183.03V94.9094C183.028 95.1914 182.969 95.4701 182.857 95.7284C182.744 95.9866 182.58 96.2188 182.374 96.4108C182.169 96.6027 181.927 96.7502 181.662 96.8442C181.398 96.9382 181.117 96.9767 180.837 96.9573L161.019 95.4624L167.298 218.038C167.309 218.219 167.367 218.395 167.466 218.547C167.565 218.699 167.702 218.822 167.863 218.905L214.144 242.418C214.547 242.621 214.995 242.716 215.444 242.695L248.342 241.088C248.613 241.075 248.883 241.116 249.138 241.208C249.392 241.3 249.626 241.442 249.827 241.625C250.027 241.808 250.189 242.029 250.304 242.276C250.419 242.522 250.485 242.789 250.497 243.061L250.973 254.22L248.639 254.317Z" fill="white"/>
<path d="M245.838 114.925C245.855 112.159 245.237 109.427 244.03 106.941C242.824 104.455 241.062 102.284 238.883 100.597C236.704 98.9096 234.167 97.752 231.469 97.2145C228.771 96.677 225.987 96.7742 223.333 97.4986C220.679 98.2229 218.227 99.5547 216.17 101.39C214.112 103.225 212.505 105.514 211.472 108.078C210.44 110.641 210.011 113.41 210.22 116.168C210.428 118.926 211.267 121.598 212.672 123.976L212.724 124.043C213.408 125.194 214.263 126.024 215.125 127.242L225.469 141.017C225.768 141.418 226.156 141.743 226.601 141.967C227.047 142.191 227.538 142.307 228.036 142.307C228.535 142.307 229.026 142.191 229.471 141.967C229.917 141.743 230.305 141.418 230.604 141.017L240.77 127.466C241.695 126.367 242.558 125.217 243.356 124.021L243.393 123.976C244.997 121.233 245.841 118.107 245.838 114.925ZM228.003 122.72C226.452 122.72 224.937 122.258 223.647 121.391C222.358 120.525 221.353 119.294 220.76 117.853C220.166 116.412 220.011 114.826 220.314 113.297C220.616 111.767 221.363 110.362 222.459 109.259C223.556 108.157 224.953 107.406 226.473 107.101C227.994 106.797 229.571 106.953 231.003 107.55C232.436 108.147 233.66 109.158 234.521 110.454C235.383 111.751 235.843 113.276 235.843 114.835C235.845 116.923 235.022 118.927 233.557 120.405C232.091 121.884 230.101 122.716 228.025 122.72H228.003Z" fill="#455A64"/>
<path d="M149.939 262.77C149.939 261.522 149.653 260.29 149.104 259.171C148.554 258.052 147.755 257.075 146.77 256.316C145.784 255.557 144.638 255.037 143.42 254.797C142.202 254.556 140.945 254.6 139.747 254.927C138.549 255.254 137.442 255.853 136.512 256.68C135.582 257.507 134.854 258.538 134.384 259.693C133.914 260.849 133.716 262.098 133.803 263.343C133.891 264.588 134.263 265.796 134.89 266.874C135.203 267.404 135.589 267.778 135.983 268.368L140.672 274.617C140.811 274.794 140.988 274.937 141.19 275.036C141.392 275.134 141.614 275.186 141.839 275.186C142.063 275.186 142.285 275.134 142.487 275.036C142.689 274.937 142.866 274.794 143.005 274.617L147.613 268.466C148.033 267.968 148.425 267.446 148.787 266.904C149.535 265.656 149.933 264.228 149.939 262.77ZM141.861 266.306C141.156 266.307 140.467 266.098 139.881 265.705C139.294 265.313 138.837 264.754 138.566 264.099C138.296 263.445 138.225 262.724 138.362 262.029C138.499 261.334 138.838 260.695 139.336 260.194C139.835 259.693 140.47 259.352 141.161 259.214C141.852 259.076 142.568 259.147 143.219 259.419C143.87 259.691 144.426 260.151 144.816 260.741C145.207 261.331 145.414 262.024 145.413 262.733C145.413 263.681 145.039 264.589 144.373 265.259C143.706 265.929 142.803 266.306 141.861 266.306Z" fill="#455A64"/>
<path d="M247.443 268.615C247.443 268.72 227.282 268.81 202.418 268.81C177.553 268.81 157.385 268.72 157.385 268.615C157.385 268.511 177.545 268.421 202.418 268.421C227.29 268.421 247.443 268.466 247.443 268.615Z" fill="#263238"/>
<path d="M203.666 275.902C203.666 276.014 193.314 276.097 180.548 276.097C167.781 276.097 157.422 276.014 157.422 275.902C157.422 275.79 167.773 275.708 180.548 275.708C193.322 275.708 203.666 275.798 203.666 275.902Z" fill="#263238"/>
<path d="M161.531 251.649L163.077 254.81L166.54 255.319L164.035 257.77L164.63 261.246L161.531 259.609L158.432 261.246L159.019 257.77L156.515 255.319L159.978 254.81L161.531 251.649Z" fill="#455A64"/>
<path d="M176.2 251.649L177.753 254.81L181.216 255.319L178.704 257.77L179.299 261.246L176.2 259.609L173.101 261.246L173.696 257.77L171.184 255.319L174.654 254.81L176.2 251.649Z" fill="#455A64"/>
<path d="M190.869 251.649L192.423 254.81L195.885 255.319L193.381 257.77L193.968 261.246L190.869 259.609L187.771 261.246L188.365 257.77L185.861 255.319L189.324 254.81L190.869 251.649Z" fill="#455A64"/>
<path d="M205.546 251.649L207.091 254.81L210.554 255.319L208.05 257.77L208.645 261.246L205.546 259.609L202.447 261.246L203.034 257.77L200.53 255.319L203.993 254.81L205.546 251.649Z" fill="#455A64"/>
<path d="M220.215 251.649L221.768 254.81L225.231 255.319L222.727 257.77L223.314 261.246L220.215 259.609L217.116 261.246L217.711 257.77L215.199 255.319L218.67 254.81L220.215 251.649Z" fill="#E0E0E0"/>
<path d="M187.05 290.058C187.05 290.17 181.417 290.253 174.469 290.253C167.521 290.253 161.888 290.17 161.888 290.058C161.888 289.946 167.521 289.864 174.469 289.864C181.417 289.864 187.05 289.954 187.05 290.058Z" fill="#E0E0E0"/>
<path d="M251.701 296.434C251.701 296.538 231.592 296.628 206.794 296.628C181.996 296.628 161.888 296.538 161.888 296.434C161.888 296.329 181.952 296.232 206.794 296.232C231.637 296.232 251.701 296.322 251.701 296.434Z" fill="#E0E0E0"/>
<path d="M145.651 300.836C149.886 300.836 153.32 297.383 153.32 293.123C153.32 288.863 149.886 285.409 145.651 285.409C141.415 285.409 137.982 288.863 137.982 293.123C137.982 297.383 141.415 300.836 145.651 300.836Z" fill="#F5F5F5"/>
<path d="M146.55 292.906C146.991 292.723 147.368 292.412 147.633 292.013C147.898 291.614 148.038 291.144 148.036 290.664C148.041 290.367 147.988 290.072 147.879 289.796C147.771 289.52 147.609 289.268 147.404 289.054C147.199 288.841 146.953 288.67 146.683 288.552C146.412 288.434 146.12 288.37 145.825 288.366C145.53 288.361 145.237 288.414 144.962 288.523C144.688 288.632 144.437 288.795 144.225 289.001C144.013 289.208 143.843 289.454 143.725 289.727C143.608 289.999 143.545 290.292 143.54 290.589C143.532 291.061 143.661 291.524 143.912 291.923C144.163 292.321 144.525 292.637 144.952 292.831C141.482 293.317 141.601 297.099 141.601 297.099L149.775 297.226C149.775 297.226 149.968 293.467 146.55 292.906Z" fill="#E0E0E0"/>
<path d="M195.195 309.521C195.093 309.518 194.997 309.475 194.927 309.401L191.211 305.5C191.177 305.465 191.149 305.424 191.13 305.378C191.111 305.333 191.102 305.284 191.102 305.235C191.102 305.185 191.111 305.136 191.13 305.091C191.149 305.045 191.177 305.004 191.211 304.969C191.245 304.935 191.286 304.907 191.33 304.888C191.375 304.869 191.423 304.859 191.472 304.859C191.52 304.859 191.568 304.869 191.613 304.888C191.657 304.907 191.698 304.935 191.732 304.969L195.187 308.587L198.576 305.037C198.646 304.968 198.741 304.929 198.84 304.929C198.938 304.929 199.033 304.968 199.103 305.037C199.138 305.071 199.166 305.113 199.185 305.158C199.204 305.204 199.213 305.253 199.213 305.302C199.213 305.351 199.204 305.4 199.185 305.446C199.166 305.491 199.138 305.532 199.103 305.567L195.492 309.401C195.455 309.443 195.409 309.476 195.357 309.497C195.306 309.517 195.25 309.526 195.195 309.521Z" fill="#263238"/>
<path d="M65.3497 60.8348C65.9739 60.6928 66.7393 60.6629 67.0812 60.0874C67.423 59.5119 66.9994 58.6673 66.4347 58.2114C65.8699 57.7555 65.1714 57.4117 64.8444 56.7614C64.6958 56.3658 64.6498 55.9385 64.7109 55.5201C64.7721 55.1016 64.9382 54.7057 65.1937 54.3697C65.6061 53.717 66.1572 53.1644 66.8075 52.7516C67.4577 52.3389 68.1908 52.0762 68.9541 51.9826C69.7173 51.8889 70.4917 51.9667 71.2215 52.2101C71.9513 52.4536 72.6184 52.8568 73.1747 53.3906L74.9656 53.2337C75.2148 55.3349 75.1998 57.4593 74.9211 59.5568C74.6256 61.6727 73.5451 63.5979 71.8966 64.9456C71.1957 65.5042 70.331 65.8142 69.4369 65.8275C68.9916 65.8272 68.5551 65.7027 68.176 65.4678C67.7969 65.233 67.4899 64.897 67.2893 64.4971C67.1146 64.0908 67.1004 63.6328 67.2495 63.2163C67.3986 62.7998 67.6998 62.4561 68.0918 62.2549C67.1572 62.5327 66.181 62.6415 65.2085 62.5763C65.046 62.5745 64.8858 62.5368 64.7394 62.4657C64.593 62.3947 64.4639 62.2921 64.3614 62.1652C64.027 61.5822 64.7032 60.9768 65.3497 60.8348Z" fill="#263238"/>
<path d="M75.6196 62.7482C74.4567 59.9901 73.5391 57.1337 72.8775 54.2127C72.2109 51.2821 72.2798 48.2306 73.0782 45.3335C73.2119 44.9 74.386 41.9701 74.8393 41.9926C75.1589 41.9926 74.4826 44.7057 74.661 44.9822C76.2823 47.6378 77.06 50.7274 76.8903 53.839C76.7959 56.8474 76.3672 59.8357 75.6122 62.7482" fill="#263238"/>
<path d="M86.2534 92.3232C81.6386 92.4877 76.526 83.8775 76.2585 79.251L74.6608 51.3651C73.992 43.891 77.767 37.2689 85.213 36.8055H85.9041C89.2609 36.793 92.4996 38.0503 94.9774 40.3279C97.4553 42.6054 98.9912 45.7368 99.2802 49.1004C99.8227 55.5805 100.335 62.7556 100.306 66.2311C100.246 73.4361 93.0826 74.5797 93.0826 74.5797C93.0826 74.5797 93.1421 76.2539 93.2387 78.3616C93.4542 83.1076 93.1272 94.0572 88.4084 94.2067L86.2534 92.3232Z" fill="#FFBE9D"/>
<path d="M93.0679 74.5722C89.7607 74.5764 86.5216 73.6271 83.7344 71.8367C83.7344 71.8367 86.0306 77.0686 93.1719 76.3959L93.0679 74.5722Z" fill="#EB996E"/>
<path d="M96.9619 55.0499C96.9659 55.3177 96.8655 55.5764 96.6822 55.7706C96.4988 55.9648 96.2471 56.079 95.981 56.0888C95.8509 56.0989 95.7201 56.0829 95.5963 56.0416C95.4725 56.0003 95.3581 55.9346 95.2598 55.8483C95.1616 55.762 95.0814 55.6568 95.024 55.539C94.9667 55.4211 94.9333 55.293 94.9257 55.162C94.9218 55.0275 94.9442 54.8935 94.9917 54.7678C95.0393 54.642 95.111 54.5269 95.2028 54.4291C95.2946 54.3312 95.4046 54.2525 95.5267 54.1974C95.6487 54.1423 95.7804 54.112 95.9141 54.1081C96.045 54.098 96.1765 54.1145 96.3009 54.1568C96.4252 54.1991 96.5398 54.2663 96.6377 54.3543C96.7355 54.4422 96.8147 54.5492 96.8704 54.6687C96.9261 54.7883 96.9573 54.9179 96.9619 55.0499Z" fill="#263238"/>
<path d="M97.742 52.09C97.6157 52.2246 96.8429 51.6491 95.743 51.6565C94.6432 51.664 93.8332 52.2171 93.7143 52.0825C93.5954 51.948 93.7887 51.7836 94.1379 51.522C94.6135 51.19 95.1789 51.0126 95.7579 51.0138C96.3282 51.0093 96.885 51.1873 97.3482 51.522C97.69 51.7836 97.8089 52.0302 97.742 52.09Z" fill="#263238"/>
<path d="M86.9965 55.431C86.9968 55.6997 86.8944 55.9582 86.7104 56.153C86.5264 56.3478 86.2749 56.4639 86.0081 56.4774C85.8781 56.4875 85.7473 56.4715 85.6235 56.4302C85.4996 56.3889 85.3852 56.3232 85.287 56.2369C85.1887 56.1506 85.1086 56.0454 85.0512 55.9276C84.9938 55.8097 84.9604 55.6816 84.9529 55.5506C84.9469 55.2822 85.0467 55.0224 85.2304 54.8277C85.4142 54.6331 85.6671 54.5195 85.9338 54.5117C86.0639 54.5004 86.1949 54.5155 86.3191 54.5558C86.4433 54.5962 86.5583 54.6611 86.6572 54.7467C86.7562 54.8323 86.8372 54.9369 86.8954 55.0544C86.9537 55.1719 86.988 55.2999 86.9965 55.431Z" fill="#263238"/>
<path d="M86.9967 52.6132C86.8704 52.7478 86.0901 52.1722 84.9903 52.1797C83.8905 52.1872 83.0879 52.7403 82.969 52.6057C82.8501 52.4712 83.0359 52.3068 83.3852 52.0452C83.8597 51.711 84.4258 51.5333 85.0052 51.5369C85.5777 51.5325 86.137 51.7104 86.6029 52.0452C86.915 52.2694 86.9967 52.5161 86.9967 52.6132Z" fill="#263238"/>
<path d="M90.9425 61.0664C91.5198 60.8772 92.1196 60.7666 92.726 60.7376C93.0084 60.7376 93.2759 60.6479 93.3205 60.4536C93.3439 60.1621 93.2792 59.8703 93.1347 59.6165C92.8672 58.9363 92.5848 58.2188 92.295 57.4639C91.1283 54.407 90.2812 51.8882 90.4075 51.8434C90.5338 51.7985 91.5742 54.2426 92.7409 57.2995C93.0158 58.0469 93.2908 58.7943 93.5434 59.467C93.7191 59.8072 93.7717 60.1982 93.6921 60.5731C93.6516 60.6725 93.5891 60.7612 93.5092 60.8325C93.4293 60.9038 93.3343 60.9557 93.2313 60.9842C93.0764 61.0282 92.9167 61.0533 92.7557 61.059C92.1538 61.1342 91.5451 61.1367 90.9425 61.0664Z" fill="#263238"/>
<path d="M87.7397 61.8439C87.9181 61.8439 87.9181 63.0323 88.9436 63.8843C89.9691 64.7364 91.2472 64.6317 91.2547 64.7588C91.2621 64.8859 90.9723 64.998 90.4298 65.0129C89.7304 65.0259 89.0489 64.7903 88.5051 64.3477C87.9856 63.9197 87.6502 63.3066 87.5688 62.6361C87.4945 62.1354 87.6283 61.8364 87.7397 61.8439Z" fill="#263238"/>
<path d="M86.8927 48.0841C86.7812 48.383 85.6814 48.241 84.3958 48.4055C83.1102 48.5699 82.055 48.9212 81.8841 48.6521C81.8098 48.5251 81.9881 48.241 82.4117 47.9495C82.9701 47.5847 83.607 47.3592 84.2695 47.2918C84.9294 47.2069 85.5999 47.2839 86.2239 47.516C86.6995 47.7029 86.9373 47.9421 86.8927 48.0841Z" fill="#263238"/>
<path d="M97.2736 48.4127C97.0804 48.6594 96.3224 48.4127 95.4158 48.4127C94.5092 48.4127 93.7289 48.5846 93.5506 48.323C93.4763 48.196 93.5952 47.9419 93.9296 47.7027C94.3711 47.4143 94.8896 47.2682 95.4158 47.2841C95.9503 47.2953 96.4687 47.47 96.902 47.7849C97.2513 48.0315 97.3999 48.2857 97.2736 48.4127Z" fill="#263238"/>
<path d="M75.2778 56.694C75.1589 56.6417 70.3509 55.2515 70.5293 60.1769C70.7076 65.1024 75.5824 63.914 75.5824 63.7645C75.5824 63.615 75.2778 56.694 75.2778 56.694Z" fill="#FFBE9D"/>
<path d="M74.0216 61.9558C74.0216 61.9558 73.9399 62.0156 73.7987 62.0904C73.593 62.1698 73.3653 62.1698 73.1596 62.0904C72.837 61.8978 72.5709 61.6228 72.3881 61.2933C72.2054 60.9638 72.1126 60.5916 72.1193 60.2144C72.0894 59.7938 72.1554 59.372 72.3125 58.9811C72.3514 58.8253 72.4281 58.6816 72.5357 58.5629C72.6433 58.4442 72.7786 58.3542 72.9293 58.301C73.0265 58.2719 73.1307 58.2776 73.2242 58.3171C73.3177 58.3566 73.3947 58.4275 73.442 58.5177C73.5163 58.6523 73.4866 58.7494 73.5089 58.7569C73.5312 58.7644 73.6129 58.6747 73.5683 58.4729C73.5361 58.3497 73.4626 58.2414 73.3603 58.1664C73.2918 58.1182 73.2145 58.0841 73.1329 58.0662C73.0513 58.0482 72.9669 58.0467 72.8847 58.0618C72.6863 58.1101 72.5032 58.2081 72.3525 58.3466C72.2018 58.4851 72.0883 58.6596 72.0227 58.8541C71.8329 59.2888 71.7488 59.7628 71.7774 60.2368C71.7696 60.6757 71.8901 61.1073 72.1239 61.4779C72.3578 61.8486 72.6946 62.1421 73.0927 62.3221C73.2207 62.3491 73.3528 62.3491 73.4807 62.3221C73.6086 62.295 73.7296 62.2416 73.8359 62.1651C74.0142 62.0754 74.0365 61.9633 74.0216 61.9558Z" fill="#EB996E"/>
<path d="M95.7429 41.0807C96.486 40.6024 94.0189 38.1285 92.0273 37.3437C89.0548 36.1329 84.4995 35.505 81.8243 36.4019C78.5992 37.4782 75.9537 39.2346 74.4452 42.2915C73.0025 45.408 72.4075 48.8537 72.7212 52.277C72.724 53.33 73.009 54.3627 73.546 55.2666C74.2891 56.3279 75.6193 56.9483 75.6267 58.458C75.6178 58.733 75.6638 59.0071 75.7621 59.2638C75.8604 59.5206 76.0089 59.7549 76.1989 59.9529C77.1353 60.8647 78.1905 59.9529 78.6586 58.9962C79.647 57.0155 79.6693 54.7135 79.6618 52.5012C79.7465 50.9263 79.5733 49.3482 79.1491 47.8299C78.8741 47.0227 78.458 46.2603 78.2276 45.4381C78.0856 45.0333 78.0332 44.6021 78.0743 44.1747C78.1154 43.7474 78.2489 43.3342 78.4654 42.9642C78.5777 42.8125 78.7047 42.6723 78.8444 42.5457C79.4998 41.9166 80.3098 41.4744 81.1913 41.2642C82.0728 41.054 82.9941 41.0836 83.8605 41.3498C86.662 42.2093 91.4328 43.465 92.6218 42.4709C93.4741 41.848 94.1858 41.0507 94.7099 40.1315L95.7429 41.0807Z" fill="#263238"/>
<path d="M82.0549 35.7069C83.3732 35.1695 84.7844 34.9008 86.2067 34.9162C87.6291 34.9315 89.0342 35.2308 90.3407 35.7966C91.0399 36.0825 91.6746 36.5071 92.207 37.0452C92.7394 37.5832 93.1586 38.2237 93.4395 38.9283C93.9076 40.3708 93.3726 42.1944 91.9978 42.8223L91.9086 42.8895C89.8502 43.6893 88.4829 43.465 86.365 42.8372C84.5889 42.3066 82.9838 41.2901 81.1632 40.7669C79.2568 40.2067 77.2271 40.2353 75.3372 40.8491C77.0885 38.5713 79.4055 36.7977 82.0549 35.7069Z" fill="#263238"/>
<path d="M75.9019 40.1089C76.6348 39.7457 77.434 39.5371 78.2501 39.4961C79.1351 39.478 80.0154 39.6302 80.8436 39.9445C81.8599 40.3489 82.8417 40.8363 83.7789 41.402C84.7328 41.9712 85.7262 42.4708 86.7513 42.8968C87.6068 43.2425 88.5195 43.4225 89.4414 43.4274C90.064 43.4328 90.682 43.3186 91.2621 43.0911C91.4787 43.0174 91.6784 42.9004 91.8491 42.7473C91.0821 43.036 90.2676 43.1755 89.4489 43.1584C88.564 43.115 87.6936 42.9151 86.8777 42.5679C85.8731 42.1337 84.8975 41.6344 83.9572 41.0731C83.0138 40.4991 82.0186 40.0161 80.9848 39.6306C80.1128 39.3209 79.1882 39.1888 78.265 39.2419C77.6436 39.2792 77.0366 39.4446 76.4815 39.7278C76.2621 39.8091 76.0639 39.9394 75.9019 40.1089Z" fill="#455A64"/>
<path d="M77.8936 38.4123C78.5926 38.147 79.3313 38.0029 80.0783 37.9863C80.883 38.0019 81.6793 38.1535 82.434 38.4348C83.3623 38.7933 84.2493 39.2519 85.0795 39.8025C85.9787 40.3706 86.8258 40.9535 87.6432 41.4169C88.347 41.8409 89.0945 42.1868 89.8726 42.4484C90.4093 42.6215 90.9666 42.7221 91.5297 42.7473C91.7363 42.7707 91.9454 42.7555 92.1465 42.7025C91.4058 42.5929 90.6751 42.4229 89.9618 42.1942C89.201 41.9065 88.4694 41.5461 87.777 41.118C86.9893 40.6396 86.157 40.0567 85.243 39.4811C84.3981 38.9157 83.4902 38.4516 82.538 38.0984C81.7409 37.8188 80.8999 37.6871 80.056 37.7098C79.4887 37.7314 78.9299 37.8554 78.4063 38.076C78.214 38.1511 78.0394 38.2657 77.8936 38.4123Z" fill="#455A64"/>
<path d="M89.2778 36.3422C89.2778 36.3422 89.5305 36.6935 89.9764 37.1868C90.5748 37.81 91.0872 38.5114 91.4997 39.272C91.8988 40.0276 92.0912 40.8762 92.0571 41.731C92.0199 42.3887 91.849 42.7774 91.901 42.7998C91.953 42.8222 92.2057 42.4635 92.3246 41.7609C92.4429 40.8442 92.2713 39.9133 91.8341 39.1001C91.4068 38.3068 90.8433 37.5957 90.1696 36.9999C89.6642 36.544 89.315 36.3048 89.2778 36.3422Z" fill="#455A64"/>
<path d="M92.7853 38.5469C92.896 39.2891 92.916 40.0421 92.8447 40.7892C92.6541 41.5256 92.3693 42.2341 91.9976 42.8969C91.9976 42.8969 92.2577 42.7848 92.5326 42.4335C92.8779 41.9676 93.1119 41.428 93.2163 40.8564C93.3224 40.284 93.2893 39.6942 93.1197 39.1374C92.9859 38.7487 92.8224 38.5245 92.7853 38.5469Z" fill="#455A64"/>
<path d="M72.5726 52.4563C72.4149 53.1526 72.4354 53.8778 72.6321 54.564C72.7165 55.2826 73.0354 55.9528 73.5387 56.4699C73.6279 56.4101 73.2266 55.588 73.0036 54.4818C72.9321 53.7931 72.7877 53.1141 72.5726 52.4563Z" fill="#455A64"/>
<path d="M67.5492 280.036L68.2923 296.217C68.2923 296.217 52.1816 302.368 52.0181 305.365L83.2289 305.119L83.162 279.871L67.5492 280.036Z" fill="#455A64"/>
<path d="M77.901 294.774C78.2147 294.859 78.4846 295.061 78.6557 295.339C78.8269 295.616 78.8865 295.949 78.8225 296.269C78.7465 296.576 78.5556 296.841 78.2898 297.01C78.0239 297.178 77.7036 297.237 77.3957 297.174C77.0771 297.078 76.8051 296.867 76.6321 296.581C76.4592 296.295 76.3977 295.955 76.4594 295.626C76.578 295.32 76.8094 295.071 77.1056 294.932C77.4018 294.793 77.7399 294.774 78.0497 294.879" fill="#E0E0E0"/>
<path d="M83.2143 305.119L83.1103 302.577L53.2073 303.743C53.2073 303.743 51.8177 304.364 51.9811 305.343L83.2143 305.119Z" fill="white"/>
<path d="M67.7501 296.06C67.7501 296.209 68.4932 296.277 69.2735 296.763C70.0538 297.248 70.4328 297.891 70.5665 297.831C70.7003 297.772 70.4774 296.882 69.5485 296.337C68.6196 295.791 67.713 295.918 67.7501 296.06Z" fill="#263238"/>
<path d="M64.48 297.443C64.48 297.592 65.1116 297.854 65.6318 298.497C66.152 299.139 66.308 299.827 66.4641 299.819C66.6202 299.812 66.7019 298.938 66.0405 298.153C65.3792 297.368 64.4874 297.301 64.48 297.443Z" fill="#263238"/>
<path d="M62.6523 301.404C62.7935 301.404 62.9941 300.657 62.6003 299.827C62.2064 298.997 61.4856 298.668 61.4187 298.795C61.3519 298.923 61.8052 299.364 62.1173 300.059C62.4294 300.754 62.474 301.389 62.6523 301.404Z" fill="#263238"/>
<path d="M67.9951 292.353C68.062 292.495 68.7382 292.278 69.6225 292.353C70.5068 292.428 71.1533 292.674 71.2351 292.54C71.3168 292.405 70.6629 291.867 69.6448 291.792C68.6268 291.718 67.9208 292.233 67.9951 292.353Z" fill="#263238"/>
<path d="M114.722 280.036L114.024 296.217C114.024 296.217 130.134 302.368 130.29 305.365L99.0796 305.119L99.1539 279.871L114.722 280.036Z" fill="#455A64"/>
<path d="M104.378 294.774C104.076 294.863 103.817 295.061 103.652 295.33C103.486 295.599 103.424 295.92 103.479 296.232C103.558 296.538 103.751 296.802 104.018 296.971C104.284 297.139 104.605 297.198 104.913 297.136C105.232 297.04 105.504 296.829 105.677 296.544C105.85 296.258 105.911 295.918 105.85 295.589C105.731 295.283 105.5 295.034 105.203 294.895C104.907 294.756 104.569 294.737 104.259 294.842" fill="#E0E0E0"/>
<path d="M99.0576 305.119L99.1691 302.577L129.072 303.743C129.072 303.743 130.454 304.364 130.291 305.343L99.0576 305.119Z" fill="white"/>
<path d="M114.529 296.06C114.529 296.209 113.786 296.277 113.006 296.763C112.225 297.248 111.846 297.891 111.705 297.831C111.564 297.772 111.802 296.882 112.723 296.337C113.645 295.791 114.566 295.918 114.529 296.06Z" fill="#263238"/>
<path d="M117.799 297.443C117.799 297.592 117.167 297.854 116.647 298.497C116.127 299.139 115.963 299.827 115.815 299.819C115.666 299.812 115.57 298.938 116.238 298.153C116.907 297.368 117.792 297.301 117.799 297.443Z" fill="#263238"/>
<path d="M119.627 301.404C119.486 301.404 119.277 300.657 119.679 299.827C120.08 298.997 120.793 298.668 120.853 298.795C120.912 298.923 120.474 299.364 120.154 300.059C119.835 300.754 119.775 301.389 119.627 301.404Z" fill="#263238"/>
<path d="M114.284 292.353C114.217 292.495 113.541 292.278 112.656 292.353C111.772 292.428 111.118 292.674 111.044 292.54C110.97 292.405 111.616 291.867 112.634 291.792C113.652 291.718 114.358 292.233 114.284 292.353Z" fill="#263238"/>
<path d="M60.8833 158.11C60.8833 159.097 67.2072 292.211 67.2072 292.211L83.6301 292.368L88.9656 179.158C88.9656 179.158 95.832 238.644 95.832 239.959C95.832 241.275 97.779 293.026 97.779 293.026H115.108V169.628L103.962 151.556L60.8833 158.11Z" fill="#151618"/>
<path d="M106.265 293.011C106.254 292.911 106.254 292.811 106.265 292.712C106.265 292.495 106.265 292.203 106.265 291.83C106.265 291.03 106.265 289.894 106.265 288.436C106.221 285.484 106.132 281.216 105.983 275.947C105.664 265.401 105.069 250.849 104.333 234.772C103.598 218.696 102.847 204.128 102.342 193.597C102.089 188.366 101.881 184.09 101.74 181.123C101.68 179.666 101.636 178.522 101.599 177.73C101.599 177.356 101.599 177.065 101.599 176.848C101.589 176.746 101.589 176.643 101.599 176.542C101.622 176.64 101.634 176.74 101.636 176.84C101.636 177.057 101.636 177.349 101.703 177.722C101.747 178.522 101.822 179.658 101.911 181.116C102.082 184.105 102.327 188.336 102.654 193.582C103.241 204.113 104.006 218.666 104.757 234.75C105.507 250.834 106.05 265.394 106.295 275.94C106.414 281.216 106.459 285.484 106.459 288.429C106.459 289.924 106.459 291.03 106.459 291.83C106.459 292.203 106.459 292.495 106.459 292.712C106.406 292.819 106.341 292.919 106.265 293.011Z" fill="#455A64"/>
<path d="M76.0058 176.556C76.1099 176.556 76.1025 202.462 76.0058 234.421C75.9092 266.38 75.7086 292.293 75.6046 292.293C75.5005 292.293 75.508 266.388 75.6046 234.421C75.7012 202.454 75.9018 176.549 76.0058 176.556Z" fill="#455A64"/>
<path d="M90.2813 172.797C90.0488 172.944 89.7993 173.062 89.5381 173.148C89.0254 173.343 88.2748 173.619 87.3534 173.948L87.1825 174.008V173.821C87.0784 172.184 86.9521 169.994 86.8406 167.595C86.7143 164.994 86.6251 162.64 86.5805 160.936C86.5805 160.084 86.5805 159.388 86.5805 158.918C86.5461 158.67 86.5461 158.418 86.5805 158.17C86.645 158.414 86.6823 158.665 86.692 158.918C86.7366 159.388 86.7886 160.076 86.8481 160.928C86.9595 162.632 87.0933 164.987 87.2122 167.588C87.3311 169.987 87.4128 172.177 87.4574 173.813L87.2716 173.686C88.208 173.387 88.9659 173.156 89.501 172.999C89.7521 172.9 90.014 172.832 90.2813 172.797Z" fill="#455A64"/>
<path d="M88.8173 158.648C88.8173 158.648 88.8768 158.544 89.07 158.469C89.3548 158.385 89.6607 158.415 89.9246 158.551C90.1345 158.648 90.3094 158.808 90.4252 159.008C90.541 159.209 90.592 159.441 90.5711 159.672C90.5477 159.956 90.436 160.225 90.2519 160.441C90.0678 160.657 89.8206 160.809 89.5456 160.876C89.2665 160.921 88.9803 160.879 88.7254 160.756C88.4705 160.633 88.2589 160.435 88.1188 160.188C88.0297 160.025 87.9758 159.845 87.9609 159.66C87.9459 159.475 87.9701 159.289 88.0318 159.114C88.0936 158.938 88.1916 158.779 88.3193 158.644C88.447 158.51 88.6016 158.404 88.7728 158.335C88.966 158.26 89.0774 158.275 89.0849 158.335C89.0923 158.394 88.6464 158.491 88.3789 159.082C88.3002 159.236 88.2629 159.408 88.2708 159.581C88.2786 159.754 88.3312 159.922 88.4235 160.069C88.5331 160.242 88.6902 160.381 88.8761 160.467C89.062 160.553 89.2687 160.583 89.4713 160.554C89.6663 160.502 89.8413 160.392 89.9738 160.239C90.1062 160.086 90.19 159.896 90.2144 159.695C90.2337 159.528 90.2038 159.359 90.1285 159.209C90.0532 159.059 89.9358 158.934 89.7908 158.85C89.499 158.673 89.1552 158.601 88.8173 158.648Z" fill="#455A64"/>
<path d="M97.6753 160.046C97.5713 160.046 97.4301 159.463 97.3558 158.731C97.2815 157.998 97.3037 157.385 97.4078 157.37C97.5118 157.355 97.653 157.953 97.7348 158.686C97.8165 159.418 97.7868 160.031 97.6753 160.046Z" fill="#455A64"/>
<path d="M99.0199 159.912C98.9084 159.912 98.8267 159.284 98.8193 158.506C98.8118 157.729 98.901 157.101 99.0051 157.101C99.1091 157.101 99.1983 157.729 99.1983 158.506C99.1983 159.284 99.124 159.912 99.0199 159.912Z" fill="#455A64"/>
<path d="M75.7458 160.846C75.3781 159.823 75.2583 158.726 75.3966 157.647C75.7643 158.67 75.8841 159.767 75.7458 160.846Z" fill="#455A64"/>
<path d="M77.3358 160.988C76.9966 160.504 76.8315 159.919 76.8676 159.329C76.7808 158.744 76.899 158.146 77.202 157.639C77.2743 158.194 77.2893 158.755 77.2466 159.314C77.3365 159.867 77.3664 160.428 77.3358 160.988Z" fill="#455A64"/>
<path d="M53.1924 310.522L58.6246 315.523C60.6879 317.428 63.3886 318.482 66.1895 318.475H115.844C118.638 318.476 121.329 317.422 123.387 315.523L128.819 310.522H53.1924Z" fill="#455A64"/>
<path d="M131.004 304.782H51.6987V310.694H131.004V304.782Z" fill="#455A64"/>
<path d="M45.2037 286.949H43.8958C41.0353 286.949 38.7163 289.282 38.7163 292.159V324.791C38.7163 327.668 41.0353 330 43.8958 330H45.2037C48.0643 330 50.3832 327.668 50.3832 324.791V292.159C50.3832 289.282 48.0643 286.949 45.2037 286.949Z" fill="#263238"/>
<path d="M45.0032 329.425C44.8991 329.425 44.639 320.194 44.431 308.796C44.2229 297.398 44.1411 288.167 44.2526 288.167C44.3641 288.167 44.6093 297.398 44.8174 308.789C45.0254 320.179 45.1072 329.425 45.0032 329.425Z" fill="#455A64"/>
<path d="M44.6391 326.211C43.5533 325.044 42.5595 323.795 41.6666 322.474C40.6604 321.221 39.7606 319.886 38.9766 318.482C40.0624 319.649 41.0562 320.898 41.949 322.219C42.9522 323.474 43.8519 324.809 44.6391 326.211Z" fill="#455A64"/>
<path d="M44.9582 321.218C43.8281 319.93 42.7924 318.561 41.8594 317.122C40.8206 315.76 39.8889 314.318 39.0728 312.81C40.2029 314.098 41.2386 315.466 42.1715 316.905C43.2085 318.269 44.1401 319.711 44.9582 321.218Z" fill="#455A64"/>
<path d="M44.2524 314.835C43.1677 313.457 42.1889 311.998 41.3245 310.47C40.3375 309.017 39.4582 307.494 38.6938 305.911C39.7913 307.287 40.7849 308.743 41.6663 310.268C42.6363 311.726 43.5006 313.252 44.2524 314.835Z" fill="#455A64"/>
<path d="M44.2527 309.633C43.8966 309.234 43.5943 308.789 43.3536 308.31C42.8408 307.465 42.1571 306.285 41.4215 304.977C40.6858 303.669 40.0393 302.465 39.5934 301.591C39.3121 301.139 39.0922 300.651 38.9395 300.141C39.2869 300.56 39.5884 301.017 39.8386 301.501C40.3514 302.346 41.035 303.519 41.7633 304.827C42.4915 306.135 43.1381 307.323 43.5914 308.198C43.864 308.65 44.0858 309.131 44.2527 309.633Z" fill="#455A64"/>
<path d="M44.1413 303.915C42.9962 302.585 42.0202 301.116 41.2357 299.543C40.4926 298.272 39.9352 297.107 39.5265 296.254C39.2686 295.807 39.0711 295.327 38.9395 294.827C39.9009 296.285 40.7792 297.798 41.5701 299.356C42.276 300.612 42.9225 301.748 43.4056 302.563C43.6973 302.986 43.9439 303.44 44.1413 303.915Z" fill="#455A64"/>
<path d="M43.465 297.981C42.6861 296.817 42.0098 295.586 41.4437 294.304C40.7659 293.075 40.2013 291.786 39.7568 290.454C40.5451 291.614 41.2243 292.845 41.7855 294.132C42.4644 295.359 43.0267 296.647 43.465 297.981Z" fill="#455A64"/>
<path d="M49.8853 317.772C49.2987 319.263 48.5955 320.705 47.7823 322.085C47.0793 323.524 46.2617 324.904 45.3374 326.21C45.9286 324.72 46.6342 323.278 47.4478 321.898C48.1488 320.459 48.9639 319.079 49.8853 317.772Z" fill="#455A64"/>
<path d="M49.7515 311.576C49.3188 313.189 48.6767 314.737 47.8417 316.18C47.2101 317.399 46.6081 318.482 46.1474 319.26C45.9356 319.702 45.6629 320.112 45.3374 320.478C45.9592 318.937 46.6816 317.439 47.4999 315.993C48.1315 314.775 48.6814 313.669 49.0753 312.862C49.2513 312.409 49.4781 311.977 49.7515 311.576Z" fill="#455A64"/>
<path d="M49.8851 303.325C49.3092 305.114 48.614 306.862 47.8044 308.557C47.1107 310.296 46.3014 311.987 45.3818 313.617C45.9586 311.827 46.6563 310.079 47.47 308.385C48.1576 306.644 48.9646 304.953 49.8851 303.325Z" fill="#455A64"/>
<path d="M49.2613 298.661C48.8824 300.103 48.3853 301.51 47.7751 302.869C47.2778 304.275 46.6612 305.635 45.9321 306.935C46.3029 305.491 46.8002 304.083 47.4184 302.727C47.9156 301.321 48.5322 299.961 49.2613 298.661Z" fill="#455A64"/>
<path d="M48.7335 293.13C48.5206 294.601 48.0924 296.031 47.4628 297.376C46.95 298.772 46.2337 300.085 45.3375 301.27C45.2408 301.21 46.1772 299.468 47.1061 297.226C48.035 294.984 48.622 293.1 48.7335 293.13Z" fill="#455A64"/>
<path d="M40.1802 286.553L51.6985 307.107V290.013C51.7088 289.18 51.3954 288.376 50.825 287.771C50.2546 287.167 49.4722 286.81 48.6443 286.777L40.1802 286.553Z" fill="#455A64"/>
<path d="M51.6984 296.583H49.7515V312.585H51.6984V296.583Z" fill="#455A64"/>
<path d="M138.338 329.985H139.646C142.507 329.985 144.826 327.653 144.826 324.776V292.151C144.826 289.274 142.507 286.942 139.646 286.942H138.338C135.478 286.942 133.159 289.274 133.159 292.151V324.776C133.159 327.653 135.478 329.985 138.338 329.985Z" fill="#263238"/>
<path d="M138.539 329.41C138.428 329.41 138.539 320.172 138.725 308.781C138.911 297.391 139.186 288.145 139.29 288.153C139.394 288.16 139.29 297.391 139.104 308.789C138.918 320.187 138.643 329.417 138.539 329.41Z" fill="#455A64"/>
<path d="M138.911 326.166C140.599 323.431 142.503 320.837 144.603 318.408C143.814 319.818 142.914 321.162 141.913 322.429C141.012 323.752 140.008 325.002 138.911 326.166Z" fill="#455A64"/>
<path d="M138.576 321.203C139.398 319.698 140.329 318.256 141.363 316.89C142.294 315.448 143.332 314.079 144.469 312.794C143.644 314.301 142.711 315.745 141.675 317.114C140.747 318.554 139.711 319.921 138.576 321.203Z" fill="#455A64"/>
<path d="M139.29 314.82C140.048 313.238 140.917 311.712 141.89 310.253C142.758 308.73 143.737 307.274 144.818 305.896C143.197 309.004 141.349 311.987 139.29 314.82Z" fill="#455A64"/>
<path d="M139.29 309.618C139.452 309.11 139.674 308.623 139.951 308.168C140.397 307.294 141.043 306.098 141.772 304.79C142.5 303.482 143.191 302.309 143.696 301.464C143.941 300.984 144.246 300.537 144.603 300.134C144.439 300.637 144.22 301.121 143.949 301.576C143.496 302.451 142.849 303.646 142.113 304.962C141.378 306.277 140.694 307.451 140.181 308.295C139.941 308.773 139.642 309.217 139.29 309.618Z" fill="#455A64"/>
<path d="M139.401 303.901C139.602 303.425 139.851 302.972 140.144 302.548C140.62 301.733 141.266 300.597 141.972 299.341C142.764 297.782 143.644 296.269 144.61 294.812C144.474 295.311 144.277 295.79 144.023 296.24C143.607 297.092 143.012 298.265 142.306 299.528C141.517 301.099 140.542 302.567 139.401 303.901Z" fill="#455A64"/>
<path d="M140.07 297.966C140.514 296.634 141.079 295.345 141.757 294.117C142.319 292.832 142.996 291.602 143.778 290.439C143.338 291.772 142.776 293.061 142.099 294.289C141.535 295.574 140.856 296.805 140.07 297.966Z" fill="#455A64"/>
<path d="M133.649 317.757C135.389 320.432 136.91 323.244 138.197 326.166C137.272 324.861 136.457 323.481 135.76 322.04C134.948 320.669 134.242 319.238 133.649 317.757Z" fill="#455A64"/>
<path d="M133.813 311.562C134.088 311.966 134.317 312.399 134.497 312.855C134.883 313.662 135.44 314.768 136.065 315.986C136.886 317.43 137.609 318.928 138.227 320.471C137.905 320.102 137.633 319.692 137.417 319.252C136.964 318.505 136.354 317.391 135.723 316.173C134.891 314.725 134.249 313.175 133.813 311.562Z" fill="#455A64"/>
<path d="M133.649 303.31C134.576 304.941 135.39 306.634 136.087 308.377C136.9 310.071 137.595 311.819 138.168 313.609C137.245 311.977 136.433 310.284 135.738 308.542C134.924 306.848 134.226 305.1 133.649 303.31Z" fill="#455A64"/>
<path d="M134.273 298.646C135.008 299.943 135.625 301.304 136.116 302.712C136.728 304.07 137.225 305.478 137.603 306.92C136.874 305.62 136.257 304.26 135.76 302.854C135.147 301.496 134.649 300.088 134.273 298.646Z" fill="#455A64"/>
<path d="M134.809 293.115C134.913 293.115 135.492 294.976 136.429 297.211C137.365 299.446 138.294 301.195 138.197 301.255C136.517 298.808 135.362 296.036 134.809 293.115Z" fill="#455A64"/>
<path d="M142.537 286.097L131.004 306.277V289.543C131.004 288.719 131.322 287.927 131.892 287.336C132.463 286.744 133.239 286.399 134.058 286.374L142.537 286.097Z" fill="#455A64"/>
<path d="M133.159 295.731H131.004V310.694H133.159V295.731Z" fill="#455A64"/>
<path d="M133.174 310.739C133.174 310.844 114.418 310.934 91.2918 310.934C68.166 310.934 49.4023 310.844 49.4023 310.739C49.4023 310.635 68.1512 310.545 91.2918 310.545C114.432 310.545 133.174 310.635 133.174 310.739Z" fill="#263238"/>
<path d="M56.9895 188.5C56.9895 188.5 56.4841 180.361 49.8481 181.205C43.2121 182.05 43.0337 188.052 43.0337 188.052L40.1802 187.544C40.1802 187.544 41.2354 179.038 50.5838 179.277C59.9322 179.516 59.7464 189.076 59.7464 189.076L56.9895 188.5Z" fill="#455A64"/>
<g opacity="0.3">
<path d="M56.9895 188.5C56.9895 188.5 56.4841 180.361 49.8481 181.205C43.2121 182.05 43.0337 188.052 43.0337 188.052L40.1802 187.544C40.1802 187.544 41.2354 179.038 50.5838 179.277C59.9322 179.516 59.7464 189.076 59.7464 189.076L56.9895 188.5Z" fill="black"/>
</g>
<path d="M25.8086 186.138L24.3521 224.57L74.8913 225.504L75.7534 187.528L25.8086 186.138Z" fill="#B76E79"/>
<path d="M75.7533 187.528C75.7533 187.528 75.7533 187.588 75.6641 187.685L75.3594 188.111C75.0622 188.515 74.6609 189.053 74.163 189.741C73.1078 191.146 71.6067 193.194 69.6449 195.653C67.3959 198.579 64.8397 201.253 62.0205 203.628C60.3377 205.005 58.4934 206.17 56.5289 207.096C54.3852 208.111 52.0658 208.697 49.6997 208.822C47.3425 208.895 44.9976 208.454 42.8258 207.529C40.8117 206.674 38.9377 205.517 37.2673 204.099C34.4812 201.663 32.1398 198.757 30.3489 195.511C29.124 193.349 28.008 191.126 27.0049 188.851L26.1949 186.998L25.9943 186.512C25.9497 186.4 25.9348 186.34 25.9423 186.34C25.9756 186.39 26.0054 186.443 26.0314 186.497L26.2692 186.968L27.1461 188.792C27.8892 190.369 28.9965 192.671 30.5867 195.369C32.3945 198.56 34.7319 201.416 37.4977 203.815C39.1467 205.202 40.9927 206.333 42.9745 207.17C45.0893 208.064 47.3697 208.492 49.6625 208.426C51.9631 208.312 54.2195 207.748 56.306 206.767C58.2603 205.865 60.0972 204.726 61.7753 203.374C64.5828 201.025 67.1382 198.387 69.3997 195.503C71.3912 193.074 72.9295 191.056 74.0144 189.674L75.2703 188.096L75.6121 187.685C75.654 187.629 75.7013 187.576 75.7533 187.528Z" fill="#263238"/>
<path d="M67.973 225.377C67.8615 225.377 69.3998 217.081 71.3987 206.894C73.3977 196.707 75.1143 188.463 75.2109 188.485C75.3075 188.508 73.7841 196.781 71.7852 206.969C69.7862 217.156 68.077 225.4 67.973 225.377Z" fill="#263238"/>
<path d="M75.5375 187.82C75.5503 187.947 75.5503 188.074 75.5375 188.201C75.5375 188.5 75.5375 188.866 75.5375 189.307C75.5004 190.264 75.4112 191.639 75.2923 193.351C75.0471 196.759 74.6161 201.468 74.0884 206.655C73.5608 211.842 73.115 216.491 72.7731 219.951C72.6171 221.61 72.4907 222.941 72.4016 223.98L72.2901 225.078C72.2857 225.208 72.2632 225.336 72.2232 225.459C72.2023 225.331 72.2023 225.199 72.2232 225.071C72.2232 224.772 72.2232 224.413 72.2232 223.972C72.2232 223.015 72.3495 221.633 72.4684 219.929C72.7137 216.513 73.1447 211.812 73.6723 206.617C74.1999 201.423 74.6458 196.781 74.9876 193.328C75.1437 191.669 75.27 190.339 75.3592 189.292C75.4112 188.859 75.4483 188.493 75.4781 188.201C75.4789 188.072 75.499 187.943 75.5375 187.82Z" fill="#263238"/>
<path d="M49.0635 207.386L47.5552 207.412L47.6032 210.237L49.1115 210.211L49.0635 207.386Z" fill="#263238"/>
<path d="M75.7532 187.528C75.5852 187.546 75.4158 187.546 75.2479 187.528H73.7617L68.4186 187.454L50.8142 187.043L33.2098 186.512L27.8743 186.303L26.388 186.228C26.2207 186.229 26.0537 186.211 25.8901 186.176C26.0581 186.158 26.2275 186.158 26.3955 186.176H27.8817L33.2173 186.258L50.8291 186.669L68.4335 187.2L73.7691 187.409L75.2553 187.484C75.4224 187.48 75.5894 187.495 75.7532 187.528Z" fill="#263238"/>
<path d="M48.0572 166.167C48.0572 166.167 44.7429 175.398 44.6389 176.863C44.5349 178.328 43.0635 180.667 44.7355 181.213C44.7355 181.213 44.4531 182.349 46.2217 182.76C46.2217 182.76 46.2217 184.696 48.5551 184.487C48.5551 184.487 50.1528 186.064 51.4681 185.234C51.4681 185.234 53.5043 186.25 54.3366 184.756C54.981 183.509 55.5421 182.221 56.016 180.899L57.3387 181.945C57.8124 180.876 57.9499 179.687 57.7326 178.537C57.3462 176.743 55.0871 174.471 55.5924 172.229C55.7228 171.42 55.9499 170.629 56.2687 169.875L48.0572 166.167Z" fill="#FFBE9D"/>
<g opacity="0.3">
<path d="M65.5133 200.175C63.6377 204.615 60.6685 208.502 56.8857 211.468C54.2179 213.636 50.8962 215.362 47.4853 215.003C44.5128 214.689 41.897 212.836 39.7271 210.751C35.3306 206.539 32.1206 201.232 30.4233 195.369C30.4233 195.369 38.5976 208.942 48.325 208.755C57.0938 208.546 65.5133 200.175 65.5133 200.175Z" fill="black"/>
</g>
<path d="M99.8823 79.52C99.8823 79.52 113.192 82.2854 114.834 84.3109C116.149 85.9253 123.134 102.301 123.134 102.301L128.767 112.346C129.952 113.313 130.822 114.615 131.264 116.083C131.966 119.377 132.305 122.738 132.275 126.106C132.275 126.106 131.272 132.713 127.162 132.99C125.226 133.069 123.294 132.76 121.478 132.083C119.662 131.406 117.997 130.372 116.58 129.043C114.18 126.883 108.309 112.242 108.517 111.494L99.8823 79.52Z" fill="#2C3E50"/>
<path d="M75.5004 76.5304L76.08 75.8578L82.1439 82.7638L87.0113 88.1228L93.1123 75.1477L94.8809 76.4557C94.8809 76.4557 101.45 126.465 101.339 127.048C101.227 127.631 103.88 154.926 103.88 154.926C103.88 154.926 89.902 157.722 85.852 156.421C81.802 155.121 72.7955 157.169 72.8549 156.75C72.9144 156.332 68.9907 139.619 68.9907 139.619L70.1426 93.7881L75.5004 76.5304Z" fill="#FAFAFA"/>
<path d="M101.51 148.812C101.167 148.765 100.829 148.687 100.499 148.581C99.8599 148.409 98.9385 148.132 97.8089 147.744C94.8739 146.741 92.0173 145.519 89.2631 144.089C86.5096 142.657 83.8644 141.023 81.3489 139.201C80.3829 138.498 79.6175 137.908 79.1196 137.482C78.8502 137.275 78.6014 137.042 78.3765 136.787C78.6786 136.955 78.9669 137.147 79.2385 137.362C79.7735 137.751 80.5612 138.311 81.5347 138.984C84.0878 140.726 86.7403 142.316 89.4786 143.745C92.2215 145.163 95.0482 146.411 97.9427 147.482C99.0499 147.893 99.9565 148.229 100.581 148.431C100.901 148.53 101.212 148.658 101.51 148.812Z" fill="#263238"/>
<path d="M86.9964 88.1228C87.0159 88.3116 87.0159 88.502 86.9964 88.6908C86.9964 89.0944 86.9964 89.6401 86.9964 90.3127C86.9964 91.7702 86.9965 93.8031 86.9519 96.292C86.9519 101.345 86.9147 108.325 87.0113 116.031C87.1079 123.737 87.2937 130.725 87.4423 135.77C87.5166 138.267 87.5761 140.3 87.6207 141.75C87.6207 142.422 87.6207 142.968 87.6207 143.371C87.6418 143.56 87.6418 143.751 87.6207 143.939C87.5854 143.755 87.5655 143.567 87.5612 143.379C87.5612 142.968 87.4943 142.43 87.4572 141.75C87.368 140.344 87.2714 138.297 87.1599 135.77C86.9444 130.718 86.7141 123.737 86.61 116.024C86.506 108.31 86.5654 101.33 86.6695 96.2771C86.7215 93.7508 86.7735 91.7029 86.833 90.2978C86.833 89.6176 86.885 89.0795 86.8998 88.6684C86.9155 88.484 86.9478 88.3013 86.9964 88.1228Z" fill="#263238"/>
<path d="M90.0954 154.642C89.8548 152.909 89.7381 151.161 89.7461 149.411C89.6211 147.669 89.6211 145.92 89.7461 144.179C89.9867 145.912 90.1034 147.66 90.0954 149.411C90.2205 151.152 90.2205 152.901 90.0954 154.642Z" fill="#263238"/>
<path d="M75.1441 77.1509L70.6482 82.0987C70.6482 82.0987 64.9783 83.4889 58.5726 85.634C57.2855 86.1701 56.136 86.9927 55.2106 88.04C54.2851 89.0873 53.6078 90.332 53.2296 91.6806C52.7466 93.3174 60.9134 132.975 60.9134 132.975L59.5015 144.395L55.1468 177.334C55.1468 177.334 62.6969 180.04 67.542 180.234C70.2692 180.346 70.7225 169.606 71.8744 162.161C72.9816 154.971 75.85 131.951 75.85 125.538C75.85 119.126 74.5199 88.22 74.5199 87.5548C74.5199 86.8896 75.1441 77.1509 75.1441 77.1509Z" fill="#2C3E50"/>
<path d="M74.9732 135.12C74.897 134.929 74.8373 134.731 74.7948 134.53C74.6833 134.104 74.5421 133.543 74.3564 132.833C73.9848 131.338 73.4572 129.178 72.8181 126.562C71.5474 121.226 69.8457 113.916 67.8838 105.844C67.3488 103.549 66.8212 101.322 66.3233 99.1846V99.1248V99.0724L70.0389 89.8344L70.1801 90.0512H66.5314H66.2861L66.4125 89.8419C67.8987 87.2932 69.1248 85.2229 69.9943 83.7505L70.9826 82.1062C71.0894 81.9085 71.2138 81.7209 71.3542 81.5457C71.265 81.7535 71.1633 81.9557 71.0495 82.1511L70.1206 83.8327C69.2883 85.3276 68.1068 87.4128 66.6577 89.9839L66.5314 89.7746H70.1801H70.4179L70.3287 89.9989C69.2512 92.7643 68.025 95.8885 66.7097 99.2593V99.1472C67.215 101.277 67.7352 103.505 68.2777 105.799L73.1005 126.54C73.695 129.171 74.178 131.316 74.5199 132.84C74.6759 133.588 74.8022 134.134 74.8914 134.56C74.9313 134.744 74.9586 134.932 74.9732 135.12Z" fill="#263238"/>
<path d="M94.8511 76.2539L97.7344 78.8923L114.269 83.601L114.492 110.164L112.024 136.794L117.085 176.549C111.348 179.726 102.788 179.045 102.788 179.045L98.8565 155.816C98.2397 151.481 96.0921 122.265 96.0921 122.265L94.8511 76.2539Z" fill="#2C3E50"/>
<path d="M100.797 130.209C100.798 130.011 100.817 129.813 100.856 129.619C100.923 129.208 101.005 128.647 101.109 127.952C101.339 126.457 101.659 124.387 102.052 121.831C102.795 116.659 103.828 109.499 104.713 101.569C105.151 97.5998 105.523 93.8179 105.835 90.3574C105.983 88.6384 106.117 87.0016 106.251 85.4619C106.31 84.7145 106.429 83.9222 106.013 83.4289C105.771 83.2229 105.481 83.0825 105.171 83.021C104.86 82.9595 104.538 82.979 104.237 83.0776C103.627 83.2266 103 83.2994 102.372 83.2944C101.803 83.2478 101.254 83.0604 100.774 82.7488C100.034 82.235 99.3978 81.5829 98.9016 80.8279C98.4854 80.2225 98.1584 79.7367 98.0098 79.4004C97.9003 79.2361 97.8081 79.0608 97.7349 78.8772C97.8576 79.031 97.9694 79.1933 98.0693 79.363C98.2848 79.6769 98.5894 80.1553 99.0205 80.7383C99.5238 81.4577 100.156 82.0762 100.886 82.5619C101.335 82.8426 101.845 83.0093 102.372 83.0478C102.981 83.044 103.588 82.9636 104.178 82.8086C104.518 82.7404 104.865 82.7178 105.211 82.7413C105.599 82.7664 105.962 82.9435 106.221 83.2346C106.472 83.5474 106.606 83.9388 106.6 84.3408C106.608 84.725 106.593 85.1093 106.556 85.4918C106.429 87.024 106.303 88.6683 106.169 90.3873C105.879 93.8404 105.515 97.6297 105.077 101.598C104.193 109.536 103.145 116.696 102.305 121.861C101.874 124.439 101.51 126.525 101.242 127.967C101.109 128.655 100.997 129.208 100.915 129.619C100.895 129.819 100.855 130.017 100.797 130.209Z" fill="#263238"/>
<path d="M111.988 102.204C111.097 102.417 110.181 102.497 109.268 102.443C108.356 102.523 107.438 102.473 106.541 102.294C107.435 102.091 108.352 102.013 109.268 102.062C110.177 101.982 111.092 102.029 111.988 102.204Z" fill="#263238"/>
<g opacity="0.3">
<path d="M114.938 116.143C116.049 114.656 117.655 113.622 119.463 113.228C119.902 113.139 120.481 113.153 120.652 113.565C120.695 113.736 120.689 113.915 120.635 114.083C120.581 114.251 120.481 114.4 120.347 114.514L119.79 115.194C118.056 116.848 116.96 119.067 116.699 121.457C116.36 120.356 116.372 119.176 116.733 118.083C117.094 116.989 117.786 116.037 118.713 115.358C116.944 115.717 115.599 117.115 114.373 118.445C114.266 118.045 114.261 117.623 114.36 117.221C114.459 116.818 114.658 116.447 114.938 116.143Z" fill="black"/>
</g>
<path d="M113.689 119.073C113.689 119.073 113.898 118.744 114.277 118.258C114.764 117.617 115.34 117.049 115.986 116.569C116.634 116.093 117.344 115.708 118.096 115.426C118.676 115.216 119.047 115.134 119.047 115.104C119.047 115.074 118.943 115.104 118.772 115.104C118.521 115.15 118.273 115.209 118.029 115.284C116.463 115.797 115.103 116.803 114.15 118.154C114.009 118.358 113.88 118.57 113.764 118.789C113.749 118.976 113.675 119.066 113.689 119.073Z" fill="#263238"/>
<path d="M116.922 123.027C116.922 123.027 116.922 122.504 116.922 121.667C116.951 121.18 117.013 120.695 117.108 120.217C117.235 119.63 117.404 119.053 117.613 118.49C117.84 117.935 118.108 117.398 118.416 116.883C118.672 116.466 118.955 116.067 119.263 115.687C119.79 115.044 120.184 114.708 120.169 114.678C120.064 114.744 119.967 114.822 119.88 114.91C119.79 114.985 119.679 115.082 119.56 115.201C119.441 115.321 119.307 115.448 119.174 115.612C118.846 115.985 118.548 116.382 118.282 116.801C117.965 117.32 117.692 117.865 117.464 118.43C117.245 119 117.076 119.587 116.959 120.187C116.868 120.68 116.816 121.18 116.803 121.681C116.792 121.871 116.792 122.06 116.803 122.25C116.794 122.394 116.794 122.539 116.803 122.683C116.829 122.802 116.869 122.918 116.922 123.027Z" fill="#263238"/>
<path d="M114.254 94.3787C114.275 94.5149 114.275 94.6535 114.254 94.7897C114.254 95.1111 114.254 95.4998 114.254 95.9781C114.209 97.0693 114.15 98.5492 114.075 100.35C113.882 104.088 113.622 109.155 113.332 114.761C113.043 120.366 112.693 125.426 112.47 129.163C112.344 130.957 112.247 132.437 112.166 133.521C112.166 133.999 112.091 134.395 112.069 134.709C112.065 134.848 112.043 134.987 112.002 135.12C111.991 134.981 111.991 134.841 112.002 134.701C112.002 134.388 112.002 133.954 112.002 133.513C112.047 132.422 112.114 130.942 112.188 129.141C112.381 125.404 112.641 120.336 112.931 114.731C113.221 109.125 113.563 104.073 113.786 100.336C113.912 98.5343 114.016 97.0619 114.09 95.9706C114.135 95.4923 114.165 95.1036 114.194 94.7897C114.199 94.6509 114.219 94.513 114.254 94.3787Z" fill="#263238"/>
<path d="M57.5542 86.6279C57.5542 86.6279 53.7941 88.0256 52.7686 93.7881C51.7431 99.5507 45.3374 170.069 45.3374 170.069L56.172 170.697L61.5002 132.317L57.5542 86.6279Z" fill="#2C3E50"/>
<path d="M61.5002 133.124C61.6117 133.124 60.4227 142.093 58.8473 153.147C57.2719 164.202 55.8748 173.126 55.8079 173.103C55.7411 173.081 56.8929 164.134 58.4609 153.088C60.0288 142.041 61.3962 133.109 61.5002 133.124Z" fill="#263238"/>
<path d="M58.5578 99.5283C58.6692 99.5283 59.4123 107.002 60.2223 116.308C61.0323 125.613 61.612 133.117 61.5005 133.132C61.389 133.147 60.6533 125.658 59.8359 116.345C59.0185 107.032 58.4537 99.5358 58.5578 99.5283Z" fill="#263238"/>
<path d="M86.9964 88.489C86.7087 88.2959 86.44 88.0756 86.1939 87.8312L84.1057 85.9328L84.3361 85.873C83.6673 87.7939 82.7384 90.3575 81.7054 93.1752L81.5865 93.5041L81.371 93.235L81.2224 93.0407C79.4721 90.8498 77.9761 88.4651 76.7637 85.9328C76.2956 84.9612 75.9612 84.154 75.7531 83.5934C75.6262 83.3059 75.5315 83.0051 75.4707 82.6965C75.6371 82.9619 75.7788 83.2421 75.8943 83.5336C76.1469 84.0792 76.5111 84.8565 77.009 85.7759C78.2882 88.2517 79.8065 90.5949 81.542 92.7716L81.6906 92.9585L81.3562 93.0108C82.3965 90.1931 83.3552 87.6444 84.0834 85.746L84.1652 85.5442L84.3138 85.6936L86.3128 87.6818C86.5702 87.924 86.7995 88.1948 86.9964 88.489Z" fill="#263238"/>
<path d="M94.9701 80.8728C95.0061 81.1657 95.0061 81.4619 94.9701 81.7548C94.9107 82.3975 94.8364 83.1972 94.7472 84.139C94.5391 86.157 94.2196 88.9374 93.8554 92.0092V92.2484L93.7886 92.7492L93.4987 92.3306C91.7599 89.8193 90.2142 87.5397 89.1218 85.9029H89.3299L87.7024 87.5397C87.5123 87.7508 87.3006 87.9412 87.0708 88.1077C87.218 87.8645 87.3953 87.641 87.5984 87.4426L89.1367 85.716L89.2481 85.5964L89.3447 85.731C90.4966 87.3304 92.0794 89.5801 93.8034 92.0989L93.4542 92.1811V91.9494C93.8257 88.8776 94.1973 86.1047 94.4574 84.0941C94.5986 83.1524 94.71 82.3602 94.8066 81.7174C94.8302 81.4307 94.885 81.1474 94.9701 80.8728Z" fill="#263238"/>
<path d="M54.1209 164.725C54.1209 164.725 54.2621 164.68 54.5073 164.725C54.858 164.83 55.1557 165.065 55.3396 165.383C55.4667 165.599 55.5524 165.837 55.5923 166.085C55.638 166.386 55.5913 166.694 55.4585 166.967C55.3093 167.278 55.0761 167.54 54.7857 167.724C54.4953 167.908 54.1593 168.005 53.8162 168.006C53.4743 167.954 53.1572 167.795 52.9093 167.553C52.6614 167.31 52.4952 166.996 52.434 166.653C52.3774 166.387 52.3885 166.11 52.4664 165.848C52.5444 165.587 52.6866 165.35 52.8799 165.159C53.1277 164.895 53.4585 164.726 53.8162 164.68C54.0689 164.68 54.2026 164.68 54.1952 164.732C53.7669 164.808 53.3753 165.024 53.0805 165.345C52.9335 165.515 52.8292 165.717 52.7761 165.936C52.7231 166.154 52.723 166.382 52.7759 166.601C52.8334 166.862 52.9664 167.1 53.1582 167.285C53.3499 167.469 53.5918 167.593 53.8534 167.64C54.1207 167.633 54.3812 167.554 54.6075 167.41C54.8338 167.267 55.0174 167.065 55.139 166.825C55.2407 166.626 55.2937 166.406 55.2937 166.182C55.2937 165.959 55.2407 165.739 55.139 165.54C54.7228 164.8 54.0912 164.785 54.1209 164.725Z" fill="#263238"/>
<path d="M113.474 150.831C113.474 150.831 103.553 151.578 103.984 151.421L106.838 156.832L116.082 156.175L113.474 150.831Z" fill="#455A64"/>
<path d="M113.474 150.831C113.554 150.938 113.624 151.053 113.682 151.174L114.232 152.213C114.737 153.2 115.413 154.515 116.223 156.107L116.32 156.309H116.097L106.853 157.012H106.726L106.667 156.9L106.563 156.705C105.597 154.852 104.668 153.095 103.821 151.473L104.036 151.563C104.036 151.563 104.11 151.563 104.088 151.369C104.066 151.174 103.969 151.272 103.984 151.264H104.415H104.92L105.909 151.212L107.737 151.115L110.754 150.95L112.716 150.86C112.951 150.843 113.187 150.843 113.422 150.86C113.194 150.925 112.96 150.962 112.723 150.973L110.769 151.159L107.759 151.406L105.924 151.541L104.935 151.608H104.43H104.162H103.858C103.858 151.608 103.858 151.645 103.746 151.488C103.635 151.331 103.821 151.294 103.798 151.294H103.85L103.992 151.249L104.066 151.384L106.83 156.616L106.934 156.817L106.749 156.713L116 156.092L115.874 156.317L114.053 152.423L113.555 151.324C113.509 151.163 113.481 150.998 113.474 150.831Z" fill="#263238"/>
<path d="M67.9654 152.109L58.9737 150.831L57.0713 156.832L66.2562 158.17L67.9654 152.109Z" fill="#455A64"/>
<path d="M67.9652 152.109C67.9543 152.246 67.9269 152.382 67.8834 152.512L67.5862 153.723C67.3186 154.777 66.9248 156.324 66.4046 158.208V158.335H66.2634L57.1751 157.049H57.0711H56.8481L56.915 156.825C57.5987 154.687 58.2526 152.662 58.8397 150.846L58.8843 150.704H59.0255C61.723 151.1 63.9895 151.451 65.5649 151.72L67.3855 152.027C67.5923 152.049 67.7963 152.091 67.9949 152.154C67.9949 152.154 67.7348 152.154 67.2518 152.094L65.3791 151.877C63.7888 151.683 61.5595 151.414 58.9437 151.055L59.1369 150.935C58.5573 152.759 57.9182 154.792 57.2494 156.915L57.0934 156.66H57.1974L66.2783 157.998L66.1074 158.11C66.635 156.309 67.0957 154.822 67.4227 153.768C67.5713 153.282 67.6976 152.879 67.8091 152.542C67.8495 152.394 67.9017 152.249 67.9652 152.109Z" fill="#263238"/>
<path d="M130.536 91.4787C130.704 91.568 130.852 91.691 130.971 91.8401C131.089 91.9893 131.177 92.1613 131.227 92.3457C131.292 92.6325 131.258 92.933 131.13 93.1977L127.036 102.368L124.368 107.765L116.491 105.851L121.581 93.0707C121.581 93.0707 121.997 91.3068 123.602 91.3068H129.859C130.096 91.3033 130.329 91.3626 130.536 91.4787Z" fill="#455A64"/>
<path d="M128.752 93.7881H129.778C129.853 93.7865 129.926 93.7649 129.99 93.7256C130.054 93.6862 130.106 93.6304 130.142 93.5639C130.175 93.501 130.192 93.4304 130.19 93.359C130.188 93.2876 130.168 93.2179 130.131 93.1568C130.094 93.0957 130.043 93.0453 129.981 93.0105C129.919 92.9757 129.849 92.9578 129.778 92.9585H128.752C128.674 92.9585 128.597 92.981 128.531 93.0234C128.466 93.0658 128.413 93.1263 128.38 93.1977C128.352 93.2608 128.34 93.33 128.345 93.3991C128.35 93.4682 128.371 93.535 128.408 93.5935C128.445 93.652 128.496 93.7004 128.556 93.7344C128.616 93.7684 128.683 93.7868 128.752 93.7881Z" fill="white"/>
<path d="M130.097 117.04C130.38 116.442 129.354 115.545 129.354 115.545C129.354 115.545 128.106 109.484 128.611 108.452C129.117 107.421 128.864 106.15 128.953 104.013C129.042 101.875 129.815 101.113 129.815 101.113C129.815 101.113 129.882 99.745 130.053 98.6388C130.141 97.9427 129.96 97.2392 129.548 96.6731L127.051 102.398L126.642 101.883C125.549 100.234 124.176 98.7914 122.585 97.6223C121.782 97.1888 121.173 97.996 120.942 98.6238C120.712 99.2517 121.633 100.343 122.206 100.739C122.778 101.135 123.692 103.676 124.026 104.603C124.361 105.53 124.026 105.732 123.447 106.098C122.867 106.464 120.66 104.603 119.59 104.162C118.636 103.625 117.771 102.942 117.026 102.137C116.824 101.981 116.583 101.885 116.33 101.859C116.077 101.833 115.821 101.877 115.592 101.987C114.752 102.368 115.131 104.013 115.131 104.013C113.801 105.029 114.492 107.002 114.492 107.002C114.492 107.002 113.162 107.107 113.073 107.555C112.983 108.004 113.437 110.411 114.18 110.993C114.923 111.576 118.104 113.819 118.104 113.819C118.814 114.904 119.806 115.772 120.972 116.33L121.596 119.477C122.96 119.878 124.409 119.878 125.773 119.477C127.388 119.027 128.872 118.191 130.097 117.04Z" fill="#FFBE9D"/>
<path d="M115.138 103.826C115.138 103.826 115.138 103.826 115.138 103.908C115.128 103.985 115.128 104.063 115.138 104.14C115.186 104.426 115.298 104.697 115.465 104.932C115.711 105.276 116.01 105.579 116.35 105.829C116.729 106.113 117.16 106.39 117.628 106.674C118.424 107.145 119.253 107.558 120.11 107.907C120.437 108.034 120.712 108.131 120.897 108.191L121.195 108.273C121.195 108.273 120.793 108.094 120.154 107.802C119.312 107.428 118.494 107.004 117.702 106.532C116.887 106.119 116.158 105.553 115.554 104.865C115.325 104.562 115.182 104.204 115.138 103.826Z" fill="#EB996E"/>
<path d="M114.544 107.01C114.697 107.26 114.881 107.489 115.094 107.69C115.584 108.201 116.13 108.655 116.721 109.043C117.314 109.431 117.95 109.747 118.616 109.985C118.887 110.099 119.172 110.177 119.463 110.216C119.463 110.216 119.151 110.089 118.661 109.88C118.015 109.616 117.395 109.291 116.81 108.908C116.228 108.528 115.68 108.095 115.176 107.615C114.782 107.242 114.559 106.995 114.544 107.01Z" fill="#EB996E"/>
<path d="M127.407 107.04C127.601 106.885 127.733 106.664 127.779 106.419C127.881 105.839 127.866 105.244 127.734 104.67C127.647 104.095 127.523 103.526 127.362 102.966C127.31 102.73 127.228 102.501 127.117 102.286C127.143 102.527 127.191 102.764 127.258 102.996C127.355 103.43 127.481 104.028 127.585 104.693C127.708 105.252 127.736 105.828 127.667 106.397C127.611 106.622 127.523 106.839 127.407 107.04Z" fill="#EB996E"/>
<path d="M124.256 109.715C124.256 109.715 124.353 109.715 124.509 109.715C124.709 109.648 124.878 109.51 124.985 109.327C125.089 109.144 125.126 108.929 125.089 108.721C125.089 108.564 124.992 108.482 124.97 108.497C125 108.752 124.958 109.011 124.851 109.245C124.628 109.611 124.241 109.671 124.256 109.715Z" fill="#EB996E"/>
<path d="M121.618 112.107C121.618 112.107 121.737 112.167 121.938 112.107C122.2 112.07 122.441 111.943 122.621 111.748C122.802 111.554 122.91 111.303 122.926 111.038C122.926 110.837 122.926 110.717 122.874 110.724C122.822 110.732 122.874 110.844 122.822 111.023C122.772 111.253 122.664 111.467 122.51 111.644C122.344 111.811 122.14 111.934 121.915 112.003C121.813 112.027 121.713 112.062 121.618 112.107Z" fill="#EB996E"/>
<path d="M119.33 113.527C119.33 113.527 119.426 113.572 119.582 113.527C119.783 113.463 119.96 113.338 120.088 113.169C120.217 112.999 120.287 112.792 120.288 112.578C120.288 112.414 120.236 112.324 120.221 112.331C120.193 112.597 120.104 112.853 119.961 113.079C119.788 113.276 119.572 113.429 119.33 113.527Z" fill="#EB996E"/>
<path d="M120.987 116.472C121.152 116.583 121.336 116.664 121.529 116.711C121.984 116.862 122.448 116.982 122.919 117.07C123.388 117.153 123.862 117.205 124.338 117.227C124.535 117.258 124.736 117.258 124.933 117.227C124.933 117.182 124.034 117.145 122.949 116.943C121.864 116.741 121.002 116.427 120.987 116.472Z" fill="#EB996E"/>
<path d="M118.534 103.594L118.616 103.407L118.824 102.854L119.567 100.806C120.199 99.0574 121.053 96.6657 121.99 94.0348C122.169 93.387 122.552 92.8152 123.082 92.4055C123.643 92.1335 124.268 92.0222 124.888 92.0841L128.106 92.1215H130.275H130.84C130.909 92.1324 130.979 92.1324 131.048 92.1215H130.84H130.253L128.083 92.0617L124.866 91.9944C124.554 91.9722 124.241 91.9722 123.929 91.9944C123.595 92.0263 123.273 92.1336 122.985 92.3083C122.421 92.7284 122.01 93.3251 121.819 94.0049C120.882 96.6582 120.043 99.0574 119.441 100.799L118.742 102.862C118.661 103.093 118.601 103.28 118.556 103.422C118.541 103.478 118.534 103.536 118.534 103.594Z" fill="#263238"/>
<path d="M321.42 329.477C321.42 329.581 253.053 329.671 168.747 329.671C84.4401 329.671 16.0586 329.581 16.0586 329.477C16.0586 329.372 84.4253 329.275 168.747 329.275C253.068 329.275 321.42 329.365 321.42 329.477Z" fill="#263238"/>
</svg>
