<svg width="48" height="48" viewBox="0 0 48 48" fill="none" xmlns="http://www.w3.org/2000/svg">
<path d="M21 31L19 24" stroke="white" stroke-linecap="round"/>
<path d="M17 13L13 19M31 13L35 19" stroke="white" stroke-linecap="round"/>
<path d="M27 31L29 24" stroke="white" stroke-linecap="round"/>
<path d="M9 19V19C9.37518 19 9.56277 19 9.72757 19.0277C10.4121 19.1429 10.988 19.6049 11.249 20.2481C11.3118 20.403 11.3525 20.5861 11.4339 20.9524L14.3039 33.8677C14.6376 35.3694 14.8045 36.1202 15.3529 36.5601C15.9013 37 16.6704 37 18.2087 37H29.7913C31.3296 37 32.0987 37 32.6471 36.5601C33.1955 36.1202 33.3624 35.3694 33.6961 33.8677L36.5661 20.9524C36.6475 20.5861 36.6882 20.403 36.751 20.2481C37.012 19.6049 37.5879 19.1429 38.2724 19.0277C38.4372 19 38.6248 19 39 19V19" stroke="white" stroke-linecap="round"/>
<path d="M7 19H41" stroke="white" stroke-linecap="round"/>
</svg>
