<svg width="300" height="300" viewBox="0 0 300 300" fill="none" xmlns="http://www.w3.org/2000/svg">
<path d="M211.397 37.5403V72.0397H216.24V80.4085L224.609 72.0397H270.533V37.5403H211.397Z" fill="white"/>
<path d="M252.145 54.7898C252.145 56.3372 253.399 57.5912 254.947 57.5912C256.494 57.5912 257.749 56.3372 257.749 54.7898C257.749 53.2424 256.494 51.9878 254.947 51.9878C253.399 51.9884 252.145 53.243 252.145 54.7898Z" fill="#B76E79"/>
<path d="M238.163 54.7898C238.163 56.3372 239.418 57.5912 240.965 57.5912C242.512 57.5912 243.766 56.3372 243.766 54.7898C243.766 53.2424 242.512 51.9878 240.965 51.9878C239.418 51.9884 238.163 53.243 238.163 54.7898Z" fill="#B76E79"/>
<path d="M224.181 54.7898C224.181 56.3372 225.435 57.5912 226.982 57.5912C228.529 57.5912 229.784 56.3372 229.784 54.7898C229.784 53.2424 228.529 51.9878 226.982 51.9878C225.435 51.9884 224.181 53.243 224.181 54.7898Z" fill="#B76E79"/>
<path d="M40.4104 55.5342L43.0396 59.4522L47.578 60.7422L44.6644 64.4538L44.8402 69.1686L40.4104 67.5444L35.98 69.1686L36.1558 64.4538L33.2422 60.7422L37.7806 59.4522L40.4104 55.5342Z" fill="white"/>
<path d="M60.6819 55.5342L63.3111 59.4522L67.8495 60.7422L64.9359 64.4538L65.1123 69.1686L60.6819 67.5444L56.2521 69.1686L56.4279 64.4538L53.5137 60.7422L58.0527 59.4522L60.6819 55.5342Z" fill="white"/>
<path d="M80.9537 55.5342L83.5835 59.4522L88.1219 60.7422L85.2083 64.4538L85.3841 69.1686L80.9537 67.5444L76.5239 69.1686L76.6997 64.4538L73.7861 60.7422L78.3251 59.4522L80.9537 55.5342Z" fill="white"/>
<path d="M101.226 55.5342L103.856 59.4522L108.394 60.7422L105.48 64.4538L105.656 69.1686L101.226 67.5444L96.796 69.1686L96.9712 64.4538L94.0576 60.7422L98.5966 59.4522L101.226 55.5342Z" fill="white"/>
<path d="M121.498 55.5342L124.127 59.4522L128.666 60.7422L125.753 64.4538L125.928 69.1686L121.498 67.5444L117.068 69.1686L117.244 64.4538L114.33 60.7422L118.868 59.4522L121.498 55.5342Z" stroke="#EBEBEB" stroke-width="0.6" stroke-miterlimit="10"/>
<path d="M121.498 67.5444V55.5342L118.868 59.4522L114.33 60.7422L117.244 64.4538L117.068 69.1686L121.498 67.5444Z" fill="white"/>
<path fill-rule="evenodd" clip-rule="evenodd" d="M227.618 147.106C226.442 146.372 225.417 145.304 223.844 145.46C223.242 145.522 223.373 145.022 223.368 144.694C223.34 138.78 223.322 132.872 223.297 126.962C223.295 126.532 223.32 126.178 223.788 125.941C228.294 123.649 230.238 119.163 232.991 115.327C235.935 111.232 236.934 106.801 236.221 101.904C236.028 100.574 236.646 99.9762 237.844 99.6996C239.286 99.366 240.724 99.7602 241.221 100.749C242.445 103.204 243.499 105.755 243.825 108.487C244.093 110.728 243.297 112.914 243.024 115.132C242.823 116.756 242.451 118.361 242.148 120.006C242.545 120.293 243.005 120.142 243.43 120.146C248.423 120.137 253.416 120.119 258.411 120.101C260.516 120.094 261.548 120.695 261.845 122.091C262.21 123.83 261.296 125.602 259.685 126.428C259.312 126.617 258.637 126.449 258.593 127.034C258.551 127.63 259.245 127.567 259.59 127.806C261.402 129.04 261.075 131.598 258.989 133.084C258.487 133.439 257.511 133.279 257.489 134.017C257.479 134.605 258.392 134.596 258.806 135.009C260.27 136.445 259.554 139.141 257.378 140.235C257.098 140.374 256.752 140.401 256.502 140.576C256.254 140.744 256.011 140.931 256.493 141.271C258.661 142.809 258.622 144.959 256.45 146.535C256.237 146.689 256.019 146.848 255.801 147.004C255.011 147.587 254.077 147.583 253.173 147.588C245.343 147.63 237.512 147.65 229.682 147.672C228.947 147.674 228.205 147.654 227.618 147.106Z" fill="white"/>
<path fill-rule="evenodd" clip-rule="evenodd" d="M205.317 136.755C205.305 133.001 205.309 129.242 205.266 125.489C205.258 124.724 205.335 124.349 206.271 124.357C210.854 124.397 215.43 124.381 220.011 124.315C220.909 124.303 221.05 124.611 221.047 125.41C221.047 132.967 221.065 140.525 221.128 148.083C221.137 149.044 220.875 149.317 219.91 149.305C215.467 149.269 211.023 149.273 206.584 149.358C205.478 149.38 205.324 148.992 205.333 148.024C205.377 144.268 205.329 140.513 205.317 136.755Z" fill="white"/>
<path fill-rule="evenodd" clip-rule="evenodd" d="M140.884 197.307C141.775 197.866 142.55 198.679 143.744 198.565C144.201 198.52 144.1 198.899 144.103 199.147C144.109 203.637 144.109 208.122 144.112 212.607C144.112 212.934 144.092 213.202 143.737 213.381C140.31 215.109 138.824 218.509 136.724 221.415C134.479 224.515 133.709 227.877 134.239 231.595C134.382 232.605 133.911 233.057 133.001 233.264C131.905 233.514 130.815 233.211 130.44 232.459C129.517 230.592 128.724 228.652 128.483 226.579C128.285 224.877 128.895 223.22 129.108 221.536C129.264 220.304 129.551 219.087 129.785 217.839C129.485 217.62 129.135 217.734 128.812 217.729C125.022 217.723 121.232 217.725 117.441 217.725C115.843 217.725 115.061 217.267 114.84 216.207C114.567 214.885 115.265 213.543 116.491 212.92C116.774 212.778 117.286 212.907 117.321 212.463C117.354 212.011 116.827 212.058 116.566 211.875C115.193 210.933 115.448 208.992 117.036 207.87C117.418 207.602 118.159 207.726 118.177 207.165C118.186 206.719 117.492 206.724 117.179 206.409C116.071 205.315 116.621 203.271 118.276 202.446C118.489 202.341 118.752 202.321 118.942 202.189C119.131 202.062 119.315 201.921 118.951 201.662C117.309 200.489 117.344 198.856 118.997 197.666C119.159 197.549 119.324 197.43 119.491 197.311C120.091 196.871 120.8 196.877 121.486 196.875C127.43 196.863 133.374 196.867 139.318 196.871C139.876 196.872 140.439 196.889 140.884 197.307Z" fill="white"/>
<path fill-rule="evenodd" clip-rule="evenodd" d="M157.785 205.22C157.785 208.069 157.771 210.923 157.795 213.772C157.799 214.352 157.74 214.636 157.029 214.628C153.55 214.586 150.077 214.587 146.6 214.626C145.918 214.632 145.812 214.398 145.816 213.792C145.835 208.055 145.84 202.319 145.812 196.582C145.807 195.852 146.006 195.646 146.739 195.658C150.112 195.696 153.484 195.704 156.855 195.651C157.694 195.637 157.81 195.932 157.801 196.667C157.758 199.517 157.785 202.367 157.785 205.22Z" fill="white"/>
<path d="M26.1621 271.798C105.5 271.43 194.499 271.427 273.837 271.798C194.499 272.168 105.5 272.165 26.1621 271.798Z" fill="#263238"/>
<path d="M189.74 57.4309L192.785 61.8271L197.907 63.3643L194.667 67.6189L194.787 72.9649L189.74 71.1985L184.693 72.9649L184.813 67.6189L181.573 63.3643L186.695 61.8271L189.74 57.4309Z" fill="#FFC727"/>
<path d="M84.6877 132.284L87.7327 136.68L92.8543 138.217L89.6143 142.472L89.7349 147.819L84.6877 146.052L79.6399 147.819L79.7605 142.472L76.5205 138.217L81.6427 136.68L84.6877 132.284Z" fill="#FFC727"/>
<path d="M121.77 180.634L123.292 182.832L125.853 183.601L124.233 185.728L124.294 188.401L121.77 187.518L119.246 188.401L119.307 185.728L117.687 183.601L120.247 182.832L121.77 180.634Z" fill="#FFC727"/>
<path d="M219.396 126.134L220.919 128.332L223.48 129.101L221.86 131.228L221.92 133.901L219.396 133.018L216.873 133.901L216.933 131.228L215.312 129.101L217.874 128.332L219.396 126.134Z" fill="#FFC727"/>
<path d="M172.191 48.27L173.713 50.4684L176.274 51.237L174.654 53.364L174.715 56.0376L172.191 55.1538L169.667 56.0376L169.727 53.364L168.107 51.237L170.668 50.4684L172.191 48.27Z" fill="#FFC727"/>
<path d="M48.2615 213.98C48.2615 213.98 34.9979 237.437 34.9895 237.453C32.8589 242.184 31.0751 246.369 30.3545 248.62C30.3491 248.631 30.3431 248.643 30.3437 248.657C30.0707 249.506 29.9519 250.072 30.0347 250.275C30.0407 250.292 30.0407 250.305 30.0491 250.317C31.0271 251.905 68.3339 270.036 69.8477 270.23C71.3645 270.432 72.0347 266.124 71.1479 264.266C70.2503 262.401 59.0771 249.075 59.0771 249.075L72.1013 225.525L48.2615 213.98Z" fill="#B76E79"/>
<path d="M69.2501 270.094C67.7387 269.897 31.0259 251.903 30.0503 250.319C30.0407 250.304 30.0371 250.29 30.0341 250.276C29.9495 250.073 30.0737 249.503 30.3407 248.659C30.3449 248.64 30.3461 248.634 30.3557 248.623C31.0769 246.371 32.8613 242.184 34.9877 237.451C34.9889 237.445 37.2227 233.351 38.1131 231.929L61.8407 244.193L59.0789 249.074C59.0789 249.074 69.6587 262.267 70.5509 264.127C71.4425 265.988 70.7675 270.292 69.2501 270.094Z" fill="#EBEBEB"/>
<path d="M69.9326 269.587C68.4086 269.356 31.2386 250.207 30.2882 248.579C29.9156 247.967 32.3906 242.388 35.5736 235.733C35.6078 235.664 35.6414 235.595 35.675 235.526L59.7938 247.611L59.5748 248.013C59.5748 248.013 70.5242 261.707 71.3816 263.607C72.23 265.498 71.4536 269.825 69.9326 269.587Z" fill="#2C3E50"/>
<path d="M70.2535 267.929C64.0669 264.548 38.7955 251.492 32.4235 248.619C32.3713 248.595 32.3539 248.63 32.4031 248.658C38.4619 252.144 63.8383 264.995 70.2013 268.032C70.3351 268.096 70.3843 268.001 70.2535 267.929Z" fill="white"/>
<path d="M61.5521 249.124C59.3237 247.394 56.1131 246.219 53.3237 247.005C53.2157 247.035 53.2607 247.189 53.3531 247.204C56.1809 247.691 58.7063 248.369 61.3817 249.43C61.5707 249.505 61.7123 249.248 61.5521 249.124Z" fill="white"/>
<path d="M62.7796 251.114C60.5512 249.383 57.3406 248.208 54.5512 248.994C54.4432 249.024 54.4882 249.178 54.5806 249.194C57.4084 249.68 59.9332 250.358 62.6092 251.42C62.7976 251.495 62.9392 251.237 62.7796 251.114Z" fill="white"/>
<path d="M64.0062 253.103C61.7778 251.373 58.5672 250.198 55.7778 250.984C55.6698 251.015 55.7148 251.168 55.8072 251.183C58.635 251.67 61.1598 252.348 63.8358 253.409C64.0248 253.484 64.1658 253.227 64.0062 253.103Z" fill="white"/>
<path d="M39.6677 242.85C37.6673 240.114 33.4121 243.219 35.4161 245.959C37.4165 248.695 41.6717 245.591 39.6677 242.85Z" fill="white"/>
<path opacity="0.1" d="M61.2109 250.067L63.8821 266.758C67.2469 268.431 69.5713 269.532 69.9301 269.587C71.4511 269.825 72.2299 265.498 71.3845 263.606C70.7335 262.17 64.2955 253.962 61.2109 250.067Z" fill="black"/>
<path d="M71.1863 268.547C71.7197 269.146 70.4249 271.306 69.8525 271.238C69.2801 271.169 28.8443 250.112 28.2347 249.602C27.6251 249.093 29.1521 246.752 30.0173 247.037C30.8819 247.323 71.1863 268.547 71.1863 268.547Z" fill="#263238"/>
<path d="M38.0576 229.737L64.7918 244.011C64.7918 244.011 98.537 195.921 99.212 183.285C100.144 165.834 85.2446 110.436 85.2446 110.436L61.4792 110.274C61.4792 110.274 71.1404 167.248 70.355 176.967C69.944 182.053 38.0576 229.737 38.0576 229.737Z" fill="white"/>
<path d="M67.125 238.486C65.7486 237.494 53.076 230.151 43.4268 225.461C43.362 225.43 43.3188 225.521 43.377 225.559C46.3038 227.492 65.2182 237.854 67.0542 238.589C67.1142 238.614 67.1874 238.531 67.125 238.486Z" fill="#37474F"/>
<path d="M73.654 164.795C72.55 156.458 71.3356 148.133 69.9502 139.838C68.5588 131.506 67.0918 123.178 65.3494 114.912C65.1364 113.903 64.9138 112.895 64.6936 111.887C64.6594 111.732 64.4224 111.777 64.4506 111.934C65.9152 120.136 67.4212 128.331 68.7688 136.553C70.1158 144.775 71.3728 153.012 72.5014 161.267C72.7804 163.311 73.0522 165.356 73.3168 167.402C73.5898 169.514 73.8988 171.635 73.9234 173.768C73.9468 175.818 73.6258 177.813 72.9046 179.734C72.1966 181.619 71.1886 183.37 70.1662 185.099C65.8672 192.373 46.6108 224.161 46.111 225.085C46.078 225.145 46.162 225.208 46.2016 225.148C50.8222 217.977 65.1568 195.076 69.5176 187.684C71.4844 184.351 73.7386 180.974 74.3806 177.083C75.0478 173.038 74.1856 168.808 73.654 164.795Z" fill="#37474F"/>
<path d="M66.8053 229.737C66.8053 229.737 66.5377 256.851 66.5371 256.87C66.6805 262.056 66.8989 266.6 67.2313 268.941C67.2313 268.953 67.2313 268.966 67.2373 268.979C67.3615 269.862 67.5019 270.423 67.6645 270.57C67.6771 270.582 67.6831 270.595 67.6957 270.602C69.2683 271.604 110.747 271.667 112.194 271.182C113.647 270.703 112.373 266.534 110.766 265.247C109.145 263.96 93.2815 256.834 93.2815 256.834L93.2929 229.74L66.8053 229.737Z" fill="#B76E79"/>
<path d="M66.5923 251.304C66.5923 251.304 66.5377 256.851 66.5371 256.871C66.6805 262.056 66.8989 266.601 67.2313 268.941C67.2313 268.954 67.2313 268.967 67.2373 268.979C67.4125 269.85 67.5649 270.425 67.6645 270.57C67.6771 270.583 67.6831 270.596 67.6957 270.602C69.2683 271.605 110.747 271.668 112.194 271.182C113.647 270.704 112.373 266.535 110.766 265.248C109.145 263.961 93.2815 256.835 93.2815 256.835L93.2839 251.183L66.5923 251.304Z" fill="#EBEBEB"/>
<path d="M112.214 271.131C110.745 271.598 68.9392 270.862 67.3666 269.822C66.7618 269.438 66.514 263.34 66.4264 255.963C66.4264 255.886 66.4264 255.809 66.4258 255.732L93.4024 255.906L93.3838 256.364C93.3838 256.364 109.26 263.802 110.87 265.128C112.467 266.448 113.684 270.671 112.214 271.131Z" fill="#2C3E50"/>
<path d="M111.77 269.502C104.726 269.205 76.2857 268.671 69.2999 268.913C69.2429 268.915 69.2423 268.954 69.2993 268.958C76.2749 269.405 104.718 269.707 111.768 269.617C111.917 269.615 111.918 269.508 111.77 269.502Z" fill="white"/>
<path d="M95.6479 256.484C92.8837 255.917 89.4847 256.283 87.3307 258.222C87.2473 258.297 87.3553 258.414 87.4453 258.388C90.1963 257.574 92.7613 257.065 95.6305 256.834C95.8333 256.818 95.8465 256.524 95.6479 256.484Z" fill="white"/>
<path d="M97.6284 257.726C94.8642 257.159 91.4652 257.525 89.3112 259.464C89.2278 259.539 89.3358 259.656 89.4258 259.629C92.1774 258.815 94.7418 258.306 97.611 258.075C97.8138 258.059 97.8264 257.766 97.6284 257.726Z" fill="white"/>
<path d="M99.6098 258.967C96.8456 258.401 93.446 258.767 91.2926 260.705C91.2092 260.78 91.3172 260.898 91.4072 260.871C94.1582 260.057 96.7232 259.548 99.5924 259.317C99.7946 259.301 99.8078 259.008 99.6098 258.967Z" fill="white"/>
<path d="M112.878 269.644C113.622 269.945 113.416 272.455 112.872 272.647C112.329 272.839 66.7497 271.836 65.9775 271.649C65.2053 271.462 65.5395 268.687 66.4419 268.56C67.3437 268.433 112.878 269.644 112.878 269.644Z" fill="#263238"/>
<path d="M73.2449 260.535C70.2407 258.966 67.7975 263.633 70.8071 265.204C73.8113 266.773 76.2545 262.107 73.2449 260.535Z" fill="white"/>
<path d="M84.9444 110.382C84.9444 110.382 84.9438 110.388 84.9354 110.407C84.7776 110.897 76.236 134.302 75.432 134.675C74.5212 135.095 94.3002 168.318 95.4702 183.753C96.2184 193.625 94.7514 249.489 94.7514 249.489H65.835C65.835 249.489 67.2246 199.265 67.8858 183.351C68.142 177.18 48.0318 146.456 47.7852 127.323C47.7072 121.293 52.0404 110.274 52.0404 110.274L84.9444 110.382Z" fill="white"/>
<path d="M68.0519 182.921C68.0519 182.665 67.8509 182.584 67.8311 182.845C67.1777 191.457 67.0259 200.023 66.6143 208.649C66.2039 217.25 66.4373 219.325 66.0539 227.927C65.8367 232.795 66.0425 237.676 65.9297 242.548C65.9279 242.623 66.0413 242.633 66.0491 242.557C66.9491 233.972 68.0459 187.798 68.0519 182.921Z" fill="#37474F"/>
<path d="M95.4705 184.093C95.4063 181.971 95.2671 179.843 94.8861 177.753C94.5135 175.708 93.8655 173.729 93.1005 171.8C91.5027 167.771 89.6133 163.843 87.8085 159.904C85.9803 155.914 84.1149 151.941 82.1865 147.999C81.1023 145.782 80.0121 143.57 78.9141 141.36C77.8029 139.125 76.6059 136.931 75.4425 134.723C75.3963 134.635 75.2619 134.7 75.3039 134.79C77.1573 138.769 78.9861 142.759 80.8395 146.739C82.6923 150.718 84.5127 154.713 86.3331 158.707C88.1241 162.635 89.9187 166.567 91.6065 170.541C92.4153 172.446 93.1707 174.378 93.6693 176.39C94.1799 178.453 94.3965 180.571 94.5165 182.689C94.7961 187.628 94.9335 192.582 95.4183 197.508C95.4243 197.57 95.5251 197.563 95.5269 197.502C95.6751 193.042 95.6055 188.553 95.4705 184.093Z" fill="#37474F"/>
<path d="M92.6573 243.775C90.9749 243.556 78.1643 243.114 67.4453 243.571C67.3733 243.574 67.3787 243.675 67.4477 243.681C70.9415 243.992 90.6785 244.124 92.6429 243.899C92.7083 243.892 92.7335 243.784 92.6573 243.775Z" fill="#37474F"/>
<path d="M79.4298 133.376C76.3362 134.098 73.3026 135.263 70.3878 136.511C70.2738 136.559 70.3278 136.735 70.4502 136.697C73.4856 135.746 76.572 134.855 79.551 133.739C79.785 133.651 79.6674 133.321 79.4298 133.376Z" fill="#37474F"/>
<path d="M82.3451 113.554C82.3475 113.452 82.1735 113.412 82.1627 113.521C81.8327 116.974 81.3011 119.988 80.6795 123.184C80.3909 124.668 78.3383 132.82 75.8033 131.95C75.3791 131.805 75.2009 131.354 75.1997 130.691C75.1985 129.895 75.5939 128.959 75.8045 128.189C76.2701 126.486 76.6799 124.772 77.0075 123.037C77.6201 119.799 77.9687 116.534 77.9051 113.237C77.9027 113.129 77.7479 113.121 77.7365 113.229C77.2769 117.751 76.6961 122.253 75.5609 126.662C75.0155 128.782 73.5995 131.911 75.8165 132.473C78.0755 133.045 80.1143 127.769 80.5463 126.313C81.7535 122.249 82.2431 117.779 82.3451 113.554Z" fill="#37474F"/>
<path d="M75.8507 132.18C75.5591 132.711 75.3113 133.271 75.0911 133.835C74.9201 134.274 74.7005 134.744 74.7041 135.221C74.7047 135.313 74.8247 135.334 74.8799 135.278C75.2237 134.922 75.4067 134.408 75.6239 133.967C75.8759 133.457 76.1387 132.951 76.3757 132.434C76.5329 132.091 76.0307 131.852 75.8507 132.18Z" fill="#37474F"/>
<path d="M71.0126 191.418C71.1608 187.308 71.6175 182.996 70.2693 179.029C69.6008 177.062 68.5851 175.24 67.6317 173.402C66.6291 171.469 65.6463 169.526 64.6803 167.575C60.8169 159.771 57.1767 151.844 53.9247 143.765C52.3587 139.875 50.9583 135.882 50.3985 131.707C49.8129 127.339 50.2299 122.87 51.2061 118.59C51.4497 117.52 51.7095 116.455 52.0017 115.397C52.0233 115.32 51.9075 115.276 51.8829 115.354C50.5815 119.41 49.6857 123.625 49.6275 127.898C49.5717 132.015 50.4735 136.012 51.8037 139.887C53.1891 143.923 54.9261 147.847 56.6349 151.754C58.3971 155.781 60.2259 159.779 62.1279 163.743C64.0203 167.686 66.0381 171.563 68.0343 175.454C69.0009 177.337 69.881 179.265 70.2542 181.363C70.634 183.499 70.5735 185.676 70.4925 187.834C70.1517 196.928 69.3675 227.195 69.2523 236.266C69.2379 237.418 69.2234 238.57 69.2115 239.721C69.2102 239.822 69.3638 239.837 69.3704 239.734C69.9464 230.683 70.6856 200.485 71.0126 191.418Z" fill="#37474F"/>
<path d="M64.5266 116.273C64.5224 116.208 64.4258 116.221 64.418 116.279C64.0772 118.782 63.8822 121.378 62.6738 123.648C61.565 125.732 59.6306 127.075 57.5228 128.015C56.3042 128.559 55.0364 128.987 53.7692 129.399C53.678 129.429 53.6984 129.571 53.7986 129.55C56.1902 129.054 58.6214 128.496 60.7004 127.153C62.9264 125.715 64.0706 123.414 64.4366 120.838C64.6514 119.323 64.628 117.794 64.5266 116.273Z" fill="#37474F"/>
<path d="M81.5999 76.6398C86.5109 86.0238 101.949 99.5844 106.873 100.769C112.941 102.23 126.417 92.0628 131.643 86.0736C133.803 83.5992 124.8 72.7986 120.922 73.3044C118.789 73.5822 107.864 84.558 106.058 83.8032C101.705 81.9846 95.6603 78.2694 87.0251 73.2732C82.3241 70.5534 78.5459 70.8042 81.5999 76.6398Z" fill="#EB9481"/>
<path d="M116.27 76.9222C116.27 76.9222 118.717 72.556 120.215 70.8754C121.713 69.1948 129.602 64.9852 130.608 66.6376C131.907 68.7706 127.831 72.0976 125.622 73.4668C125.622 73.4668 128.631 78.3988 126.223 81.4192C123.815 84.4396 116.27 76.9222 116.27 76.9222Z" fill="#EB9481"/>
<path d="M129.991 87.6846C131.658 86.7324 138.91 81.6947 140.616 79.8407C142.32 77.9873 146.84 72.2982 145.553 70.848C144.266 69.3984 142.81 70.9584 142.81 70.9584C142.81 70.9584 144.338 68.2536 142.909 66.9126C141.481 65.5716 139.296 68.0724 139.296 68.0724C139.296 68.0724 140.662 65.1804 139.142 63.9444C137.622 62.7084 135.845 65.5914 135.845 65.5914C135.845 65.5914 137.218 63.0054 135.537 62.5146C133.515 61.9236 131.522 66.9768 129.487 68.8818C129.025 69.3144 119.493 76.9829 119.493 76.9829L129.991 87.6846Z" fill="#EB9481"/>
<path d="M136.002 65.3471C134.528 69.0599 133.24 70.4291 130.063 72.7451C130 72.7901 130.054 72.8927 130.123 72.8513C133.442 70.8665 135.304 69.3821 136.185 65.4089C136.228 65.2151 136.072 65.1707 136.002 65.3471Z" fill="#263238"/>
<path d="M139.406 67.7753C137.539 71.4977 136.156 72.9953 133.006 75.6659C132.961 75.7037 133.021 75.7829 133.069 75.7487C136.378 73.3871 138.202 71.8637 139.579 67.8989C139.642 67.7195 139.492 67.6049 139.406 67.7753Z" fill="#263238"/>
<path d="M142.644 71.0894C140.576 74.5628 139.131 76.2698 135.74 78.47C135.66 78.5222 135.728 78.6434 135.813 78.599C139.488 76.6922 141.308 74.5748 142.743 71.1632C142.841 70.931 142.775 70.871 142.644 71.0894Z" fill="#263238"/>
<path d="M130.773 67.3411C130.554 70.1407 127.538 71.7505 125.495 73.2385C125.339 73.3513 125.376 73.5169 125.486 73.6183C126.609 75.7699 127.567 79.1311 126.38 81.4015C126.346 81.4681 126.435 81.5263 126.479 81.4645C128.082 79.2019 127.411 75.8227 126.029 73.5451C128.149 72.0517 131.102 70.3051 130.8 67.3423C130.798 67.3249 130.774 67.3231 130.773 67.3411Z" fill="#263238"/>
<path d="M98.523 78.7792L92.3946 92.9452C92.3946 92.9452 81.7218 79.7458 79.6788 74.9782C77.3796 69.6124 80.6256 69.61 85.7952 71.6272C90.9642 73.6444 98.523 78.7792 98.523 78.7792Z" fill="#2C3E50"/>
<path d="M94.6497 77.6579C94.4577 77.6459 94.2897 77.6039 94.1397 77.5139C93.8397 77.3339 93.6597 77.0159 93.6657 76.6679C93.6597 76.2179 93.3657 75.7859 92.9517 75.6299C92.7537 75.5459 92.5137 75.5459 92.3277 75.5699C92.1357 75.5939 91.9377 75.6119 91.7397 75.6479C91.9377 75.6779 92.1357 75.6959 92.3277 75.7199C92.5317 75.7319 92.6937 75.7679 92.8497 75.8519C93.1557 76.0199 93.3537 76.3379 93.3537 76.6739C93.3417 77.1179 93.6237 77.5619 94.0317 77.7299C94.2237 77.8259 94.4577 77.8379 94.6497 77.8139C94.8477 77.7839 95.0457 77.7719 95.2377 77.7359C95.0457 77.6999 94.8477 77.6819 94.6497 77.6579ZM79.6317 74.3939C79.6077 74.1959 79.5897 74.0039 79.5537 73.8059C79.5177 74.0039 79.5057 74.1959 79.4817 74.3939C79.4817 74.4179 79.4757 74.4419 79.4697 74.4659C79.5177 74.5859 79.5657 74.7059 79.6197 74.8379C79.6557 74.6879 79.6497 74.5259 79.6317 74.3939ZM89.3457 82.9739C89.1957 83.1059 89.0517 83.1899 88.8777 83.2319C88.5417 83.3159 88.1877 83.2199 87.9477 82.9739C87.6237 82.6559 87.1077 82.5599 86.7117 82.7399C86.5077 82.8239 86.3397 82.9919 86.2257 83.1419C86.1057 83.2979 85.9797 83.4419 85.8657 83.6099C86.0277 83.4959 86.1777 83.3699 86.3337 83.2499C86.4837 83.1119 86.6217 83.0219 86.7957 82.9679C87.1257 82.8719 87.4917 82.9619 87.7317 83.1959C88.0377 83.5139 88.5477 83.6339 88.9557 83.4659C89.1597 83.3939 89.3337 83.2379 89.4537 83.0819C89.5737 82.9259 89.6997 82.7759 89.8137 82.6139C89.6517 82.7279 89.5017 82.8539 89.3457 82.9739Z" fill="white"/>
<path d="M95.7453 78.1697C94.7205 79.8677 92.3655 85.3937 91.9671 86.3033C91.7571 86.7827 91.0029 88.7327 90.7899 89.2091C90.7623 89.2703 90.8619 89.3009 90.8889 89.2403C91.2957 88.3307 91.7985 87.4613 92.2137 86.5529C92.6385 85.6235 95.2281 80.1101 95.8155 78.2021C95.8281 78.1607 95.7687 78.1313 95.7453 78.1697Z" fill="#263238"/>
<path opacity="0.1" d="M79.6804 74.9753C81.7198 79.7441 92.3944 92.9429 92.3944 92.9429L95.551 85.6433L80.7184 70.3877C78.9124 70.4807 78.3106 71.7749 79.6804 74.9753Z" fill="black"/>
<path d="M48.1285 116.535C48.1291 116.531 89.0041 124.451 89.0035 124.455C88.8469 125.256 90.7549 96.2459 87.7693 76.1213C86.8861 70.1681 80.2051 67.3565 73.9627 72.6155C60.8131 83.6921 48.0271 117.055 48.1285 116.535Z" fill="#2C3E50"/>
<path d="M56.5971 97.8899C56.5311 98.0219 56.4651 98.1479 56.4051 98.2739C56.4471 98.2319 56.4891 98.1839 56.5251 98.1419C56.6391 97.9859 56.7711 97.8359 56.8791 97.6739C56.7831 97.7399 56.6871 97.8179 56.5971 97.8899ZM88.6131 116.472C88.2951 116.154 87.7791 116.064 87.3771 116.244C87.1731 116.322 87.0051 116.49 86.8911 116.64C86.7711 116.796 86.6451 116.946 86.5311 117.108C86.6931 116.994 86.8431 116.868 86.9991 116.748C87.1551 116.616 87.2871 116.52 87.4611 116.472C87.7911 116.376 88.1631 116.46 88.3971 116.7C88.6191 116.928 88.9491 117.054 89.2671 117.048C89.2671 116.952 89.2731 116.856 89.2731 116.76C89.0271 116.754 88.7931 116.652 88.6131 116.472ZM64.6431 118.644C64.4931 118.776 64.3491 118.86 64.1751 118.908C63.8391 118.992 63.4851 118.89 63.2451 118.644C62.9211 118.326 62.4051 118.236 62.0031 118.416C61.8051 118.494 61.6371 118.662 61.5231 118.812C61.4511 118.902 61.3791 118.992 61.3071 119.088L61.3911 119.1C61.3971 119.106 61.3971 119.106 61.3971 119.1C61.4751 119.04 61.5531 118.98 61.6311 118.92C61.7811 118.788 61.9191 118.692 62.0871 118.644C62.4231 118.548 62.7891 118.632 63.0291 118.872C63.3351 119.184 63.8451 119.31 64.2531 119.136C64.4571 119.064 64.6311 118.908 64.7511 118.752C64.8711 118.596 64.9971 118.452 65.1111 118.284C64.9491 118.398 64.7991 118.524 64.6431 118.644ZM75.3591 97.5359C75.2091 97.6679 75.0651 97.7519 74.8971 97.7939C74.5551 97.8839 74.2011 97.7819 73.9611 97.5359C73.6371 97.2179 73.1211 97.1219 72.7251 97.3079C72.5211 97.3859 72.3531 97.5539 72.2391 97.7039C72.1191 97.8599 71.9931 98.0099 71.8791 98.1719C72.0411 98.0579 72.1911 97.9319 72.3471 97.8119C72.4971 97.6739 72.6351 97.5839 72.8091 97.5359C73.1391 97.4339 73.5111 97.5239 73.7451 97.7579C74.0511 98.0759 74.5611 98.1959 74.9691 98.0279C75.1731 97.9559 75.3531 97.7999 75.4671 97.6439C75.5871 97.4879 75.7131 97.3379 75.8271 97.1759C75.6651 97.2899 75.5151 97.4159 75.3591 97.5359ZM88.6011 83.2559C88.3551 83.2499 88.1211 83.1539 87.9471 82.9739C87.6231 82.6559 87.1071 82.5599 86.7111 82.7399C86.5071 82.8239 86.3391 82.9919 86.2251 83.1419C86.1051 83.2979 85.9791 83.4419 85.8651 83.6099C86.0271 83.4959 86.1771 83.3699 86.3331 83.2499C86.4831 83.1119 86.6211 83.0219 86.7951 82.9679C87.1251 82.8719 87.4911 82.9619 87.7311 83.1959C87.9591 83.4299 88.3011 83.5619 88.6251 83.5379C88.6251 83.4419 88.6131 83.3519 88.6011 83.2559ZM89.2911 94.6319C88.9131 94.6919 88.5591 94.9499 88.4151 95.2979C88.3251 95.4959 88.3131 95.7299 88.3371 95.9219C88.3611 96.1139 88.3791 96.3119 88.4151 96.5039C88.4511 96.3119 88.4631 96.1139 88.4871 95.9219C88.5051 95.7239 88.5471 95.5559 88.6371 95.4059C88.7811 95.1599 89.0271 94.9919 89.3031 94.9439C89.2971 94.8419 89.2911 94.7399 89.2911 94.6319ZM65.3031 90.1019C65.2791 89.9039 65.2611 89.7059 65.2251 89.5139C65.1891 89.7059 65.1771 89.9039 65.1471 90.1019C65.1351 90.2999 65.1051 90.4619 65.0211 90.6179C64.8531 90.9239 64.5291 91.1219 64.1991 91.1219C63.7551 91.1159 63.3051 91.3919 63.1371 91.7999C63.0471 91.9979 63.0351 92.2319 63.0591 92.4239C63.0831 92.6219 63.1011 92.8139 63.1371 93.0119C63.1731 92.8139 63.1851 92.6219 63.2151 92.4239C63.2271 92.2259 63.2691 92.0639 63.3591 91.9079C63.5391 91.6139 63.8571 91.4279 64.2051 91.4339C64.6551 91.4339 65.0871 91.1339 65.2431 90.7199C65.3271 90.5219 65.3271 90.2879 65.3031 90.1019ZM56.0271 109.992C56.0031 109.8 55.9851 109.602 55.9491 109.404C55.9131 109.602 55.9011 109.8 55.8771 109.992C55.8651 110.196 55.8291 110.358 55.7451 110.514C55.5771 110.82 55.2591 111.018 54.9231 111.018C54.4791 111.006 54.0351 111.288 53.8671 111.696C53.7711 111.888 53.7591 112.122 53.7831 112.32C53.8131 112.512 53.8251 112.71 53.8611 112.902C53.8971 112.71 53.9091 112.512 53.9391 112.32C53.9511 112.122 53.9931 111.954 54.0831 111.804C54.2631 111.504 54.5811 111.324 54.9291 111.33C55.3791 111.324 55.8111 111.03 55.9671 110.616C56.0511 110.418 56.0511 110.178 56.0271 109.992ZM74.9751 108.762C74.9511 108.57 74.9331 108.372 74.8971 108.18C74.8611 108.372 74.8491 108.57 74.8191 108.762C74.8071 108.966 74.7771 109.128 74.6931 109.284C74.5251 109.59 74.2011 109.788 73.8711 109.788C73.4271 109.782 72.9831 110.058 72.8091 110.466C72.7191 110.658 72.7071 110.892 72.7311 111.09C72.7551 111.282 72.7731 111.48 72.8091 111.672C72.8451 111.48 72.8571 111.282 72.8871 111.09C72.8991 110.892 72.9411 110.724 73.0311 110.574C73.2111 110.274 73.5291 110.094 73.8771 110.1C74.3271 110.094 74.7591 109.8 74.9151 109.386C74.9991 109.188 74.9991 108.948 74.9751 108.762ZM79.6311 74.3939C79.6071 74.1959 79.5891 74.0039 79.5531 73.8059C79.5171 74.0039 79.5051 74.1959 79.4811 74.3939C79.4631 74.5979 79.4331 74.7599 79.3491 74.9159C79.1811 75.2159 78.8571 75.4199 78.5271 75.4139C78.0831 75.4079 77.6391 75.6839 77.4651 76.0919C77.3751 76.2899 77.3631 76.5239 77.3871 76.7159C77.4111 76.9139 77.4291 77.1059 77.4651 77.3039C77.5011 77.1059 77.5131 76.9139 77.5431 76.7159C77.5551 76.5179 77.5971 76.3559 77.6871 76.2059C77.8671 75.9059 78.1851 75.7199 78.5331 75.7319C78.9831 75.7259 79.4151 75.4259 79.5711 75.0179C79.6551 74.8199 79.6551 74.5799 79.6311 74.3939ZM67.9671 81.4799C67.8171 81.6179 67.6791 81.7079 67.5111 81.7559C67.1751 81.8579 66.8091 81.7679 66.5751 81.5339C66.5031 81.4559 66.4131 81.3899 66.3171 81.3419C66.2631 81.4259 66.2031 81.5099 66.1371 81.5939C66.2151 81.6359 66.2871 81.6899 66.3531 81.7559C66.6771 82.0739 67.1931 82.1699 67.5951 81.9839C67.7931 81.9059 67.9611 81.7379 68.0751 81.5879C68.1951 81.4319 68.3271 81.2819 68.4351 81.1199C68.2731 81.2339 68.1231 81.3599 67.9671 81.4799ZM85.7451 104.778C85.5471 104.766 85.3851 104.724 85.2291 104.634C84.9351 104.454 84.7491 104.13 84.7551 103.788C84.7551 103.338 84.4551 102.906 84.0411 102.75C83.8431 102.666 83.6091 102.666 83.4231 102.69C83.2251 102.714 83.0271 102.732 82.8351 102.762C83.0271 102.798 83.2251 102.816 83.4231 102.84C83.6211 102.852 83.7831 102.888 83.9391 102.972C84.2451 103.134 84.4431 103.458 84.4431 103.794C84.4371 104.232 84.7131 104.682 85.1211 104.85C85.3191 104.946 85.5531 104.958 85.7451 104.934C85.9431 104.904 86.1351 104.892 86.3331 104.856C86.1351 104.82 85.9431 104.802 85.7451 104.778ZM75.0711 121.32C75.0711 120.864 74.7711 120.438 74.3571 120.282C74.1591 120.192 73.9251 120.192 73.7391 120.222C73.5411 120.246 73.3431 120.258 73.1511 120.294C73.3431 120.33 73.5411 120.348 73.7391 120.372C73.9371 120.384 74.0991 120.414 74.2551 120.504C74.5611 120.666 74.7591 120.99 74.7591 121.326C74.7591 121.452 74.7771 121.584 74.8251 121.704L75.1851 121.776C75.1071 121.638 75.0711 121.482 75.0711 121.32ZM64.3371 105.912C64.1391 105.9 63.9771 105.858 63.8211 105.768C63.5211 105.588 63.3411 105.27 63.3471 104.922C63.3471 104.472 63.0471 104.04 62.6331 103.884C62.4351 103.8 62.1951 103.8 62.0091 103.824C61.8171 103.848 61.6191 103.866 61.4271 103.902C61.6191 103.932 61.8171 103.95 62.0091 103.974C62.2131 103.986 62.3751 104.022 62.5311 104.106C62.8371 104.274 63.0351 104.592 63.0351 104.928C63.0291 105.372 63.3051 105.816 63.7131 105.984C63.9111 106.08 64.1451 106.092 64.3371 106.068C64.5291 106.038 64.7271 106.026 64.9191 105.99C64.7271 105.954 64.5291 105.936 64.3371 105.912ZM78.7491 88.6559C78.5571 88.6439 78.3891 88.6019 78.2391 88.5059C77.9391 88.3319 77.7591 88.0079 77.7651 87.6659C77.7591 87.2099 77.4591 86.7839 77.0511 86.6279C76.8531 86.5379 76.6131 86.5379 76.4271 86.5619C76.2291 86.5919 76.0371 86.6039 75.8391 86.6399C76.0371 86.6759 76.2291 86.6939 76.4271 86.7179C76.6311 86.7299 76.7931 86.7599 76.9491 86.8499C77.2491 87.0119 77.4531 87.3359 77.4531 87.6719C77.4411 88.1099 77.7231 88.5599 78.1251 88.7279C78.3231 88.8179 78.5571 88.8359 78.7491 88.8059C78.9471 88.7819 79.1451 88.7639 79.3371 88.7279C79.1451 88.6979 78.9471 88.6799 78.7491 88.6559Z" fill="white"/>
<path d="M85.0474 77.4138C83.0566 77.8476 78.967 75.4392 77.6032 72.5814C77.5108 72.3852 77.914 70.3968 78.2896 67.9584C78.5116 66.4776 78.724 64.8234 78.8092 63.3C78.8248 62.9874 88.234 66.1536 88.234 66.1536C88.234 66.1536 87.1168 69.2946 86.9854 71.9514C86.977 72.1734 86.9872 72.381 87.016 72.5802C87.0178 72.609 87.0238 72.6444 87.0244 72.6846C87.1516 73.8828 87.1774 76.9494 85.0474 77.4138Z" fill="#EB9481"/>
<path d="M87.0185 72.5795C87.0179 72.6101 87.0233 72.6473 87.0221 72.6839C86.7215 72.7079 86.3963 72.7067 86.0417 72.6803C80.4251 72.2429 79.3331 65.1209 79.1465 63.3215C80.8307 63.6593 88.2341 66.1529 88.2341 66.1529C88.2341 66.1529 87.1163 69.2969 86.9837 71.9537C86.9789 72.1739 86.9861 72.3827 87.0185 72.5795Z" fill="#263238"/>
<path d="M77.6969 51.3414C76.5809 54.7086 78.1373 64.5504 80.4977 66.7932C83.9195 70.044 89.6387 70.4838 92.4299 66.3444C95.1359 62.3316 92.8805 49.5414 90.2333 47.4912C86.3339 44.472 79.3463 46.3674 77.6969 51.3414Z" fill="#EB9481"/>
<path d="M87.1159 57.4359C87.1069 57.4113 87.0685 57.4755 87.0739 57.5025C87.1969 58.1625 87.2257 58.9395 86.6593 59.2515C86.6419 59.2611 86.6485 59.2941 86.6707 59.2881C87.3871 59.0721 87.3373 58.0413 87.1159 57.4359Z" fill="#263238"/>
<path d="M86.4167 56.8337C85.3373 56.9159 85.5815 59.0693 86.5817 58.9925C87.5657 58.9175 87.3215 56.7647 86.4167 56.8337Z" fill="#263238"/>
<path d="M90.9886 57.1072C90.991 57.0808 91.0444 57.1324 91.0468 57.16C91.1014 57.829 91.2766 58.5862 91.9048 58.7398C91.9246 58.7446 91.9264 58.7782 91.9036 58.7776C91.1554 58.7572 90.9328 57.7492 90.9886 57.1072Z" fill="#263238"/>
<path d="M91.5059 56.3429C92.5691 56.1401 92.8973 58.2815 91.9121 58.4693C90.9425 58.6547 90.6143 56.5133 91.5059 56.3429Z" fill="#263238"/>
<path d="M85.456 55.9458C85.741 55.839 85.9858 55.6926 86.2564 55.5576C86.5618 55.4052 86.821 55.3152 86.9974 55.0062C87.0916 54.84 87.0142 54.5706 86.8618 54.4638C86.5066 54.2142 86.086 54.3078 85.711 54.4764C85.3036 54.6588 85.0366 54.9042 84.8368 55.302C84.6424 55.6878 85.0804 56.0874 85.456 55.9458Z" fill="#263238"/>
<path d="M92.2139 55.1646C91.9097 55.1496 91.632 55.0854 91.3332 55.0398C90.9954 54.9882 90.7218 54.9816 90.459 54.741C90.318 54.612 90.3095 54.3312 90.4223 54.1824C90.6845 53.8368 91.1135 53.7972 91.5221 53.8428C91.9655 53.892 92.2949 54.0438 92.6069 54.3618C92.9099 54.6702 92.6147 55.1844 92.2139 55.1646Z" fill="#263238"/>
<path d="M87.202 63.6953C87.3796 63.8333 87.5632 64.0301 87.8074 64.0229C88.042 64.0163 88.3018 63.8807 88.5052 63.7739C88.5256 63.7637 88.5496 63.7835 88.5382 63.8051C88.3942 64.0805 88.048 64.2821 87.733 64.2629C87.4252 64.2443 87.2464 64.0001 87.1414 63.7325C87.1264 63.6953 87.1762 63.6755 87.202 63.6953Z" fill="#263238"/>
<path d="M87.6749 61.6193C88.1135 62.1557 88.6985 62.4101 89.3051 62.4575C89.5763 62.4803 89.8559 62.4581 90.1259 62.4023C90.1793 62.3951 90.2327 62.3831 90.2801 62.3669C90.3281 62.3555 90.3713 62.3447 90.4241 62.3279C90.5009 62.3075 90.5363 62.2385 90.5411 62.1635L90.5405 62.1587C90.5375 62.1341 90.5345 62.1143 90.5267 62.0909C90.5267 62.0909 90.5267 62.0909 90.5261 62.0861L90.5183 62.0279C90.4745 61.5131 90.3359 60.7379 90.3359 60.7379C90.5339 60.8105 91.5395 61.1327 91.4939 60.8657C91.1093 58.6601 90.6821 56.2073 89.8331 54.0935C89.8085 54.0227 89.6987 54.0521 89.7131 54.1247C89.9987 56.2589 90.6581 58.3289 90.9791 60.4679C90.6605 60.3869 90.1385 60.2285 89.8703 60.2645C89.7995 60.2939 90.1643 61.7579 90.1661 61.9907C90.1661 61.9907 90.1673 62.0003 90.1643 62.0159C89.3141 62.2241 88.6343 62.0369 87.7313 61.5527C87.6761 61.5197 87.6287 61.5707 87.6749 61.6193Z" fill="#263238"/>
<path d="M89.9808 62.2793C89.9808 62.2793 89.55 62.9927 88.896 63.2975C88.6554 63.4103 88.3902 63.4715 88.1016 63.4229C87.5094 63.3257 87.4446 62.7965 87.5076 62.3327C87.5586 61.9511 87.7008 61.6133 87.7008 61.6133C87.7008 61.6133 88.6194 62.3237 89.9808 62.2793Z" fill="#263238"/>
<path d="M88.896 63.2976C88.6554 63.4104 88.3902 63.4716 88.1016 63.423C87.5094 63.3258 87.4446 62.7966 87.5076 62.3328C88.1334 62.3376 88.7862 62.7006 88.896 63.2976Z" fill="#FF9ABB"/>
<path d="M80.8563 56.8368C81.4899 54.9156 80.3655 51.7182 81.3147 50.85C83.3703 48.9714 87.6387 52.5048 90.5487 52.4982C93.3693 52.4916 94.2969 50.67 93.7683 48.3858C93.2397 46.101 91.2825 44.58 88.1133 44.1336C84.8343 43.6722 81.8607 45.0168 80.2467 46.0704C80.2467 46.0704 80.9493 44.922 80.6799 44.5686C80.4105 44.2158 79.0383 45.3258 78.6201 45.798C78.1953 46.2774 77.9415 47.163 77.9415 47.163C77.9415 47.163 77.4255 47.0142 76.6527 47.0406C75.9357 47.0652 75.0369 47.6346 74.9871 47.8032C74.9373 47.9724 75.9651 48.0948 76.6851 48.1248C76.6851 48.1248 75.3585 49.9182 75.3999 51.4428C75.4413 52.9674 77.8755 60.1914 78.4461 60.2646C79.1799 60.3594 80.5989 57.6174 80.8563 56.8368Z" fill="#263238"/>
<path d="M76.9618 47.9375C76.987 47.9225 77.0212 47.9573 76.9972 47.9783C76.3162 48.5765 75.766 49.2713 75.49 50.1479C75.169 51.1673 75.2476 52.2629 75.4858 53.2907C75.949 55.2899 76.9426 57.0989 77.8096 58.9403C77.8348 58.9943 77.7442 59.0387 77.7154 58.9865C76.6726 57.0947 75.6112 55.0391 75.2062 52.9007C74.8606 51.0773 75.2662 48.9731 76.9618 47.9375Z" fill="#263238"/>
<path d="M81.197 50.1108C82.0238 49.9884 82.946 50.0592 83.7572 50.2566C84.5564 50.4516 85.2422 50.9418 85.9598 51.324C87.569 52.1814 89.3324 52.8414 91.1834 52.7118C91.2074 52.71 91.2086 52.7454 91.1852 52.7484C89.4944 52.9752 87.8348 52.4856 86.3258 51.7494C85.5644 51.378 84.8444 50.844 84.0428 50.5668C83.132 50.2518 82.1552 50.2734 81.2054 50.262C81.107 50.2614 81.1004 50.1252 81.197 50.1108Z" fill="#263238"/>
<path d="M81.9795 45.2544C83.1087 44.6652 84.3405 44.2745 85.5885 44.0285C86.7855 43.7921 88.0239 43.6842 89.2359 43.8714C91.3281 44.1942 93.2613 45.5094 93.7689 47.6514C94.0263 48.7368 93.9219 49.9314 93.3705 50.913C93.3333 50.979 93.2349 50.9286 93.2655 50.8596C94.1091 48.9738 93.7533 46.698 92.1471 45.3264C90.4221 43.8534 88.0143 43.7591 85.8789 44.1185C84.5349 44.3447 83.2515 44.7689 81.9867 45.2687C81.9777 45.2711 81.9711 45.258 81.9795 45.2544Z" fill="#263238"/>
<path d="M79.9824 59.498C79.9824 59.498 77.778 56.3198 76.3368 57.1046C74.8956 57.8894 76.5444 62.4902 78.2304 63.1256C79.9164 63.7604 80.535 62.2112 80.535 62.2112L79.9824 59.498Z" fill="#EB9481"/>
<path d="M76.8421 58.4112C76.8151 58.4088 76.8097 58.4466 76.8331 58.4562C78.0151 58.9404 78.6343 60.0408 79.0663 61.1808C78.7159 60.741 78.2371 60.4992 77.6491 60.9162C77.6185 60.9378 77.6479 60.9864 77.6809 60.9798C78.1663 60.8778 78.5161 60.963 78.8419 61.353C79.0729 61.629 79.2301 61.9776 79.3951 62.2956C79.4503 62.4018 79.6417 62.346 79.6015 62.2236C79.5985 62.2146 79.5955 62.2056 79.5919 62.196C79.6273 60.6864 78.4621 58.5696 76.8421 58.4112Z" fill="#263238"/>
<path d="M154.298 46.4825L179.93 83.4887L214.448 91.1219L223.046 96.4307L195.772 132.244L196.787 177.248L154.298 162.376L111.81 177.248L103.212 171.94L112.824 132.244L85.5508 96.4307L128.666 83.4887L145.7 41.1743L154.298 46.4825Z" fill="#FFC727"/>
<path opacity="0.1" d="M154.298 46.4825L179.93 83.4887L214.448 91.1219L223.046 96.4307L195.772 132.244L196.787 177.248L154.298 162.376L111.81 177.248L103.212 171.94L112.824 132.244L85.5508 96.4307L128.666 83.4887L145.7 41.1743L154.298 46.4825Z" fill="black"/>
<path d="M145.701 41.1743L171.333 78.1799L214.448 91.1219L187.174 126.935L188.189 171.94L145.701 157.067L103.212 171.94L104.227 126.935L76.9531 91.1219L120.069 78.1799L145.701 41.1743Z" fill="#FFC727"/>
<g opacity="0.2">
<path d="M103.764 147.45L104.226 126.936L98.3164 119.172L158.226 59.262L171.33 78.18L172.638 78.576L103.764 147.45Z" fill="white"/>
<path d="M209.334 89.586L139.782 159.138L119.832 166.122L199.362 86.592L209.334 89.586Z" fill="white"/>
<path d="M99.4145 84.3782L83.7485 100.044L78.1445 92.6882L80.8925 89.9402L99.4145 84.3782Z" fill="white"/>
<path d="M156.145 56.256L96.1145 116.286L95.5625 115.56L155.622 55.5L156.145 56.256Z" fill="white"/>
<path d="M187.74 151.974L173.064 166.65L172.122 166.32L187.71 150.732L187.74 151.974Z" fill="white"/>
</g>
<path d="M71.6049 79.644C70.1145 89.556 66.4125 110.045 70.5603 116.208C76.0029 124.295 94.1955 129.799 98.9619 131.435C101.038 132.148 106.593 118.622 105.447 116.572C104.302 114.523 85.4217 106.79 84.1419 105.589C82.8621 104.387 81.2151 88.1514 79.5537 79.806C77.4585 69.2796 72.8661 71.2536 71.6049 79.644Z" fill="#EB9481"/>
<path d="M111.112 121.404C110.37 120.566 110.805 120.171 112.763 120.527C114.746 120.882 122.171 123.954 123.023 121.265C123.882 118.568 113.302 114.393 109.995 114.051C106.689 113.7 101.22 114.312 101.22 114.312C103.115 115.538 107.426 118.951 111.112 121.404Z" fill="#EB9481"/>
<path d="M93.7725 129.168C99.2355 132.426 105.837 136.817 113.014 136.859C114.421 136.868 115.236 136.167 115.236 136.167C118.452 136.243 119.454 134.747 119.454 134.747C122.471 133.901 123.285 132.23 123.285 132.23C123.285 132.23 127.062 132.278 127.47 130.001C127.936 127.448 122.54 127.879 119.428 126.302C112.297 122.689 103.171 115.559 101.218 114.312L93.7725 129.168Z" fill="#EB9481"/>
<path d="M109.294 127.767C111.413 128.789 113.469 129.848 115.716 130.577C118.181 131.377 120.688 131.733 123.231 132.16C123.31 132.173 123.3 132.285 123.22 132.284C118.494 132.241 113.176 130.47 109.246 127.863C109.15 127.8 109.187 127.716 109.294 127.767Z" fill="#263238"/>
<path d="M106.487 131.754C108.605 132.634 112.337 134.156 119.459 134.671C119.483 134.673 119.487 134.713 119.461 134.714C114.793 134.995 110.564 133.986 106.445 131.855C106.318 131.789 106.347 131.696 106.487 131.754Z" fill="#263238"/>
<path d="M105.02 133.925C108.677 135.284 111.156 135.677 115.222 136.149C115.244 136.152 115.246 136.193 115.22 136.192C110.543 136.141 108.853 135.593 104.955 134.045C104.821 133.991 104.877 133.872 105.02 133.925Z" fill="#263238"/>
<path d="M82.2955 91.2137L67.7617 96.0479C67.7617 96.0479 70.4695 79.4219 72.6457 74.7575C75.0949 69.5075 77.2435 71.9081 79.1701 77.0669C81.0961 82.2251 82.2955 91.2137 82.2955 91.2137Z" fill="#283848"/>
<path d="M78.7498 88.6558C78.5578 88.6438 78.3898 88.6018 78.2398 88.5058C77.9398 88.3318 77.7598 88.0078 77.7658 87.6658C77.7598 87.2098 77.4598 86.7838 77.0518 86.6278C76.8538 86.5378 76.6138 86.5378 76.4278 86.5618C76.2298 86.5918 76.0378 86.6038 75.8398 86.6398C76.0378 86.6758 76.2298 86.6938 76.4278 86.7178C76.6318 86.7298 76.7938 86.7598 76.9498 86.8498C77.2498 87.0118 77.4538 87.3358 77.4538 87.6718C77.4418 88.1098 77.7238 88.5598 78.1258 88.7278C78.3238 88.8178 78.5578 88.8358 78.7498 88.8058C78.9478 88.7818 79.1458 88.7638 79.3378 88.7278C79.1458 88.6978 78.9478 88.6798 78.7498 88.6558ZM78.5038 75.4138C78.0658 75.4198 77.6398 75.6958 77.4658 76.0918C77.3758 76.2898 77.3638 76.5238 77.3878 76.7158C77.4118 76.9138 77.4298 77.1058 77.4658 77.3038C77.5018 77.1058 77.5138 76.9138 77.5438 76.7158C77.5558 76.5178 77.5978 76.3558 77.6878 76.2058C77.8678 75.9058 78.1858 75.7198 78.5338 75.7318C78.5698 75.7318 78.5998 75.7318 78.6358 75.7198C78.5878 75.6178 78.5458 75.5158 78.5038 75.4138Z" fill="white"/>
<path d="M80.9106 88.7554C78.9762 89.1202 73.3308 91.0324 72.3942 91.339C71.9004 91.501 69.9594 92.2324 69.4656 92.3896C69.4026 92.41 69.4452 92.5036 69.5082 92.4838C70.4502 92.1838 71.4258 91.9804 72.3726 91.687C73.341 91.3864 79.1328 89.6566 80.9334 88.8292C80.9724 88.8106 80.9544 88.747 80.9106 88.7554Z" fill="#263238"/>
<path d="M70.7267 81.2524C70.7387 81.1816 70.6379 81.1702 70.6199 81.2356C70.2311 82.6138 69.8777 84.0022 69.5465 85.3954C69.5393 84.6448 69.6239 83.9062 69.7541 83.158C69.7601 83.125 69.7109 83.1178 69.7031 83.1496C69.5003 83.9854 69.4487 84.8698 69.4673 85.7332C69.2387 86.7052 69.0185 87.679 68.8103 88.6546C68.2805 91.1374 67.7195 93.6214 67.3331 96.1318C67.3127 96.2656 67.4465 96.3664 67.5701 96.3202C68.0693 96.1354 68.5613 95.9392 69.0473 95.7214C69.0977 95.6986 69.0821 95.6104 69.0221 95.6224C68.5889 95.7082 68.1635 95.8168 67.7375 95.9272C68.3135 93.5428 68.7671 91.1278 69.2747 88.7284C69.7991 86.245 70.3025 83.755 70.7267 81.2524Z" fill="#263238"/>
<path d="M81.4426 84.6946C81.388 83.8882 81.3316 83.0818 81.2494 82.2766C81.2476 82.2598 81.223 82.2634 81.2236 82.2796C81.2404 82.8742 81.2716 83.4682 81.307 84.0616C81.0502 82.9024 80.7724 81.7486 80.4436 80.614C80.4388 80.5972 80.4118 80.6044 80.4142 80.6218C80.656 82.4014 80.9956 84.1678 81.2794 85.942C81.5578 87.6826 81.8656 89.416 82.1752 91.1512C81.8614 91.3126 81.5452 91.4668 81.226 91.6168C81.1648 91.6456 81.2008 91.7302 81.2644 91.7128C81.6364 91.6078 82.0078 91.5046 82.384 91.4164C82.4728 91.3954 82.5466 91.3282 82.534 91.228C82.2574 89.0476 81.898 86.8588 81.4426 84.6946Z" fill="#263238"/>
<path d="M127.719 271.516C129.185 272.047 172.62 272.903 174.255 271.906C174.446 271.804 175.154 257.434 175.154 257.434C175.101 257.23 175.827 255.845 176.934 253.921C180.032 248.516 186.086 238.837 186.086 238.837L160.307 231.042L149.717 252.255L147.018 257.668C147.018 257.668 141.097 259.982 135.932 262.291C135.925 262.297 135.918 262.297 135.918 262.304C132.736 263.72 129.969 265.018 129.323 265.502C127.662 266.778 126.252 270.998 127.719 271.516Z" fill="#B76E79"/>
<path d="M127.719 271.516C129.185 272.047 172.62 272.904 174.255 271.906C174.446 271.804 175.154 257.434 175.154 257.434C175.101 257.23 175.827 255.845 176.934 253.921L149.717 252.255L147.018 257.668C147.018 257.668 141.098 259.983 135.933 262.291C135.926 262.297 135.918 262.297 135.918 262.305C132.737 263.72 129.969 265.018 129.323 265.502C127.662 266.778 126.252 270.998 127.719 271.516Z" fill="white"/>
<path d="M127.536 271.678C129.047 272.212 172.538 272.958 174.215 271.938C174.853 271.555 175.621 264.86 175.152 257.434L147.112 256.987C147.112 256.987 130.874 264.164 129.155 265.48C127.445 266.797 126.026 271.144 127.536 271.678Z" fill="#2C3E50"/>
<path opacity="0.1" d="M174.214 271.937C173.602 272.307 167.423 272.447 159.745 272.447L174.467 257.425L174.472 257.419L175.154 257.435C175.621 264.86 174.853 271.555 174.214 271.937Z" fill="black"/>
<path d="M128.189 269.949C135.483 269.895 164.906 270.365 172.12 270.866C172.178 270.871 172.178 270.91 172.119 270.912C164.891 271.123 135.473 270.415 128.187 270.068C128.034 270.061 128.036 269.95 128.189 269.949Z" fill="white"/>
<path d="M131.98 263.964C133.709 263.923 135.385 264.773 136.31 265.819C137.199 266.824 137.95 268.229 137.873 269.74C137.87 269.783 137.791 269.783 137.785 269.738C137.417 266.878 134.865 264.327 131.977 264.056C131.92 264.05 131.92 263.966 131.98 263.964Z" fill="white"/>
<path d="M144.812 257.679C147.731 257.689 151.097 258.776 152.869 261.194C152.938 261.288 152.804 261.384 152.718 261.338C150.103 259.933 147.613 258.877 144.757 258.038C144.554 257.978 144.604 257.678 144.812 257.679Z" fill="white"/>
<path d="M142.545 258.519C145.464 258.529 148.829 259.616 150.602 262.034C150.67 262.128 150.537 262.224 150.451 262.178C147.836 260.773 145.346 259.717 142.489 258.878C142.287 258.818 142.336 258.518 142.545 258.519Z" fill="white"/>
<path d="M140.277 259.358C143.196 259.368 146.562 260.456 148.334 262.874C148.403 262.967 148.269 263.063 148.183 263.018C145.569 261.613 143.078 260.557 140.221 259.717C140.02 259.658 140.068 259.358 140.277 259.358Z" fill="white"/>
<path d="M138.01 260.198C140.929 260.207 144.294 261.295 146.067 263.713C146.136 263.807 146.001 263.903 145.916 263.857C143.301 262.451 140.811 261.395 137.954 260.556C137.752 260.497 137.801 260.197 138.01 260.198Z" fill="white"/>
<path d="M170.382 263.91C173.655 263.975 173.559 269.063 170.28 268.998C167.006 268.932 167.103 263.844 170.382 263.91Z" fill="#263238"/>
<path d="M141.952 254.12C143.492 256.178 145.869 257.499 147.922 258.971C148.135 259.124 148.385 258.953 148.451 258.745C148.499 258.749 148.546 258.725 148.543 258.663C148.423 256.144 147.459 253.24 146.019 251.155C145.13 249.868 143.29 248.639 141.792 249.839C140.376 250.974 141.053 252.918 141.952 254.12ZM141.858 251.7C142.203 248.53 145.026 251.019 145.643 251.993C146.04 252.619 146.368 253.306 146.675 253.98C147.318 255.392 147.749 256.869 148.245 258.331C147.281 257.546 146.259 256.85 145.266 256.102C144.084 255.209 141.668 253.448 141.858 251.7Z" fill="white"/>
<path d="M158.938 256.98C158.742 255.07 156.575 254.621 155.034 254.89C152.538 255.326 149.792 256.677 147.913 258.358C147.867 258.4 147.883 258.451 147.92 258.481C147.818 258.675 147.871 258.973 148.129 259.017C150.619 259.447 153.227 260.215 155.775 259.869C157.262 259.666 159.123 258.786 158.938 256.98ZM152.037 258.897C150.807 258.715 149.594 258.475 148.358 258.338C149.749 257.665 151.104 256.936 152.561 256.404C153.257 256.15 153.976 255.903 154.701 255.746C155.829 255.502 159.582 255.769 157.565 258.238C156.453 259.6 153.503 259.114 152.037 258.897Z" fill="white"/>
<path d="M178.906 253.823L149.974 249.438C149.974 249.438 163.882 221.72 172.49 206.678C177.277 198.315 190.372 197.905 196.741 207.925C205.249 221.312 211.851 233.856 215.635 240.81L222.198 241.371L220.782 252.093L198.971 256.978C190.616 257.979 184.752 243.104 184.616 243.356C183.558 245.31 178.906 253.823 178.906 253.823Z" fill="white"/>
<path d="M184.461 243.422C185.284 241.737 185.926 239.949 186.657 238.222C187.364 236.551 188.077 234.883 188.779 233.211C190.198 229.83 191.668 226.467 193.045 223.069C193.817 221.162 194.527 219.231 195.248 217.304C195.266 217.258 195.337 217.278 195.323 217.326C194.765 219.147 194.183 220.961 193.573 222.766C193.735 222.454 193.896 222.143 194.065 221.84C194.53 221.01 195.009 220.189 195.491 219.368C195.509 219.336 195.556 219.366 195.539 219.398C195.095 220.222 194.651 221.045 194.191 221.86C193.961 222.265 193.711 222.666 193.468 223.071C191.752 228.123 189.806 233.095 187.468 237.897C186.548 239.785 185.47 241.593 184.55 243.477C184.52 243.536 184.432 243.481 184.461 243.422Z" fill="#263238"/>
<path d="M178.258 248.68C179.653 246.528 182.975 240.012 184.165 237.76C186.572 233.204 188.775 228.555 190.857 223.843C192.033 221.181 193.134 218.495 194.223 215.797C194.23 215.779 194.259 215.787 194.253 215.806C192.615 220.667 190.662 225.429 188.544 230.098C186.422 234.775 179.578 247.372 178.346 248.734C178.302 248.784 178.222 248.736 178.258 248.68Z" fill="#263238"/>
<path d="M196.221 219.395C198.714 223.847 201.261 228.268 203.765 232.714C205.03 234.961 206.295 237.208 207.547 239.462C208.136 240.523 208.708 241.596 209.318 242.644C209.897 243.636 210.587 244.457 211.605 245.016C212.725 245.632 214.015 245.926 215.233 246.283C216.64 246.694 218.038 247.137 219.452 247.525C219.516 247.543 219.486 247.642 219.422 247.624C218.161 247.287 216.889 246.997 215.621 246.685C214.471 246.401 213.289 246.162 212.173 245.755C211.163 245.386 210.29 244.838 209.616 243.99C208.894 243.08 208.381 242.014 207.826 241C205.324 236.427 202.849 231.84 200.391 227.244C198.994 224.632 197.609 222.012 196.196 219.408C196.19 219.393 196.213 219.381 196.221 219.395Z" fill="#263238"/>
<path d="M179.563 249.763C177.829 249.448 176.053 249.297 174.306 249.073C172.553 248.847 170.8 248.621 169.048 248.392C165.552 247.935 153.651 246.039 152.752 245.742C152.695 245.723 152.715 245.63 152.772 245.628C153.623 245.602 161.417 246.64 163.165 246.897C166.662 247.411 170.134 248.031 173.618 248.619C174.613 248.787 175.604 248.976 176.598 249.151C177.589 249.327 178.581 249.541 179.58 249.669C179.64 249.678 179.623 249.774 179.563 249.763Z" fill="#263238"/>
<path d="M160.234 278.061C160.787 276.603 188.484 243.134 190.302 242.545C190.511 242.467 201.856 251.308 201.856 251.308C202.311 251.973 224.771 248.238 224.771 248.238L223.826 275.096L183.323 272.472C183.323 272.472 177.707 275.453 172.584 277.858C172.575 277.858 172.571 277.863 172.566 277.86C169.413 279.35 166.625 280.6 165.839 280.77C163.787 281.2 159.671 279.511 160.234 278.061Z" fill="#B76E79"/>
<path d="M165.838 280.769C166.628 280.602 169.413 279.351 172.564 277.858C172.57 277.865 172.577 277.858 172.583 277.858C177.703 275.454 183.32 272.469 183.32 272.469L192.335 273.056L207.451 250.877C204.327 251.291 202.001 251.52 201.854 251.306C201.854 251.306 190.513 242.466 190.303 242.547C188.485 243.134 160.79 276.602 160.235 278.06C159.673 279.51 163.787 281.203 165.838 280.769Z" fill="white"/>
<path d="M159.993 278.096C160.574 276.603 188.388 243.159 190.254 242.554C190.961 242.321 196.535 246.108 201.856 251.308L183.898 272.848C183.898 272.848 167.863 280.47 165.744 280.914C163.632 281.351 159.412 279.59 159.993 278.096Z" fill="#2C3E50"/>
<path d="M161.729 278.729C166.529 273.237 185.371 250.635 189.699 244.841C189.734 244.794 189.704 244.768 189.664 244.812C184.787 250.151 166.129 272.905 161.636 278.653C161.542 278.774 161.627 278.845 161.729 278.729Z" fill="white"/>
<path d="M168.737 279.763C169.896 278.478 170.346 276.654 170.157 275.27C169.975 273.941 169.401 272.455 168.206 271.528C168.171 271.501 168.119 271.562 168.15 271.596C170.078 273.741 170.345 277.339 168.666 279.704C168.633 279.753 168.697 279.807 168.737 279.763Z" fill="white"/>
<path d="M181.874 274.139C183.771 271.921 185.142 268.661 184.467 265.741C184.44 265.627 184.28 265.666 184.259 265.762C183.618 268.66 182.793 271.236 181.565 273.949C181.479 274.139 181.737 274.298 181.874 274.139Z" fill="white"/>
<path d="M179.757 275.31C181.655 273.092 183.026 269.832 182.35 266.911C182.324 266.798 182.163 266.837 182.142 266.932C181.501 269.83 180.677 272.407 179.448 275.119C179.362 275.31 179.621 275.468 179.757 275.31Z" fill="white"/>
<path d="M177.641 276.48C179.538 274.262 180.91 271.002 180.234 268.082C180.209 267.968 180.048 268.007 180.027 268.103C179.385 271.001 178.561 273.576 177.333 276.29C177.246 276.48 177.505 276.639 177.641 276.48Z" fill="white"/>
<path d="M175.526 277.651C177.423 275.433 178.795 272.173 178.119 269.252C178.093 269.139 177.932 269.178 177.911 269.273C177.27 272.171 176.446 274.747 175.217 277.46C175.131 277.651 175.39 277.81 175.526 277.651Z" fill="white"/>
<path d="M193.836 250.698C195.922 248.175 192.004 244.928 189.914 247.455C187.828 249.979 191.746 253.226 193.836 250.698Z" fill="white"/>
<path d="M185.844 281.544C187.731 281.192 188.001 278.995 187.605 277.481C186.964 275.03 185.392 272.404 183.562 270.67C183.517 270.627 183.468 270.648 183.44 270.687C183.239 270.601 182.946 270.678 182.923 270.94C182.7 273.456 182.149 276.119 182.704 278.63C183.028 280.095 184.06 281.877 185.844 281.544ZM183.365 274.824C183.445 273.584 183.585 272.355 183.619 271.112C184.404 272.443 185.242 273.732 185.893 275.142C186.203 275.814 186.509 276.511 186.724 277.22C187.06 278.324 187.104 282.087 184.477 280.279C183.028 279.283 183.27 276.303 183.365 274.824Z" fill="white"/>
<path d="M187.367 264.404C185.443 266.108 184.322 268.586 183.023 270.753C182.889 270.978 183.08 271.213 183.293 271.261C183.293 271.309 183.32 271.355 183.382 271.346C185.882 271.019 188.697 269.82 190.657 268.213C191.866 267.221 192.94 265.286 191.621 263.892C190.373 262.574 188.491 263.409 187.367 264.404ZM189.771 264.111C192.959 264.194 190.711 267.211 189.791 267.907C189.199 268.354 188.542 268.738 187.896 269.099C186.542 269.857 185.105 270.407 183.688 271.022C184.391 269.997 185 268.921 185.665 267.87C186.457 266.618 188.014 264.065 189.771 264.111Z" fill="white"/>
<path d="M217.716 239.886C217.716 239.886 246.451 236.791 257.819 239.854C273.674 244.125 275.491 263.171 263.281 270.421C247.811 279.606 194.143 274.486 194.143 274.486L209.123 249.235C209.123 249.235 231.606 245.044 251.759 246.67L211.096 251.701L217.716 239.886Z" fill="white"/>
<path d="M208.084 250.935C208.103 250.902 208.11 250.835 208.12 250.798C208.13 250.761 208.14 250.723 208.15 250.686C208.174 250.599 208.199 250.513 208.224 250.428C208.278 250.248 208.345 250.079 208.415 249.907C208.485 249.735 208.561 249.568 208.641 249.402C208.724 249.23 208.83 249.093 208.932 248.937C208.943 248.92 208.959 248.919 208.973 248.908C208.981 248.901 208.99 248.895 208.999 248.89C209.012 248.884 209.023 248.877 209.036 248.875C209.048 248.87 209.058 248.862 209.073 248.86C211.542 248.465 228.29 246.568 230.777 246.365C233.284 246.16 235.796 246.013 238.307 245.891C243.314 245.647 248.342 245.637 253.343 245.949C253.812 245.978 254.28 246.019 254.748 246.057C254.849 246.025 254.956 246.01 255.06 245.987C255.303 245.934 255.545 245.879 255.789 245.838C256.245 245.762 256.704 245.709 257.162 245.652C258.116 245.533 259.071 245.464 260.021 245.311C260.079 245.302 260.098 245.398 260.039 245.409C259.082 245.599 258.137 245.861 257.179 246.047C256.903 246.1 256.627 246.154 256.35 246.202C258.181 246.388 260.007 246.624 261.832 246.886C261.889 246.895 261.886 246.993 261.827 246.987C259.342 246.717 256.83 246.588 254.332 246.525C251.85 246.463 249.37 246.416 246.886 246.464C241.864 246.562 236.839 246.839 231.825 247.197C229.012 247.398 211.934 249.385 209.117 249.393C209.104 249.393 209.094 249.387 209.082 249.385C209.057 249.455 209.03 249.525 208.995 249.593C208.911 249.758 208.826 249.921 208.736 250.081C208.649 250.237 208.563 250.389 208.465 250.537C208.416 250.61 208.368 250.683 208.317 250.755C208.293 250.791 208.268 250.827 208.242 250.864C208.221 250.894 208.176 250.941 208.164 250.977C208.142 251.047 208.047 250.997 208.084 250.935Z" fill="#263238"/>
<path d="M201.84 272.912C202.725 271.46 203.493 269.902 204.31 268.401C205.131 266.895 205.951 265.388 206.774 263.884C208.415 260.883 214.275 250.803 214.841 250.104C214.877 250.06 214.944 250.115 214.924 250.168C214.635 250.954 210.96 257.638 210.117 259.127C208.429 262.105 206.666 265.02 204.924 267.957C204.427 268.795 203.914 269.622 203.41 270.456C202.908 271.288 202.375 272.107 201.908 272.965C201.88 273.017 201.809 272.963 201.84 272.912Z" fill="#263238"/>
<path d="M215.752 252.872C217.246 252.546 218.77 252.358 220.276 252.112C221.785 251.865 223.295 251.62 224.805 251.38C227.826 250.899 230.85 250.441 233.877 250.015C239.915 249.166 245.969 248.506 252.044 248.131C255.473 247.919 258.905 247.83 262.336 247.702C262.409 247.7 262.402 247.827 262.328 247.828C256.224 247.864 250.103 248.509 244.031 249.201C238.017 249.885 232.015 250.664 226.017 251.51C224.324 251.749 222.631 251.993 220.939 252.24C219.22 252.491 217.498 252.818 215.772 252.983C215.708 252.988 215.686 252.886 215.752 252.872Z" fill="#263238"/>
<path d="M229.037 199.201C230.132 201.996 231.693 204.539 232.567 207.436C233.363 210.091 233.723 212.927 233.3 215.689C231.745 225.83 218.539 231.914 209.263 228.766C204.827 227.257 200.968 223.659 199.79 219.042C198.349 213.383 201.368 207.947 203.2 202.783C204.252 199.824 204.682 196.9 204.689 193.775C204.691 191.091 204.526 188.361 205.07 185.711C205.459 183.822 206.749 178.326 213.712 176.131C218.71 174.556 223.769 177.286 226.1 182.035C228.808 187.552 226.874 193.654 229.037 199.201Z" fill="#263238"/>
<path d="M205.222 200.026C203.062 204.653 200.225 209.378 199.394 214.481C198.705 218.715 199.848 223.294 203.53 225.811C203.562 225.833 203.598 225.788 203.567 225.764C199.698 222.766 199.218 217.585 200.303 213.127C201.415 208.56 204.088 204.587 205.441 200.12C205.484 199.976 205.289 199.884 205.222 200.026Z" fill="#263238"/>
<path d="M204.246 199.757C202.61 205.825 197.618 210.603 197.297 217.06C197.293 217.136 197.412 217.156 197.416 217.078C197.837 210.631 203.391 206.055 204.366 199.775C204.378 199.697 204.265 199.684 204.246 199.757Z" fill="#263238"/>
<path d="M229.387 199.101C228.312 196.8 227.721 194.492 227.49 191.968C227.478 191.839 227.268 191.829 227.259 191.963C226.675 200.871 236.877 207.549 234.162 216.759C234.143 216.824 234.238 216.868 234.261 216.801C235.565 213.001 234.552 209.2 232.845 205.696C231.759 203.464 230.439 201.351 229.387 199.101Z" fill="#263238"/>
<path d="M227.322 190.644C227.3 190.475 227.054 190.524 227.065 190.688C227.275 193.997 228.415 197.262 230.196 200.05C231.082 201.438 232.17 202.68 233.029 204.086C233.969 205.626 234.693 207.279 235.485 208.897C235.505 208.938 235.562 208.909 235.548 208.867C234.52 205.8 232.911 203.359 231.069 200.747C228.923 197.704 227.791 194.317 227.322 190.644Z" fill="#263238"/>
<path d="M207.601 207.055C194.023 216.186 183.023 224.909 181.843 230.999C180.209 239.431 185.318 242.038 187.656 242.175C194.024 242.545 208.571 221.018 213.074 211.355C217.446 201.972 210.591 205.045 207.601 207.055Z" fill="#2C3E50"/>
<path opacity="0.1" d="M213.075 211.356C208.569 221.016 194.025 242.544 187.659 242.172C186.033 242.082 183.081 240.798 181.965 237.204L214.317 205.74C214.725 206.634 214.473 208.362 213.075 211.356Z" fill="#2C3E50"/>
<path d="M238.958 239.851C238.958 239.851 222.756 241.977 214.904 241.893C207.861 241.818 200.947 238.395 200.947 238.395L204.142 226.647C204.142 226.647 200.956 222.581 203.427 218.177C205.185 215.043 210.691 208.341 213.619 205.199C220.22 198.114 225.76 202.132 227.386 204.386C233.594 212.991 238.958 239.851 238.958 239.851Z" fill="#2C3E50"/>
<path d="M213.999 225.719C212.512 225.696 211.012 225.729 209.529 225.955C208.791 226.067 208.061 226.218 207.33 226.386C206.965 226.47 206.601 226.539 206.235 226.607C205.858 226.677 205.457 226.735 205.079 226.699C205.045 226.696 205.038 226.753 205.072 226.759C205.437 226.819 205.785 226.875 206.157 226.879C206.509 226.884 206.866 226.845 207.217 226.795C207.967 226.689 208.713 226.544 209.461 226.429C210.971 226.198 212.481 225.967 213.998 225.859C214.068 225.853 214.069 225.72 213.999 225.719Z" fill="#263238"/>
<path d="M217.429 227.679C216.244 227.379 215.026 227.141 213.813 226.997C213.203 226.924 212.594 226.892 211.978 226.878C211.685 226.872 211.391 226.871 211.097 226.875C210.773 226.878 210.448 226.931 210.125 226.93C210.092 226.93 210.083 226.989 210.118 226.99C210.422 227.002 210.725 227.071 211.027 227.103C211.331 227.135 211.635 227.164 211.94 227.196C212.549 227.259 213.156 227.331 213.766 227.388C214.986 227.502 216.2 227.63 217.415 227.792C217.481 227.801 217.491 227.694 217.429 227.679Z" fill="#263238"/>
<path d="M228.578 206.569C239.583 216.116 247.442 229.445 247.102 238.135C246.767 246.717 243.819 245.738 242.974 245.642C237.809 245.05 226.769 220.586 223.528 210.675C220.31 200.837 225.857 204.208 228.578 206.569Z" fill="#2C3E50"/>
<path d="M236.414 238.608C235.866 237.497 235.3 236.398 234.77 235.281L233.144 231.949C232.072 229.723 230.981 227.506 229.944 225.263C228.863 223.041 227.835 220.795 226.812 218.547C226.297 217.425 225.794 216.297 225.311 215.16C224.805 214.032 224.351 212.884 223.886 211.736C224.56 214.12 225.454 216.438 226.388 218.73C227.327 221.023 228.362 223.273 229.402 225.52C230.486 227.746 231.571 229.971 232.734 232.157C233.897 234.342 235.091 236.513 236.414 238.608Z" fill="#263238"/>
<path d="M224.956 214.671C224.765 214.256 224.535 213.887 224.305 213.516C224.184 213.334 224.071 213.148 223.942 212.97C223.815 212.791 223.696 212.607 223.549 212.43C223.618 212.883 223.816 213.298 224.052 213.677C224.298 214.051 224.583 214.403 224.956 214.671Z" fill="#263238"/>
<path d="M214.975 210.233C214.975 210.233 222.383 204.318 226.258 204.459L229.541 207.385C229.541 207.385 230.62 207.741 230.956 207.058C231.785 205.368 231.958 201.275 228.443 198.611C225.225 196.171 218.606 196.655 214.2 197.806C209.969 198.912 207.633 201.397 208.925 204.158C210.217 206.919 214.975 210.233 214.975 210.233Z" fill="#2C3E50"/>
<path opacity="0.1" d="M214.553 208.935C214.553 208.935 211.125 205.385 210.628 203.327C210.131 201.27 214.247 199.319 216.904 198.556C221.016 197.374 223.815 197.644 226.113 199.843C228.411 202.04 214.553 208.935 214.553 208.935Z" fill="black"/>
<path d="M220.531 202.836C220.464 203.554 217.38 207.193 214.178 207.478C213.135 207.569 212.763 203.233 212.763 203.233L212.611 202.827L210.5 197.144L216.782 191.785L217.698 191.065C217.698 191.065 218.173 192.658 218.745 194.647C218.772 194.739 218.799 194.831 218.826 194.93C218.862 195.041 218.896 195.146 218.925 195.252C219.014 195.548 219.104 195.851 219.187 196.154C219.251 196.385 219.315 196.609 219.373 196.853C219.438 197.098 219.496 197.335 219.562 197.579C220.152 199.999 220.555 202.532 220.531 202.836Z" fill="#FFC4C0"/>
<path d="M218.745 194.647C217.703 199.541 214.236 201.952 212.612 202.827L210.501 197.144L216.783 191.785L217.699 191.065C217.699 191.065 218.173 192.657 218.745 194.647Z" fill="#263238"/>
<path d="M204.027 184.916C199.885 194.717 205.287 198.304 207.401 199.195C209.321 200.004 215.959 202.514 221.091 193.193C226.223 183.874 222.976 178.849 218.684 176.768C214.393 174.686 208.169 175.116 204.027 184.916Z" fill="#FFC4C0"/>
<path d="M206.418 184.322C206.66 184.391 206.894 184.413 207.14 184.456C207.418 184.504 207.635 184.571 207.903 184.451C208.048 184.387 208.127 184.17 208.078 184.024C207.964 183.684 207.638 183.54 207.306 183.469C206.945 183.391 206.648 183.423 206.32 183.59C206.003 183.752 206.099 184.232 206.418 184.322Z" fill="#263238"/>
<path d="M213.336 186.667C213.116 186.546 212.934 186.396 212.728 186.253C212.497 186.092 212.296 185.987 212.19 185.713C212.133 185.566 212.229 185.355 212.366 185.286C212.686 185.125 213.019 185.252 213.305 185.435C213.616 185.634 213.804 185.866 213.919 186.216C214.032 186.555 213.625 186.828 213.336 186.667Z" fill="#263238"/>
<path d="M211.106 187.963C211.123 187.939 211.144 188.017 211.132 188.044C210.819 188.698 210.571 189.499 211.075 189.983C211.09 189.998 211.073 190.03 211.053 190.018C210.366 189.593 210.706 188.532 211.106 187.963Z" fill="#263238"/>
<path d="M212.003 187.53C213.105 187.918 212.249 190.094 211.227 189.735C210.222 189.382 211.079 187.206 212.003 187.53Z" fill="#263238"/>
<path d="M212.386 187.814C212.528 188.012 212.628 188.303 212.849 188.415C213.104 188.546 213.393 188.397 213.653 188.246C213.68 188.231 213.691 188.257 213.68 188.286C213.522 188.705 213.194 189.07 212.722 188.956C212.292 188.852 212.145 188.368 212.205 187.908C212.216 187.822 212.329 187.734 212.386 187.814Z" fill="#263238"/>
<path d="M207.244 186.289C207.248 186.262 207.178 186.301 207.169 186.329C206.93 187.013 206.542 187.757 205.844 187.746C205.822 187.745 205.811 187.78 205.835 187.786C206.621 187.969 207.127 186.976 207.244 186.289Z" fill="#263238"/>
<path d="M206.912 185.351C205.856 184.85 204.932 186.998 205.91 187.462C206.872 187.919 207.797 185.771 206.912 185.351Z" fill="#263238"/>
<path d="M206.403 185.3C206.184 185.34 205.927 185.475 205.718 185.401C205.476 185.315 205.403 185.008 205.349 184.721C205.343 184.691 205.319 184.701 205.305 184.73C205.118 185.135 205.07 185.621 205.43 185.87C205.758 186.097 206.174 185.858 206.448 185.491C206.499 185.423 206.491 185.283 206.403 185.3Z" fill="#263238"/>
<path d="M208.964 193.387C208.754 193.509 208.528 193.692 208.268 193.649C208.018 193.607 207.76 193.424 207.559 193.28C207.539 193.266 207.51 193.284 207.519 193.308C207.633 193.624 207.973 193.891 208.313 193.917C208.645 193.942 208.872 193.708 209.023 193.437C209.045 193.399 208.995 193.37 208.964 193.387Z" fill="#263238"/>
<path d="M206.868 189.976C206.868 189.976 206.398 190.962 206.244 191.449C206.229 191.494 206.34 191.553 206.502 191.616C206.51 191.62 206.513 191.625 206.522 191.622C207.338 192.028 208.297 192.006 209.042 191.47C209.09 191.434 209.045 191.364 208.991 191.38C208.2 191.648 207.453 191.545 206.687 191.316C206.695 191.17 207.547 189.654 207.472 189.624C207.213 189.517 206.632 189.531 206.288 189.523C207.207 187.441 208.451 185.522 209.334 183.435C209.365 183.36 209.262 183.301 209.217 183.363C207.77 185.281 206.661 187.655 205.658 189.781C205.529 190.045 206.647 189.997 206.868 189.976Z" fill="#263238"/>
<path d="M206.608 191.451C206.608 191.451 206.832 192.255 207.379 192.724C207.581 192.897 207.82 193.027 208.111 193.058C208.708 193.124 208.912 192.631 208.976 192.168C209.03 191.787 208.983 191.423 208.983 191.423C208.983 191.423 207.907 191.86 206.608 191.451Z" fill="#263238"/>
<path d="M207.381 192.724C207.582 192.897 207.821 193.028 208.112 193.058C208.709 193.124 208.913 192.632 208.977 192.168C208.374 192.005 207.647 192.178 207.381 192.724Z" fill="#FF9ABB"/>
<path d="M220.256 192.823C218.371 192.573 219.003 188.27 219.003 188.27C219.003 188.27 211.575 184.905 212.583 178.401C212.583 178.401 209.715 181.834 205.161 182.587C205.161 182.587 208.264 175.03 214.122 175.131C214.122 175.131 220.743 174.584 223.473 181.021C226.272 187.618 221.521 192.991 220.256 192.823Z" fill="#263238"/>
<path d="M212.678 177.925C212.319 178.863 212.199 179.892 212.264 180.906C212.328 181.921 212.584 182.938 213.058 183.849C213.158 184.086 213.317 184.291 213.444 184.513L213.647 184.839C213.723 184.942 213.804 185.041 213.885 185.139C214.049 185.335 214.205 185.538 214.376 185.727C214.558 185.904 214.745 186.077 214.933 186.248C215.027 186.333 215.118 186.422 215.216 186.502L215.523 186.725L216.138 187.167C216.573 187.422 217.02 187.653 217.466 187.876C217.071 187.563 216.652 187.297 216.267 186.985L215.706 186.502L215.427 186.262C215.339 186.177 215.259 186.083 215.175 185.994C215.01 185.812 214.844 185.634 214.673 185.459C214.518 185.272 214.378 185.071 214.23 184.879L214.009 184.588L213.822 184.276C213.705 184.064 213.556 183.868 213.465 183.643C213.006 182.787 212.754 181.835 212.611 180.871C212.542 180.387 212.52 179.896 212.532 179.403C212.535 178.91 212.589 178.417 212.678 177.925Z" fill="#263238"/>
<path d="M219.045 192.086C219.045 192.086 222.278 189.643 223.457 190.895C224.635 192.147 221.49 196.189 219.604 196.27C217.718 196.351 217.608 194.607 217.608 194.607L219.045 192.086Z" fill="#FFC4C0"/>
<path d="M222.527 192.031C222.555 192.037 222.548 192.078 222.521 192.079C221.186 192.175 220.211 193.068 219.408 194.062C219.901 193.739 220.456 193.654 220.906 194.262C220.929 194.293 220.884 194.332 220.853 194.314C220.403 194.054 220.028 194.025 219.576 194.307C219.256 194.506 218.986 194.801 218.717 195.064C218.628 195.152 218.456 195.034 218.535 194.925C218.541 194.917 218.548 194.909 218.554 194.901C219.01 193.386 220.862 191.659 222.527 192.031Z" fill="#263238"/>
<path d="M214.553 208.935C214.553 208.935 220.781 200.751 226.771 199.961L226.258 204.459C226.258 204.459 221.27 204.537 214.975 210.233L214.553 208.935Z" fill="#2C3E50"/>
<path d="M227.872 204.544C226.776 204.406 225.686 204.646 224.657 204.968C220.549 205.931 216.357 209.306 216.357 209.306L215.15 210.412L215.014 210.536L214.864 210.459C212.854 209.363 210.836 206.821 210.459 206.321C211.991 207.905 214.53 209.744 215.084 210.007L214.798 210.053L216.006 208.912C216.424 208.547 221.018 205.532 224.572 204.674C224.84 204.599 225.116 204.553 225.389 204.499C225.666 204.464 225.941 204.423 226.22 204.411C226.775 204.374 227.34 204.393 227.872 204.544Z" fill="#263238"/>
<path d="M229.541 207.385C228.925 206.975 228.361 206.506 227.81 206.022C227.266 205.531 226.736 205.025 226.259 204.458C226.876 204.867 227.44 205.337 227.99 205.821C228.533 206.313 229.064 206.819 229.541 207.385Z" fill="#263238"/>
<path d="M216.569 207.983C216.569 207.983 217.248 210.254 217.583 213.59C217.716 214.91 217.582 219.694 216.098 219.639C214.614 219.584 216.767 216.333 216.99 213.797C217.215 211.223 216.399 209.483 216.191 207.992L216.569 207.983Z" fill="#263238"/>
<path d="M212.434 207.921C212.434 207.921 211.626 209.929 211.042 212.934C210.811 214.124 210.532 218.485 211.886 218.56C213.24 218.634 211.555 215.497 211.565 213.173C211.575 210.814 212.464 209.299 212.778 207.96L212.434 207.921Z" fill="#263238"/>
<path d="M184.1 218.734C184.527 214.68 185.486 209.015 186.891 207.789C188.365 206.502 193.729 202.188 195.299 201.588C196.868 200.987 203.859 198.066 205.183 198.777C206.243 199.346 205.098 202.123 201.773 203.543C198.849 204.791 197.36 205.915 196.526 206.308C195.674 206.709 193.688 209.57 194.294 210.789C194.651 211.508 196.8 212.295 198.1 211.656C199.4 211.017 199.642 208.396 201.109 207.116C202.577 205.836 205.239 205.9 205.416 206.613C205.593 207.326 204.726 207.689 203.444 210.173C202.62 211.77 202.682 215.537 200.785 218.299C199.832 219.687 198.211 223.353 198.211 223.353L184.1 218.734Z" fill="#FFC4C0"/>
<path d="M202.48 205.958C202.942 205.838 203.445 205.68 203.779 205.319C203.92 205.167 204.027 204.979 204.061 204.772C204.079 204.662 204.078 204.544 204.06 204.434C204.043 204.333 204.01 204.178 203.92 204.117C203.893 204.098 203.932 204.065 203.947 204.091C203.979 204.15 204.034 204.194 204.073 204.248C204.106 204.293 204.132 204.345 204.154 204.397C204.198 204.502 204.219 204.61 204.221 204.724C204.224 204.972 204.132 205.21 203.98 205.403C203.619 205.864 203.044 206 202.485 205.998C202.462 205.998 202.459 205.964 202.48 205.958Z" fill="#263238"/>
<path d="M186.892 207.789C188.108 205.733 191.272 201.995 194.482 200.642C196.652 199.727 204.334 203.162 204.161 204.615C203.987 206.068 202.697 206.114 200.776 205.949C200.077 205.889 196.348 204.686 195.745 205.48C194.879 206.621 193.856 210.456 193.856 210.456L186.892 207.789Z" fill="#FFC4C0"/>
<path d="M203.955 204.057C202.97 202.54 200.889 201.782 198.825 201.197C198.792 201.188 198.776 201.237 198.809 201.246C199.334 201.395 202.714 202.818 203.933 204.083C203.946 204.096 203.964 204.072 203.955 204.057Z" fill="#263238"/>
<path d="M186.892 207.789C188.108 205.733 191.272 201.995 194.482 200.642C196.652 199.727 202.789 204.244 202.616 205.696C202.442 207.149 200.59 207.325 198.516 206.678C197.846 206.469 195.572 204.977 194.969 205.77C194.102 206.911 191.992 209.741 191.992 209.741L186.892 207.789Z" fill="#FFC4C0"/>
<path d="M193.203 207.992C193.399 207.668 193.466 207.554 193.668 207.232C193.869 206.912 194.074 206.595 194.297 206.291C194.491 206.029 194.677 205.739 194.952 205.555C195.216 205.378 195.541 205.328 195.853 205.346C196.567 205.389 197.224 205.82 197.839 206.146C198.525 206.51 199.943 207.092 201.009 206.944C201.302 206.903 201.592 206.844 201.847 206.687C202.012 206.585 202.235 206.457 202.339 206.267C202.777 205.465 202.168 204.584 201.554 203.968C200.411 202.818 198.897 202.007 197.433 201.347C197.073 201.185 196.709 201.032 196.345 200.879C195.931 200.705 195.501 200.539 195.036 200.551C194.292 200.569 193.099 201.365 192.727 201.605C192.699 201.623 192.676 201.578 192.704 201.559C193.151 201.259 194.254 200.295 195.455 200.317C195.895 200.324 196.313 200.536 196.718 200.696C197.141 200.863 197.561 201.043 197.975 201.233C198.781 201.604 199.567 202.019 200.306 202.511C201.004 202.976 201.749 203.522 202.234 204.218C202.654 204.821 202.803 205.694 202.435 206.354C202.125 206.91 201.429 207.064 201.11 207.116C200.791 207.167 200.485 207.172 200.163 207.138C199.829 207.103 198.606 206.791 198.087 206.604C197.428 206.366 196.828 205.947 196.151 205.766C195.828 205.681 195.477 205.687 195.183 205.862C194.91 206.024 194.688 206.313 194.48 206.547C194.008 207.077 193.696 207.422 193.315 208.024C193.222 208.169 193.121 208.127 193.203 207.992Z" fill="#263238"/>
<path d="M185.997 209.577C186.437 208.604 187.102 204.629 187.825 203.393C188.547 202.158 191.89 197.856 193.522 197.984C195.572 198.145 193.564 201.895 192.544 203.446C191.523 204.997 191.789 207.566 191.789 207.566L185.997 209.577Z" fill="#FFC4C0"/>
<path d="M193.951 200.884C193.587 201.376 193.268 201.919 192.954 202.445C192.657 202.943 192.311 203.439 192.09 203.978C191.869 204.518 191.782 205.093 191.747 205.673C191.73 205.958 191.73 206.241 191.737 206.527C191.746 206.838 191.784 207.151 191.787 207.461C191.787 207.494 191.838 207.497 191.838 207.464C191.844 206.902 191.925 206.321 192.004 205.764C192.086 205.184 192.24 204.604 192.46 204.061C192.903 202.976 193.57 201.999 194.022 200.918C194.041 200.875 193.977 200.849 193.951 200.884Z" fill="#263238"/>
<path d="M191.828 207.998C191.732 208.98 192.056 209.96 192.444 210.851C192.645 211.3 192.877 211.735 193.142 212.153C193.409 212.573 193.722 212.968 194.027 213.33C194.639 214.064 195.183 214.818 195.59 215.665C195.999 216.509 196.266 217.428 196.463 218.378C196.487 217.411 196.361 216.418 196.007 215.489C195.669 214.553 195.101 213.708 194.489 212.957C193.861 212.218 193.344 211.472 192.881 210.634C192.44 209.801 191.98 208.955 191.828 207.998Z" fill="#263238"/>
<path d="M188.326 241.803C192.282 241.093 194.596 234.325 198.634 222.427C199.342 220.339 188.398 208.161 187.066 210.106C185.388 212.557 181.161 225.98 180.812 229.603C180.126 236.746 183.706 242.631 188.326 241.803Z" fill="#FFC4C0"/>
<path d="M196.517 229.061L183.153 217.153C183.153 217.153 179.973 228.035 180.508 232.516C181.042 236.995 182.831 242.052 188.256 242.101C192.317 242.137 196.517 229.061 196.517 229.061Z" fill="#2C3E50"/>
<path d="M192.743 237.867C193.178 237.19 193.562 236.486 193.934 235.777C194.31 235.07 194.648 234.344 194.979 233.615C195.3 232.882 195.609 232.141 195.873 231.383C196.138 230.626 196.388 229.858 196.517 229.061C196.209 229.803 195.883 230.527 195.552 231.253L194.568 233.432C194.249 234.163 193.923 234.891 193.622 235.631C193.316 236.369 193.011 237.109 192.743 237.867Z" fill="#263238"/>
<path d="M193.849 231.352C193.198 230.696 192.487 230.092 191.798 229.475C191.108 228.858 190.412 228.248 189.709 227.646C188.301 226.444 186.887 225.249 185.458 224.072C185.067 223.751 184.675 223.43 184.279 223.115C183.854 222.778 183.386 222.493 182.966 222.154C182.933 222.127 182.893 222.176 182.924 222.204C183.264 222.505 183.563 222.856 183.897 223.165C184.244 223.484 184.597 223.797 184.953 224.107C185.651 224.716 186.35 225.322 187.054 225.924C188.459 227.128 189.872 228.326 191.315 229.484C192.131 230.138 192.935 230.821 193.789 231.426C193.839 231.461 193.892 231.396 193.849 231.352Z" fill="#263238"/>
<path d="M210.861 208.213L216.27 224.969C216.485 225.457 216.26 225.88 215.769 225.912L206.977 226.488C206.486 226.52 205.913 226.15 205.699 225.662L200.29 208.906C200.075 208.417 200.299 207.995 200.79 207.963L209.581 207.387C210.073 207.355 210.646 207.724 210.861 208.213Z" fill="#37474F"/>
<path d="M209.817 208.273L215.226 225.029C215.441 225.517 215.216 225.94 214.725 225.971L205.933 226.547C205.442 226.58 204.869 226.209 204.654 225.721L199.245 208.965C199.029 208.476 199.254 208.054 199.745 208.022L208.536 207.446C209.029 207.414 209.602 207.784 209.817 208.273Z" fill="#455A64"/>
<path d="M207.458 209.209C207.494 209.62 207.857 209.925 208.269 209.889C208.681 209.853 208.986 209.489 208.95 209.078C208.914 208.666 208.551 208.361 208.138 208.397C207.727 208.433 207.422 208.797 207.458 209.209Z" fill="#263238"/>
<path d="M244.214 245.545C240.375 246.073 235.591 243.09 223.182 234.032C221.465 232.779 227.051 218.281 228.953 219.526C231.35 221.093 240.309 227.695 240.903 228.26C245.915 233.03 246.818 245.188 244.214 245.545Z" fill="#FFC4C0"/>
<path d="M233.386 223.911C233.386 223.911 229.852 218.952 227.189 216.922C223.623 214.203 219.425 213.324 217.644 213.062C213.925 212.514 204.555 213.762 204.443 216.523C204.342 219.023 213.856 217.264 213.856 217.264C213.856 217.264 203.86 217.457 204.292 220.489C204.724 223.521 215.651 220.851 215.651 220.851C215.651 220.851 205.386 221.28 206.325 224.336C207.036 226.646 217.069 224.786 217.069 224.786C217.069 224.786 208.248 225.215 208.876 227.622C209.57 230.282 218.939 229.145 218.939 229.145C221.565 234.995 225.332 236.642 228.068 237.551C228.73 237.769 233.386 223.911 233.386 223.911Z" fill="#FFC4C0"/>
<path d="M217.308 216.975C216.133 216.955 214.944 216.927 213.771 217.012C212.598 217.096 211.427 217.222 210.268 217.416C207.424 217.89 205.717 218.632 205.827 218.598C208.439 217.785 212.632 217.417 213.805 217.333C214.975 217.248 216.141 217.105 217.312 217.02C217.342 217.017 217.336 216.975 217.308 216.975Z" fill="#263238"/>
<path d="M217.691 221.204C216.19 221.244 214.698 221.228 213.198 221.334C211.705 221.439 210.298 221.67 208.817 221.878C208.703 221.894 208.749 221.95 208.864 221.939C210.353 221.79 211.741 221.768 213.231 221.636C214.716 221.506 216.208 221.316 217.696 221.24C217.718 221.238 217.714 221.204 217.691 221.204Z" fill="#263238"/>
<path d="M218.672 224.775C216.374 224.718 214.069 225.085 211.816 225.499C211.704 225.52 211.771 225.586 211.888 225.571C214.162 225.287 215.944 225.049 218.671 224.855C218.713 224.852 218.72 224.776 218.672 224.775Z" fill="#263238"/>
<path d="M233.386 221.94L228.496 239.757C228.496 239.757 241.614 247.481 244.513 245.438C247.412 243.396 245.515 233.107 242.235 229.183C240.868 227.548 233.386 221.94 233.386 221.94Z" fill="#2C3E50"/>
<path d="M233.224 222.534L233.416 221.948L233.368 221.965C234.607 222.977 235.85 223.98 237.076 225.003C238.31 226.015 239.532 227.042 240.699 228.12C241.279 228.659 241.869 229.199 242.365 229.8C242.864 230.406 243.296 231.067 243.686 231.752C244.454 233.131 244.964 234.654 245.268 236.223C245.142 234.627 244.712 233.043 243.986 231.594C243.631 230.865 243.184 230.181 242.68 229.544C242.167 228.902 241.581 228.35 241.001 227.793C239.811 226.712 238.567 225.701 237.304 224.717C236.027 223.75 234.736 222.804 233.404 221.915L233.365 221.889L233.356 221.932L233.224 222.534Z" fill="#263238"/>
<path d="M236.259 226.362C235.96 227.237 235.733 228.141 235.486 229.032C235.238 229.924 234.999 230.819 234.772 231.716C234.318 233.511 233.873 235.307 233.452 237.11C233.337 237.603 233.223 238.097 233.116 238.592C233.002 239.123 232.954 239.668 232.836 240.195C232.827 240.236 232.889 240.251 232.899 240.21C233.019 239.772 233.201 239.349 233.33 238.912C233.463 238.46 233.586 238.004 233.707 237.548C233.943 236.652 234.176 235.757 234.405 234.86C234.861 233.066 235.31 231.269 235.707 229.461C235.932 228.44 236.189 227.417 236.352 226.384C236.362 226.323 236.279 226.304 236.259 226.362Z" fill="#263238"/>
<path d="M228.931 238.172C228.896 238.73 228.808 239.275 228.689 239.81L228.601 239.587C229.592 240.122 230.528 240.731 231.429 241.433C230.868 241.294 230.346 241.058 229.844 240.8C229.342 240.539 228.858 240.25 228.392 239.929L228.26 239.837L228.304 239.705C228.474 239.183 228.677 238.67 228.931 238.172Z" fill="#263238"/>
<path d="M225.032 164V177.493H227.694V182.093L232.293 177.493H271.253V164H225.032Z" fill="white"/>
<path d="M225.032 164C225.069 168.549 225.189 173.046 225.212 177.493L225.032 177.314L227.694 177.298L227.888 177.297L227.889 177.493L227.917 182.093L227.537 181.935L232.113 177.312L232.187 177.237H232.294L271.253 177.199L270.959 177.493L270.983 164L271.253 164.271C257.941 164.253 238.556 164.107 225.032 164ZM225.032 164C238.686 163.924 257.779 163.714 271.253 163.729H271.523L271.524 164L271.547 177.493L271.548 177.787H271.253L232.294 177.75L232.475 177.675L227.852 182.251L227.468 182.631L227.471 182.093L227.499 177.493L227.694 177.688L225.032 177.672L224.852 177.671L224.852 177.493C224.876 172.945 224.995 168.447 225.032 164Z" fill="#263238"/>
<path d="M231.922 167.578L232.974 169.146L234.79 169.662L233.624 171.146L233.694 173.032L231.922 172.383L230.15 173.032L230.22 171.146L229.055 169.662L230.87 169.146L231.922 167.578Z" fill="#FFC727"/>
<path d="M240.032 167.578L241.084 169.146L242.899 169.662L241.734 171.146L241.804 173.032L240.032 172.383L238.26 173.032L238.33 171.146L237.164 169.662L238.98 169.146L240.032 167.578Z" fill="#FFC727"/>
<path d="M248.142 167.578L249.194 169.146L251.009 169.662L249.844 171.146L249.914 173.032L248.142 172.383L246.369 173.032L246.44 171.146L245.274 169.662L247.09 169.146L248.142 167.578Z" fill="#FFC727"/>
<path d="M256.251 167.578L257.304 169.146L259.119 169.662L257.953 171.146L258.024 173.032L256.251 172.383L254.479 173.032L254.55 171.146L253.384 169.662L255.199 169.146L256.251 167.578Z" fill="#FFC727"/>
<path d="M264.361 172.383V167.578L263.309 169.146L261.493 169.662L262.659 171.146L262.589 173.032L264.361 172.383Z" fill="#FFC727"/>
<path d="M264.362 167.578L265.462 169.113C265.883 169.17 266.702 169.436 267.257 169.567L267.398 169.604L267.308 169.723L266.165 171.226L266.192 171.142L266.273 173.028L266.282 173.234L266.087 173.164L264.311 172.524H264.414L262.638 173.164L262.442 173.235L262.451 173.028L262.532 171.142L262.559 171.226L261.417 169.723L261.326 169.604L261.468 169.567C262.02 169.437 262.842 169.167 263.262 169.113C263.261 169.113 264.362 167.578 264.362 167.578ZM264.362 167.578L263.358 169.179C262.77 169.409 262.128 169.558 261.521 169.757L261.572 169.601L262.761 171.067C262.794 171.103 262.791 171.107 262.788 171.151L262.729 173.038L262.542 172.902L264.311 172.242C264.364 172.219 264.363 172.221 264.414 172.242L266.182 172.902L265.995 173.038L265.936 171.151C265.932 171.104 265.933 171.102 265.964 171.067L267.152 169.601L267.203 169.756C266.595 169.558 265.953 169.408 265.365 169.178C265.365 169.178 264.362 167.578 264.362 167.578Z" fill="#263238"/>
<path d="M96.0156 23.1438V46.1118H98.6772V50.7114L103.277 46.1118H150.179V23.1438H96.0156Z" fill="white"/>
<path d="M96.0157 23.1439L96.1093 34.6663C96.1537 38.4967 96.1789 42.3037 96.1837 46.1113L96.0157 45.9433L98.6773 45.9337L98.8543 45.9331L98.8549 46.1119L98.8717 50.7115L98.5393 50.5741L103.122 45.9577L103.186 45.8941C110.997 45.8743 130.894 45.8269 138.453 45.8155L150.178 45.8437L149.91 46.1119L149.961 23.1445L150.178 23.3623C136.677 23.3503 109.516 23.2279 96.0157 23.1439ZM96.0157 23.1439C109.512 23.0617 136.683 22.9399 150.178 22.9261L150.396 22.9255L150.396 23.1439L150.447 46.1113L150.447 46.3789L150.178 46.3795C137.098 46.4449 116.51 46.3519 103.277 46.3297L103.432 46.2655L98.8153 50.8477L98.4811 51.1795L98.4829 50.7103L98.4997 46.1107L98.6773 46.2883L96.0157 46.2787L95.8471 46.2781C95.8171 39.5263 95.9965 29.9791 96.0157 23.1439Z" fill="#263238"/>
<path d="M114.637 34.6585C114.637 38.2705 111.709 41.1991 108.097 41.1991C104.485 41.1991 101.557 38.2711 101.557 34.6585C101.557 31.0459 104.485 28.1179 108.097 28.1179C111.709 28.1179 114.637 31.0459 114.637 34.6585Z" fill="#EBEBEB"/>
<path d="M108.182 35.7703C109.319 35.7703 110.24 34.8489 110.24 33.7123C110.24 32.5757 109.319 31.6543 108.182 31.6543C107.045 31.6543 106.124 32.5757 106.124 33.7123C106.124 34.8489 107.045 35.7703 108.182 35.7703Z" fill="white"/>
<path d="M104.626 39.389V40.238C105.214 40.6034 105.867 40.8824 106.577 41.0546C108.411 41.5028 110.252 41.1584 111.739 40.235V39.389C111.739 37.43 110.148 35.8328 108.183 35.8328C106.217 35.8328 104.626 37.43 104.626 39.389Z" fill="white"/>
<path d="M143.794 30.6816H119.267V31.0548H143.794V30.6816Z" fill="#EBEBEB"/>
<path d="M143.794 33.2251H119.267V33.5983H143.794V33.2251Z" fill="#EBEBEB"/>
<path d="M143.794 35.769H119.267V36.1422H143.794V35.769Z" fill="#EBEBEB"/>
<path d="M131.423 38.313H119.267V38.6862H131.423V38.313Z" fill="#EBEBEB"/>
</svg>
