<svg width="25" height="24" viewBox="0 0 25 24" fill="none" xmlns="http://www.w3.org/2000/svg">
<path d="M3.6001 9.398C3.6001 8.37292 3.6001 7.86038 3.80275 7.47025C3.97353 7.14149 4.24159 6.87343 4.57034 6.70266C4.96047 6.5 5.47301 6.5 6.4981 6.5H17.7021C18.7272 6.5 19.2397 6.5 19.6299 6.70266C19.9586 6.87343 20.2267 7.14149 20.3974 7.47025C20.6001 7.86038 20.6001 8.37292 20.6001 9.398V15.602C20.6001 16.6271 20.6001 17.1396 20.3974 17.5298C20.2267 17.8585 19.9586 18.1266 19.6299 18.2973C19.2397 18.5 18.7272 18.5 17.7021 18.5H6.4981C5.47301 18.5 4.96047 18.5 4.57034 18.2973C4.24159 18.1266 3.97353 17.8585 3.80275 17.5298C3.6001 17.1396 3.6001 16.6271 3.6001 15.602V9.398Z" stroke="#2C3E50"/>
<path d="M3.6001 10.5L20.6001 10.5" stroke="#2C3E50" stroke-linecap="round"/>
<circle cx="6.6001" cy="15.5" r="0.5" fill="#2C3E50"/>
</svg>
