<svg width="25" height="24" viewBox="0 0 25 24" fill="none" xmlns="http://www.w3.org/2000/svg">
<path d="M14.8 21V16C14.8 15.4477 14.3523 15 13.8 15H10.8C10.2478 15 9.80005 15.4477 9.80005 16V21" stroke="#B76E79" stroke-linecap="round" stroke-linejoin="round"/>
<path d="M5.30005 11V17C5.30005 18.8856 5.30005 19.8284 5.88584 20.4142C6.47162 21 7.41443 21 9.30005 21H15.3C17.1857 21 18.1285 21 18.7143 20.4142C19.3 19.8284 19.3 18.8856 19.3 17V11" stroke="#B76E79"/>
<path d="M4.92132 4.51493C5.10321 3.78737 5.19415 3.42359 5.46541 3.21179C5.73667 3 6.11165 3 6.8616 3H17.7385C18.4884 3 18.8634 3 19.1347 3.21179C19.4059 3.42359 19.4969 3.78737 19.6788 4.51493L20.8824 9.32938C20.9792 9.71675 21.0277 9.91044 21.017 10.0678C20.9893 10.4757 20.716 10.8257 20.327 10.9515C20.177 11 19.9727 11 19.5641 11V11C19.031 11 18.7644 11 18.5405 10.9478C17.9133 10.8017 17.3948 10.3625 17.1476 9.76781C17.0593 9.55555 17.0165 9.29856 16.9308 8.78457V8.78457C16.9068 8.64076 16.8949 8.56886 16.8813 8.54994C16.8414 8.49439 16.7587 8.49439 16.7188 8.54994C16.7052 8.56886 16.6933 8.64076 16.6693 8.78457L16.5877 9.27381C16.5791 9.32568 16.5748 9.35161 16.5705 9.37433C16.394 10.3005 15.5946 10.9777 14.652 10.9995C14.6289 11 14.6026 11 14.55 11V11C14.4975 11 14.4712 11 14.4481 10.9995C13.5055 10.9777 12.7061 10.3005 12.5296 9.37433C12.5253 9.35161 12.521 9.32568 12.5124 9.27381L12.4308 8.78457C12.4068 8.64076 12.3949 8.56886 12.3813 8.54994C12.3414 8.49439 12.2587 8.49439 12.2188 8.54994C12.2052 8.56886 12.1933 8.64076 12.1693 8.78457L12.0877 9.27381C12.0791 9.32568 12.0748 9.35161 12.0705 9.37433C11.894 10.3005 11.0946 10.9777 10.152 10.9995C10.1289 11 10.1026 11 10.05 11V11C9.99747 11 9.97118 11 9.94806 10.9995C9.00546 10.9777 8.20611 10.3005 8.02965 9.37433C8.02532 9.35161 8.02099 9.32568 8.01235 9.27381L7.93081 8.78457C7.90684 8.64076 7.89486 8.56886 7.88127 8.54994C7.84137 8.49439 7.75873 8.49439 7.71883 8.54994C7.70524 8.56886 7.69326 8.64076 7.66929 8.78457V8.78457C7.58362 9.29856 7.54079 9.55555 7.45254 9.76781C7.20529 10.3625 6.6868 10.8017 6.05956 10.9478C5.83567 11 5.5691 11 5.03596 11V11C4.62742 11 4.42314 11 4.27311 10.9515C3.88408 10.8257 3.61083 10.4757 3.58312 10.0678C3.57244 9.91044 3.62086 9.71675 3.7177 9.32938L4.92132 4.51493Z" stroke="#B76E79"/>
</svg>
