<svg width="25" height="24" viewBox="0 0 25 24" fill="none" xmlns="http://www.w3.org/2000/svg">
<path d="M10.7998 15.5L9.7998 12" stroke="#2C3E50" stroke-linecap="round"/>
<path d="M8.7998 6.5L6.7998 9.5M15.7998 6.5L17.7998 9.5" stroke="#2C3E50" stroke-linecap="round"/>
<path d="M13.7998 15.5L14.7998 12" stroke="#2C3E50" stroke-linecap="round"/>
<path d="M4.7998 9.5V9.5C5.38409 9.5 5.88999 9.90581 6.01674 10.4762L7.10374 15.3677C7.43744 16.8694 7.60429 17.6202 8.15269 18.0601C8.7011 18.5 9.47023 18.5 11.0085 18.5H13.5911C15.1294 18.5 15.8985 18.5 16.4469 18.0601C16.9953 17.6202 17.1622 16.8694 17.4959 15.3677L18.5829 10.4762C18.7096 9.90581 19.2155 9.5 19.7998 9.5V9.5" stroke="#2C3E50" stroke-linecap="round"/>
<path d="M3.7998 9.5H20.7998" stroke="#2C3E50" stroke-linecap="round"/>
</svg>
