<svg width="17" height="4" viewBox="0 0 25 6" fill="none" xmlns="http://www.w3.org/2000/svg">
<path d="M12.5 0.375C11.0375 0.375 9.87499 1.575 9.87499 3C9.87499 4.4625 11.075 5.625 12.5 5.625C13.9625 5.625 15.125 4.425 15.125 3C15.125 1.5375 13.9625 0.375 12.5 0.375ZM12.5 4.3125C11.7875 4.3125 11.1875 3.7125 11.1875 3C11.1875 2.2875 11.7875 1.6875 12.5 1.6875C13.2125 1.6875 13.8125 2.2875 13.8125 3C13.8125 3.7125 13.2125 4.3125 12.5 4.3125ZM21.3875 0.375C19.925 0.375 18.7625 1.575 18.7625 3C18.7625 4.4625 19.9625 5.625 21.3875 5.625C22.85 5.625 24.0125 4.425 24.0125 3C24.05 1.5375 22.85 0.375 21.3875 0.375ZM21.3875 4.3125C20.675 4.3125 20.075 3.7125 20.075 3C20.075 2.2875 20.675 1.6875 21.3875 1.6875C22.1 1.6875 22.7 2.2875 22.7 3C22.7 3.7125 22.1375 4.3125 21.3875 4.3125ZM3.61249 0.375C2.14999 0.375 0.987488 1.575 0.987488 3C0.987488 4.4625 2.18749 5.625 3.61249 5.625C5.07499 5.625 6.23749 4.425 6.23749 3C6.23749 1.5375 5.03749 0.375 3.61249 0.375ZM3.61249 4.3125C2.89999 4.3125 2.29999 3.7125 2.29999 3C2.29999 2.2875 2.89999 1.6875 3.61249 1.6875C4.32499 1.6875 4.92499 2.2875 4.92499 3C4.92499 3.7125 4.32499 4.3125 3.61249 4.3125Z" fill="#000000"/>
</svg>
