<svg width="16" height="16" viewBox="0 0 16 16" fill="none" xmlns="http://www.w3.org/2000/svg">
<path d="M9.42426 2.24088L8.92681 2.29127L8.92682 2.2914L9.42426 2.24088ZM9.42295 2.22796L9.92041 2.17756L9.92017 2.17531L9.42295 2.22796ZM9.42661 2.26404L8.92916 2.31456L8.92953 2.31803L9.42661 2.26404ZM11.0474 2.93538L11.3607 3.32505L11.3634 3.32285L11.0474 2.93538ZM11.0654 2.92067L11.3814 3.30814L11.3815 3.30806L11.0654 2.92067ZM11.0755 2.91247L10.7611 2.52365L10.7593 2.52508L11.0755 2.91247ZM12.4072 2.97889L12.7603 2.62487L12.7587 2.62329L12.4072 2.97889ZM12.4164 2.98805L12.7699 2.6345L12.7695 2.63404L12.4164 2.98805ZM13.012 3.5837L13.366 3.23059L13.3656 3.23014L13.012 3.5837ZM13.0212 3.59289L13.3768 3.2414L13.3752 3.23979L13.0212 3.59289ZM13.0876 4.92459L13.475 5.24071L13.4764 5.23895L13.0876 4.92459ZM13.0794 4.93465L12.692 4.61853L12.6919 4.61865L13.0794 4.93465ZM13.0647 4.95271L12.6772 4.63669L12.675 4.6394L13.0647 4.95271ZM13.736 6.57346L13.682 7.07055L13.6855 7.07091L13.736 6.57346ZM13.7592 6.57582L13.7087 7.07326L13.7088 7.07327L13.7592 6.57582ZM13.7721 6.57713L13.8248 6.07991L13.8226 6.07968L13.7721 6.57713ZM14.6668 7.56574L15.1668 7.56508L15.1668 7.56283L14.6668 7.56574ZM14.6668 7.57875H15.1668L15.1668 7.57809L14.6668 7.57875ZM14.6668 8.42117L15.1668 8.4218V8.42117H14.6668ZM14.6668 8.43403L15.1668 8.43691L15.1668 8.43466L14.6668 8.43403ZM13.7721 9.42271L13.8225 9.92017L13.8247 9.91994L13.7721 9.42271ZM13.7592 9.42401L13.7088 8.92656L13.7087 8.92657L13.7592 9.42401ZM13.7364 9.42633L13.6859 8.92888L13.6825 8.92925L13.7364 9.42633ZM13.065 11.0472L12.6754 11.3606L12.6775 11.3632L13.065 11.0472ZM13.0795 11.065L12.692 11.381L12.6921 11.3811L13.0795 11.065ZM13.0876 11.0749L13.4764 10.7605L13.4749 10.7587L13.0876 11.0749ZM13.0211 12.4067L13.3751 12.7598L13.3767 12.7582L13.0211 12.4067ZM13.0121 12.4158L13.3657 12.7693L13.3661 12.7689L13.0121 12.4158ZM12.4164 13.0115L12.7695 13.3655L12.7699 13.365L12.4164 13.0115ZM12.4072 13.0207L12.7587 13.3763L12.7603 13.3747L12.4072 13.0207ZM11.0755 13.0871L10.7594 13.4745L10.7611 13.4759L11.0755 13.0871ZM11.0654 13.0789L11.3815 12.6915L11.3815 12.6914L11.0654 13.0789ZM11.0474 13.0642L11.3634 12.6767L11.3607 12.6745L11.0474 13.0642ZM9.42664 13.7355L8.92955 13.6815L8.9292 13.685L9.42664 13.7355ZM9.42428 13.7588L8.92683 13.7083L8.92682 13.7084L9.42428 13.7588ZM9.42294 13.772L9.92016 13.8246L9.92039 13.8224L9.42294 13.772ZM8.43441 14.6666L8.43506 15.1666L8.43736 15.1666L8.43441 14.6666ZM8.42125 14.6666V15.1666L8.4219 15.1666L8.42125 14.6666ZM7.57899 14.6666L7.57833 15.1666H7.57899V14.6666ZM7.56599 14.6666L7.56307 15.1666L7.56533 15.1666L7.56599 14.6666ZM6.57738 13.7719L6.07992 13.8223L6.08016 13.8245L6.57738 13.7719ZM6.57607 13.759L7.07352 13.7086L7.07351 13.7084L6.57607 13.759ZM6.57371 13.7357L7.07116 13.6852L7.07078 13.6817L6.57371 13.7357ZM4.95296 13.0644L4.63965 12.6747L4.63695 12.6769L4.95296 13.0644ZM4.93488 13.0792L4.61887 12.6917L4.61877 12.6918L4.93488 13.0792ZM4.9248 13.0874L5.23916 13.4762L5.24091 13.4748L4.9248 13.0874ZM3.59311 13.021L3.24002 13.375L3.24163 13.3766L3.59311 13.021ZM3.5839 13.0118L3.23035 13.3653L3.23081 13.3658L3.5839 13.0118ZM2.98828 12.4162L2.63427 12.7692L2.63472 12.7697L2.98828 12.4162ZM2.9791 12.4069L2.62348 12.7584L2.62509 12.76L2.9791 12.4069ZM2.91268 11.0753L2.52528 10.7591L2.52386 10.7609L2.91268 11.0753ZM2.9209 11.0652L3.30829 11.3813L3.30837 11.3812L2.9209 11.0652ZM2.93562 11.0471L3.3231 11.3632L3.32529 11.3604L2.93562 11.0471ZM2.26428 9.42637L2.31828 8.92928L2.31481 8.92893L2.26428 9.42637ZM2.24112 9.42401L2.29164 8.92657L2.29152 8.92656L2.24112 9.42401ZM2.2282 9.42271L2.17556 9.91993L2.1778 9.92016L2.2282 9.42271ZM1.33351 8.43408L0.833508 8.43474L0.833521 8.43699L1.33351 8.43408ZM1.3335 8.4211H0.833496L0.833497 8.42176L1.3335 8.4211ZM1.3335 7.57882L0.833496 7.57816V7.57882H1.3335ZM1.33351 7.56569L0.833517 7.56274L0.833514 7.56503L1.33351 7.56569ZM2.22814 6.57714L2.17773 6.07968L2.17546 6.07992L2.22814 6.57714ZM2.2412 6.57581L2.29161 7.07327L2.29174 7.07325L2.2412 6.57581ZM2.26463 6.57343L2.31517 7.07089L2.31867 7.0705L2.26463 6.57343ZM2.93593 4.95276L3.32564 4.63948L3.32341 4.63675L2.93593 4.95276ZM2.92101 4.93446L3.30849 4.61846L3.30841 4.61836L2.92101 4.93446ZM2.91265 4.92421L2.5238 5.23854L2.52525 5.24032L2.91265 4.92421ZM2.97906 3.59266L2.62504 3.23957L2.62342 3.24121L2.97906 3.59266ZM2.98839 3.58331L2.63483 3.22976L2.63436 3.23023L2.98839 3.58331ZM3.58393 2.98776L3.23084 2.63375L3.23038 2.63421L3.58393 2.98776ZM3.59314 2.97858L3.24166 2.62296L3.24006 2.62456L3.59314 2.97858ZM4.92483 2.91216L5.24094 2.52476L5.23918 2.52334L4.92483 2.91216ZM4.93496 2.92043L4.61885 3.30782L4.61893 3.30789L4.93496 2.92043ZM4.9529 2.93506L4.63686 3.32253L4.63955 3.32469L4.9529 2.93506ZM6.57375 2.26368L7.07084 2.31762L7.07119 2.3142L6.57375 2.26368ZM6.57608 2.24079L7.07352 2.29131L7.07353 2.29118L6.57608 2.24079ZM6.57737 2.22803L6.08014 2.17541L6.07991 2.17764L6.57737 2.22803ZM7.56607 1.33327L7.56542 0.833264L7.56319 0.833277L7.56607 1.33327ZM7.57889 1.33325V0.833252L7.57825 0.833252L7.57889 1.33325ZM8.42135 1.33325L8.422 0.833252H8.42135V1.33325ZM8.43433 1.33327L8.43724 0.833272L8.43498 0.833269L8.43433 1.33327ZM9.92171 2.19048L9.9204 2.17756L8.9255 2.27835L8.92681 2.29127L9.92171 2.19048ZM9.92405 2.21351L9.9217 2.19035L8.92682 2.2914L8.92917 2.31456L9.92405 2.21351ZM10.7341 2.54571C10.4262 2.79326 9.96635 2.60279 9.92369 2.21004L8.92953 2.31803C9.05752 3.49627 10.437 4.06769 11.3607 3.32504L10.7341 2.54571ZM10.7494 2.5332L10.7314 2.54791L11.3634 3.32285L11.3814 3.30814L10.7494 2.5332ZM10.7593 2.52508L10.7493 2.53328L11.3815 3.30806L11.3916 3.29986L10.7593 2.52508ZM12.7587 2.62329C12.2153 2.08624 11.3552 2.04334 10.7611 2.52366L11.3898 3.30128C11.5878 3.14118 11.8746 3.15548 12.0557 3.33449L12.7587 2.62329ZM12.7695 2.63404L12.7603 2.62488L12.0541 3.3329L12.0633 3.34206L12.7695 2.63404ZM13.3656 3.23014L12.7699 2.6345L12.0628 3.3416L12.6584 3.93725L13.3656 3.23014ZM13.3752 3.23979L13.366 3.23059L12.658 3.9368L12.6672 3.94599L13.3752 3.23979ZM13.4764 5.23895C13.9567 4.64488 13.9138 3.78473 13.3768 3.2414L12.6656 3.94438C12.8446 4.12549 12.8589 4.41221 12.6988 4.61023L13.4764 5.23895ZM13.4668 5.25077L13.475 5.24071L12.7002 4.60847L12.692 4.61853L13.4668 5.25077ZM13.4521 5.26871L13.4669 5.25066L12.6919 4.61865L12.6772 4.6367L13.4521 5.26871ZM13.79 6.07639C13.3973 6.03373 13.2068 5.57389 13.4543 5.26601L12.675 4.6394C11.9324 5.56304 12.5038 6.94255 13.682 7.07054L13.79 6.07639ZM13.8097 6.07838L13.7865 6.07602L13.6855 7.07091L13.7087 7.07326L13.8097 6.07838ZM13.8226 6.07968L13.8096 6.07837L13.7088 7.07327L13.7217 7.07458L13.8226 6.07968ZM15.1668 7.56283C15.1623 6.7989 14.5845 6.16036 13.8248 6.07991L13.7195 7.07435C13.9727 7.10117 14.1653 7.31402 14.1668 7.56866L15.1668 7.56283ZM15.1668 7.57809L15.1668 7.56508L14.1668 7.5664L14.1668 7.57941L15.1668 7.57809ZM15.1668 8.42117V7.57875H14.1668V8.42117H15.1668ZM15.1668 8.43466L15.1668 8.4218L14.1668 8.42054L14.1668 8.4334L15.1668 8.43466ZM13.8247 9.91994C14.5845 9.83953 15.1624 9.20091 15.1668 8.43691L14.1668 8.43115C14.1654 8.68581 13.9727 8.89869 13.7194 8.92549L13.8247 9.91994ZM13.8097 9.92146L13.8225 9.92016L13.7217 8.92526L13.7088 8.92656L13.8097 9.92146ZM13.7869 9.92377L13.8098 9.92145L13.7087 8.92657L13.6859 8.92889L13.7869 9.92377ZM13.4546 10.7339C13.207 10.426 13.3975 9.96603 13.7903 9.92342L13.6825 8.92925C12.504 9.0571 11.9325 10.4369 12.6754 11.3606L13.4546 10.7339ZM13.467 10.749L13.4525 10.7312L12.6775 11.3632L12.692 11.381L13.467 10.749ZM13.4749 10.7587L13.4668 10.7488L12.6921 11.3811L12.7002 11.391L13.4749 10.7587ZM13.3767 12.7582C13.9139 12.2149 13.9568 11.3546 13.4764 10.7605L12.6988 11.3893C12.8589 11.5873 12.8446 11.8741 12.6656 12.0552L13.3767 12.7582ZM13.3661 12.7689L13.3751 12.7598L12.6671 12.0536L12.6581 12.0627L13.3661 12.7689ZM12.7699 13.365L13.3657 12.7693L12.6586 12.0622L12.0628 12.6579L12.7699 13.365ZM12.7603 13.3747L12.7695 13.3655L12.0633 12.6575L12.0541 12.6666L12.7603 13.3747ZM10.7611 13.4759C11.3552 13.9562 12.2154 13.9133 12.7587 13.3763L12.0557 12.665C11.8746 12.8441 11.5879 12.8584 11.3899 12.6983L10.7611 13.4759ZM10.7493 13.4663L10.7594 13.4745L11.3916 12.6997L11.3815 12.6915L10.7493 13.4663ZM10.7314 13.4516L10.7494 13.4663L11.3815 12.6914L11.3634 12.6767L10.7314 13.4516ZM9.92372 13.7895C9.96638 13.3968 10.4262 13.2063 10.7341 13.4538L11.3607 12.6745C10.4371 11.9319 9.05755 12.5033 8.92956 13.6815L9.92372 13.7895ZM9.92172 13.8093L9.92408 13.786L8.9292 13.685L8.92683 13.7083L9.92172 13.8093ZM9.92039 13.8224L9.92173 13.8092L8.92682 13.7084L8.92549 13.7215L9.92039 13.8224ZM8.43736 15.1666C9.2012 15.1621 9.83967 14.5843 9.92016 13.8246L8.92572 13.7193C8.8989 13.9725 8.68607 14.1651 8.43146 14.1666L8.43736 15.1666ZM8.4219 15.1666L8.43506 15.1666L8.43376 14.1666L8.4206 14.1666L8.4219 15.1666ZM7.57899 15.1666H8.42125V14.1666H7.57899V15.1666ZM7.56533 15.1666L7.57833 15.1666L7.57965 14.1666L7.56665 14.1666L7.56533 15.1666ZM6.08016 13.8245C6.1606 14.5842 6.79915 15.1621 7.56307 15.1666L7.5689 14.1666C7.31426 14.1651 7.10141 13.9725 7.0746 13.7192L6.08016 13.8245ZM6.07861 13.8093L6.07992 13.8223L7.07483 13.7215L7.07352 13.7086L6.07861 13.8093ZM6.07627 13.7863L6.07863 13.8095L7.07351 13.7084L7.07115 13.6852L6.07627 13.7863ZM5.26626 13.4541C5.57414 13.2065 6.03397 13.397 6.07663 13.7898L7.07078 13.6817C6.94278 12.5035 5.56329 11.9321 4.63966 12.6747L5.26626 13.4541ZM5.25089 13.4666L5.26897 13.4519L4.63695 12.6769L4.61887 12.6917L5.25089 13.4666ZM5.24091 13.4748L5.25099 13.4665L4.61877 12.6918L4.60868 12.7L5.24091 13.4748ZM3.24163 13.3766C3.78496 13.9136 4.64509 13.9565 5.23915 13.4762L4.61044 12.6986C4.41242 12.8587 4.12571 12.8444 3.9446 12.6654L3.24163 13.3766ZM3.23081 13.3658L3.24002 13.375L3.94621 12.667L3.93699 12.6578L3.23081 13.3658ZM2.63472 12.7697L3.23035 13.3653L3.93746 12.6582L3.34183 12.0626L2.63472 12.7697ZM2.62509 12.76L2.63427 12.7692L3.34228 12.0631L3.3331 12.0539L2.62509 12.76ZM2.52386 10.7609C2.04356 11.355 2.08646 12.2151 2.62349 12.7584L3.3347 12.0555C3.15569 11.8744 3.14139 11.5876 3.30149 11.3896L2.52386 10.7609ZM2.53351 10.7491L2.52529 10.7591L3.30007 11.3914L3.30829 11.3813L2.53351 10.7491ZM2.54815 10.7311L2.53343 10.7492L3.30837 11.3812L3.32309 11.3631L2.54815 10.7311ZM2.21028 9.92344C2.60303 9.9661 2.7935 10.4259 2.54596 10.7338L3.32529 11.3604C4.06793 10.4368 3.49651 9.05728 2.31828 8.92929L2.21028 9.92344ZM2.19059 9.92145L2.21375 9.92381L2.31481 8.92893L2.29164 8.92657L2.19059 9.92145ZM2.1778 9.92016L2.19072 9.92147L2.29152 8.92656L2.2786 8.92525L2.1778 9.92016ZM0.833521 8.43699C0.837968 9.20093 1.41585 9.83949 2.17556 9.91993L2.28085 8.92548C2.02762 8.89867 1.83499 8.68582 1.8335 8.43117L0.833521 8.43699ZM0.833497 8.42176L0.833513 8.43474L1.83351 8.43343L1.8335 8.42045L0.833497 8.42176ZM0.833496 7.57882L0.833496 8.4211H1.8335L1.8335 7.57882H0.833496ZM0.833514 7.56503L0.833497 7.57816L1.8335 7.57947L1.83351 7.56634L0.833514 7.56503ZM2.17546 6.07992C1.41583 6.1604 0.838019 6.79888 0.833522 7.56274L1.8335 7.56863C1.835 7.31401 2.02761 7.10118 2.28082 7.07436L2.17546 6.07992ZM2.19079 6.07836L2.17773 6.07969L2.27855 7.07459L2.29161 7.07327L2.19079 6.07836ZM2.21409 6.07599L2.19066 6.07838L2.29174 7.07325L2.31517 7.07087L2.21409 6.07599ZM2.54624 5.26603C2.79373 5.57389 2.60328 6.03367 2.21058 6.07636L2.31867 7.0705C3.49676 6.94242 4.0681 5.5631 3.32563 4.63949L2.54624 5.26603ZM2.53354 5.25047L2.54846 5.26877L3.32341 4.63675L3.30849 4.61846L2.53354 5.25047ZM2.52525 5.24032L2.53362 5.25057L3.30841 4.61836L3.30005 4.60811L2.52525 5.24032ZM2.62342 3.24121C2.08651 3.78451 2.04362 4.64451 2.5238 5.23853L3.3015 4.60989C3.14144 4.41188 3.15573 4.12521 3.3347 3.94411L2.62342 3.24121ZM2.63436 3.23023L2.62504 3.23958L3.33308 3.94574L3.34241 3.93639L2.63436 3.23023ZM3.23038 2.63421L2.63483 3.22976L3.34194 3.93686L3.93749 3.34132L3.23038 2.63421ZM3.24006 2.62456L3.23084 2.63375L3.93702 3.34178L3.94623 3.33259L3.24006 2.62456ZM5.23918 2.52334C4.64512 2.04304 3.78499 2.08594 3.24166 2.62297L3.94463 3.33419C4.12574 3.15518 4.41245 3.14088 4.61047 3.30098L5.23918 2.52334ZM5.25107 2.53303L5.24094 2.52476L4.60871 3.29955L4.61885 3.30782L5.25107 2.53303ZM5.26892 2.54759L5.25099 2.53296L4.61893 3.30789L4.63687 3.32252L5.26892 2.54759ZM6.07667 2.20973C6.03404 2.60253 5.57413 2.79303 5.26624 2.54542L4.63955 3.32469C5.56322 4.06751 6.94295 3.49601 7.07083 2.31762L6.07667 2.20973ZM6.07863 2.19027L6.07631 2.21316L7.07119 2.3142L7.07352 2.29131L6.07863 2.19027ZM6.07991 2.17764L6.07862 2.1904L7.07353 2.29118L7.07482 2.27842L6.07991 2.17764ZM7.56319 0.833277C6.79917 0.837671 6.16054 1.41563 6.08014 2.17542L7.07459 2.28064C7.10139 2.02738 7.31427 1.83472 7.56894 1.83326L7.56319 0.833277ZM7.57825 0.833252L7.56542 0.833269L7.56671 1.83327L7.57954 1.83325L7.57825 0.833252ZM8.42135 0.833252H7.57889V1.83325H8.42135V0.833252ZM8.43498 0.833269L8.422 0.833252L8.42069 1.83325L8.43368 1.83327L8.43498 0.833269ZM9.92017 2.17531C9.83973 1.41561 9.20118 0.837724 8.43724 0.833277L8.43142 1.83326C8.68606 1.83474 8.89892 2.02737 8.92573 2.28061L9.92017 2.17531ZM10.1668 7.99992C10.1668 9.19654 9.19678 10.1666 8.00016 10.1666V11.1666C9.74907 11.1666 11.1668 9.74882 11.1668 7.99992H10.1668ZM8.00016 5.83325C9.19678 5.83325 10.1668 6.8033 10.1668 7.99992H11.1668C11.1668 6.25102 9.74907 4.83325 8.00016 4.83325V5.83325ZM5.8335 7.99992C5.8335 6.8033 6.80355 5.83325 8.00016 5.83325V4.83325C6.25126 4.83325 4.8335 6.25102 4.8335 7.99992H5.8335ZM8.00016 10.1666C6.80355 10.1666 5.8335 9.19654 5.8335 7.99992H4.8335C4.8335 9.74882 6.25126 11.1666 8.00016 11.1666V10.1666Z" fill="#2C3E50"/>
</svg>
