<svg width="24" height="6" viewBox="0 0 24 6" fill="none" xmlns="http://www.w3.org/2000/svg">
<path d="M11.9998 0.375C10.5373 0.375 9.37481 1.575 9.37481 3C9.37481 4.4625 10.5748 5.625 11.9998 5.625C13.4623 5.625 14.6248 4.425 14.6248 3C14.6248 1.5375 13.4623 0.375 11.9998 0.375ZM11.9998 4.3125C11.2873 4.3125 10.6873 3.7125 10.6873 3C10.6873 2.2875 11.2873 1.6875 11.9998 1.6875C12.7123 1.6875 13.3123 2.2875 13.3123 3C13.3123 3.7125 12.7123 4.3125 11.9998 4.3125ZM20.8873 0.375C19.4248 0.375 18.2623 1.575 18.2623 3C18.2623 4.4625 19.4623 5.625 20.8873 5.625C22.3498 5.625 23.5123 4.425 23.5123 3C23.5498 1.5375 22.3498 0.375 20.8873 0.375ZM20.8873 4.3125C20.1748 4.3125 19.5748 3.7125 19.5748 3C19.5748 2.2875 20.1748 1.6875 20.8873 1.6875C21.5998 1.6875 22.1998 2.2875 22.1998 3C22.1998 3.7125 21.6373 4.3125 20.8873 4.3125ZM3.1123 0.375C1.6498 0.375 0.487305 1.575 0.487305 3C0.487305 4.4625 1.6873 5.625 3.1123 5.625C4.5748 5.625 5.7373 4.425 5.7373 3C5.7373 1.5375 4.5373 0.375 3.1123 0.375ZM3.1123 4.3125C2.3998 4.3125 1.7998 3.7125 1.7998 3C1.7998 2.2875 2.3998 1.6875 3.1123 1.6875C3.8248 1.6875 4.4248 2.2875 4.4248 3C4.4248 3.7125 3.8248 4.3125 3.1123 4.3125Z" fill="#2C3E50"/>
</svg>
