<svg width="10" height="10" viewBox="0 0 10 10" fill="none" xmlns="http://www.w3.org/2000/svg">
<path fill-rule="evenodd" clip-rule="evenodd" d="M8.21195 1.16549C7.87911 1.23485 7.43366 1.38247 6.78327 1.59926L2.44398 3.04569C2.36488 3.07206 2.3343 3.08228 2.32123 3.08694C0.992531 3.56038 0.992531 5.43946 2.32123 5.9129C2.3343 5.91756 2.36488 5.92779 2.44398 5.95415L2.47764 5.96545C3.20955 6.21564 3.78444 6.79052 4.03462 7.52243L4.04592 7.5561C4.07229 7.63519 4.08251 7.66577 4.08717 7.67884C4.56061 9.00754 6.43969 9.00754 6.91313 7.67884C6.91779 7.66577 6.92802 7.63519 6.95438 7.5561L8.40081 3.21681C8.61761 2.56641 8.76522 2.12096 8.83458 1.78812C8.90546 1.44799 8.86454 1.35178 8.84774 1.32379C8.80553 1.25343 8.74664 1.19455 8.67628 1.15233C8.6483 1.13553 8.55209 1.09461 8.21195 1.16549ZM8.00795 0.186523C8.40442 0.103905 8.82441 0.0749877 9.19083 0.294867C9.4019 0.421524 9.57855 0.598178 9.70521 0.809245C9.92509 1.17566 9.89617 1.59566 9.81355 1.99213C9.73082 2.38913 9.56374 2.89035 9.35993 3.50174L9.34949 3.53304L7.90306 7.87232L7.89947 7.8831C7.87765 7.94856 7.86379 7.99016 7.85512 8.01449C7.06605 10.229 3.93425 10.229 3.14518 8.01449C3.13653 7.9902 3.12269 7.94868 3.10093 7.88339L3.09724 7.87232L3.08838 7.84588C2.93827 7.40674 2.59334 7.06181 2.15419 6.9117L2.12775 6.90284L2.11669 6.89915C2.05139 6.87739 2.00987 6.86355 1.98559 6.85489C-0.22892 6.06582 -0.22892 2.93403 1.98559 2.14495C2.00989 2.13629 2.05146 2.12244 2.11684 2.10065L2.12775 2.09701L6.46704 0.650582L6.49831 0.640159C7.10971 0.436343 7.61094 0.269255 8.00795 0.186523Z" fill="#2C3E50"/>
</svg>
