<svg width="36" height="36" viewBox="0 0 36 36" fill="none" xmlns="http://www.w3.org/2000/svg">
<rect width="36" height="36" rx="18" fill="#E0E0E0"/>
<path fill-rule="evenodd" clip-rule="evenodd" d="M24.2099 11.191C23.7862 11.2664 23.2071 11.458 22.363 11.7394L15.8721 13.903C15.05 14.177 14.4518 14.3766 14.0174 14.5461C13.5659 14.7222 13.3678 14.8388 13.2849 14.9185C12.6707 15.5088 12.6707 16.4914 13.2849 17.0817C13.3678 17.1614 13.5659 17.278 14.0174 17.4541C14.4518 17.6236 15.05 17.8232 15.8721 18.0972C15.8851 18.1015 15.898 18.1058 15.9107 18.1101C16.2027 18.2073 16.4043 18.2745 16.5873 18.3713C17.031 18.6059 17.3938 18.9687 17.6285 19.4125C17.7253 19.5955 17.7924 19.7971 17.8897 20.089C17.8939 20.1018 17.8982 20.1146 17.9026 20.1277C18.1766 20.9498 18.3761 21.5479 18.5457 21.9824C18.7218 22.4338 18.8384 22.6319 18.9181 22.7149C19.5083 23.3291 20.491 23.3291 21.0812 22.7149C21.1609 22.6319 21.2775 22.4338 21.4537 21.9824C21.6232 21.5479 21.8227 20.9498 22.0967 20.1277L24.2604 13.6367C24.5418 12.7927 24.7334 12.2136 24.8088 11.7899C24.8848 11.3625 24.8098 11.2654 24.7721 11.2277C24.7343 11.19 24.6373 11.115 24.2099 11.191ZM24.0348 10.2064C24.5445 10.1158 25.0799 10.1213 25.4792 10.5206C25.8785 10.9199 25.884 11.4552 25.7933 11.965C25.7035 12.4698 25.4871 13.1189 25.2227 13.9121L25.2091 13.953L23.0454 20.4439L23.0405 20.4588C22.7724 21.263 22.565 21.8851 22.3853 22.3459C22.211 22.7925 22.0352 23.1654 21.8023 23.4078C20.8185 24.4315 19.1808 24.4315 18.1971 23.4078C17.9642 23.1654 17.7883 22.7925 17.6141 22.3459C17.4343 21.8851 17.2269 21.263 16.9589 20.4588L16.9539 20.4439C16.8388 20.0988 16.7979 19.9809 16.7445 19.88C16.6037 19.6137 16.386 19.3961 16.1198 19.2553C16.0189 19.2019 15.901 19.1609 15.5558 19.0459L15.5409 19.0409C14.7368 18.7728 14.1146 18.5655 13.6539 18.3857C13.2073 18.2115 12.8343 18.0356 12.592 17.8027C11.5683 16.819 11.5683 15.1812 12.592 14.1975C12.8343 13.9646 13.2073 13.7888 13.6539 13.6145C14.1147 13.4347 14.7368 13.2273 15.541 12.9593L15.5558 12.9543L22.0468 10.7907L22.0877 10.7771C22.8808 10.5126 23.53 10.2962 24.0348 10.2064Z" fill="#2C3E50"/>
</svg>
