<svg width="16" height="16" viewBox="0 0 16 16" fill="none" xmlns="http://www.w3.org/2000/svg">
<path d="M5.33301 12.6189C6.14378 13.087 7.06348 13.3334 7.99967 13.3334C8.93587 13.3334 9.85557 13.087 10.6663 12.6189C11.4771 12.1508 12.1504 11.4775 12.6185 10.6667C13.0866 9.85598 13.333 8.93628 13.333 8.00008C13.333 7.06389 13.0866 6.14418 12.6185 5.33341C12.1504 4.52265 11.4771 3.84938 10.6663 3.38128C9.85557 2.91318 8.93587 2.66675 7.99968 2.66675C7.06348 2.66675 6.14378 2.91318 5.33301 3.38128" stroke="#2C3E50"/>
<path d="M1.33301 8.00008L0.942573 7.68773L0.692695 8.00008L0.942573 8.31243L1.33301 8.00008ZM7.33301 8.50008C7.60915 8.50008 7.83301 8.27622 7.83301 8.00008C7.83301 7.72394 7.60915 7.50008 7.33301 7.50008V8.50008ZM3.60924 4.3544L0.942573 7.68773L1.72344 8.31243L4.39011 4.9791L3.60924 4.3544ZM0.942573 8.31243L3.60924 11.6458L4.39011 11.0211L1.72344 7.68773L0.942573 8.31243ZM1.33301 8.50008H7.33301V7.50008H1.33301V8.50008Z" fill="#2C3E50"/>
</svg>
