<svg width="16" height="16" viewBox="0 0 12 13" fill="none" xmlns="http://www.w3.org/2000/svg">
<path d="M5.15374 4.10993C5.47478 3.30959 5.6353 2.90942 5.89609 2.85396C5.96466 2.83937 6.03553 2.83937 6.10411 2.85396C6.3649 2.90942 6.52541 3.30959 6.84645 4.10993C7.02902 4.56507 7.1203 4.79264 7.29111 4.94742C7.33902 4.99084 7.39102 5.02951 7.4464 5.06288C7.64382 5.18187 7.89026 5.20394 8.38316 5.24808C9.21754 5.32281 9.63473 5.36017 9.76213 5.59804C9.78851 5.64731 9.80645 5.70065 9.8152 5.75585C9.85744 6.02236 9.55074 6.30139 8.93735 6.85945L8.76701 7.01442C8.48024 7.27532 8.33685 7.40577 8.25391 7.56858C8.20416 7.66623 8.17081 7.77141 8.15517 7.87989C8.12912 8.06073 8.17111 8.24998 8.25508 8.62847L8.28509 8.7637C8.43569 9.44247 8.51098 9.78185 8.41699 9.94867C8.33255 10.0985 8.17703 10.1944 8.00523 10.2027C7.81397 10.2118 7.54448 9.99219 7.00549 9.55299C6.65039 9.26363 6.47283 9.11895 6.27573 9.06243C6.0956 9.01079 5.90459 9.01079 5.72447 9.06243C5.52736 9.11895 5.34981 9.26363 4.99471 9.55299C4.45572 9.99219 4.18622 10.2118 3.99496 10.2027C3.82316 10.1944 3.66764 10.0985 3.58321 9.94867C3.48921 9.78185 3.56451 9.44247 3.71511 8.7637L3.74511 8.62847C3.82909 8.24998 3.87108 8.06073 3.84502 7.87989C3.82939 7.77141 3.79603 7.66623 3.74628 7.56858C3.66335 7.40577 3.51996 7.27532 3.23319 7.01442L3.06285 6.85945C2.44946 6.30139 2.14276 6.02236 2.185 5.75585C2.19374 5.70065 2.21168 5.64731 2.23807 5.59804C2.36547 5.36017 2.78266 5.32281 3.61704 5.24808C4.10993 5.20394 4.35638 5.18187 4.5538 5.06288C4.60917 5.02951 4.66118 4.99084 4.70909 4.94742C4.87989 4.79264 4.97118 4.56507 5.15374 4.10993Z" fill="#B76E79" stroke="#B76E79" stroke-width="2"/>
</svg>
