<svg width="16" height="16" viewBox="0 0 16 16" fill="none" xmlns="http://www.w3.org/2000/svg">
<path d="M6.76241 4.41827C7.28681 3.11094 7.54901 2.45728 7.9999 2.45728C8.45078 2.45728 8.71298 3.11094 9.23739 4.41828L9.26181 4.47915C9.55807 5.21773 9.7062 5.58702 10.0081 5.81148C10.31 6.03594 10.7063 6.07143 11.4989 6.14241L11.6422 6.15525C12.9394 6.27142 13.588 6.32951 13.7268 6.74217C13.8656 7.15482 13.3839 7.59305 12.4205 8.46951L12.099 8.76203C11.6114 9.2057 11.3675 9.42754 11.2539 9.7183C11.2327 9.77253 11.215 9.8281 11.2011 9.88464C11.1264 10.1877 11.1978 10.5096 11.3406 11.1532L11.3851 11.3536C11.6475 12.5365 11.7787 13.1279 11.5496 13.383C11.464 13.4783 11.3527 13.547 11.2291 13.5807C10.8983 13.671 10.4287 13.2883 9.48937 12.5229C8.87259 12.0203 8.5642 11.769 8.21013 11.7125C8.07086 11.6902 7.92894 11.6902 7.78967 11.7125C7.4356 11.769 7.12721 12.0203 6.51043 12.5229C5.57113 13.2883 5.10148 13.671 4.77068 13.5807C4.64706 13.547 4.53579 13.4783 4.45018 13.383C4.22106 13.1279 4.35228 12.5365 4.61473 11.3536L4.65918 11.1532C4.80199 10.5096 4.87339 10.1877 4.79869 9.88464C4.78475 9.8281 4.76713 9.77253 4.74593 9.7183C4.63228 9.42754 4.38844 9.2057 3.90077 8.76203L3.57925 8.46951C2.61589 7.59305 2.13421 7.15482 2.27299 6.74217C2.41178 6.32951 3.06038 6.27142 4.35759 6.15525L4.50088 6.14241C5.29349 6.07143 5.6898 6.03594 5.9917 5.81148C6.2936 5.58702 6.44173 5.21773 6.73799 4.47915L6.76241 4.41827Z" stroke="#2C3E50"/>
</svg>
