<svg width="36" height="35" viewBox="0 0 36 35" fill="none" xmlns="http://www.w3.org/2000/svg">
<path d="M14.2877 6.75507C15.8609 2.83307 16.6475 0.87207 18.0002 0.87207C19.3528 0.87207 20.1394 2.83307 21.7127 6.75507L21.7859 6.9377C22.6747 9.15343 23.1191 10.2613 24.0248 10.9347C24.9305 11.6081 26.1194 11.7145 28.4972 11.9275L28.9271 11.966C32.8187 12.3145 34.7645 12.4888 35.1809 13.7267C35.5973 14.9647 34.1522 16.2794 31.2621 18.9088L30.2976 19.7863C28.8346 21.1174 28.1031 21.7829 27.7621 22.6551C27.6985 22.8178 27.6456 22.9845 27.6038 23.1542C27.3797 24.0635 27.5939 25.0289 28.0223 26.9599L28.1557 27.5609C28.943 31.1096 29.3367 32.8839 28.6494 33.6493C28.3925 33.9352 28.0587 34.1412 27.6879 34.2423C26.6955 34.5131 25.2865 33.365 22.4686 31.0689C20.6183 29.5611 19.6931 28.8072 18.6309 28.6376C18.2131 28.5709 17.7873 28.5709 17.3695 28.6376C16.3073 28.8072 15.3821 29.5611 13.5318 31.0689C10.7139 33.365 9.30492 34.5131 8.31252 34.2423C7.94168 34.1412 7.60786 33.9352 7.35101 33.6493C6.66366 32.8839 7.05733 31.1096 7.84468 27.5609L7.97803 26.9599C8.40645 25.0289 8.62066 24.0635 8.39655 23.1542C8.35474 22.9845 8.30187 22.8178 8.23827 22.6551C7.89732 21.7829 7.16581 21.1174 5.7028 19.7863L4.73824 18.9088C1.84815 16.2794 0.403108 14.9647 0.819465 13.7267C1.23582 12.4888 3.18164 12.3145 7.07326 11.966L7.50314 11.9275C9.88097 11.7145 11.0699 11.6081 11.9756 10.9347C12.8813 10.2613 13.3257 9.15343 14.2145 6.9377L14.2877 6.75507Z" fill="white" stroke="#B76E79"/>
</svg>
