<svg width="20" height="20" viewBox="0 0 20 20" fill="none" xmlns="http://www.w3.org/2000/svg">
<path d="M18.75 8.75H16.7188L15.9563 6.08125C15.9199 5.95005 15.8415 5.83439 15.7332 5.75199C15.6248 5.66958 15.4924 5.62498 15.3562 5.625H11.25V3.75C11.25 3.40625 10.9688 3.125 10.625 3.125H1.25C0.90625 3.125 0.625 3.40625 0.625 3.75V14.375C0.625 14.7188 0.90625 15 1.25 15H3.20625C3.45625 16.1125 4.4375 16.875 5.625 16.875C6.8125 16.875 7.79375 16.1125 8.04375 15H12.5812C12.575 14.975 12.575 14.9562 12.5688 14.9312C12.6944 15.482 13.0034 15.9738 13.4451 16.3261C13.8868 16.6784 14.435 16.8702 15 16.8702C15.565 16.8702 16.1132 16.6784 16.5549 16.3261C16.9966 15.9738 17.3056 15.482 17.4312 14.9312C17.425 14.9562 17.425 14.975 17.4188 15H18.75C19.0938 15 19.375 14.7188 19.375 14.375V9.375C19.375 9.03125 19.0938 8.75 18.75 8.75ZM5.625 15.625C4.9375 15.625 4.375 15.0625 4.375 14.375C4.375 13.6875 4.9375 13.125 5.625 13.125C6.3125 13.125 6.875 13.6875 6.875 14.375C6.875 15.0625 6.3125 15.625 5.625 15.625ZM10 13.75H8.04375C7.79375 12.6375 6.8125 11.875 5.625 11.875C4.4375 11.875 3.45625 12.6375 3.20625 13.75H1.875V4.375H10V13.75ZM15 15.625C14.3125 15.625 13.75 15.0625 13.75 14.375C13.75 13.6875 14.3125 13.125 15 13.125C15.6875 13.125 16.25 13.6875 16.25 14.375C16.25 15.0625 15.6875 15.625 15 15.625ZM18.125 13.75H17.4188C17.425 13.775 17.425 13.7938 17.4312 13.8188C17.3056 13.268 16.9966 12.7762 16.5549 12.4239C16.1132 12.0716 15.565 11.8798 15 11.8798C14.435 11.8798 13.8868 12.0716 13.4451 12.4239C13.0034 12.7762 12.6944 13.268 12.5688 13.8188C12.575 13.7938 12.575 13.775 12.5812 13.75H11.25V6.875H14.8875L15.65 9.54375C15.725 9.8125 15.9688 10 16.25 10H18.125V13.75Z" fill="#2C3E50"/>
</svg>
