<svg width="13" height="12" viewBox="0 0 13 12" fill="none" xmlns="http://www.w3.org/2000/svg">
<g clip-path="url(#clip0_2232_3146)">
<path fill-rule="evenodd" clip-rule="evenodd" d="M4.3232 5.70566V10.2921H5.38161V5.70566H7.49845V10.2921H8.55686V5.70566H10.6737V10.2921H11.3793C11.5664 10.2921 11.7459 10.3665 11.8782 10.4988C12.0106 10.6311 12.0849 10.8106 12.0849 10.9977V11.7033H0.795143V10.9977C0.795143 10.8106 0.869484 10.6311 1.00181 10.4988C1.13414 10.3665 1.31361 10.2921 1.50075 10.2921H2.20637V5.70566H4.3232ZM6.44003 0.413574C9.74299 2.22841 11.507 3.20074 11.7321 3.33057C11.8677 3.40881 11.9735 3.52994 12.0327 3.67489C12.0919 3.81983 12.1013 3.98036 12.0592 4.13119C12.0172 4.28202 11.9262 4.41459 11.8005 4.50801C11.6749 4.60144 11.5217 4.65042 11.3652 4.64724H1.51487C1.35832 4.65042 1.20516 4.60144 1.07951 4.50801C0.95386 4.41459 0.862853 4.28202 0.820821 4.13119C0.778789 3.98036 0.788119 3.81983 0.847343 3.67489C0.906567 3.52994 1.01232 3.40881 1.14795 3.33057C1.37374 3.20074 3.13777 2.22841 6.44003 0.413574Z" fill="#0270DE"/>
</g>
<defs>
<clipPath id="clip0_2232_3146">
<rect width="11.2898" height="11.2898" fill="white" transform="translate(0.79541 0.413574)"/>
</clipPath>
</defs>
</svg>
