<svg width="16" height="16" viewBox="0 0 16 16" fill="none" xmlns="http://www.w3.org/2000/svg">
<ellipse cx="7.99967" cy="5.33341" rx="2.66667" ry="2.66667" stroke="#2C3E50" stroke-linecap="round"/>
<path fill-rule="evenodd" clip-rule="evenodd" d="M8.497 10.183C8.08484 10.156 7.6685 10.1626 7.2551 10.2034C6.13751 10.3137 5.07681 10.6709 4.2091 11.2416C3.34128 11.8124 2.69341 12.5802 2.37792 13.4633C2.28501 13.7233 2.4205 14.0094 2.68055 14.1023C2.94059 14.1952 3.22672 14.0597 3.31962 13.7997C3.55015 13.1544 4.04031 12.5496 4.75862 12.0771C5.47705 11.6046 6.37934 11.2947 7.35336 11.1985C7.40444 11.1935 7.45555 11.1891 7.50669 11.1852C7.70422 10.743 8.0576 10.3856 8.497 10.183Z" fill="#2C3E50"/>
<path d="M12 9.33325L12 14.6666" stroke="#2C3E50" stroke-linecap="round"/>
<path d="M14.667 12L9.33366 12" stroke="#2C3E50" stroke-linecap="round"/>
</svg>
