<svg width="18" height="12" viewBox="0 0 18 12" fill="none" xmlns="http://www.w3.org/2000/svg">
<g clip-path="url(#clip0_2232_1227)">
<path d="M15.8249 0.748779H2.06552C1.28612 0.748779 0.654297 1.3806 0.654297 2.16V10.2745C0.654297 11.0539 1.28612 11.6857 2.06552 11.6857H15.8249C16.6043 11.6857 17.2362 11.0539 17.2362 10.2745V2.16C17.2362 1.3806 16.6043 0.748779 15.8249 0.748779Z" fill="white" stroke="black" stroke-opacity="0.2" stroke-width="0.352805"/>
<path d="M2.44504 4.74582C2.0759 4.54336 1.65462 4.38053 1.18359 4.26753L1.20335 4.17953H3.13459C3.39636 4.18871 3.60877 4.26747 3.67789 4.54562L4.0976 6.54665L4.22618 7.14934L5.40171 4.17953H6.67098L4.78424 8.53008H3.51491L2.44504 4.74582ZM7.60464 8.5347H6.40429L7.15507 4.17953H8.35535L7.60464 8.5347ZM11.956 4.286L11.7928 5.22645L11.6842 5.1802C11.467 5.09214 11.1803 5.00415 10.79 5.01344C10.3161 5.01344 10.1036 5.20329 10.0987 5.38865C10.0987 5.59254 10.3558 5.72691 10.7756 5.92618C11.4672 6.2366 11.788 6.61649 11.7832 7.11227C11.7735 8.01576 10.9535 8.5996 9.694 8.5996C9.1555 8.59492 8.63681 8.48814 8.35529 8.36782L8.52326 7.39018L8.68132 7.45976C9.07154 7.62209 9.32833 7.69142 9.80756 7.69142C10.1531 7.69142 10.5237 7.55693 10.5284 7.26517C10.5284 7.0752 10.3705 6.93609 9.90615 6.72296C9.45179 6.51439 8.8443 6.16696 8.85415 5.54143C8.85927 4.6936 9.694 4.10059 10.8794 4.10059C11.3437 4.10059 11.7192 4.19788 11.956 4.286ZM13.5514 6.99182H14.5491C14.4997 6.77407 14.2724 5.73159 14.2724 5.73159L14.1885 5.35632C14.1293 5.51846 14.0256 5.78257 14.0306 5.77328C14.0306 5.77328 13.6502 6.74162 13.5514 6.99182ZM15.033 4.17953L16.0014 8.53464H14.89C14.89 8.53464 14.7813 8.03424 14.7468 7.88134H13.2056C13.1611 7.99711 12.9537 8.53464 12.9537 8.53464H11.6942L13.4772 4.54088C13.6007 4.25823 13.8183 4.17953 14.1046 4.17953H15.033Z" fill="#1434CB"/>
</g>
<defs>
<clipPath id="clip0_2232_1227">
<rect width="16.9347" height="11.2898" fill="white" transform="translate(0.478027 0.57251)"/>
</clipPath>
</defs>
</svg>
