<svg width="24" height="24" viewBox="0 0 24 24" fill="none" xmlns="http://www.w3.org/2000/svg">
<path fill-rule="evenodd" clip-rule="evenodd" d="M18.2104 5.1905C17.7866 5.26588 17.2076 5.45752 16.3635 5.73887L9.87255 7.90253C9.05049 8.17655 8.45233 8.3761 8.01787 8.54561C7.56641 8.72176 7.36833 8.83833 7.28537 8.91805C6.67115 9.50829 6.67115 10.4909 7.28537 11.0812C7.36833 11.1609 7.56641 11.2775 8.01787 11.4536C8.45233 11.6231 9.05049 11.8227 9.87255 12.0967C9.88562 12.1011 9.8985 12.1053 9.91122 12.1096C10.2032 12.2068 10.4047 12.274 10.5878 12.3708C11.0315 12.6054 11.3943 12.9683 11.629 13.412C11.7258 13.595 11.7929 13.7966 11.8902 14.0885C11.8944 14.1013 11.8987 14.1142 11.9031 14.1272C12.1771 14.9493 12.3766 15.5474 12.5461 15.9819C12.7223 16.4334 12.8389 16.6314 12.9186 16.7144C13.5088 17.3286 14.4915 17.3286 15.0817 16.7144C15.1614 16.6314 15.278 16.4334 15.4542 15.9819C15.6237 15.5474 15.8232 14.9493 16.0972 14.1272L18.2609 7.63623C18.5422 6.7922 18.7339 6.21313 18.8093 5.78939C18.8853 5.36202 18.8103 5.26493 18.7726 5.2272C18.7348 5.18947 18.6377 5.11448 18.2104 5.1905ZM18.0352 4.20596C18.545 4.11527 19.0804 4.12081 19.4797 4.52009C19.879 4.91938 19.8845 5.45474 19.7938 5.96453C19.704 6.46929 19.4876 7.11842 19.2232 7.91157L19.2096 7.95246L17.0459 14.4434L17.041 14.4583C16.7729 15.2625 16.5655 15.8846 16.3858 16.3454C16.2115 16.792 16.0357 17.1649 15.8028 17.4073C14.819 18.431 13.1813 18.431 12.1975 17.4073C11.9647 17.1649 11.7888 16.792 11.6145 16.3454C11.4348 15.8846 11.2274 15.2625 10.9593 14.4583L10.9544 14.4434C10.8393 14.0983 10.7983 13.9804 10.745 13.8795C10.6042 13.6133 10.3865 13.3956 10.1203 13.2548C10.0194 13.2014 9.90147 13.1604 9.55632 13.0454L9.54143 13.0404C8.73724 12.7724 8.11514 12.565 7.65438 12.3852C7.20777 12.211 6.83484 12.0351 6.59248 11.8022C5.56878 10.8185 5.56878 9.18074 6.59248 8.19701C6.83484 7.96412 7.20777 7.78826 7.65438 7.61401C8.11515 7.43424 8.73727 7.22686 9.54148 6.95879L9.55632 6.95384L16.0473 4.79018L16.0882 4.77657C16.8813 4.51216 17.5305 4.29575 18.0352 4.20596Z" fill="#2C3E50"/>
</svg>
